<svg version="1.1" xmlns="http://www.w3.org/2000/svg" xmlns:xlink="http://www.w3.org/1999/xlink" width="71.68641" height="65.4751" viewBox="0,0,71.68641,65.4751"><g transform="translate(-195.75464,-142.23234)"><g data-paper-data="{&quot;isPaintingLayer&quot;:true}" fill-rule="nonzero" stroke="none" stroke-linecap="butt" stroke-linejoin="miter" stroke-miterlimit="10" stroke-dasharray="" stroke-dashoffset="0" style="mix-blend-mode: normal"><path d="" fill="#000000" stroke-width="NaN"/><path d="" fill="#000000" stroke-width="NaN"/><path d="" fill="#000000" stroke-width="NaN"/><path d="" fill="#000000" stroke-width="NaN"/><path d="" fill="#000000" stroke-width="NaN"/><path d="M240,152.29255c15.15527,0 27.44104,12.40505 27.44104,27.70745c0,15.3024 -12.28577,27.70745 -27.44104,27.70745c-15.15527,0 -27.44104,-12.40505 -27.44104,-27.70745c0,-15.3024 12.28577,-27.70745 27.44104,-27.70745z" fill="#000000" stroke-width="0"/><path d="M195.78594,142.3721c0.1118,-0.22361 0.33541,-0.1118 0.33541,-0.1118c0.14907,0.07454 0.48401,0.24201 0.63308,0.31654c0,0 0.22361,0.1118 0.1118,0.33541c-0.1118,0.22361 -0.33541,0.1118 -0.33541,0.1118c-0.14907,-0.07454 -0.29814,-0.14907 -0.44721,-0.22361l-0.18587,-0.09294c0,0 -0.22361,-0.1118 -0.1118,-0.33541z" fill="#000000" stroke-width="0.5"/><path d="M226.64662,176.33151c0.02243,0.24899 -0.22656,0.27142 -0.22656,0.27142l-0.28922,0.00706c-1.27661,0.66672 -2.48451,1.31326 -3.6629,2.0974c0.02358,0.5207 0.04985,1.04117 0.07969,1.56131c0.12429,2.16758 0.28123,4.33278 0.29873,6.50405l0.00275,0.34161c0,0 0.00201,0.24999 -0.24798,0.25201c-0.24999,0.00201 -0.25201,-0.24798 -0.25201,-0.24798l-0.00275,-0.34161c-0.01743,-2.16304 -0.1741,-4.32008 -0.29793,-6.47945c-0.02402,-0.41909 -0.04573,-0.8384 -0.06559,-1.25786c-0.16709,0.11772 -0.33369,0.23868 -0.49991,0.36335c0,0 -0.2,0.15 -0.35,-0.05c-0.15,-0.2 0.05,-0.35 0.05,-0.35c0.25656,-0.19242 0.51416,-0.37629 0.77315,-0.55319c-0.10357,-2.3825 -0.15483,-4.76942 -0.2399,-7.15145c0,0 -0.00892,-0.24984 0.24092,-0.25876c0.24984,-0.00892 0.25876,0.24092 0.25876,0.24092c0.08143,2.28017 0.13169,4.56487 0.22681,6.84584c1.11344,-0.72062 2.25636,-1.33251 3.45669,-1.95938l0.47582,-0.06185c0,0 0.24899,-0.02243 0.27142,0.22656z" fill="#ffffff" stroke-width="0.5"/><path d="M228.02678,184.82969c-0.24565,0.04645 -0.29209,-0.1992 -0.29209,-0.1992l-0.00506,-0.02674c-0.36347,-1.97327 -0.27904,-3.93469 -0.33039,-5.97729c-0.14966,-2.95183 -0.61853,-5.86358 -0.61853,-8.9199c0,0 0,-0.25 0.25,-0.25c0.25,0 0.25,0.25 0.25,0.25c0,3.05997 0.44608,5.9421 0.61813,8.89996c0.05076,2.01563 -0.05349,3.9619 0.32209,5.90435l0.00506,0.02674c0,0 0.04645,0.24565 -0.1992,0.29209z" fill="#ffffff" stroke-width="0.5"/><path d="M238.67189,176.62404c0.04645,0.24565 -0.1992,0.2921 -0.1992,0.2921l-0.24398,0.04613c-2.25588,0.42656 -4.60244,0.59754 -6.83294,1.09719c0,0.53224 0,1.06448 0,1.59672c0,1.16667 0,2.33333 0,3.5v0.1617c0,0 0,0.25 -0.25,0.25c-0.25,0 -0.25,-0.25 -0.25,-0.25c0,-1.16667 0,-2.49503 0,-3.6617c0,-0.49282 0,-0.98564 0,-1.47846c-0.00197,0.00049 -0.00394,0.00098 -0.00591,0.00148c0,0 -0.24254,0.06063 -0.30317,-0.1819c-0.06063,-0.24254 0.1819,-0.30317 0.1819,-0.30317c0.04234,-0.01059 0.08474,-0.02104 0.12718,-0.03136c0,-2.33553 0,-4.67106 0,-7.00659c0,0 0,-0.25 0.25,-0.25c0.25,0 0.25,0.25 0.25,0.25c0,2.29711 0,4.59421 0,6.89132c2.2035,-0.48161 4.51617,-0.65602 6.74005,-1.07652l0.24398,-0.04613c0,0 0.24565,-0.04645 0.2921,0.1992z" fill="#ffffff" stroke-width="0.5"/><path d="M235.81374,166.77627c0.0814,0.23638 -0.15498,0.31777 -0.15498,0.31777l-0.03658,0.0126c-1.3255,0.43953 -2.81005,2.00049 -4.02119,2.80792c0,0 -0.20801,0.13868 -0.34669,-0.06934c-0.13868,-0.20801 0.06934,-0.34669 0.06934,-0.34669c1.27175,-0.84784 2.74327,-2.37054 4.13575,-2.86465l0.03658,-0.0126c0,0 0.23638,-0.0814 0.31777,0.15498z" fill="#ffffff" stroke-width="0.5"/><path d="M241.20858,182.05171c0,0.25 -0.25,0.25 -0.25,0.25l-0.43215,0c-2.83362,0 -5.68582,-0.64298 -8.43104,-0.63308c0,0 -0.25,0 -0.25,-0.25c0,-0.25 0.25,-0.25 0.25,-0.25c2.76036,0.00886 5.58674,0.63308 8.43104,0.63308l0.43215,0c0,0 0.25,0 0.25,0.25z" fill="#ffffff" stroke-width="0.5"/><path d="M246.27101,187.78292c-0.03345,0.24775 -0.2812,0.2143 -0.2812,0.2143l-0.51189,-0.08273c-0.96226,-0.48184 -2.93499,-0.9706 -2.63205,-2.12408c1.21572,-3.31191 1.62129,-6.71754 2.45403,-10.11122c0.72685,-2.9317 0.37383,-5.92181 1.11391,-8.88216c0,0 0.06063,-0.24254 0.30317,-0.1819c0.24254,0.06063 0.1819,0.30317 0.1819,0.30317c-0.73982,2.95929 -0.38613,5.94667 -1.11368,8.88121c-0.85428,3.40692 -1.24735,6.83252 -2.46996,10.16319c-0.28036,0.46782 1.81779,1.2199 2.38654,1.5047l0.35493,0.03431c0,0 0.24775,0.03345 0.2143,0.2812z" fill="#ffffff" stroke-width="0.5"/><path d="M250.20602,179.54355c-0.02419,-0.24883 0.22464,-0.27301 0.22464,-0.27301l0.21818,-0.02121c0.2135,-0.01507 0.41781,-0.08429 0.61745,-0.17981c0.10628,-1.60702 0.19198,-3.21595 0.21865,-4.82278c0.04653,-2.80205 0.36104,-5.60781 0.57638,-8.40536c-0.00804,0.00008 -0.01597,0.00012 -0.02377,0.00012c0,0 -0.25,0 -0.25,-0.25c0,-0.25 0.25,-0.25 0.25,-0.25c0.01982,0 0.04021,-0.00021 0.06116,-0.00061c0.00202,-0.02792 0.00402,-0.05583 0.00602,-0.08375c0,0 0.01781,-0.24936 0.26718,-0.23155c0.24936,0.01781 0.23155,0.26718 0.23155,0.26718c-0.00042,0.00594 -0.00085,0.01188 -0.00127,0.01782c0.84014,-0.07014 2.00085,-0.21513 2.54637,0.0569c1.39051,0.69339 1.98416,4.18549 2.75924,5.42411c0.33478,4.40896 -1.5903,6.20871 -5.34829,8.1107c-0.2884,0.14489 -0.54961,0.31266 -0.81379,0.46125c-0.12166,1.79352 -0.26558,3.58443 -0.37665,5.36731c-0.11501,1.81737 -0.03115,3.66217 -0.03115,5.48328l0,0.06766c0,0 0,0.25 -0.25,0.25c-0.25,0 -0.25,-0.25 -0.25,-0.25l0,-0.06766c0,-1.83182 -0.08265,-3.68661 0.03214,-5.51474c0.10768,-1.6896 0.2427,-3.38657 0.35953,-5.08618c-0.1674,0.06399 -0.34272,0.11156 -0.53239,0.13375l-0.21818,0.02121c0,0 -0.24883,0.02419 -0.27301,-0.22464zM252.33439,178.45586c3.60602,-1.82509 5.28339,-3.33844 5.09737,-7.51135c-0.68563,-1.09399 -1.31001,-4.54307 -2.50519,-5.129c-0.4651,-0.22801 -1.57989,-0.07832 -2.36131,-0.00636c-0.21484,2.81092 -0.53361,5.63037 -0.58037,8.4459c-0.02503,1.5062 -0.10262,3.01417 -0.20016,4.5207c0.18259,-0.11264 0.36458,-0.2269 0.54966,-0.31989z" fill="#ffffff" stroke-width="0.5"/></g></g></svg>