<svg version="1.1" xmlns="http://www.w3.org/2000/svg" xmlns:xlink="http://www.w3.org/1999/xlink" width="649.5" height="377.5" viewBox="0,0,649.5,377.5"><g transform="translate(84.75,8.75)"><g data-paper-data="{&quot;isPaintingLayer&quot;:true}" fill-rule="nonzero" stroke-linecap="butt" stroke-linejoin="miter" stroke-miterlimit="10" stroke-dasharray="" stroke-dashoffset="0" style="mix-blend-mode: normal"><text transform="translate(42.5,56.75) scale(1.47508,1.47508)" font-size="40" xml:space="preserve" fill="#000000" fill-rule="nonzero" stroke="none" stroke-width="1" stroke-linecap="butt" stroke-linejoin="miter" stroke-miterlimit="10" stroke-dasharray="" stroke-dashoffset="0" font-family="Sans Serif" font-weight="normal" text-anchor="start" style="mix-blend-mode: normal"><tspan x="0" dy="0">DeciDemal Dash</tspan></text><path d="M564.5,-8.5v377h-649v-377z" data-paper-data="{&quot;index&quot;:null}" fill="#ff00fa" stroke="#ff00fa" stroke-width="0.5"/><path d="M206,316c6.35127,0 11.5,5.37258 11.5,12c0,6.62742 -5.14873,12 -11.5,12c-6.35127,0 -11.5,-5.37258 -11.5,-12c0,-6.62742 5.14873,-12 11.5,-12z" fill="#7f7f7f" stroke="#7f7f7f" stroke-width="0.5"/><path d="M251,317c6.35127,0 11.5,5.37258 11.5,12c0,6.62742 -5.14873,12 -11.5,12c-6.35127,0 -11.5,-5.37258 -11.5,-12c0,-6.62742 5.14873,-12 11.5,-12z" fill="#00ff1b" stroke="#00ff21" stroke-width="0.5"/><text transform="translate(33.5,118.25) scale(1.56176,1.56176)" font-size="40" xml:space="preserve" fill="#000000" fill-rule="nonzero" stroke="none" stroke-width="1" stroke-linecap="butt" stroke-linejoin="miter" stroke-miterlimit="10" stroke-dasharray="" stroke-dashoffset="0" font-family="Sans Serif" font-weight="normal" text-anchor="start" style="mix-blend-mode: normal"><tspan x="0" dy="0">Coming Soon!</tspan></text></g></g></svg>