<svg version="1.1" xmlns="http://www.w3.org/2000/svg" xmlns:xlink="http://www.w3.org/1999/xlink" width="577.0256" height="496.0481" viewBox="0,0,577.0256,496.0481"><g transform="translate(22.81986,70.69109)"><g data-paper-data="{&quot;isPaintingLayer&quot;:true}" fill="#000000" fill-rule="nonzero" stroke="none" stroke-width="0.5" stroke-linecap="butt" stroke-linejoin="miter" stroke-miterlimit="10" stroke-dasharray="" stroke-dashoffset="0" style="mix-blend-mode: normal"><path d="M310.53612,308.52178c1.6719,-2.78591 3.26141,-5.68119 4.90502,-8.50934c1.47709,1.34339 3.62587,2.32053 6.7518,2.32053c7.77672,0 9.5057,-6.04773 9.8901,-8.7369c0.26369,-0.31668 0.60254,-0.60782 0.84332,-0.92322c0.51704,-0.67725 1.02064,-1.36739 1.50068,-2.07324c1.16235,0.47284 2.4337,0.73335 3.76589,0.73335c2.10129,0 4.05121,-0.64811 5.66076,-1.75534l2.22496,-1.4833c3.77557,-1.45612 8.70482,-3.30472 11.97692,-5.02324c7.29086,-3.8292 13.38629,-9.60282 20.25457,-14.1466c1.53549,-1.01582 3.5306,-1.33519 4.87904,-2.58871c5.22797,-4.85991 9.99543,-10.20458 14.67826,-15.59174c6.24743,-7.18708 6.51037,-8.42017 10.26976,-15.93893c1.51824,-3.03648 3.79654,-5.81106 4.54123,-9.11948l2.45389,-3.27185c1.02136,-1.33153 1.71531,-2.92741 1.96148,-4.66727c1.8458,-1.49994 3.67141,-3.02273 5.41787,-4.63602c1.53586,-1.41873 2.73273,-3.20666 4.39367,-4.47667c2.49807,-1.91012 5.4288,-3.18953 8,-5c3.60597,-2.53909 6.98241,-5.396 10.3265,-8.27125c6.88593,-5.92052 12.72281,-13.10489 19.34883,-19.31726c12.82883,-12.02794 24.93179,-24.77817 37.31302,-37.28796c-0.53158,-0.7436 -1.35693,-1.35098 -1.60661,-2.22486c-0.36629,-1.28203 0.36197,-2.71674 0,-4c-0.2994,-1.06142 -1.4697,-1.69494 -1.89356,-2.71308c-1.44338,-3.46715 -1.1943,-4.55009 -1.20875,-7.85386c-0.77076,-6.00257 -2.28383,-11.92785 -2.9928,-17.91118c-0.09643,-0.81381 0.45021,-1.70746 0.11613,-2.45577c-0.61263,-1.37224 -1.98512,-2.27187 -2.79261,-3.53928c-1.3708,-2.15155 -1.7903,-4.797 -3.01869,-7.03291c-1.48657,-2.70584 -3.65766,-4.97886 -5.34001,-7.56752c-1.7182,-2.64381 -2.92261,-5.59353 -4.56924,-8.2825c-1.32219,-2.15915 -3.3068,-3.83691 -4.87447,-5.82501c-2.62207,-3.32529 -4.961,-6.7488 -7.5627,-9.99746c-2.2281,2.45932 -4.60954,4.79639 -6.57429,7.08327l-4.68504,-0.36728c0.38797,0.74626 0.79227,1.48585 1.2172,2.217l0.7346,1.2676c0,0 1.25352,2.16303 -0.90951,3.41655c-2.16303,1.25352 -3.41655,-0.90951 -3.41655,-0.90951l-0.7346,-1.2676c-4.18824,-7.24644 -6.42608,-15.28779 -10.72231,-22.46299c-0.78196,-1.30596 -1.45983,-2.678 -2.32598,-3.92971c-0.57271,-0.82764 -0.97135,-2.37035 -1.97417,-2.28463c-1.14687,0.09802 -1.39789,1.8397 -2.222,2.64329c-1.19327,1.16356 -2.5398,2.15883 -3.8097,3.23824c-6.09174,5.17798 -11.86936,10.22097 -17.28197,16.10424c-3.38528,3.67966 -6.77057,7.35931 -10.15585,11.03897c-3.18103,3.45764 -6.04552,7.29086 -10.08863,9.79481c-1.92266,1.19073 -3.64865,3.50846 -5.90406,3.34245c-1.65531,-0.12184 -1.37602,-3.53732 -2.97125,-3.99572c-1.06175,-0.3051 -1.32488,1.78661 -2.14645,2.52513c-2.47899,2.22839 -5.33333,4 -8,6c-2.5752,1.9314 -5.39144,3.5736 -7.73977,5.77527c-3.01581,2.82746 -5.42098,7.14026 -7.92589,10.42161c-5.05654,6.62389 -10.11308,13.24777 -15.16961,19.87166c-1.90808,2.49775 -4.17886,5.67691 -6.47438,7.85533c-1.71674,1.62916 -3.07773,4.72143 -5.43919,4.56372c-1.55311,-0.10372 -5.87988,-8.04557 -6.74435,-9.53039c-1.63222,-2.80351 -2.961,-5.80529 -4.88422,-8.41777c-1.92322,-2.61248 -4.5084,-4.67358 -6.58684,-7.16435c-0.78207,-0.93721 -1.25543,-2.13856 -2.16284,-2.95501c-0.57658,-0.51878 -0.82904,1.3236 -1.10048,2.05017c-0.58327,1.56127 -1.27158,3.08127 -1.90737,4.6219c-1.27158,3.08127 -2.54316,6.16253 -3.81474,9.2438c-3.80967,9.23152 -7.5101,18.4896 -11.11307,27.80374c-1.20259,3.10884 -2.08307,6.36234 -3.60777,9.32652c-1.11417,2.16607 -1.38976,5.91633 -3.80409,6.23925c-2.41433,0.32292 -3.6658,-3.22309 -5.31006,-5.02022c-3.29076,-3.5967 -6.0043,-8.1487 -8.89799,-12.07584c-2.966,-4.02528 -5.93199,-8.05056 -8.89799,-12.07584c-0.43691,-0.59295 -6.02778,-8.14848 -6.21297,-8.53892c-0.59046,-1.24488 -0.55528,-2.69918 -0.81586,-4.05213c-0.94555,-4.90922 -1.82309,-9.83296 -2.73449,-14.74865c-0.65063,-3.50922 -1.97563,-7.45853 -2.30312,-11.22543c-3.89745,9.27045 -7.54911,18.89708 -12.89225,27.36945l0.43037,0.20253l-2.10519,4.47353c-0.38893,0.87551 -1.26608,1.48607 -2.28584,1.48607c-1.29539,0 -2.36067,-0.98523 -2.48738,-2.24724l-0.24095,-2.11195c-2.14108,-3.71683 -6.18648,-8.61173 -7.11775,-13.19854c-1.12864,2.93767 -3.22267,5.43953 -4.79228,8.17813c-5.78577,10.0948 -11.65924,19.90374 -16.17698,30.63339c-0.7638,1.81402 -4.07546,10.34203 -5.70407,10.69958c-4.79944,1.05371 -7.85026,-9.2429 -9.01347,-11.92347c-3.36233,-7.74833 -6.18785,-15.55108 -8.94069,-23.53433c-1.022,-2.9638 -2.31474,-5.49641 -2.71206,-8.23802c-5.36167,10.10958 -10.25597,20.38526 -15.14866,30.74623c-2.45299,5.19456 -5.59299,10.409 -6.96429,15.99828c-2.4296,9.71841 -4.61339,19.53981 -7.29915,29.1901c-0.61739,2.21834 -3.02663,9.02271 -4.28546,9.27486c-4.18815,0.8389 -6.94625,-6.05672 -8.25136,-8.64385c-5.24432,-10.39584 -10.35283,-20.83342 -15.9431,-31.049c-0.80009,-1.46207 -1.85499,-2.81125 -2.40026,-4.3862c-0.3372,-0.97397 0.84379,-3.09478 -0.18686,-3.08641c-1.03065,0.00837 0.18461,2.10973 -0.13673,3.08904c-0.51963,1.58359 -1.55249,2.94973 -2.32873,4.42459c-7.43379,14.1242 -14.59354,28.56975 -22.91481,42.18921c-1.7379,2.84444 -3.30514,5.80052 -5.2145,8.53282c-1.29771,1.85703 -2.03701,4.54846 -4.14055,5.38974c-3.30257,1.32081 -6.82661,-5.02798 -7.79543,-6.35758c-5.88876,-8.08168 -11.69823,-16.22247 -17.54696,-24.33319c-3.27433,-4.58479 -4.7354,-8.81396 -6.62695,-14.08601c-0.56285,-1.56875 -1.36024,-3.07224 -1.68855,-4.70625c-0.20442,-1.01742 1.13053,-2.8841 0.11789,-3.11103c-1.01264,-0.22693 -0.602,2.03093 -1.22108,2.86381c-1.9885,2.67525 -4.71405,4.71405 -7.07107,7.07107c-10.91841,10.91841 -21.83682,21.83682 -32.75523,32.75523c0.14573,0.64878 0.28942,1.29742 0.4304,1.94593c0,0 0.53107,2.44294 -1.91187,2.97402c-2.44294,0.53107 -2.97402,-1.91187 -2.97402,-1.91187c-1.66763,-7.67108 -3.70479,-15.35764 -5.01896,-23.09631c-1.11004,-6.53663 -1.39076,-13.26108 -2.69173,-19.7607c-2.91599,-14.56824 -7.56348,-29.03234 -11.24041,-43.43794c-1.23657,-4.84468 -2.47314,-9.68935 -3.70971,-14.53403c-0.10589,-0.41487 -2.40996,-9.323 -2.39586,-9.74562c0.0629,-1.88597 0.98981,-3.64201 1.50477,-5.45741c1.36426,-4.80946 2.8092,-9.59811 4.21348,-14.39606c2.10682,-7.19829 3.59503,-15.06821 6.44807,-22.00062c4.42596,-10.75436 10.87158,-20.62453 14.62399,-31.65832c2.69055,-7.88704 5.38111,-15.77408 8.07166,-23.66111c0.13654,-0.40024 3.2596,-9.57709 3.35869,-9.77528c0.0991,-0.1982 5.56653,-8.20289 5.80479,-8.55227c4.50575,-6.6071 8.95276,-12.61326 14.30557,-18.56074c0.26933,-0.29925 0.53883,-0.6038 0.80876,-0.91277c-0.1487,-0.37745 -0.2057,-0.8469 -0.09985,-1.42909l0.00003,-0.00004c0.44721,-2.45967 2.90689,-2.01246 2.90689,-2.01246c0.03322,0.00604 0.06645,0.01208 0.09967,0.01812c4.03004,-4.80434 8.34982,-9.8898 13.76984,-12.54664c0.31553,-0.15467 9.58611,-2.41084 10.21687,-2.56556c4.85574,-1.1911 9.70617,-2.40803 14.56811,-3.57352c1.79058,-0.42923 3.53731,-1.2077 5.37781,-1.26207c4.70835,-0.13907 10.62846,1.89404 15.27869,2.74741c10.97109,2.0133 22.36083,5.22763 33.46834,6.15222c11.40631,0.94947 23.32126,-0.01029 34.77345,-0.01029c11.66667,0 23.33333,0 35,0c4.43802,0 9.32171,0.55203 13.72944,0.01468c6.41161,-0.78163 12.95176,-2.86881 19.26412,-4.25967c11.39337,-2.5104 22.78675,-5.02081 34.18012,-7.53121c11.42088,-2.50944 23.30388,-3.28632 34.91321,-4.67176c23.11806,-2.75887 46.24599,-5.40818 69.38167,-8.01502c11.55233,-1.30167 23.16571,-2.35229 34.6598,-4.09632c4.94342,-0.75008 9.88691,-1.4997 14.83036,-2.24955c2.65573,-0.40284 5.28388,-1.20187 7.96997,-1.19013c5.01413,0.02192 10.2445,0.94176 15.23918,1.41001c4.86564,0.45615 10.56988,0.28576 15.30445,1.46308c4.73457,1.17732 9.69465,3.99954 14.20726,5.87542c0.01768,0.00735 8.48228,3.50248 8.75547,3.70338c1.48763,1.09394 2.53112,2.68936 3.78646,4.04356c0.55723,0.60111 6.96281,7.55946 7.15964,7.96143c0.14306,0.29217 1.86753,10.11731 1.92363,10.72915c0.35315,3.85186 1.02924,9.9466 0.15339,13.76838c-2.38666,10.41426 -10.1789,16.88584 -15.24372,25.70484c-1.32849,2.31321 -1.69798,5.06665 -2.7885,7.50111c-0.63962,1.42788 -1.64464,2.69941 -2.10793,4.19383c-0.62786,2.02524 -0.68008,7.44963 -0.7526,9.4021c-0.54505,5.06005 -1.08466,10.06449 -1.92143,15.08566c-0.32415,1.94511 -1.33694,8.61174 -2.05235,10.34809c-0.70797,1.71831 -1.70964,3.36145 -2.87671,4.94562c2.86339,3.50189 5.40184,7.20623 8.2518,10.81996c1.65649,2.10042 3.71467,3.90228 5.12553,6.17499c1.66508,2.68223 2.85254,5.64715 4.57572,8.29243c0.03548,0.05447 5.41594,7.6775 5.51503,7.85756c1.21788,2.21308 1.64713,4.82211 2.98131,6.96709c0.96727,1.5551 2.50516,2.76933 3.20739,4.46072c0.45325,1.09169 -0.0354,2.37194 0.11613,3.54423c0.78201,6.04998 2.24549,12.00974 3.0072,18.08882c-0.01164,2.41174 -0.24847,3.79598 0.79125,6.14614c0.52649,1.19006 1.74506,2.03679 2.10644,3.28692c0.37027,1.28089 -0.36629,2.71797 0,4c0.33017,1.15561 1.67239,1.84366 2,3c0.54124,1.91041 0.31725,3.992 0.70852,5.92882c2.52494,3.55832 4.87139,7.24768 7.29935,10.88962c5.62891,8.44336 10.76768,16.9169 15.65314,25.81111c5.55151,10.17786 7.14904,22.39341 9.71383,33.61308c1.85708,8.12377 3.71416,16.24755 5.57125,24.37132c1.0291,4.50176 2.55547,9.1865 3.13781,13.7697c1.25626,9.88719 0.99626,20.2248 1.48204,30.18335c0.40502,8.30299 1.19881,16.48832 2.09771,24.75159c0.4658,4.28191 1.66264,9.1549 1.44285,13.46614c-0.01388,0.27229 -1.51654,9.74521 -1.58949,10.20724c-0.46996,2.9764 -1.11767,5.92969 -1.41744,8.92802c-0.11928,1.19307 0.34417,2.48976 -0.12063,3.59502c-0.74843,1.77969 -2.23056,3.15211 -3.37171,4.70943c-3.08975,4.21658 -6.61706,7.65259 -10.3033,11.33883c-2.097,2.097 -3.78988,4.72011 -6.32833,6.25343c-0.34818,0.21032 -9.12772,3.62859 -9.7698,3.87984c-10.89082,4.26162 -21.81187,7.84606 -32.99506,11.26315c-5.61646,1.71614 -11.28324,3.89859 -17.01082,5.19348c-15.80861,3.57399 -32.12087,6.2483 -48.18535,8.34367c-3.72367,0.4857 -9.10739,0.22327 -12.61044,1.59719c-0.54364,0.21322 -5.69784,3.43433 -6.74096,3.89646c-6.04661,2.67881 -12.76688,5.10533 -19.09197,7.03885c-6.38185,1.95086 -13.07801,3.20928 -19.56086,4.79812c-8.09121,1.98302 -16.23452,4.48936 -24.42835,5.98233c-4.92803,0.89792 -10.0663,1.2195 -15.0405,1.81987c-9.88364,1.19291 -19.81002,2.78822 -29.7323,3.58661c-8.31641,0.66918 -16.73935,0.6994 -25.07623,1.04677c-7.64877,0.3187 -15.52907,1.23169 -23.17762,0.96087c-8.34573,-0.29551 -16.74611,-1.39063 -25.06939,-2.08423c-10.15668,-0.84639 -19.87354,-2.81442 -29.85692,-4.83077c-4.90651,-0.99097 -10.04368,-1.68543 -14.86951,-3.00918c-11.23723,-3.08244 -21.87659,-8.32397 -33.0727,-11.55388c-7.94984,-2.29341 -15.86297,-3.38572 -24.07661,-3.95786c-10.56555,-0.73598 -20.76121,-3.6535 -31.25809,-4.57658c-4.88776,-0.42983 -9.91281,-0.31365 -14.8177,-0.47187c-4.84347,-0.15624 -9.93906,-0.74848 -14.77613,-0.48599c-12.49733,0.67818 -25.40983,3.52301 -37.72264,5.74545c-2.05064,0.00755 -4.2335,0.74709 -6.15192,0.02264c-1.91467,-0.72304 -6.52341,-6.28464 -7.87931,-7.97158c-0.98223,-1.22203 -2.49799,-2.22387 -2.83141,-3.75585c-0.35213,-1.61795 0.75412,-3.23137 0.95294,-4.87521c0.29094,-2.4055 0.10854,-4.82794 -1.41466,-6.89035c-1.56373,-2.11729 -4.29837,-3.1312 -5.98227,-5.15423c-2.17094,-2.60817 -3.95819,-5.52595 -6.18916,-8.08296l-2.04749,-3.2338c0,0 -1.33319,-2.11485 0.78166,-3.44804l0.00006,-0.00001c2.11485,-1.33319 3.44804,0.78166 3.44804,0.78166l1.82777,2.91355c0.25798,0.29514 0.50989,0.59521 0.75705,0.89915c-0.31232,-2.37264 -0.20517,-8.17162 -0.20541,-8.57202c-0.00287,-4.75967 -0.76887,-8.70153 -1.91962,-13.30114c0,0 -0.30638,-1.22551 0.38757,-2.15203c-0.46201,-0.59113 -0.84776,-1.54982 -0.08445,-2.77572c0.3666,-0.58877 0.79484,-0.9125 1.2223,-1.07292c0.48859,2.30505 1.57943,3.94132 1.57943,3.94132l3.70248,4.94978c3.57886,2.01504 6.79071,4.87921 10.72018,6.07414c4.666,1.41891 12.02156,0.63056 16.29136,-1.58777c2.81712,-1.4636 5.43382,-3.30929 7.94637,-5.24973c0.80253,-0.61979 1.50467,-1.93403 2.49888,-1.73472c5.42309,1.08717 6.07622,4.11911 10.90392,7.50781c1.12852,0.79214 2.62037,0.88087 3.8638,1.47664c2.79018,1.33688 4.69068,4.09037 7.3587,5.65691c3.21406,1.88715 7.8139,3.12287 11.43299,4.23082c5.47373,0.05515 9.17835,1.58739 14.61645,2.08046c5.95836,0.54024 10.53401,-1.10351 16.20721,-2.02626c1.68179,-0.27354 3.53568,0.21321 5.08824,-0.48879c2.98107,-1.34791 5.11807,-4.13209 7.98746,-5.70379c0.50138,-0.27463 0.99786,0.57357 1.54019,0.75434c1.50709,0.50236 2.99307,1.12519 4.56046,1.38404c1.06492,0.17587 8.71816,0.12913 9.60182,0.12913c3.00492,0 6.02462,-0.34767 9.01462,-0.04867c2.01546,0.20155 3.95986,1.04867 5.98538,1.04867c2.02552,0 3.97165,-0.83041 5.98538,-1.04867c1.6263,-0.17627 3.30797,0.2192 4.9057,-0.13177c3.91332,-0.85963 7.55298,-2.69369 11.40664,-3.79019c1.53384,-1.10391 2.94811,-2.39659 4.60153,-3.31173c1.61567,-0.89424 3.55828,-1.11727 5.13557,-2.07759c8.48556,-5.16637 15.83345,-12.70223 23.87177,-18.57085c2.50668,-1.83008 5.10885,-3.53156 7.55716,-5.43901c2.08427,-1.62384 4.10534,-3.32952 6.08827,-5.07566c0.23299,-0.20517 0.09244,-0.72387 0.37497,-0.85254c2.21051,-1.00666 4.87826,-0.61832 7.11855,-1.55686c0.74736,-0.3131 1.08625,-1.31016 1.85231,-1.57422c0.63301,-0.2182 1.3462,0.42087 1.99323,0.24864c2.47829,-0.65967 4.84081,-1.70449 7.20549,-2.69716c1.85577,-0.77903 2.78954,-1.72575 4.44926,-2.0884c0.6911,0.95276 1.60462,1.78109 2.29079,2.74172c2.57681,3.60753 3.41284,5.94837 7.31629,9.3367c0.96939,0.84147 2.51721,0.68886 3.58979,1.39409c0.81848,0.53815 1.15604,1.61063 1.91742,2.22691c5.14272,4.16267 11.79787,6.59134 18.35451,7.21791c4.79503,0.45823 12.66363,-0.70263 16.91236,-3.24933c2.17997,-1.30668 3.69034,-3.49922 5.62503,-5.14746c2.11255,-1.79977 4.65771,-3.04223 6.78787,-4.82112c2.42156,-2.02224 4.86692,-4.39177 7.26494,-6.83608c-0.40324,-1.09244 0.25144,-2.18358 0.25144,-2.18358z"/><path d="M331.67977,294.49524c0.00343,-0.15792 0.04224,-0.30506 0.1055,-0.44455z"/><path d="M295.64899,274.80691c0.06723,0.22613 0.10334,0.46567 0.10334,0.71364c0,0.48518 -0.13821,0.93808 -0.37741,1.32147l-1.62388,2.70646c0.84475,0.40119 1.42881,1.26215 1.42881,2.25953c0,0.04375 -0.00112,0.08723 -0.00334,0.13042l-0.19205,4.24428c-0.08848,1.77934 0.37959,3.67735 -0.26543,5.33802c-0.04175,0.10748 -0.08533,0.21401 -0.13064,0.31966l0.04431,0.01477l-1.56291,4.68873c-0.31417,1.02156 -1.26534,1.76412 -2.38994,1.76412c-0.80776,0 -1.52604,-0.38309 -1.98307,-0.97749c0.89566,1.24686 2.00916,2.35317 3.35343,3.26017c-0.57356,0.51734 -1.14433,1.01385 -1.71024,1.48389c-2.27673,1.89104 -5.0161,3.1947 -7.21213,5.17888c-0.91804,0.82948 -1.35941,2.14581 -2.37497,2.85254c-0.51208,0.35636 -1.26039,-0.03682 -1.86889,0.1008c-0.63335,0.14324 -1.16945,0.60182 -1.80595,0.73033c-5.70888,1.15263 -9.2364,-4.0023 -13.14087,-6.63563c-0.6868,-0.4632 -1.74222,-0.11598 -2.41021,-0.60591c-0.48337,-0.35453 -0.38471,-1.14375 -0.68371,-1.6633c-0.59948,-1.04167 -1.30144,-2.02201 -2,-3c-2.54197,-3.55875 -5.51684,-6.79244 -8.44482,-10.04102c-6.95871,-1.06677 -11.44159,-1.9212 -18.18804,0.4379c-2.58988,0.90563 -4.74667,2.94909 -7.42161,3.55929c-1.30464,0.29761 -2.73525,-0.16838 -4.00677,0.24864c-1.5219,0.49914 -2.68146,1.78122 -4.14769,2.42578c-2.81085,1.23565 -6.14425,1.05196 -8.88145,2.44314c-3.4554,1.75621 -6.47109,5.69204 -9.53676,8.0718c-5.32462,4.13329 -10.93425,7.77366 -16.08827,12.07566c-3.8644,3.22557 -8.17321,7.3787 -12.4828,9.91448c-1.50268,0.88418 -3.34192,1.07285 -4.86443,1.92241c-1.26131,0.70381 -2.26564,1.79218 -3.39847,2.68827c-2.27922,0.42193 -4.3326,1.69815 -6.59336,2.20981c-1.0069,0.22789 -2.06873,-0.25 -3.0943,-0.13177c-1.36622,0.15751 -2.63936,0.95133 -4.01462,0.95133c-1.37527,0 -2.64618,-0.81449 -4.01462,-0.95133c-5.59142,-0.55914 -11.89519,1.02203 -17.38355,0.08046c-5.66836,-0.97245 -7.09992,-3.42526 -13.89935,-1.86162c-2.54232,0.58465 -4.88366,1.92046 -7.09201,3.30913c-1.17882,0.74128 -1.754,2.2266 -2.92053,2.98707c-0.28888,0.18832 -0.5692,-0.52838 -0.91176,-0.48879c-1.69126,0.19543 -3.31113,0.79462 -4.97205,1.1687c-7.1016,1.59944 -13.08075,-1.19807 -20.2043,-1.1145c-1.49071,-0.66564 -3.18025,-0.90768 -4.56701,-1.76918c-3.03514,-1.88556 -5.46701,-4.70258 -8.6413,-6.34309c-0.65129,-0.33659 -1.54623,-0.08815 -2.1362,-0.52336c-1.09322,-0.80643 -1.67185,-2.1663 -2.70529,-3.04803c-0.74047,-0.63176 -1.52405,-1.24933 -2.34403,-1.84153c5.54842,-1.51811 9.82089,-7.18519 13.07355,-12.00012c2.40272,-1.29512 4.71846,-3.79159 4.71846,-8.60381c0,-1.4869 -0.22109,-2.75272 -0.59752,-3.83032c4.09946,-0.17632 5.25107,4.26344 8.16997,6.88677c2.19136,1.96946 4.98995,2.82142 7.39169,4.38696c-2.29951,-7.72034 -4.75208,-15.47683 -5.899,-23.3839l-0.4782,0.13258l-1.32051,-4.76289c-0.06909,-0.22897 -0.10623,-0.47179 -0.10623,-0.72329c0,-1.38071 1.11929,-2.5 2.5,-2.5c0.70361,0 1.33933,0.29067 1.79363,0.75848l3.35481,3.44715l0.88619,-3.71658c0.24314,-1.12607 1.24487,-1.96986 2.44368,-1.96986c0.91602,0 1.71697,0.49266 2.15235,1.22746l2.59728,4.22058c2.36735,3.84695 5.37,7.34366 6.16625,11.54118c1.41479,-5.22524 2.53911,-10.83777 4.58925,-15.77813c0.93913,-2.26309 0.94194,-5.96594 3.31943,-6.55844c2.19999,-0.54827 3.45597,2.93652 5.14506,4.44899c0.66495,0.59542 1.12254,2.28423 1.91435,1.87226c0.8441,-0.43918 -0.20657,-1.92009 -0.0266,-2.85443c0.63046,-3.27317 1.92293,-6.38463 2.99078,-9.54229c0.65041,-1.92329 0.50613,-4.42262 2.05689,-5.73306c2.00879,-1.69749 5.05047,-3.25091 7.52692,-2.36553c2.14362,0.76639 2.10132,4.04329 3.00733,6.13174c1.97157,4.5447 3.40301,9.45095 5.08079,14.11331c1.50997,4.19602 2.99052,7.23728 2.44102,11.666c1.4436,-3.55918 5.42204,-8.65403 8.93015,-10.37642c0.3692,-0.18127 9.85408,-1.47669 10.68367,-1.5556c2.12929,-0.20253 4.40763,-1.19002 6.40297,-0.41962c1.48615,0.5738 1.86717,2.58485 2.7086,3.93759c1.76058,2.83045 3.27541,5.80658 4.90261,8.71576c0.75825,1.35563 1.63037,2.65471 2.26425,4.07277c0.1375,0.3076 -0.22833,1.2508 0.00812,1.01076c0.33924,-0.34438 0.04379,-1.0494 0.37593,-1.40063c0.86962,-0.91962 2.04333,-1.49417 3.06628,-2.2395c2.13107,-1.5527 8.23183,-6.35308 10.64213,-6.11248c1.36186,0.13594 0.52473,2.72211 1.14092,3.94418c0.28858,0.57232 1.04691,1.71737 1.47178,1.23746c0.71822,-0.81126 0.03307,-2.18626 0.29827,-3.23681c1.19274,-4.72488 3.34812,-9.49649 4.92866,-14.11653c2.67553,-7.82079 4.89312,-16.03536 8.09219,-23.6541c0.88852,-2.11605 0.93221,-5.16339 2.97517,-6.20908c1.81304,-0.928 3.96228,0.9792 5.87497,1.67914c6.03864,2.20983 7.02723,4.65337 9.36488,10.11905c0.15763,0.36856 -0.35906,-0.86803 -0.12817,-1.1957c0.96001,-1.36241 2.32775,-2.38594 3.49217,-3.57838c1.13577,-1.16309 2.28045,-2.31753 3.4084,-3.48821c1.49975,-1.55656 2.38799,-4.12914 4.47456,-4.69335c1.70229,-0.4603 3.80962,0.73493 4.82018,2.18006c1.18222,1.69059 0.6956,4.06755 0.97776,6.11111c0.61453,4.45081 1.94014,9.75131 1.3376,14.37463c4.04672,-4.87661 7.37373,-10.20892 10.89169,-15.48587c6.50725,-9.76087 13.00668,-19.52701 19.528,-29.27849c0.05829,-0.06367 6.69817,-7.31947 6.77376,-7.3873c1.79038,-1.60645 3.31662,-4.89016 5.68134,-4.44944c1.67679,0.3125 4.809,9.0276 5.52536,10.85107c0.50971,1.29745 1.01839,2.58977 1.52981,3.8769c-0.14097,0.13054 -0.26633,0.27655 -0.37043,0.44382c-2.26355,3.63689 -7.1186,7.66665 -5.47967,11.6245c0.1772,0.42792 0.37264,0.84351 0.58515,1.24686c-1.80657,1.58336 -2.70986,3.38993 -2.70986,3.38993l-2.05573,6.47214c0,6.18474 -1.15586,17.01092 4.1529,21.11242c2.41052,1.86235 5.42314,1.94526 8.42334,1.35149c0.71442,1.11626 0.44632,2.50549 -0.12017,4.01004zM288.28969,278.09392l2.88963,-3.97343c-0.34364,0.33381 -0.67607,0.68989 -0.99625,1.0695c-0.77776,0.92212 -1.45966,1.94316 -2.03927,3.03378c0.04834,-0.04396 0.09696,-0.08726 0.14589,-0.12986zM187.88906,293.21468c0.40683,-0.72241 1.08341,-1.46975 0.70646,-1.15406c-0.34964,0.29281 -0.54019,0.71288 -0.70646,1.15406zM288.2724,296.48431c-0.02235,0.03803 -0.04464,0.07601 -0.06687,0.11393c0.12051,0.19258 0.24575,0.38231 0.37577,0.56901c-0.1352,-0.20832 -0.24023,-0.43803 -0.30889,-0.68295z"/></g></g></svg>