<svg version="1.1" xmlns="http://www.w3.org/2000/svg" xmlns:xlink="http://www.w3.org/1999/xlink" width="54.88208" height="55.4149" viewBox="0,0,54.88208,55.4149"><g transform="translate(-212.55896,-152.29255)"><g data-paper-data="{&quot;isPaintingLayer&quot;:true}" fill-rule="nonzero" stroke="none" stroke-linecap="butt" stroke-linejoin="miter" stroke-miterlimit="10" stroke-dasharray="" stroke-dashoffset="0" style="mix-blend-mode: normal"><path d="" fill="#000000" stroke-width="NaN"/><path d="" fill="#000000" stroke-width="NaN"/><path d="" fill="#000000" stroke-width="NaN"/><path d="" fill="#000000" stroke-width="NaN"/><path d="" fill="#000000" stroke-width="NaN"/><path d="M240,152.29255c15.15527,0 27.44104,12.40505 27.44104,27.70745c0,15.3024 -12.28577,27.70745 -27.44104,27.70745c-15.15527,0 -27.44104,-12.40505 -27.44104,-27.70745c0,-15.3024 12.28577,-27.70745 27.44104,-27.70745z" fill="#000000" stroke-width="0"/><path d="M221.58428,176.99568c-1.08605,-0.13576 -2.1721,-0.27151 -3.25816,-0.40727c0,0 -0.11115,-0.01389 -0.28345,-0.05933c-0.02865,0.00637 -0.0573,0.01273 -0.08595,0.0191l0.00363,0.54911c0,0 -1.76777,1.76777 -3.53553,0c-1.76777,-1.76777 0,-3.53553 0,-3.53553l2.44725,-1.89451c1.22181,-0.27151 2.44362,-0.54303 3.66543,-0.81454c0,0 1.96832,-0.43741 2.7624,1.24113c0.21228,0.04903 0.46008,0.12853 0.70548,0.25747c1.44115,-1.9934 3.51181,-3.61988 5.50153,-4.8294c0.32384,-0.19686 0.6423,-0.38357 0.95745,-0.56015c-0.0177,-0.06454 -0.02517,-0.10188 -0.02517,-0.10188c-0.27151,-1.35757 -0.54303,-2.71513 -0.81454,-4.0727l-0.77036,-0.61937c0,0 -1.5,-2 0.5,-3.5c2,-1.5 3.5,0.5 3.5,0.5l1.67326,2.63879c0.21811,1.09055 0.43622,2.1811 0.65433,3.27164c0.90489,-0.20517 1.86172,-0.33598 2.91198,-0.39245c2.37498,-0.12771 4.67615,0.59613 6.90775,1.46873c0.02433,-0.17929 0.04947,-0.36111 0.07585,-0.54576l-0.02513,-2.09006c0,0 0,-2.5 2.5,-2.5c2.5,0 2.5,2.5 2.5,2.5l-0.02513,2.79717c-0.09711,0.67974 -0.18804,1.32828 -0.28403,1.95599c0.5433,0.49853 1.04293,1.34581 0.55725,2.64096c-0.32951,0.87868 -0.86516,1.30384 -1.40576,1.49215c1.57579,2.06454 2.95467,4.14004 4.04778,6.66767c0.78758,-0.70557 5.62163,-3.6973 7.13206,-4.64132l1.45408,-1.10181c0,0 2,-1.5 3.5,0.5c1.5,2 -0.5,3.5 -0.5,3.5l-1.80408,1.3418c-2.95625,1.84766 -5.60091,2.1522 -6.23049,5.81719c0,0 -0.60634,2.42536 -3.0317,1.81902c-0.72996,-0.18249 -1.1853,-0.52975 -1.46521,-0.92608c-0.84732,1.19333 -1.8428,2.13429 -2.94263,2.86408c1.65588,1.30709 3.43741,2.45868 5.24428,3.5471l2.18954,0.71411c0,0 2.37171,0.79057 1.58114,3.16228c-0.79057,2.37171 -3.16228,1.58114 -3.16228,1.58114l-2.69769,-0.91497c-2.45011,-1.46528 -4.87496,-3.00791 -7.07213,-4.83069c0,0 -0.65297,-0.54414 -0.88015,-1.3786c-1.49405,0.281 -3.04969,0.3545 -4.60023,0.28321c0.18219,0.57992 0.35738,1.16196 0.52472,1.74619l0.6468,1.19785c0,0 1.11803,2.23607 -1.11803,3.3541c-2.23607,1.11803 -3.3541,-1.11803 -3.3541,-1.11803l-0.98228,-2.06031c-0.37506,-1.31623 -0.79445,-2.62021 -1.24585,-3.91288c-0.06112,-0.01407 -0.12208,-0.02826 -0.18288,-0.04257c-1.22368,-0.288 -2.59835,-0.56465 -3.89012,-1.01723c-0.21837,0.30529 -0.42483,0.48225 -0.42483,0.48225c-1.45258,1.23886 -2.84222,2.56601 -4.09735,4.00569c-0.1754,0.74004 -0.72082,1.89067 -2.41686,1.89067c-2.5,0 -2.5,-2.5 -2.5,-2.5l0.57945,-2.00773c0.17956,-0.21434 0.36162,-0.42665 0.54605,-0.63698l-1.81922,1.12302c0,0 -2.14373,1.28624 -3.42997,-0.85749c-1.28624,-2.14373 0.85749,-3.42997 0.85749,-3.42997l1.69561,-0.97622c0.9503,-0.81454 1.90059,-1.62908 2.85089,-2.44362c0,0 0.7744,-0.66377 1.7579,-0.64874c-0.96633,-1.77781 -1.59227,-3.74155 -1.4857,-5.5514zM244.39797,176.34378c-1.82607,-0.91304 -1.41527,-2.5717 -1.20323,-3.14925c-0.35025,-0.41159 -0.69982,-0.82442 -1.04497,-1.24134c-0.66594,-0.2331 -1.46525,-0.77746 -1.56664,-2.04873c-0.77659,-0.17561 -1.54998,-0.26603 -2.3067,-0.222c-2.33376,0.13579 -4.12849,0.83384 -6.07475,2.05112c-1.40287,0.87742 -2.7976,1.84959 -3.86757,3.11176c-2.24099,2.64354 -0.28555,6.35071 2.02236,8.28813c0.87427,0.73392 2.87116,1.16946 4.11171,1.43602c0.12035,-0.06401 0.25188,-0.12339 0.39553,-0.17725c1.50627,-0.56485 2.40676,0.20302 2.85739,0.82234c4.29873,0.6237 8.74706,0.12049 10.99733,-4.24094c-0.72298,-1.57973 -1.66309,-3.00191 -2.70007,-4.35791c-0.45182,0.09155 -0.99196,0.04226 -1.6204,-0.27196z" fill="#ffffff" stroke-width="0.5"/></g></g></svg>