<svg version="1.1" xmlns="http://www.w3.org/2000/svg" xmlns:xlink="http://www.w3.org/1999/xlink" width="51" height="51.83333" viewBox="0,0,51,51.83333"><g transform="translate(-265,-305.33333)"><g data-paper-data="{&quot;isPaintingLayer&quot;:true}" fill-rule="nonzero" stroke="none" stroke-linecap="butt" stroke-linejoin="miter" stroke-miterlimit="10" stroke-dasharray="" stroke-dashoffset="0" style="mix-blend-mode: normal"><path d="M290.5,305.33333c14.08326,0 25.5,11.60329 25.5,25.91667c0,14.31338 -11.41674,25.91667 -25.5,25.91667c-14.08326,0 -25.5,-11.60329 -25.5,-25.91667c0,-14.31338 11.41674,-25.91667 25.5,-25.91667z" fill="#000000" stroke-width="0"/><path d="M286.76777,327.60789c0,0 -1.59362,1.79571 -3.26777,0.27223c0,2.62571 0,5.25143 0,7.87713v3.38043c0,0 0,2.81703 -2.5,2.81703c-2.5,0 -2.5,-2.81703 -2.5,-2.81703c0,-5.60726 0,-14.56289 0,-20.20201c-0.35141,-0.29125 -0.6654,-0.74599 -0.87171,-1.4434c-0.79057,-2.67247 1.58114,-3.56329 1.58114,-3.56329c6.3998,-2.40379 11.75326,-4.7198 18.48954,-2.28584c1.39157,0.50281 3.20219,0.51366 4.0688,1.83955c5.21605,7.98054 -2.47849,9.62282 -7.46231,10.42193c-0.60781,0.09746 -1.2244,0.03546 -1.83978,-0.02973c-0.0313,0.007 -0.06268,0.01375 -0.09414,0.02027c1.64012,1.07404 3.49699,2.96626 4.56181,4.44206c2.49526,3.45829 4.25043,6.12698 5.53436,10.34922l0.03228,3.83168c0,0 0,2.81703 -2.5,2.81703c-2.5,0 -2.5,-2.81703 -2.5,-2.81703l0.03228,-2.92919c-0.91189,-3.25318 -3.68573,-7.38997 -6.11725,-9.54083c-0.94536,-0.83623 -2.16985,-1.27433 -3,-2.25362c-0.29185,-0.34427 -0.64136,-0.69352 -0.99599,-1.05272c-0.20975,0.29925 -0.42222,0.59461 -0.65127,0.86615zM286.76825,319.78413c0.8676,-0.55791 1.85623,-0.78522 2.85234,-0.9921c0.22312,-0.12963 0.44268,-0.2557 0.65494,-0.37949c0.77625,-0.45271 1.70859,-0.16269 2.60996,-0.08491l0.89283,-0.02881c1.6586,-0.2842 3.33737,-1.03876 4.9856,-0.70356c0.17839,0.03628 -0.35379,-0.08948 -0.5317,-0.12868c-0.6431,-0.14172 -1.29292,-0.24697 -1.9312,-0.41407c-1.2084,-0.31633 -2.38023,-0.82377 -3.60649,-1.03557c-2.99448,-0.51722 -6.27529,0.87845 -9.27397,2.16937c0.07943,0.38617 0.07943,0.66876 0.07943,0.66876c0,1.48928 0,2.97857 0,4.46785c1.05758,-1.2275 1.9558,-2.69482 3.26825,-3.5388z" fill="#ffffff" stroke-width="0.5"/></g></g></svg>