<svg version="1.1" xmlns="http://www.w3.org/2000/svg" xmlns:xlink="http://www.w3.org/1999/xlink" width="617.3464" height="453.611" viewBox="0,0,617.3464,453.611"><g transform="translate(71.66627,58.82923)"><g data-paper-data="{&quot;isPaintingLayer&quot;:true}" fill-rule="nonzero" stroke="none" stroke-width="0.5" stroke-linecap="butt" stroke-linejoin="miter" stroke-miterlimit="10" stroke-dasharray="" stroke-dashoffset="0" style="mix-blend-mode: normal"><path d="" fill="#000000"/><path d="" fill="#000000"/><path d="" fill="#000000"/><path d="" fill="#000000"/><path d="" fill="#000000"/><path d="" fill="#000000"/><path d="" fill="#000000"/><path d="" fill="#000000"/><path d="" fill="#ff0000"/><path d="M333.52365,288.89682c0.2949,-2.05564 -0.18416,-3.04485 0.06742,-4.32718c3.89781,1.10714 9.73081,1.91643 14.28308,1.7521c0.07029,2.69856 -0.22412,5.72351 -0.33177,8.26634c2.06627,1.49614 3.99947,3.14802 6.06791,4.87579c1.03333,0.86315 2.36396,1.35388 3.31699,2.30495c0.86072,0.85895 1.18819,2.15347 2.02997,3.031c2.6159,2.72701 6.30299,4.77242 9.85381,5.94987c3.32375,1.10215 5.22048,1.16185 8.69329,1.42456c0.33054,0.025 0.69583,0.51323 0.94854,0.2987c0.38867,-0.32995 0.13597,-1.05089 0.42898,-1.46812c1.25046,-1.78059 2.71347,-3.40203 4.0758,-5.09856c1.76504,-2.19804 4.13735,-4.15112 6.13247,-6.14624c2.22637,-2.15508 4.87916,-3.78863 7.95471,-4.53228c2.25221,-0.54457 5.13812,-0.0535 7.45951,-0.0535c6.20664,0 12.31137,-0.19225 18.32036,1.02583c2.06616,0.41883 3.91244,1.7058 6,2c3.71553,0.52362 10.69188,0.93328 14.24067,-0.55614c0.03848,-2.60948 0.1241,-5.22774 0.44989,-7.67827c1.31014,-9.85474 2.57444,-19.9787 3.27916,-29.92372c0.66517,-9.31234 0.70993,-18.53346 0.70993,-27.86767c0,-2 0,-4 0,-6c0,-0.66667 -0.1008,-1.341 0,-2c0.04426,-0.28933 0.68929,-0.64639 0.42359,-0.76918c-0.7038,-0.32523 -5.14246,-0.18467 -5.63019,-0.24152c-1.38646,-0.16162 -2.73892,-0.54033 -4.10796,-0.8126c-7.85835,-1.56287 -15.70939,-3.14195 -23.53926,-4.84183c-9.45184,-2.05202 -19.13791,-4.63454 -28.91987,-3.34771c-6.67768,0.87846 -12.50227,3.83521 -18.86002,5.60409c-2.796,0.77792 -5.58171,1.48491 -8.37547,2.09382c-0.66165,1.33679 -1.31405,2.67691 -1.95456,4.02128c-2.90325,6.0936 -4.94233,12.34146 -7.98876,18.23009l0.33706,0.14044l-1.52064,3.64953c-0.29072,0.74541 -1.01567,1.27355 -1.86398,1.27355c-0.79841,0 -1.48754,-0.46784 -1.80823,-1.14433l-0.76198,-1.52396c-1.32091,-0.73317 -2.21012,-2.11489 -3.10731,-3.33798c-0.76337,-1.04066 -1.8245,-1.8356 -2.61186,-2.85822c-2.39766,-3.11408 -3.9513,-6.99314 -6.48243,-9.99339c-1.77889,-2.1086 -3.93026,-4.04941 -6.12416,-5.93523c-3.42606,0.03238 -6.84506,-0.00008 -10.22824,-0.21071c-0.30235,-0.01882 -0.60395,-0.04573 -0.90505,-0.07806c0.01933,-0.29627 0.02931,-0.6022 0.02931,-0.91811c0,-7.02514 -4.93525,-9.11502 -7.8716,-9.73673c0.25788,-0.87236 0.74344,-1.68584 0.89742,-2.58361c0.03819,-0.22265 0.05292,-0.49822 0.05352,-0.80722c-4.19675,-0.65554 -8.2982,-1.05834 -12.40453,-1.89905c-1.97356,-0.40405 -4.04566,0.23999 -6.04346,-0.01883c-2.45799,-0.31844 -4.67592,-1.64945 -7.04357,-2.38249c-2.51475,-0.77858 -5.29339,-0.3094 -7.83424,-0.99806c-1.29383,-0.35068 -2.31825,-1.4097 -3.60724,-1.77776c-1.2573,-0.35901 -2.63525,-0.05693 -3.9054,-0.36742c-2.11743,-0.5176 -4.06495,-1.58869 -6.153,-2.21439c-2.05554,-0.61596 -4.18045,-1.4275 -6.30654,-2.12277c-0.44096,-2.27209 -1.77132,-5.94616 -5.78502,-7.43437c0.0233,-0.07221 0.04188,-0.14589 0.05457,-0.22142c0.42767,-2.54445 0.53281,-5.13631 0.96406,-7.68016c0.39661,-2.33952 -0.43039,-4.86891 0.03852,-7.21514c0.34269,-1.71468 1.69278,-3.13476 1.97232,-4.86086c0.43949,-2.71369 -0.18853,-6.11825 -0.02079,-8.82141c0.50892,-8.20136 2.26286,-15.96044 4.83269,-23.69594c2.36027,-6.91858 2.4065,-15.07539 5.67089,-21.60299c0.59237,-1.18452 3.82232,-7.74818 4.68442,-8.08194c1.68,-0.65042 3.51464,0.81637 5.22405,1.38501c2.4172,0.80408 4.78478,1.80037 7.27264,2.34803c11.09269,2.44186 22.15593,3.8122 33.06541,6.91711c6.52156,1.62994 13.03284,2.58013 19.64112,3.91215c4.58963,0.92512 9.19918,2.27933 13.82198,2.97229c4.35789,0.65326 9.36917,-0.01194 13.78177,-0.01194c8.68662,0 17.37325,-0.00003 26.05987,-0.00012c6.36896,-0.00595 12.47754,-1.14697 18.70325,-2.39212c1.55512,-0.31102 7.15554,-1.58027 9.06958,-1.28096c0.40948,-1.26042 0.89983,-2.50212 1.2208,-3.78632c1.24518,-4.9821 1.52591,-10.6874 3.27327,-15.63297c1.445,-4.08979 3.73493,-7.42452 3.67323,-11.90753c0,-2.16797 0.99527,-6.52228 -0.11991,-8.3598c-0.56349,-0.92848 -1.74029,-1.30106 -2.58107,-1.9886c-4.08293,-3.33876 -8.78758,-4.19215 -13.82176,-5.75513c-2.55002,-0.79171 -5.15211,-1.41018 -7.69724,-2.21749c-2.46213,-0.78098 -4.71619,-2.25759 -7.25886,-2.71238c-4.56742,-0.81695 -9.24796,-0.6586 -13.89123,-1.00411c-6.59239,-0.49055 -13.25135,-1.9534 -19.78243,-2.9683c-14.59882,0.04601 -29.36017,0.62589 -43.94498,0.00345c-10.38929,-0.44339 -20.60512,-1.98054 -31.03497,-2.00201c-13.67618,-1.80478 -27.29402,-4.64838 -41.01988,-6.00142c-12.49582,-1.23179 -25.33081,-1.2284 -37.88893,-1.99462c-3.23409,0.06493 -6.5613,0.56369 -9.76234,0.54647c-0.85165,-0.00458 -1.8873,-1.04728 -2.51173,-0.46813c-0.50255,0.46611 1.14056,0.93268 1.2895,1.60173c0.80482,3.61511 -0.11424,6.10011 0.94607,9.76119c1.14469,3.95241 2.39429,8.20108 3.05393,12.23881c0.7553,4.62332 0.48673,9.72612 0.24343,14.67573c0.78239,0.57477 0.78239,1.64455 0.78239,1.64455l-0.00002,-0.00003l-0.9434,2.01909c-0.03455,1.00913 -0.05659,2.00471 -0.05659,2.98099c0,0 0,1.25602 -0.99536,1.77734c0.21081,1.61228 0.37872,3.23156 0.59838,4.84239c1.51044,11.07655 1.811,22.15938 2.39629,33.32769c0.00034,0.99692 0.00226,6.02398 0.00069,6.05258c-0.07832,1.42852 0.5388,3.2372 -0.45332,4.26798c-1.22222,1.26985 -3.36747,1.04798 -5.07677,1.47765c-3.45868,0.86941 -6.76924,1.27993 -10.31329,1.54094c-11.96634,0.88131 -23.98236,2.15579 -35.97077,2.63089c-1.75994,0.06975 -3.62503,0.17048 -5.49777,0.2235c-1.15223,1.15324 -2.16383,2.16313 -2.27387,2.27317c0,0 -1.41421,1.41421 -2.82843,0c-1.41421,-1.41421 0,-2.82843 0,-2.82843c1.8151,-1.8151 3.93808,-3.36313 5.46119,-5.42936c1.41817,-1.92386 1.94307,-4.40607 3.34315,-6.34315c2.06134,-2.85196 5.01955,-5.49359 7.33794,-8.16866c3.45334,-3.98462 6.67959,-8.25812 10.17963,-12.17617c3.54307,-3.96623 7.87947,-7.45783 11.74627,-11.11258c2.84375,-2.6878 4.39035,-3.61938 5.57448,-7.28409c2.40972,-3.21296 5.49239,-5.95835 8.9704,-8.06376c-0.46014,-0.02744 -0.92064,-0.06293 -1.37997,-0.07227c-0.22648,-0.00461 -8.05771,-0.16153 -8.17409,-0.17412c-6.39013,-0.69167 -12.48529,-1.78236 -18.94982,-1.99004c-21.61738,-4.28962 -43.42062,-6.6947 -65.35558,-7.48107c-1.83704,0.86919 -3.67952,1.71603 -5.52712,2.53719c0,0 -1.82762,0.81228 -2.6399,-1.01535c-0.81228,-1.82762 1.01535,-2.6399 1.01535,-2.6399c0.26177,-0.11634 0.52344,-0.23321 0.785,-0.35058c-0.19208,-1.0388 -0.56009,-1.94771 -1.03115,-2.73888c2.19318,0.04094 4.38559,0.09721 6.57709,0.16922c12.2314,-5.83956 24.21825,-12.66043 35.85762,-19.45263c4.45031,-2.597 9.49659,-4.89546 13.6432,-7.94658c2.1522,-1.58361 4.34056,-3.24677 6.85096,-4.16202c4.8604,-4.63022 9.84276,-8.57163 15.10125,-12.69763c3.06304,-2.40337 5.74183,-5.40941 8.92042,-7.65837c2.71827,-1.92326 5.99569,-3.19003 8.70726,-5.18631c4.0782,-3.0024 7.95881,-6.34392 12.39452,-8.8771c1.91747,-1.09504 4.09456,-1.72587 5.9282,-2.95616c3.0716,-2.06091 5.21569,-4.27283 8.66369,-5.72954c1.33135,-2.66271 3.9661,-3.81649 6.52519,-5.22295c3.60653,-4.62873 7.11321,-9.33633 10.69232,-13.99329l0.00001,-0.00011c3.80339,-3.86278 6.22759,-8.53632 9.6845,-12.67845c1.48546,-1.77991 3.21876,-3.35379 5.01794,-4.81585c0.83629,-0.67959 2.07178,-0.89804 2.7054,-1.76967c0.36688,-0.5047 -0.36331,-1.32627 -0.0589,-1.87094c0.36188,-0.6475 5.06972,-5.28502 5.60512,-5.82042c2.60948,-2.60948 5.21895,-5.21895 7.82843,-7.82843c4.80458,-4.80458 9.078,-8.78406 14.95525,-12.24279c1.30265,-0.7666 2.48308,-1.81746 3.9251,-2.27043c0.31818,-0.09995 7.50332,-0.07257 7.53387,-0.07257c3.09423,0.00727 6.61442,0.31392 9.59634,1.09097c0.67645,0.17627 1.17382,0.84656 1.86317,0.96253c4.56984,0.76876 9.55919,-0.19811 14.2316,0.41758c7.90998,1.04231 16.06685,1.32741 23.91589,2.62489c8.92869,1.47596 17.56241,3.08512 26.61138,3.87199c13.61488,1.1839 27.47437,1.5551 40.90327,4.25681c5.2056,1.04729 10.24888,2.98979 15.47019,3.94814c7.84282,1.43952 16.03617,1.57365 23.61562,4.16101c0.41767,0.06572 7.66446,1.20147 7.88814,1.25564c2.58117,0.62504 4.97794,1.90497 7.56902,2.48758c2.55237,0.5739 5.19939,0.59268 7.78796,0.97111c12.326,1.80194 24.61651,3.51275 36.95087,5.2748c3.77322,0.53903 8.62066,0.53056 12.21158,1.77387c1.14641,0.39693 2.56118,0.82567 3.09494,1.91512c0.73776,1.50582 0.20232,3.34756 0.30348,5.02134c0.17146,13.30674 1.84481,26.57546 2.98152,39.82485c0.48854,5.69435 1.71685,11.31399 2.00255,17.04215c0.23307,4.67293 -0.06009,9.28943 0.33121,13.96117c0.3166,3.79921 0.91258,7.08601 1.63369,10.75257c1.16921,5.94495 0.64125,12.41502 1.18369,18.44699c1.51516,16.84883 3.4029,34.10927 6.19553,50.78291c4.56248,27.30739 8.36895,54.73307 11.84401,82.24349c1.57932,10.51181 3.89381,21.17454 4.80854,31.76012c0.66797,7.72995 -0.6998,15.52551 -0.99566,23.22914c-0.3477,9.05355 -1.13951,18.00626 -1.56069,27.07785c-0.60739,13.08244 -1.39733,26.85247 -4.96048,39.54383c-1.43411,5.10805 -3.91997,10.1519 -5.83632,15.10247c-3.05228,7.88507 -5.62757,15.82556 -8.42994,23.7769c-1.76877,5.01151 -3.36988,10.12775 -5.31936,15.07128c-0.52957,1.3429 -0.48433,3.23099 -1.72233,3.97341c-3.91525,2.34797 -5.26004,-0.17727 -8.48979,-0.64831c-2.54699,-0.37146 -5.14812,0.06466 -7.72176,0.02538c-7.4337,-0.11345 -14.74299,-1.60764 -22.19243,-2.00632c-7.96577,-0.42632 -15.96935,-0.48847 -23.94308,-0.73263c-10.731,-0.32859 -21.28229,-1.53468 -31.97961,-2.26613c-16.63919,-1.13774 -33.33469,-1.62283 -49.98466,-2.73283c-27.35159,-1.82346 -54.67858,-3.92395 -82.05149,-5.40681c-8.0199,-0.43446 -15.94188,-1.18745 -23.93089,-1.8587c-4.58202,-0.38499 -9.32473,0.07973 -13.92407,0.00328c-14.01324,-0.23293 -28.07191,-1.35773 -42.07169,-2.03514c-10.32873,-0.49978 -20.60335,-0.7658 -30.93569,-0.96505c-15.37221,-0.29644 -30.76104,-2.18257 -46.10389,-3.20543c-27.3748,-1.82499 -54.7718,-2.85804 -82.1356,-4.91032c-27.79614,-2.08471 -55.45388,-4.31426 -83.13543,-7.59851c-6.62023,-0.78545 -13.24047,-1.5709 -19.8607,-2.35635c-3.852,-0.45702 -7.40463,-0.66319 -11.02361,-2.10053c-1.29315,-0.5136 -7.65664,-2.97115 -8.34117,-3.70682c-0.90089,-0.9682 -0.34478,-8.23012 -0.34386,-9.12421c0.01019,-9.96415 1.70863,-19.4687 3.0322,-29.35449c6.12877,-26.65464 14.82312,-52.7304 22.02449,-79.11538c2.98779,-13.9609 6.22785,-27.89199 8.97859,-41.9012c2.43087,-12.38014 3.46036,-24.97544 7.1216,-37.07455c0.69577,-6.38665 1.52736,-12.77506 3.09749,-19.02133c0.42967,-1.70931 0.32987,-3.73926 1.47765,-5.07677c1.04843,-1.22174 6.67539,-0.45462 8.26798,-0.45332c4.32558,0.00354 9.02537,0.27541 13.2774,1.01933c5.27117,0.92223 10.29667,3.39717 15.35505,5.0833c0,0 1.82555,0.60852 1.29843,2.42243c2.0252,0.5692 4.07418,1.10876 6.20804,1.4618c2.99583,0.49566 6.11841,0.58394 9.11495,1.02928c2.1498,0.3195 4.04962,1.68438 6.19461,2.03475c1.31953,0.21554 2.69287,-0.22113 4.01104,0.00257c0.78819,0.13376 1.38924,0.82859 2.15898,1.04453c0.39739,0.11148 4.73444,0.7242 5.77096,0.94025c4.69507,0.97865 9.30032,2.3767 14.05849,3.01252l0.16736,0.10333l0.01717,-0.0515l2.95625,0.98542c0.81725,0.25134 1.4113,1.01227 1.4113,1.91195c0,0.79841 -0.46784,1.48754 -1.14433,1.80823l-3.53895,1.76948l-0.02481,-0.04962c-0.10748,0.06362 -0.21609,0.1255 -0.32595,0.18545c-0.71144,0.38826 -1.65262,-0.04283 -2.42229,0.21115c-1.20811,0.39866 -4.72238,2.64765 -6.08416,3.02181c-2.47228,0.67927 -5.46162,0.43775 -8.05225,1.0116c-7.68952,1.7033 -15.36243,3.94405 -23.11697,5.02073c-0.11491,0.01595 -0.23012,0.02764 -0.34557,0.0358c2.21554,0.69041 4.41026,1.4484 6.67377,2.08341c0.71705,0.20116 4.57075,0.67491 5.78877,0.94387c4.01,0.88547 7.71065,2.30333 11.61241,3.43511c1.68146,0.48774 3.49762,0.25091 5.2247,0.53797c2.73864,0.45521 4.4929,1.13416 6.99839,1.98502h2.75724c1.10457,0 2,0.89543 2,2c0,1.10457 -0.89543,2 -2,2h-3v-0.18623c-0.08871,0.02821 -0.17749,0.05626 -0.26635,0.08416l-0.05118,0.07671c-0.03156,-0.01018 -0.06336,-0.02046 -0.09542,-0.03084c-6.92672,2.15955 -14.27703,3.38407 -21.12755,5.00271c-4.20928,0.99457 -7.76455,4.93435 -12,6c-0.96978,0.244 -2.01942,-0.19612 -3,0c-0.68882,0.13776 -1.20567,0.77863 -1.87551,0.97016c3.75302,1.07267 7.34153,2.83876 11.11674,4.21012c1.32333,0.48071 2.38856,1.60297 3.75876,1.92672c3.69176,0.87229 7.40492,1.84745 11.15168,3.04217c2.81331,0.89708 5.16885,0.65344 7.74004,1.90432h1.64877c1.10457,0 2,0.89543 2,2c0,1.10457 -0.89543,2 -2,2h-3c-5.57122,1.23805 -12.12907,-1.42853 -17.64315,-0.03209c-2.56083,0.64853 -4.85697,2.13905 -7.41615,2.79402c-0.7403,0.18946 -1.5797,-0.15582 -2.28885,0.12887c-1.13796,0.45684 -1.93214,1.572 -3.07228,2.02339c-0.27856,0.11029 -0.56984,0.18379 -0.86696,0.23975c4.11927,0.55546 8.17001,2.21125 12.24477,3.11916c8.20766,1.82878 17.01022,2.30619 24.75353,5.85569l2.8778,0.95927c0.81725,0.25134 1.4113,1.01227 1.4113,1.91195c0,1.10457 -0.89543,2 -2,2h-1.67867c-9.11361,4.16384 -18.254,8.13428 -27.55597,11.84776c-0.706,0.28185 -1.38801,0.62401 -2.06239,0.98549c0.47259,0.04769 0.94531,0.09225 1.41829,0.13009c11.95372,0.9563 23.91941,1.43734 35.89762,2.03526c0.72338,0.05164 1.44677,0.10327 2.17015,0.15491c0.23815,-0.56066 0.77966,-1.25548 1.99202,-1.14527c0.23644,0.02149 0.44226,0.0685 0.6214,0.13467c2.94124,-4.69912 5.93591,-9.37466 9.70729,-13.47675c1.57575,-1.71392 3.48501,-3.11944 4.94357,-4.93413c1.37826,-1.71479 2.57804,-3.58936 4.13247,-5.14624c2.32809,-2.33174 2.31519,-2.48581 5.34876,-4.53453c1.08605,-0.73347 2.13599,-2.47496 3.36803,-2.02823c1.80728,0.65531 2.57505,2.88692 3.55744,4.53938c2.75195,4.62901 4.28626,11.23298 5.84129,16.38614c2.40396,2.35498 2.53383,3.58127 3.2452,6.59196c0.09331,0.39492 0.41264,0.70824 0.63291,1.05473c0.54529,-0.80992 1.57388,-1.48666 1.87391,-1.8632c1.30426,-1.63685 2.66416,-3.23031 3.9242,-4.90144c1.56926,-2.08124 2.42981,-4.91137 4,-7c2.65698,-3.53427 6.90606,-6.37417 10.61863,-8.5604c1.87226,-1.10252 4.31726,-3.76322 6.98925,-2.01058c2.11876,1.38976 2.93882,4.18044 4.81943,5.87865c0.24,5.37994 3.12083,9.22897 5.04294,14.09638c0.34831,0.88204 0.38994,1.88663 0.85354,2.7139c1.11804,1.99509 3.79487,2.18965 5.46812,3.42898c2.59725,1.92371 3.58936,3.26005 6.83058,3.62248c0.60264,0.06739 1.37892,0.88772 1.76918,0.42359c0.61659,-0.7333 0.07514,-1.92464 0.27992,-2.86057c0.36494,-1.66786 0.58178,-3.36833 1.0044,-5.02252c1.12479,-4.40253 3.90285,-9.07048 6.39981,-12.80847c2.61807,-2.58711 4.31163,-6.83606 7.78132,-8.57978c0.72918,-0.36646 1.64546,0.03708 2.445,-0.12642c0.92814,-0.18979 1.77204,-0.68102 2.68791,-0.92319c3.90453,-1.03242 5.20363,-2.39211 6.57895,2.43786c0.42533,1.49372 -0.16798,5.42403 0.04377,7.26243c0.27455,2.38363 0.93764,4.72883 1.00851,7.12717c0.02664,0.90154 -0.40783,4.6446 0.59064,5.85592c2.02206,2.45313 3.22613,0.56792 5.72099,2.70308c2.36788,2.02648 2.2148,6.72182 1.82185,10.45779c0.53146,0.10214 1.00306,0.31716 1.36711,0.72954c0.29416,0.33322 0.30323,1.67346 0.19593,3.2589c4.65818,1.74045 10.68169,1.66965 15.42674,2.34752c10.0402,1.43431 20.0804,2.86863 30.12061,4.30294l3.01109,0.43016c0.98477,0.12468 1.74627,0.96544 1.74627,1.98406c0,1.10457 -0.89543,2 -2,2h-2.9101c-3.02131,0.76962 -6.62733,-0.03401 -9.57778,0.93332c-5.0021,1.63998 -9.26916,4.89597 -14.0395,6.98549c-3.00705,1.31716 -6.85404,1.58319 -9.73013,2.93825c-6.06862,2.85921 -11.85065,6.53231 -17.79906,9.79992c0.08855,1.12031 0.19078,2.24362 0.49165,3.37806c1.56492,0.26668 1.56492,1.96495 1.56492,1.96495l-0.04871,0.12287l0.46292,0.46292l-0.55697,0.55697c0.33426,0.53895 0.6811,1.07201 0.99052,1.62261l-1.84776,0.59289v0.64174h-2c-0.16915,0 -0.33847,-0.00005 -0.50796,-0.00016c-2.7648,1.45049 -5.37768,3.1578 -6.75666,5.99438c-1.13754,1.72193 -1.71004,3.74598 -2.44697,5.68428c1.70062,2.17804 3.42327,4.46617 4.75202,6.93948c2.20441,-1.03189 4.50195,-1.95995 6.91158,-2.95272c2.99823,-1.23528 8.15134,-4.7204 11.60241,-3.58686c1.52239,0.50005 2.5484,1.94384 3.79883,2.94591c4.75012,3.80664 8.21078,9.36582 13.95715,11.4648c0.24702,0.6032 0.19709,1.45049 0.74106,1.80961c0.55636,0.3673 1.45616,-0.38559 2,0c0.81024,0.57447 0.94155,1.76359 1.57102,2.53188c0.46257,0.56459 0.99316,1.06716 1.53104,1.56306c8.64934,-0.44756 17.34818,-0.59663 26.02898,-0.74487c1.06994,-1.86135 2.21604,-3.82857 2.40125,-4.03721c0.56395,-0.63528 1.5706,-0.69536 2.23461,-1.22517c1.94603,-1.55273 3.72326,-3.34083 5.27364,-5.28873c1.57916,-1.98408 1.86488,-3.37678 3.28831,-5.27096c3.13959,-4.17787 6.8108,-7.9665 10.05094,-12.06729c2.09502,-2.6515 4.50343,-9.22825 9.13633,-7.67718c1.56801,0.52496 2.47585,2.1935 3.67505,3.33198c2.99053,2.83913 4.3026,6.20414 6.12392,9.84678c2.38304,4.76607 5.20989,8.70045 8.00104,13.20111c0.95706,1.54324 2.32402,2.8093 3.25488,4.36848c0.21372,0.35798 -0.46088,1.37474 -0.06331,1.24918c0.7842,-0.24766 1.10546,-1.22179 1.71714,-1.77148c0.87868,-0.78962 1.96465,-1.35425 2.74656,-2.23981c0.12746,-0.14435 3.19579,-5.138 3.64233,-5.55788c0.51765,-0.48674 1.46894,-0.37627 1.92058,-0.92481c0.77204,-0.93768 0.88182,-2.28426 1.55438,-3.29567c2.55926,-3.84868 6.67339,-7.51152 10.10911,-10.45875c0.11994,-0.10288 0.49822,-0.46672 0.99701,-0.94947c0.63153,-2.04471 1.46961,-4.04435 1.77303,-6.15932z" fill="#000000"/><path d="M316.50432,292.17422c0.07782,0 0.15564,0.00001 0.23345,0.00002c-2.07782,0 -4.15563,0 -6.23345,0c-0.15244,0 -0.30524,0.00059 -0.45835,0.00168c0.00018,-0.00057 0.00036,-0.00114 0.00054,-0.00171c2.26623,0 5.077,0 6.4578,0z" fill="#000000"/><path d="" fill="#000000"/></g></g></svg>