<svg version="1.1" xmlns="http://www.w3.org/2000/svg" xmlns:xlink="http://www.w3.org/1999/xlink" width="561.38164" height="436.72742" viewBox="0,0,561.38164,436.72742"><g transform="translate(33.38187,44.3278)"><g data-paper-data="{&quot;isPaintingLayer&quot;:true}" fill="#000000" fill-rule="nonzero" stroke="none" stroke-width="0.5" stroke-linecap="butt" stroke-linejoin="miter" stroke-miterlimit="10" stroke-dasharray="" stroke-dashoffset="0" style="mix-blend-mode: normal"><path d="M46.59452,73.42531c0.07993,-0.25532 0.16098,-0.51028 0.24314,-0.76488c-0.07883,0.25451 -0.16021,0.50986 -0.24314,0.76488z"/><path d="M-27,107.4104c0.06343,-1.3189 -0.26539,-2.71741 0.1903,-3.95671c0.32537,-0.88488 1.61484,-1.13945 2,-2c0.72874,-1.62819 -0.41794,-3.58201 -0.17157,-5.34875c0.18982,-1.3612 0.80068,-2.64016 1,-4c0.78236,-5.33755 -0.01873,-11.28516 -0.01873,-16.69454c0,-11.7494 -0.15829,-23.39396 0.90942,-35.10145c0.18399,-7.96351 0.08112,-15.93312 0.09058,-23.89855c0.00716,-6.03311 -0.06462,-11.3945 4.82845,-15.83337c1.16935,-1.0608 2.88691,-1.31263 4.20072,-2.18818c2.1574,-1.43774 1.76454,-3.0854 4.51412,-4.28815c0.91618,-0.40077 2.1053,0.44667 3,0c1.15186,-0.57506 1.57603,-2.09557 2.64238,-2.81693c0.87309,-0.59062 2.12293,-0.41532 3,-1c1.12852,-0.7523 1.74941,-2.11243 2.85255,-2.90148c1.21247,-0.86726 2.75967,-1.17307 4,-2c0.83274,-0.55519 1.28996,-1.58236 2.14745,-2.09852c0.9031,-0.54362 2.13229,-0.40152 3,-1c1.43421,-0.98921 2.22872,-2.78544 3.74148,-3.64978c0.94562,-0.54029 2.32968,0.23949 3.24905,-0.34434c0.95327,-0.60537 1.20421,-1.91068 1.80631,-2.86602c1.37234,-0.49365 2.68228,-1.21918 4.11703,-1.48095c1.31168,-0.23932 2.67939,0.18378 4,0c2.43493,-0.33885 4.65225,-1.73658 7.095,-2.01355c5.16679,-0.58583 10.79098,0.89736 15.905,0.01355c1.0387,-0.17951 1.95602,-0.85438 3,-1c4.80103,-0.66969 9.97145,-0.45743 15.03335,-0.24378c0.56953,-0.30559 1.16313,-0.55569 1.79272,-0.72162c3.02755,-0.79796 6.26061,-0.19319 9.38356,-0.41676c12.08505,-0.86517 24.16664,-0.65324 36.27994,-0.64853c3.74088,0.26603 7.48087,0.53891 11.22017,0.80948c2.45412,-0.27547 4.90573,-0.5561 7.35386,-0.78983c6.53212,-0.62364 13.28296,-0.75131 19.75958,-1.79131c3.16614,-0.50841 6.31874,-1.15345 9.40397,-2.02768c0.92583,-0.26234 1.69769,-1.00386 2.6493,-1.14673c1.73979,-0.2612 3.5269,0.1295 5.27767,-0.04337c3.03916,-0.30008 5.91277,-1.60804 8.94227,-1.99361c1.32221,-0.16828 2.67565,0.1624 3.99862,0.00017c2.7283,-0.33455 5.2683,-1.69441 8,-2c4.62535,-0.51743 9.64162,-0.01873 14.30546,-0.01873c8.09908,0 16.70953,0.80869 24.75366,0.01217c3.3159,-0.32834 6.48674,-1.62758 9.80215,-1.9608c10.27711,-1.03291 20.96358,1.24761 31.19785,-0.0392c2.57562,-0.32385 7.28456,-1.70221 9.79651,-1.96022c6.05473,-0.62191 12.68783,-0.14747 18.69533,0.5155c2.45994,0.28135 4.84441,1.02841 7.27739,1.48784c6.45282,1.21854 13.21448,0.9379 19.71846,1.79217c13.17307,1.73022 26.48526,3.96636 39.60401,6.11052c7.14148,1.16722 14.52222,1.694 21.61369,3.08452c2.56693,0.50333 5.17149,0.97402 7.7873,0.96966c6.00131,1.19932 11.92419,1.31755 17.9601,2.00059c7.2992,0.826 14.55326,2.90492 21.9074,3.64375c9.93243,0.99786 19.99052,-0.35023 29.91971,0.34964c4.73909,0.33404 9.40846,1.60132 14.14191,2.00001c1.0953,0.09226 2.22863,-0.21823 3.2973,0.03894c3.34721,0.8055 6.44047,2.43981 9.70309,3.53888c4.23046,1.41352 7.95912,2.67477 11.94218,4.67995c2.21389,1.11453 6.14008,2.50069 7.19166,5.27936c0.58524,1.54642 0.15518,3.30363 0.1903,4.95671c0.08491,3.99635 0,8.00254 0,12c0,5.00927 0.30636,10.15697 -0.00483,15.15534c-0.81564,13.10106 -2.81005,27.054 1.31541,39.80349c1.48408,4.63661 2.66901,9.59091 4.5048,14.0983c1.0809,2.65392 2.43454,5.19467 3.84689,7.68804c0.68606,1.21117 1.79437,2.20846 2.23045,3.53036c0.86974,2.63641 0.41431,5.54261 0.83849,8.28618c0.43195,2.79386 1.2873,5.55881 1.26823,8.3858c-0.06418,9.5181 -2.35048,19.13245 -4.48992,28.32077c-0.99099,4.25603 -2.93496,8.80064 -3.53597,13.09432c-0.19462,1.39043 0.30236,2.85028 -0.04044,4.21177c-0.39633,1.5741 -1.41562,2.92155 -2.12342,4.38233c-2.36751,7.13916 -1.40332,14.1731 -2.85088,21.4933l-0.68562,2.75741c-0.11452,2.07704 -0.27223,4.13954 -0.2732,6.05008c-0.0064,12.67406 -1.39512,25.37917 -2.00071,38.05823c0.00063,19.00793 -1.5255,38.00822 -2.00007,57.00297c-0.2239,8.96158 0.88617,18.28785 -0.01415,27.21035c-0.48639,4.82031 -2.00068,8.78587 -1.98507,13.72728c-0.00033,6.05506 0.56061,12.42719 -0.05168,18.44718c-0.09322,0.91654 -1.80914,8.77141 -1.96867,9.87107c-0.71134,4.90348 -0.7282,10.54394 -3.35302,14.99601c-0.50831,0.86216 -1.54322,1.31477 -2.09852,2.14745c-1.64711,2.46985 -2.64381,5.39544 -4.60844,7.62106c-3.89337,4.41057 -9.55262,8.67051 -14.82488,11.35671c-6.13224,3.12437 -12.89801,2.9961 -19.02041,5.99358c-13.51854,0.16219 -27.17683,0.54848 -40.68807,0.06429c-7.51049,-0.26915 -14.98582,-1.63357 -22.49016,-2.05087c-11.73416,-0.65252 -23.31855,-1.45139 -35.01344,-2.82271c-3.26674,-0.3831 -6.51734,-0.94354 -9.7998,-1.1528c-6.65371,-0.42418 -13.4499,0.43337 -20.08435,-0.21869c-4.97446,-0.4889 -9.96687,-1.96205 -14.8991,-2.78464c-18.71663,-3.12152 -37.62419,-5.42273 -56.3908,-8.27529c-3.32972,-0.50975 -6.76517,-0.21723 -10.06662,-0.88604c-1.62951,-0.33011 -3.00807,-1.49012 -4.63026,-1.85451c-2.86306,-0.64313 -5.87823,0.02128 -8.7995,-0.25606c-6.04853,-0.57424 -12.06766,-0.71893 -18.12913,-1.26977c-8.24704,-0.74945 -16.52475,-1.99297 -24.79044,-2.45145c-4.99882,-0.27727 -10.09411,0.28744 -15.07992,-0.16222c-2.76245,-0.24914 -5.37678,-1.39608 -8.11391,-1.84476c-2.64524,-0.43362 -5.36117,0.01028 -8.04163,-0.01151c-6.53903,-0.93754 -13.22173,-2.42192 -19.7956,-2.96453c-6.56109,-0.54156 -13.29522,0.22462 -19.87829,0.00482c-4.99444,-0.16676 -9.97223,-0.83148 -14.96655,-0.99778c-16.21811,-0.54 -32.55037,0.01032 -48.77863,-0.00244c-7.49575,0.83972 -15.33244,0.90326 -22.73772,1.97154c-3.81026,0.54966 -7.62717,1.65447 -11.54573,2.04947c-1.64184,0.1655 -3.31166,-0.13913 -4.95016,0.0567c-8.61028,1.02904 -17.11012,4.01224 -25.6943,5.08859c-5.18707,0.65039 -9.96675,0.83753 -15.21027,0.83753c-2.98624,0 -6.25952,1.09143 -8.95671,-0.1903c-1.40077,-0.66566 -2.20972,-2.17672 -3.31459,-3.26509c-3.97467,-34.066 -2.2287,-68.80706 -2.2287,-103.04461c0,-17.66667 0,-35.33333 0,-53c0,-9.3333 -0.51556,-18.82267 0.00383,-28.13825c0.32233,-5.78122 0.98962,-11.35404 1.01491,-17.16721c1.91906,-7.67622 0.47686,-15.6326 1.69792,-23.45949c1.76549,-11.3166 3.86937,-22.63802 5.36092,-34.01709c-2.07757,-0.26443 -2.07757,-2.47422 -2.07757,-2.47422zM474.99353,59.56745c-0.0931,-0.75399 -0.23756,-1.49898 -0.40835,-2.23938c-0.63591,-2.06105 -1.20442,-4.13818 -1.5529,-6.26096c-0.14404,-0.87744 -0.19999,-1.76232 -0.20924,-2.65112c-0.09646,-2.42622 0.08155,-5.04666 0.15096,-7.42347c-0.15692,-5.14121 -0.97094,-10.16247 -0.974,-15.32587c-0.00031,-0.5233 -0.05489,-1.05397 -0.0997,-1.58334c-0.83119,0.81932 -1.80839,1.52697 -2.63253,2.3511c-0.81781,0.78629 -1.44797,1.83342 -2.45344,2.35886c-5.38826,2.8158 -9.07647,-0.19515 -11.56012,-5.02825c-1.05074,-2.04472 -0.48937,-4.768 -1.79775,-6.65826c-0.66694,-0.96355 -2.21492,-1.0046 -2.94323,-1.92264c-0.72388,-0.91245 -0.57291,-2.29713 -1.18873,-3.28574c-0.79656,-1.27875 -1.99187,-2.26087 -2.9766,-3.40105c-1.91651,-2.21906 -4.38051,-3.90135 -6.48591,-5.94206c-0.35795,-0.34695 -0.07555,-1.57801 -0.53922,-1.39492c-1.08056,0.42666 -1.49262,1.79597 -2.37885,2.54714c-2.01988,1.71207 -4.1156,3.37192 -5.85501,5.3683c-5.44712,6.25181 -11.42387,11.9053 -16.74286,18.2767c-2.89729,2.90235 -5.99537,6.076 -9.38428,8.34226c-1.23917,0.82867 -2.78338,1.13858 -4,2c-0.00281,0.00199 -4.51348,4.61323 -4.8768,4.90525c-3.37421,2.71196 -4.79787,4.59599 -7.94145,7.73953c-2.63445,2.63442 -6.33643,4.54721 -8.92548,7.14325c-1.17692,1.1801 -1.82149,2.82149 -3,4c-0.84984,0.84984 -2.14961,1.15071 -3,2c-1.12154,1.12009 -1.81052,2.60764 -2.8294,3.82187c-1.46233,1.7427 -3.56382,2.82962 -5.30366,4.29535c-3.6688,3.09079 -6.13603,6.94535 -9.92607,9.93695c-6.88495,6.90614 -12.99279,15.77116 -21.19713,21.1578c-4.05786,2.66423 -8.94816,4.17571 -12.95395,6.966c-2.89325,2.01533 -5.09785,4.97977 -8.08095,7.05871c-4.09718,2.85533 -8.54418,5.90108 -12.92532,8.29402c-0.69647,0.3804 -1.5776,0.37132 -2.23849,0.81064c-5.36892,3.56886 -10.02734,8.63213 -15.19178,12.54264c-5.22655,3.95604 -10.60789,7.77065 -15.71813,11.87449c-1.57417,1.26416 -2.63011,4.21977 -4.62524,3.91055c-1.03993,-0.16118 -4.40326,-6.33242 -5.66126,-7.90018c-2.93479,-3.65742 -5.38814,-8.15484 -7.34724,-12.56083c-0.62865,-1.41383 -0.86377,-3.01409 -1.68588,-4.32491c-0.85404,-1.36173 -2.54144,-2.11672 -3.25687,-3.5561c-0.80305,-1.61567 -0.59233,-3.57226 -1.14056,-5.29119c-0.45998,-1.44223 -3.84958,-8.11468 -4.0822,-9.33562c-0.11183,-0.58695 1.31802,-1.11157 0.90757,-1.5458c-0.39423,-0.41706 -0.82781,0.79532 -1.22972,1.20499c-0.59812,0.60966 -1.05968,1.37834 -1.76997,1.85261c-2.55334,1.7049 -5.36913,3.01636 -7.82377,4.86053c-1.70892,1.68006 -4.14164,2.45241 -5.9835,3.98556c-0.88498,0.73665 -1.06775,2.08419 -1.88674,2.89357c-2.80448,2.77156 -7.01249,4.63095 -10.03056,7.24126c-0.17618,0.15238 -6.90412,6.48615 -6.90672,6.48522c-0.78031,-0.27807 -4.82243,-6.67463 -5.27943,-8.99158c-0.17501,-0.8873 0.43872,-1.88308 0.07724,-2.7121c-0.61431,-1.40886 -2.12516,-2.27114 -2.84274,-3.6303c-0.79438,-1.50463 -0.90505,-3.29757 -1.62807,-4.83777c-1.39978,-2.98188 -3.70696,-5.46183 -5.25209,-8.37106c-2.05158,-3.86279 -3.85208,-8.33665 -6.96015,-11.57365c-0.24356,-0.25367 -0.77846,-0.2603 -1.05417,-0.04199c-2.35428,1.86413 -4.24001,4.26906 -6.56736,6.16669c-2.6162,2.95758 -4.86769,6.10417 -7.39036,9.08247c-5.35401,6.32104 -11.50822,11.98581 -17.0873,18.10087c-2.40079,2.63144 -5.93243,9.57629 -10.96409,7.55022c-1.48665,-0.59862 -1.46777,-2.84952 -2.19166,-4.27936c-1.41258,-2.79013 -2.28506,-5.82451 -3.55492,-8.68243c-1.83966,-4.14028 -4.05792,-8.14035 -5.50006,-12.46294c-0.50523,-1.51434 -0.2614,-3.24136 -0.90243,-4.70341c-0.61223,-1.39638 -1.91029,-2.38166 -2.75926,-3.64814c-2.85462,-4.25848 -2.6659,-4.39321 -4.58324,-8.94189c-5.56463,-6.35127 -8.57337,-14.04811 -13.34449,-20.91973c-2.01698,-2.90495 -3.16006,-3.49439 -5.05226,-6.1067c-2.83613,-3.91546 -5.39218,-8.08075 -8.07377,-12.10473c-2.07729,-3.11716 -3.55672,-7.00668 -5.90664,-9.86927c-4.08708,-4.97873 -9.38973,-9.30786 -13.92314,-13.89185c-1.29801,-1.31249 -2.89196,-2.39407 -3.87426,-3.95694c-2.79642,-4.4492 -2.58269,-10.45409 -3.52944,-15.44889c-0.92896,-4.7389 -1.94424,-8.95572 -5.45417,-12.45204c-2.32715,-2.31813 -4.34528,-4.98251 -5.9836,-7.82949c-0.83396,-1.44921 -0.85848,-3.41079 -2.05997,-4.57359c-0.2192,-0.21214 -0.49666,0.37189 -0.67117,0.62208c-0.54668,0.78375 -0.93079,1.67283 -1.47664,2.45716c-1.49129,2.14285 -3.57028,3.84182 -5.01274,6.01784c-0.82365,1.24251 -1.16548,2.76477 -2,4c-0.95225,1.40949 -3.15019,1.89163 -3.71841,3.49493c-0.35906,1.01314 0.45392,2.3051 -0.10551,3.22294c-0.74634,1.22448 -2.43229,1.56436 -3.43642,2.58812c-3.45081,3.51828 -5.47109,8.44305 -9,12c-3.15874,3.14726 -5.09737,6.38929 -7.83441,9.81721c-2.30632,2.88848 -4.88838,5.62398 -6.98552,8.71925c-1.87781,2.77155 -2.92358,6.04408 -4.7559,8.84591c-0.5705,0.87237 -1.57349,1.40487 -2.14089,2.27926c-2.50274,3.85688 -4.33179,8.17101 -6.99318,11.99017c-2.56011,3.6738 -5.26029,7.73044 -8.12452,11.16541c-1.43949,1.72634 -3.60431,2.83026 -4.80673,4.72936c-2.41171,3.80904 0.35551,10.12999 0.34109,14.28522l1,3l-0.15802,2.44375l1.45807,1.18894l-0.57756,0.57756c0.17076,0.32629 0.23515,0.58386 0.23515,0.58386c0.59051,2.65647 1.33301,4.99493 3.88897,6.47971c2.00349,1.16384 4.5693,1.85693 5.8123,3.8123c0.83042,1.30634 1.96546,6.37738 2.29873,7.70799l0.05371,0.0986c1.0017,0.22195 1.60106,1.12099 1.60106,1.12099c4.93411,7.45723 6.20062,16.40487 10.17143,24.30025c4.40719,8.76305 10.9892,16.52476 16.44274,24.64515c5.06244,7.53804 9.03612,15.68802 14.21329,23.11822c5.30459,7.62534 10.43127,15.40238 16.1355,22.73504c3.53288,4.54144 8.43896,9.25775 11.1255,14.34421c4.52315,8.56373 8.50702,17.48749 13.04651,26.08485c3.80788,7.21175 8.30495,14.16672 12.50111,21.16025c5.62141,9.36902 11.45822,18.62255 16.96259,28.05799c1.48104,2.53876 2.88687,5.12287 4.44194,7.61697c0.55027,0.88255 1.23237,1.69018 1.80635,2.55703c0.94439,-1.7726 4.16237,-3.35206 5.0448,-4.69499c1.50398,-2.28885 2.3402,-5.02027 4.09475,-7.1232c0.81627,-0.97835 2.13078,-1.53762 2.75786,-2.64677c0.6764,-1.1964 0.36461,-2.78132 1,-4c0.88608,-1.6995 3.08614,-2.4253 4.04887,-4.08258c0.52948,-0.91146 0.66667,-2 1,-3c1.03284,-1.04915 2.24356,-1.9489 3.09852,-3.14745c0.86569,-1.21359 1.13278,-2.7875 2,-4c0.85261,-1.19207 2.15736,-1.99658 3.09475,-3.1232c1.26326,-1.51827 2.9778,-5.52446 5.35897,-5.84815c1.84824,-0.25124 3.84939,0.54697 5.34215,1.66536c0.92605,0.6938 0.49615,2.34673 1.219,3.25028c0.68418,0.85522 2.0094,0.97246 2.781,1.74972c0.84377,0.84997 3.28189,5.07591 4.16559,6.18279c1.76231,2.2074 4.51099,3.77898 6.09475,6.1232c0.83452,1.23523 1.11807,2.79816 2,4c0.95162,1.29681 2.39828,2.1606 3.42772,3.39654c1.70011,2.04115 2.90157,4.45826 4.53503,6.55313c1.61722,2.07404 3.56877,3.8894 5.04735,6.06445c1.79579,2.64169 3.57255,5.33204 5.76675,7.65343c0.01254,0.43306 -0.21098,1.65402 0.03761,1.29919c0.6159,-0.87911 0.61065,-2.08128 1.15743,-3.00496c1.66043,-2.80499 3.78736,-5.31032 5.53,-8.06499c0.884,-1.39738 1.55421,-2.9622 2.67644,-4.1766c1.40177,-1.51689 3.58485,-2.21877 4.86021,-3.84338c1.65829,-2.11242 3.26977,-4.28066 5.16559,-6.18279c0.83563,-0.83841 4.43035,-4.54594 5.19338,-4.66536c1.70977,-0.26758 3.5632,0.42424 5.0043,1.38243c2.87109,1.90901 5.34995,6.78585 7.53741,9.50809c2.0478,2.54844 4.426,4.81276 6.6328,7.22483c1.60775,1.7573 3.21058,2.5478 3.62899,4.19864c0.51126,-1.18361 1.22802,-2.27993 1.8111,-3.43304c5.21053,-4.42763 10.46959,-8.79635 15.72375,-13.17206c0.62162,-0.51769 5.6867,-4.79399 6.02983,-4.76724c2.20744,0.17211 3.85606,2.18082 5.72796,3.36334c6.38726,4.03496 11.52326,9.83798 17.86618,14.04881c1.36774,0.90799 2.83766,1.66002 4.17705,2.60933c0.82224,0.58277 1.28742,2.07761 2.28992,1.97422c1.1237,-0.11589 1.57152,-1.62347 2.33976,-2.45169c1.08909,-1.17413 2.15321,-2.37119 3.23184,-3.55494c5.68285,-6.23665 12.20277,-11.58537 18.58841,-17.087c3.44541,-3.09677 6.78713,-6.48525 10.42053,-9.36049c4.46829,-3.53593 10.02393,-6.1032 13.63121,-10.63507c9.01354,-11.32379 16.95549,-24.21845 24.65288,-36.52331c0.86864,-1.38858 1.3454,-3.00427 2.25951,-4.36335c1.43277,-2.13021 3.39837,-3.85603 4.93777,-5.91051c5.20004,-8.93193 10.66411,-17.22937 17.29862,-25.13755c1.40836,-1.67873 3.46878,-2.6972 5.01681,-4.24808c0.84906,-0.85062 1.14738,-2.15296 2,-3c0.77697,-0.77189 2.09896,-0.89279 2.781,-1.74972c0.66807,-0.83938 0.29863,-2.26826 1.03666,-3.04683c1.24289,-1.31116 3.21554,-1.71077 4.58747,-2.88624c2.28813,-1.96045 3.62185,-4.82298 5.60056,-7.09534c5.97561,-6.86242 12.34037,-12.78954 18.14934,-19.80389c5.12083,-6.17284 9.08839,-13.01011 13.36599,-19.76426c2.52754,-3.99087 5.5382,-7.53404 8.21927,-11.34861c3.44327,-4.89902 4.64741,-11.10956 7.96669,-15.95269c0.96967,-1.41484 2.51861,-2.34175 3.62253,-3.65453c0.73609,-0.87535 0.97309,-2.16696 1.86979,-2.8769c0.90461,-0.71621 2.25936,-0.5953 3.25413,-1.17985c1.75201,-1.02952 3.1053,-2.68139 4.28622,-4.33515c1.69036,-2.36718 1.75198,-5.54751 2.65142,-8.31371c0.67011,-2.06088 1.93641,-4.05825 1.87668,-6.22452c0.04276,-1.59686 -0.40728,-3.2856 0.12829,-4.79057c0.55879,-1.5702 2.3004,-2.48727 3,-4c0.04686,-0.10132 0.07684,-0.20568 0.09393,-0.31239c-1.69418,-5.46891 -2.55513,-11.54144 -3.22869,-16.99625z"/></g></g></svg>