<svg version="1.1" xmlns="http://www.w3.org/2000/svg" xmlns:xlink="http://www.w3.org/1999/xlink" width="787.68877" height="583.0236" viewBox="0,0,787.68877,583.0236"><g transform="translate(128.32835,68.44896)"><g data-paper-data="{&quot;isPaintingLayer&quot;:true}" fill-rule="nonzero" stroke="none" stroke-linecap="butt" stroke-linejoin="miter" stroke-miterlimit="10" stroke-dasharray="" stroke-dashoffset="0" style="mix-blend-mode: normal"><path d="" fill="#000000" stroke-width="0.5"/><path d="" fill="#000000" stroke-width="0.5"/><path d="" fill="#000000" stroke-width="0.5"/><path d="" fill="#000000" stroke-width="0.5"/><path d="" fill="#000000" stroke-width="0.5"/><path d="" fill="#000000" stroke-width="0.5"/><path d="" fill="#000000" stroke-width="0.5"/><path d="" fill="#000000" stroke-width="0.5"/><path d="" fill="#ff0000" stroke-width="0.5"/><path d="" fill="#000000" stroke-width="0.5"/><path d="" fill="#a500ff" stroke-width="0.5"/><path d="M576.53687,396.45386c-3.00588,7.5566 -4.611,15.59814 -7.01057,23.36857c-1.01552,3.28852 -2.95311,6.24156 -4.27524,9.37716c-1.51442,3.59165 -0.32976,7.3392 -1.27665,10.96468c-1.36209,5.21519 -2.22642,7.76387 -5.47136,11.76289c-1.50542,1.85526 -2.4144,4.68089 -4.68489,5.42461c-2.0802,0.68139 -11.77602,4.48072 -14.45312,3.90625c-4.46428,-0.95797 -8.91673,-1.98448 -13.32449,-3.17577c-2.30645,-0.62337 -3.36268,-3.39731 -4.96353,-5.17088c-9.33537,-10.34263 -7.3375,-25.97965 -7.92055,-38.95867c-0.05054,-1.12504 0.19913,-3.92965 0.44444,-6.43979c-1.33482,0.50934 -2.66964,1.01868 -4.00447,1.52802c-10.90008,4.15924 -21.80017,8.31848 -32.70025,12.47773c-6.02087,2.29744 -12.80134,6.07229 -19.12398,7.25299c-6.26447,1.16983 -13.93127,0.04169 -20.31555,0.04141c-9.59377,-0.00042 -19.18806,0.53216 -28.77463,0.89055c-14.78725,0.55281 -30.08451,0.02367 -44.78416,1.66739c-13.19168,1.4751 -26.10017,5.5854 -39.2581,7.36453c-6.50458,0.87951 -13.17562,1.09994 -19.71775,1.64968c-8.3132,0.69857 -16.68257,1.75043 -25.01678,2.09998c-26.48494,1.11082 -53.26291,0.0022 -79.77455,0.0022c-33.63056,0 -66.94758,1.24312 -100.55519,1.24312c-13.33333,0 -26.66667,0 -40,0c-6.51663,0 -12.63521,0.34635 -19.10001,1.14894c-3.13685,0.38943 -6.43212,0.07456 -9.41706,1.11457c-1.46438,0.51022 -2.58761,1.72072 -3.96409,2.43488c-2.93975,1.52522 -5.99432,2.85771 -9.13703,3.9026c-2.40853,0.80078 -5.04857,0.6379 -7.50994,1.25754c-2.72543,0.68612 -5.25188,2.00315 -7.88013,2.99865c-4.56799,1.40679 -9.72318,2.41791 -14.10579,4.31902c-3.89496,1.68957 -7.75401,4.86127 -11.32543,7.14677c-4.02051,2.57289 -8.63701,5.01678 -12.3428,8.02153c-2.52191,2.04483 -4.50665,4.67909 -6.87782,6.89696c-1.54181,1.44213 -2.65898,3.83531 -4.73786,4.20298c-2.20702,0.39033 -4.94158,-0.49121 -6.33828,-2.24407c-0.74464,-0.93452 -0.51006,-9.59102 -0.65279,-11.2578c-0.81914,-9.56536 -3.48666,-18.42821 -6.36587,-27.51322c-1.50613,-4.75241 -3.5242,-9.65217 -4.59055,-14.51933c-2.4766,-11.30402 -2.94613,-23.46521 -4.38344,-34.95396c-2.27588,-18.19152 -4.55176,-36.38304 -6.82763,-54.57457c-1.6507,-13.19436 -4.15331,-26.57741 -4.98005,-39.84547c-0.92823,-14.89682 0.76431,-29.95136 0.00029,-44.8579c-0.30765,-6.00243 -1.56525,-12.11369 -2.33313,-18.07613c-4.478,-34.77064 -9.49949,-69.44689 -12.05338,-104.41552c-1.025,-14.03463 -2.05,-28.06926 -3.075,-42.10389c-1.58639,0.31566 -3.22687,0.4812 -4.90602,0.4812c-0.22823,0 -0.45575,-0.00306 -0.68252,-0.00914c-5.09843,0.21157 -10.18069,-0.81579 -13.10364,-4.13232c-6.75752,-4.47528 -11.21384,-12.14649 -11.21384,-20.85854c0,-10.02783 5.90405,-18.6767 14.42567,-22.66013c3.85509,-2.01806 7.72147,-4.01393 11.59711,-5.99159c-0.22998,-3.1489 -0.45995,-6.29779 -0.68993,-9.44669c-1.77793,-24.34401 -3.55587,-48.68802 -5.3338,-73.03203c-1.3804,0.16121 -2.77478,0.28619 -4.19198,0.38603c-0.42108,0.12042 -0.75204,0.12042 -0.75204,0.12042l-0.01899,-0.06866c-0.36009,0.02301 -0.72173,0.04455 -1.08508,0.06479l0.48981,-2.2165l-0.76791,-2.77576c2.04083,-0.11368 4.01637,-0.26915 5.96149,-0.50389c-0.28569,-3.91178 -0.57138,-7.82355 -0.85707,-11.73533c0,0 -0.1821,-2.49336 2.31126,-2.67546c2.49336,-0.1821 2.67546,2.31126 2.67546,2.31126c0.27505,3.76601 0.55009,7.53201 0.82514,11.29802c1.9559,-0.40581 3.91124,-0.92738 5.90297,-1.60439c1.68227,-0.57182 3.19263,-1.66997 4.9363,-2.01147c1.79753,-0.35204 3.66326,-0.02886 5.49494,-0.03147c6.85996,-0.00977 13.37514,0.60373 20.18198,1.32747c18.21032,1.93621 36.49808,3.31771 54.73614,4.97572c21.57769,1.96161 43.15537,3.92322 64.73306,5.88482c12.8858,1.17144 25.86191,1.58126 38.36163,4.99027c4.0503,1.10463 8.30576,2.66364 12.53922,3.83061c30.60513,-8.10092 60.36384,-17.8767 91.42281,-24.29039c14.08644,-2.90886 28.8135,-1.3094 43.06828,-1.83844c6.38205,-0.23686 12.79946,-0.47258 19.22971,-0.72712c12.29867,-2.19159 25.02957,-5.3443 37.43734,-5.36466c6.66667,0 13.33333,0 20,0c0.63977,0 10.03605,-0.01149 10.43101,0.03743c0.20573,0.02548 0.41301,0.05648 0.62164,0.09254c9.22344,-1.79084 18.43323,-3.91138 27.53912,-3.98316c31.79967,-0.25069 33.02718,0.20832 69.39191,3.83203c2.62798,0.26188 5.48324,0.98469 8.22365,2.12609c0.05107,0.00715 0.10213,0.01445 0.15317,0.02189c1.88258,-0.3807 3.73783,-0.65117 5.47974,-0.67128c1.81762,-0.02099 3.58833,0.58382 5.38086,0.88549c5.01955,0.84476 9.94766,1.71569 14.88706,2.94964c13.02982,3.25509 26.06521,6.48935 39.08394,9.78851c6.85468,3.5067 13.67881,7.07357 20.51415,10.61782c4.4282,2.2961 9.51034,4.31986 13.64217,7.10684c2.27621,1.53534 3.90364,3.86206 5.84509,5.8035c4.63642,4.63642 9.38696,9.12975 13.58783,14.16804c4.15598,4.98444 8.20746,9.79916 11.74463,15.21057c1.02779,1.57239 2.68507,2.80015 3.28178,4.58136c0.16648,0.49695 0.12829,9.77427 0.12829,10.59795c0,8.23348 -0.4455,16.60782 -0.00595,24.82769c0.48183,9.01041 2.12433,18.79376 3.84183,27.65407c2.38447,12.30109 7.34002,24.35952 8.5831,36.88613c0.01606,0.16182 0.01222,9.84382 0.01222,10.19184c-0.00327,6.22933 0.82422,12.30049 1.23765,18.50907c0.55135,8.27965 0.69325,16.60927 1.03827,24.90041c0.23997,5.76671 0.12069,11.47137 0.72121,17.20013c0.1338,1.27645 -0.33203,2.70296 0.26034,3.84153c0.37157,0.71417 1.65977,0.36478 2.2259,0.93713c0.77964,0.78821 0.97519,1.99877 1.59037,2.92108c2.61299,3.9175 6.38805,7.20175 8.75335,11.27355c0.11279,0.19417 3.69215,9.07844 3.78933,9.31908c9.80205,24.27174 19.08622,48.71337 30.62049,72.21649c2.19395,4.47056 3.34192,9.47238 5.58502,13.85582c1.47071,2.87403 3.6578,5.32096 5.4785,7.98706c6.5843,9.64887 12.14748,20.11458 17.91238,30.27518c0.92339,1.62747 2.17083,3.11718 2.73884,4.90006c0.43653,1.37019 0.14719,2.87247 0.19531,4.30971c0.0694,2.07239 1.07406,4.35881 0.15725,6.21866c-0.38432,0.77964 -8.09381,5.71603 -9.24613,6.46741c-5.83231,3.80303 -12.19055,5.85328 -18.676,8.32799c-7.78577,2.97089 -15.57155,5.94177 -23.35732,8.91266c-8.2339,3.14188 -16.46781,6.28377 -24.70171,9.42565c-2.23059,5.10759 -4.39851,10.24147 -6.45861,15.42045zM503.69746,145.49884c0.47909,-0.58331 1.0231,-1.12357 1.5333,-1.68625l-74.90543,-127.77986c-17.51544,2.88951 -35.03088,5.77903 -52.54632,8.66854c-1.42688,0.23539 -2.85376,0.47078 -4.28064,0.70618c0.0369,-0.59564 0.05564,-1.20318 0.05564,-1.82286c0,-12.33929 -8.6154,-23.70581 -20.15163,-27.75439c-13.62858,-4.78288 -28.4067,-3.65047 -42.40237,-6.19857c-5.65026,-1.0287 -11.73181,-3.95383 -17.77285,-4.00711c-7.67118,-0.06766 -15.34562,0.20181 -23.01445,0c-17.19485,-0.4525 -22.84382,-1.54481 -38.41974,-1.19099c-31.51743,0.71594 -63.95204,0.55295 -95.14586,3.80629c-38.03441,3.96678 -51.5727,7.56475 -84.73572,6.08655c-8.09972,-0.36104 -16.15274,-1.43645 -24.21373,-2.30607c-8.46193,-0.91287 -16.96669,-2.47017 -24.74158,2.47749c-2.87632,1.83039 -6.43923,3.20679 -8.18239,6.1368c-3.84635,6.46515 -4.45047,10.33052 -3.86391,17.95581c0.31864,4.14231 3.02362,7.78946 3.34459,11.90221c0.29345,3.76019 0.03259,17.05251 -0.40577,22.15622c-0.04163,0.48472 -0.33732,0.86632 -0.69434,1.22748c-0.45593,0.46122 -1.01186,0.88912 -1.26638,1.45588c-0.73068,1.62704 -0.90359,3.41458 -1.01439,5.22207c-0.22903,1.30243 -0.34848,2.64262 -0.34848,4.01071c0,4.62624 1.36586,8.93348 3.71631,12.54044c0.21937,0.82307 1.40437,5.74809 2.36368,6.97204c0.87056,1.11071 1.81722,2.12302 2.82941,3.03915c-5.06954,0.83632 -10.13907,1.67264 -15.20861,2.50896c6.60089,2.15159 13.3381,4.74707 20.05936,6.0837c4.76165,0.94693 9.85412,1.14931 14.67732,1.71674c6.23072,0.73303 12.6491,2.00698 18.91668,2.23251c9.84669,0.35431 19.94618,-0.6504 29.79775,-0.96819c34.98366,-1.12851 69.9698,-2.17113 104.9558,-3.22449c16.65912,-0.50157 33.31824,-1.00315 49.97735,-1.50472c0.02684,-0.00081 10.02932,-0.30205 10.03196,-0.30178c1.7989,0.18771 4.67652,-0.47504 5.28519,1.22813c0.81449,2.27907 -1.4419,4.62983 -2.39693,6.85368c-0.95375,2.22086 -2.57669,4.12393 -3.44991,6.37767c-0.61601,1.5899 -0.86778,3.32302 -1.62815,4.84915c-0.62189,1.24819 -1.22014,2.75829 -2.47015,3.37653c-1.48547,0.73469 -3.3181,0.09483 -4.96262,0.29959c-3.06275,0.38134 -5.97968,1.67382 -8.74279,3.04898c-6.21897,1.70295 -12.05163,4.67154 -18.26832,6.29911c-8.99983,2.35621 -18.81399,1.97831 -28.05031,2.65723c-17.95594,1.31987 -36.12171,2.99867 -54.12767,3.0041c-34.98582,0.00355 -69.95791,0.87558 -104.93668,1.55448c-6.20686,0.12047 -12.41372,0.24093 -18.62058,0.3614c0,28.86229 0,57.72458 0,86.58687c0,7.24259 1.00239,15.25629 -0.03228,22.40046c-0.30217,2.08642 -1.65683,3.91993 -2,6c-0.18041,1.0935 0.2937,2.27884 -0.07499,3.324c-0.50757,1.43888 -1.5207,2.65764 -2.45937,3.86051c-0.43588,0.55857 -1.44236,0.68681 -1.62366,1.37174c-1.35533,5.12025 2.07761,10.27415 1.14519,15.51606c-0.2938,1.65168 -1.504,3.03647 -1.86348,4.6751c-0.84993,3.87423 0.68839,7.46534 1.7803,11.06156c0.22477,0.74028 0.05372,1.68887 0.59254,2.24404c2.05962,2.12214 5.08972,3.0142 7.59214,4.59008c0.58598,0.60994 1.04794,1.37015 1.75795,1.82982c3.295,2.13325 8.13872,-0.5 11.64238,0.81693c1.64585,0.61863 2.69315,2.6779 4.44375,2.84198c3.1859,0.2986 6.39968,-0.03228 9.59954,-0.03228c3.34403,0 7.38581,0.43745 10.75366,0.01217c6.34904,-0.80175 12.65481,-2.5851 19.06864,-3.00584c4.17885,-0.27413 8.73809,0.66185 12.87225,0.01241c3.36872,-0.5292 6.6174,-1.65069 9.9341,-2.44303c8.3801,1.49261 16.73832,3.10361 25.10228,4.68396c4.85879,0.91805 10.31107,1.36886 15.02169,2.85631c6.2847,1.98449 12.49006,5.63084 18.49996,8.34961c13.66662,6.18252 27.33324,12.36504 40.99986,18.54755c6.00443,2.71629 12.45329,5.06291 18.22216,8.24336c2.05015,1.13028 5.39723,1.45626 5.95018,3.7311c0.33106,1.36197 -0.55659,2.54987 -1.58162,3.71815c0.66968,0.01489 1.34205,0.04381 2.00141,0.00496c4.7029,-0.27715 9.40624,-0.64 14.11844,-0.71043c0.95304,-0.01424 8.51329,-0.03487 8.9937,0.19003c3.05646,1.43086 4.32626,5.20266 6.78407,7.51535c1.14322,1.07572 2.69044,1.62969 3.93826,2.58208c5.30573,4.04955 10.09415,9.03348 15.00996,13.54289c1.7252,1.58257 3.30408,3.3863 4.47327,5.41456c0.70369,1.22074 1.22326,2.53905 1.86583,3.79304c0.18428,0.35962 0.21031,1.07142 0.61356,1.04553c2.91938,-0.18747 5.54952,-1.86351 8.37185,-2.63317c5.78235,-1.45598 11.64886,-3.4003 17.52538,-4.40769c4.84971,-0.83137 9.95373,-0.78172 14.75714,-1.83325c1.13041,-0.24746 2.12552,-0.98716 3.26795,-1.17133c1.32804,-0.21409 2.70332,0.18021 4.03555,-0.00603c5.3208,-0.74383 10.6091,-3.16822 15.98997,-3.99835c12.93907,-1.99617 26.33948,-3.03393 39.41048,-3.03393c16.33333,0 32.66667,0 49,0c8.06329,0 16.71842,0.90282 24.72452,0.01522c9.6289,-1.06751 19.53708,-4.40148 28.99937,-6.52566c9.64829,-2.16594 19.33361,-4.16296 29.04179,-6.05291c6.63604,-46.60531 13.34618,-93.20011 20.10829,-139.78732c-2.2153,-3.72057 -4.43061,-7.44115 -6.64591,-11.16172c-1.58501,-2.66201 -2.39055,-5.93642 -4.66729,-8.03761c-1.22753,-1.13289 -2.96486,-1.5397 -4.44729,-2.30956c-0.83436,-2.1628 -1.31442,-4.47272 -2.35926,-6.54206c-1.11667,-2.2116 -2.79085,-4.25819 -3.22193,-6.69792c-0.0267,-0.1511 -0.03246,-2.53547 -0.03313,-4.35689c-0.50604,-0.33173 -0.95487,-0.90454 -0.99607,-1.89367c-3.85547,4.70325 -5.32172,11.24475 -9.75858,15.64084c-3.58878,3.5558 -8.03232,3.38381 -12.63132,4.43951c-5.34829,1.2277 -8.41891,2.36216 -12.77328,5.74143c-3.29032,1.40768 -6.27409,3.67551 -9.76552,4.46144c-6.53563,1.4712 -14.55998,-2.13436 -20.35248,-4.71891c-2.33281,-1.04088 -5.87056,-2.91178 -8.56135,-3.08592c-8.21052,-0.53137 -16.75831,3.53118 -24.98894,2.85005c-2.91328,-0.24109 -5.46062,-2.08918 -8.17712,-3.16898c-1.9433,-0.77245 -4.00133,-1.48655 -6.08541,-2.20857c-0.67325,0.39921 -1.40909,0.39921 -1.40909,0.39921h-2c-4.81491,0 -11.48335,-0.58567 -15.28107,3.31529c-3.46206,3.55617 -5.90196,7.88127 -9.4913,11.43096c-0.9112,0.79765 -7.77199,6.8882 -8.51258,7.1493c-1.52683,0.53831 -3.22815,-0.25964 -4.83627,-0.44656c-3.31104,-0.38487 -6.60266,-0.9216 -9.90399,-1.3824c-0.49802,-0.06951 -10.04564,-1.39192 -10.29997,-1.47092c-0.25217,-0.07833 -8.87296,-4.39929 -9.32072,-4.62355c-9.9545,-4.98567 -18.84357,-12.29417 -27.94694,-18.68664c-3.88352,-2.72705 -8.8652,-5.33026 -12.27572,-8.62013l-4.06349,-2.85342c-0.65911,-0.45016 -1.09173,-1.20751 -1.09173,-2.06591c0,-1.38071 1.11929,-2.5 2.5,-2.5c0.15625,0 0.30915,0.01433 0.45746,0.04176c3.28798,0.548 11.46147,1.91025 14.74945,2.45824c14.40059,2.4001 28.77573,4.61723 43.39173,5.25509c14.16523,0.61818 28.68744,-0.67069 42.86703,-1.00045c0,0 0.95772,-0.02227 1.70124,0.55361c16.84933,-3.52925 36.73471,-7.69443 52.75598,-11.05024c29.36279,-6.15031 58.72559,-12.30063 88.08838,-18.45094c0,0 0.11396,-0.02387 0.29786,-0.03671z" fill="#000000" stroke-width="0.5"/><path d="M470.9934,514.57463v-583.0236h145.44512v583.0236z" fill="#000000" stroke-width="0"/></g></g></svg>