<svg version="1.1" xmlns="http://www.w3.org/2000/svg" xmlns:xlink="http://www.w3.org/1999/xlink" width="35" height="32" viewBox="0,0,35,32"><g transform="translate(-234.5,-148)"><g data-paper-data="{&quot;isPaintingLayer&quot;:true}" fill-rule="nonzero" stroke="none" stroke-linecap="butt" stroke-linejoin="miter" stroke-miterlimit="10" stroke-dasharray="" stroke-dashoffset="0" style="mix-blend-mode: normal"><path d="M252,148c9.66498,0 17.5,7.16344 17.5,16c0,8.83656 -7.83502,16 -17.5,16c-9.66498,0 -17.5,-7.16344 -17.5,-16c0,-8.83656 7.83502,-16 17.5,-16z" fill="#9966ff" stroke-width="0"/><path d="M260.36653,163.99465c1.30744,1.96116 1.10315,2.9826 -0.85801,4.29004c-0.80543,0.53695 -3.09805,-0.38495 -3.93003,-0.38126c-1.2202,0.00541 -2.767,0.53875 -4.11945,0.73785c-0.14312,0.61457 -0.22126,1.06743 -0.17265,1.18724c0.56571,1.39432 0.60045,2.34805 0.67196,3.93461c0.03939,0.87393 0.56075,1.96185 -0.01048,2.62443c-0.54837,0.63607 -1.29959,1.13197 -2.09631,1.39754c-2.36239,0.78746 -2.84987,-2.56534 -2.88975,-3.82483c-0.04903,-1.54815 -0.59431,-2.41752 -0.76558,-3.8305c-0.38034,-3.13778 1.95996,-6.30617 1.64058,-9.73525c-0.18833,-2.02202 -3.01648,-3.58484 -3.44133,-5.70909l-0.05867,-0.54091c0.05874,-0.3997 0.13501,-0.74532 0.22666,-1.04161c0.39298,-1.27041 1.06881,-1.63373 1.85855,-1.46337c3.43869,-1.0911 15.70048,0.64765 17.42542,2.36175c1.40549,1.39665 -0.42206,4.47789 -2.40038,4.15881c-2.3237,-0.37479 -4.99985,-1.28677 -7.51516,-1.52449c-0.43579,-0.04119 -1.30771,0.01863 -2.32287,0.08301c0.06817,0.1051 0.12937,0.20199 0.1829,0.28916c1.1949,1.94545 1.09442,3.67638 1.05257,5.89324c2.78829,-0.15229 6.70751,-0.12815 7.52203,1.09364z" fill="#000000" stroke-width="0.5"/></g></g></svg>