<svg version="1.1" xmlns="http://www.w3.org/2000/svg" xmlns:xlink="http://www.w3.org/1999/xlink" width="650.28299" height="426.24053" viewBox="0,0,650.28299,426.24053"><g transform="translate(99.71891,11.45644)"><g data-paper-data="{&quot;isPaintingLayer&quot;:true}" fill="#000000" fill-rule="nonzero" stroke="none" stroke-width="0.5" stroke-linecap="butt" stroke-linejoin="miter" stroke-miterlimit="10" stroke-dasharray="" stroke-dashoffset="0" style="mix-blend-mode: normal"><path d="M284.41611,-2.91421c10.14887,-0.38447 20.26471,-0.03501 30.38842,-1.00506c6.00716,-0.57107 12.05437,-0.46629 18.05149,-1.02854c25.98638,-2.43633 51.9233,-3.46019 77.97883,-1.08344c13.71534,2.30398 27.99036,2.10556 41.85231,3.02011c5.21021,0.34375 10.75757,0.4899 15.86784,1.60334c4.64423,1.01189 9.33576,2.53782 13.82484,4.08816c3.11558,1.07599 6.23941,2.13334 9.39829,3.07465c1.9519,0.58164 5.90449,1.61617 7.3535,2.841c1.37068,1.15861 2.11811,2.89796 3.17717,4.34694c3.66131,12.01459 3.25529,24.15512 3.25529,36.60057c0,7.10524 0.29135,14.89493 -1.03132,21.89451c-1.88986,10.00116 -5.43295,19.74073 -8.14934,29.60592c1.74749,1.78529 3.18673,3.87188 4.81575,5.77241c4.91705,5.73655 9.81152,11.49101 14.69612,17.25522c4.29509,5.06854 9.44023,10.05764 13.04027,15.65c4.17873,6.4913 6.8103,14.71191 10.04798,21.72689c3.29955,7.17099 5.22317,14.80926 7.5044,22.35979c1.50051,4.96647 3.29207,9.8236 3.81269,15.02401c0.60342,6.02756 -0.01689,12.4414 -0.02936,18.5001c-0.00064,0.31157 -0.01698,10.08352 -0.03301,10.24374c-1.11309,11.12428 -4.99296,22.25495 -7.98239,32.9722c-1.05693,7.4682 -2.10489,14.38192 -4.49408,21.53476c-0.89589,2.68216 -2.21013,7.46309 -4.1406,9.67498c-0.89249,1.0226 -2.35366,1.35523 -3.49098,2.096c-2.8557,1.86 -5.73924,3.70572 -8.79876,5.20703c-1.65497,0.81209 -3.19573,1.94527 -4.9819,2.40134c-1.73244,0.44235 -3.57114,0.19975 -5.35873,0.23898c-1.0913,0.02395 -2.35461,-0.63746 -3.27432,-0.04955c-0.5253,0.33579 0.61724,1.16368 0.56017,1.78452c-0.09649,1.04967 -0.82049,1.9613 -1,3c-1.12036,6.48278 0.99613,13.21927 1.03228,19.59954c0,16.66667 0.00006,33.33333 0,50c-0.00003,8.32207 -0.81676,17.23553 1.87171,25.20943c0,0 0.79057,2.37171 -1.58114,3.16228c-0.70266,0.23422 -1.26654,0.19087 -1.71219,0.01387c-0.01763,0.02758 -0.03581,0.05496 -0.05456,0.08214c-0.9626,1.39456 -3.01373,1.66387 -4.67544,1.99572c-4.61371,0.92137 -10.6762,0.00017 -15.3969,-0.01378c-8.43224,-0.02491 -16.66265,-0.47278 -25.06477,-0.95222c-10.22318,-0.58336 -20.64627,0.00257 -30.88671,0.00257c-16.61195,0 -33.31903,-0.54273 -49.92041,-0.00127c-15.99979,0.52185 -32.01309,2.05386 -48.00348,2.89546c-21.22026,1.11686 -42.73612,1.3069 -63.88225,3.38676c-12.99207,1.27785 -26.11806,2.71524 -39.19386,2.71905c-4.96692,0 -10.44872,0.57666 -15.37371,-0.02809c-1.20156,-0.14754 -2.28417,-0.8358 -3.47412,-1.05835c-4.7591,-0.89006 -9.85936,-1.00543 -14.67712,-1.50271c-22.81817,-2.35521 -45.65559,-5.19034 -68.59189,-5.7618c-23.29996,-0.58052 -46.95878,-0.45049 -70.17366,-2.66599c-10.83055,-1.03361 -21.88869,-4.06241 -32.57201,-6.13656c-2.37915,-1.32817 -4.62079,-2.92283 -7.10535,-4.04145c-2.92813,-1.31834 -6.45439,-2.36211 -8.19896,-5.05811c-0.90408,-1.39714 -0.52493,-3.28944 -0.90291,-4.91008c-0.39252,-1.68297 -1.11389,-3.28684 -1.4061,-4.9901c-0.33515,-1.95356 0.34005,-3.99219 0.00812,-5.9463c-0.4036,-2.37597 -1.46752,-4.598 -1.9911,-6.95044c-0.11361,-0.51047 -0.99583,-5.9907 -1.75563,-7.28975c-0.85735,-1.46583 -2.28584,-2.56579 -3.0429,-4.08584c-1.66638,-3.34581 -1.61246,-7.47223 -4.537,-10.33365c-2.28224,-2.23298 -5.28556,-3.74931 -7.23376,-6.279c-2.67809,-3.47745 -4.3826,-8.69967 -6.32295,-12.61175c-2.55869,-10.74317 -5.03992,-21.67307 -6.22558,-32.6738c-1.17635,-10.91439 -0.47142,-22.03309 -1.90858,-32.90475c-0.62702,-4.74318 -2.20563,-9.43851 -3.02591,-14.1631c-1.13907,-6.56071 -1.98247,-13.18917 -2.97087,-19.77449c-1.24969,-6.24998 -2.55947,-12.793 -3.01172,-19.15667c-0.51932,-7.30734 -0.00629,-14.8517 -0.00629,-22.17722c0,-5.2325 -0.8869,-11.24145 0.02978,-16.3847c0.52709,-2.95738 1.74669,-5.79735 1.97651,-8.79252c0.32377,-4.21947 -0.23324,-8.45657 0.24556,-12.68615c0.56624,-5.00197 1.48582,-9.99971 2.22708,-14.97907c0.23942,-1.30903 0.49939,-2.62287 0.76773,-3.9401l-2.53723,-0.84574c-6.05974,-2.09807 -13.80809,-1.87578 -20.20943,-1.87171c-10.38187,0 -21.04977,0.68994 -31.39074,-0.36902c-0.9439,-0.09666 -10.51564,-1.75008 -10.96669,-2.03161c-4.3079,-2.68879 -2.99225,-7.76021 -3.50309,-11.8279c-0.53778,-4.28217 -1.31548,-8.79593 -1.63319,-13.09425c-0.20991,-2.83988 0.59946,-5.66516 1.01244,-8.48268c0.82232,-5.61012 -0.01873,-12.01762 -0.01873,-17.69454c0,-15.34034 -0.27774,-30.70882 0.00043,-46.0462c0.08317,-4.58577 1.31168,-9.66738 3.17565,-13.87542c0.81168,-1.83243 1.41524,-3.99065 3.0096,-5.20501c0.54622,-0.41604 6.27253,-0.40639 7.38998,-0.37223c7.69633,0.23528 15.40774,0.93266 23.0939,1.39848c23.5586,1.42779 47.27322,1.25199 70.87136,1.60071c9.71932,0.14363 19.19814,1.06626 28.95007,0.829c6.04226,-0.14148 11.83274,-1.2958 17.8318,-1.82305c5.95642,-0.5235 12.19708,-0.00629 18.17722,-0.00629c6.66788,0 13.57715,-0.53349 20.21862,0.00958c4.88296,0.39927 9.50037,2.09601 14.2491,3.03456c2.58912,0.51172 5.21339,0.92129 7.7576,1.61473c0.89653,-0.88401 2.26498,-0.61032 2.26498,-0.61032c0.05664,0.01133 0.19151,0.03816 0.3896,0.07759c5.61458,-3.8259 11.20584,-7.71449 17.14637,-10.91781c5.81866,-3.13761 12.50137,-5.47914 18.71548,-7.69931c0.44973,-0.16068 9.50856,-3.40454 9.76697,-3.46026c3.05905,-0.65968 6.24867,-0.35523 9.37371,-0.5197c9.08341,-0.47807 18.1068,-0.62255 27.20421,-0.45337c8.33546,0.30854 16.86606,0.12618 25.1658,0.9371c9.74615,0.95225 19.52453,3.31312 29.16008,5.02149c5.81879,1.03166 11.77879,1.2946 17.58862,2.37549c0.98984,0.18416 1.97719,0.37989 2.96264,0.58464c2.88195,-0.18542 5.76351,-0.33541 8.64339,-0.4445zM237.33723,287.95397c-0.69393,0.33322 -1.54725,-0.06765 -2.32556,-0.09098c-0.80824,0.71844 -1.61721,1.43543 -2.42912,2.14881c-1.02897,2.93371 -0.7831,9.06714 -3.36996,11.24342c-0.06032,0.05074 -1.93271,0.63159 -3.79663,1.20221c-1.90315,3.2719 -4.09026,6.36523 -6.60069,9.13109l-1.82823,3.65647c-0.40086,0.84561 -1.26228,1.43041 -2.26029,1.43041c-0.61962,0 -1.18659,-0.22542 -1.62338,-0.59872c-0.09646,0.18251 -0.1909,0.3639 -0.28304,0.54413l-0.38677,0.17956l0.12643,0.12643l-1.96726,1.96726l-0.12793,-0.12793l-1.10291,2.74368c8.28947,2.67662 16.29115,6.34557 24.94809,8.07683c6.38869,1.27764 13.15446,1.65751 19.62919,2.37871c13.25138,1.47603 26.50275,2.9522 39.75412,4.4283c12.37492,1.37847 24.6726,1.14227 37.11568,1.14227c7.88799,0 15.97396,0.49484 23.84466,0.00483c2.68223,-0.16699 5.31654,-0.85425 8,-1c8.98684,-0.4881 18.15243,-0.00483 27.15534,-0.00483c8.10454,0 16.66755,0.37083 24.66817,-0.97788c7.36135,-1.24094 14.51368,-3.85565 21.94141,-4.99145c12.63066,-1.93139 26.03864,-1.30853 38.06554,-6.37206c1.63039,-0.68642 4.74579,-3.66739 5.49419,-4.31071c3.56705,-3.05061 6.57469,-6.45037 9.74506,-9.90875c1.9968,-2.1782 4.34133,-4.06017 6.08865,-6.44316c1.56532,-2.13478 2.39705,-4.74268 3.92934,-6.90128c0.629,-0.8861 3.74468,-3.60044 3.56794,-5.63339c-0.55006,-6.32711 -4.76113,-10.05936 -6.97999,-15.64236c-0.54766,-1.37799 -0.2576,-3.00319 -0.83312,-4.36978c-0.61092,-1.45065 -1.89432,-2.52734 -2.65242,-3.90679c-1.97738,-3.59804 -4.27078,-8.31187 -5.41822,-12.28795c-1.38525,-4.80011 -2.56167,-9.67942 -3.97451,-14.49884c-0.81879,-2.8599 -0.64318,-5.91715 -1.10976,-8.85514c-0.5687,-3.58102 -2.38524,-8.09111 -3.84198,-11.44375c-2.50745,-5.77082 -6.712,-10.64925 -10.42778,-15.66104c-11.73675,-15.83039 -26.52279,-28.65307 -41.07043,-41.8407c-4.34483,-3.964 -8.30155,-9.07718 -11.32832,-14.1563c-0.72999,-1.22497 -1.05019,-2.6858 -1.89187,-3.83688c-2.4386,-3.335 -6.31806,-5.63825 -8.90525,-8.8768c-0.7136,-0.89326 -1.07376,-2.05909 -1.88278,-2.86693c-4.11834,-4.11234 -9.23052,-7.2142 -13.70356,-10.93346c-8.54672,-7.10648 -16.91837,-13.92147 -25.63984,-20.76824c-5.98478,-2.50538 -12.23589,-4.79893 -17.99342,-7.79807c-2.9327,-1.52766 -5.52193,-3.6789 -8.50333,-5.10919c-11.11092,-5.33031 -23.66059,-6.64771 -35.17283,-10.75057c-3.12749,-1.11461 -5.92879,-3.0386 -9.06613,-4.12517c-1.31982,-0.4571 -2.79527,-0.39707 -4.08489,-0.93349c-1.02855,-0.42782 -1.68901,-1.55042 -2.74433,-1.90713c-0.84536,-0.28574 -1.79602,0.2231 -2.676,0.07499c-2.72295,-0.45832 -5.24726,-1.72189 -7.86391,-2.60374c-9.51324,-0.90693 -19.62858,-2.89875 -28.91176,-5.19979c-1.12228,-0.27818 -2.12019,-0.97482 -3.254,-1.20147c-1.88803,-0.37742 -3.86063,0.22416 -5.77607,0.02876c-4.3412,-0.44285 -8.6498,-1.34036 -12.98639,-1.8271c-1.94162,-0.21793 -4.01978,-1.03669 -5.8507,-0.35468c-1.68682,0.62833 -2.39745,2.57877 -3.3319,4.21915c0.60065,0.4894 1.21028,0.97199 1.83533,1.44118l-0.62826,4.73122c0,0 -1.70125,1.83187 -3.53312,0.13062c-0.86991,-0.80788 -0.94308,-1.64521 -0.78004,-2.30185c-0.87142,1.01044 -1.75185,2.01389 -2.58535,3.05495c-1.50255,1.8767 -2.66845,3.69139 -4.03076,5.35947c-1.13777,1.39313 -2.41253,2.684 -4.13483,3.82332c-0.86014,1.33244 -2.94762,4.39715 -3.33464,5.80662c-0.25583,0.93167 0.25445,1.96067 0.02177,2.89839c-0.82116,3.30925 -2.95377,6.15989 -4.10142,9.37055c-1.65029,4.61682 -1.98256,9.77767 -3.39482,14.47741c-4.38216,14.58295 -11.53257,27.56367 -18.2841,41.06259c-2.11963,4.23795 -3.79507,8.41691 -6.29735,12.50924c-1.70253,3.92623 -3.01899,8.00914 -4.69808,11.91916c-1.30329,3.0349 -3.21781,5.87238 -4.33403,9.05465c-2.61943,7.46781 -4.13417,15.11283 -6.38725,22.64113c-1.63375,5.45891 -4.56742,11.29648 -5.49002,16.89242c-0.35789,2.17075 0.0322,4.40002 0.0322,6.60008c0,5.19974 0.03228,10.40017 -0.03228,15.59954c1.60127,4.63852 3.52329,9.67295 4.80044,14.38248c1.2261,4.52127 0.36792,9.07247 1.19002,13.56262c0.19315,1.05493 0.87839,1.99049 1.00954,3.0549c0.3981,3.23099 -0.2509,8.89737 -0.49721,11.93899l-5.36417,1.88683c0,0 -2.42536,0.60634 -3.0317,-1.81902c-0.60634,-2.42536 1.81902,-3.0317 1.81902,-3.0317l2.63583,-0.11317c-0.40707,-2.66116 -0.15803,-5.39035 -0.49721,-8.06101c-0.13049,-1.02748 -0.81074,-1.92508 -0.99046,-2.9451c-0.76622,-4.34861 0.10476,-8.81625 -1.09608,-13.15262c-1.36601,-4.93283 -3.3281,-10.00324 -4.91346,-14.90228c-0.0519,-5.46666 -0.03228,-10.93357 -0.03228,-16.40046c0,-2.46666 -0.3675,-4.96586 0.0322,-7.39992c0.95853,-5.83728 3.92824,-11.84933 5.6365,-17.52931c2.29124,-7.61836 3.82526,-15.37687 6.48622,-22.93713c1.16602,-3.31286 3.15155,-6.29666 4.50369,-9.45851c1.70021,-3.97579 3.04105,-8.09953 4.78181,-12.08799c2.48525,-4.07801 4.13136,-8.17684 6.24008,-12.39552c6.62884,-13.26156 13.68464,-25.98355 17.98967,-40.30982c1.44003,-4.79213 1.80011,-10.01073 3.47636,-14.72511c1.05416,-2.96477 3.161,-5.51979 3.89858,-8.62945c0.23861,-1.00599 -0.27041,-2.10986 0.02177,-3.10161c0.89055,-3.02287 2.92773,-5.64413 4.66536,-8.19338c3.72167,-2.49968 5.10537,-5.4034 7.83441,-8.81721c0.86475,-1.08173 1.7838,-2.1199 2.68873,-3.16912c-1.8224,-1.50624 -3.707,-2.92075 -5.84067,-3.99377c-2.66984,-1.34266 -4.96025,-1.46264 -7.98022,-2.02245c-11.82414,-6.43125 -24.50961,-11.4247 -36.18756,-18.06641c-8.36022,-4.75478 -16.16222,-11.05542 -24.10158,-16.49039c-2.61303,-1.78877 -4.89231,-4.17819 -7.81041,-5.40795c-2.12875,-0.89712 -4.4618,-1.11993 -6.77369,-1.41593c-2.52843,1.7164 -5.06731,3.40828 -7.65072,5.00641l-0.00008,-0.00004c-0.1507,0.41984 -0.45769,0.84409 -1.01555,1.2192c-2.07462,1.39497 -3.46959,-0.67965 -3.46959,-0.67965l0.50092,-3.96623c1.1668,-0.69943 2.32333,-1.42011 3.47267,-2.15588c-1.45228,-0.28807 -2.91679,-0.53013 -4.36668,-0.81701c-4.57997,-0.9062 -9.04242,-2.58322 -13.7509,-2.96544c-6.49632,-0.52734 -13.25875,0.00958 -19.78138,0.00958c-5.85596,0 -11.99242,-0.53154 -17.82278,-0.00629c-6.07606,0.54738 -11.94126,1.68017 -18.06475,1.83415c-9.81828,0.23841 -19.37059,-0.68392 -29.15339,-0.8282c-23.67164,-0.34912 -47.45992,-0.17695 -71.09201,-1.60919c-6.65446,-0.4033 -13.30897,-0.80565 -19.96337,-1.2099c-1.9652,-0.11939 -3.94127,-0.02212 -5.90371,-0.18057c-0.57364,-0.04632 -1.25894,-0.75953 -1.68567,-0.37337c-0.7329,0.66321 -0.68978,1.85339 -0.9904,2.79499c-1.28073,4.01141 -2.7753,7.89366 -2.82435,12.12458c-0.17752,15.31327 0.00043,30.63932 0.00043,45.9538c0,5.91032 0.79742,12.45271 -0.01873,18.30546c-0.18982,1.3612 -0.82099,2.63734 -1,4c-0.49109,3.73819 0.58106,7.71188 1.00361,11.41999c0.41078,3.60479 0.30509,8.01574 0.90785,11.55009c0.1059,0.62098 0.38395,1.38101 0.9647,1.62508c1.23271,0.51808 2.66192,0.26558 3.98554,0.45539c3.18898,0.45731 6.3953,0.86074 9.61453,0.98457c8.67128,0.33352 17.36494,0.15942 26.04251,0.15942c7.02584,0.00426 15.09454,-0.03714 21.79057,2.12829l1.97353,0.65784c0.72593,-3.55364 1.40313,-7.11915 1.79608,-10.66927c0.73851,-6.67206 0.68649,-13.53957 1.99976,-20.16105c0.49226,-2.48195 1.33473,-4.88873 1.77528,-7.38039c1.12408,-6.35755 1.29623,-14.68368 4.53815,-20.38976c1.93181,-3.40015 5.34621,-4.13407 8.85112,-4.24094c1.46683,5.2173 7.33617,6.68464 7.33617,6.68464c2.45795,-0.02709 4.5758,2.93178 6.57609,4.63528c4.69002,3.99414 8.5972,8.24757 13.83001,11.63568c14.02512,9.0809 27.53285,18.65881 42.01197,26.99306c2.43862,1.40368 4.94904,2.71907 7.58342,3.70763c1.56527,0.58737 3.32899,0.46436 4.91816,0.98363c3.00441,0.98172 5.70054,2.75169 8.65848,3.86565c5.31076,2.00003 10.26292,2.91319 15.93232,4.00341c1.61595,0.83458 3.27608,1.56765 4.96711,2.22863c-5.51485,2.57983 -9.9984,5.1379 -14.6946,9.7669l-2.9509,2.9509c-1.80964,1.80964 -2.92893,4.30964 -2.92893,7.07107c0,2.03424 0.60741,3.92661 1.65075,5.50564c-4.43236,4.19599 -8.84433,8.40888 -13.19506,12.6795c-0.08648,0.0241 -0.17144,0.055 -0.25462,0.09404c-0.1012,0.0475 -0.12283,0.13899 -0.09377,0.24819c-9.60428,9.44147 -18.90431,19.16997 -27.45947,29.62561l-0.08407,0.53098l-0.1968,-0.1312l-3.85869,5.78803c-1.10723,1.60955 -1.75534,3.55947 -1.75534,5.66076c0,5.52285 4.47715,10 10,10c1.33658,0 2.61192,-0.26222 3.77738,-0.73803c1.14647,2.37361 3.20328,4.22518 5.7172,5.10145l7.65046,2.86892l0.25677,-0.68473c0.48452,0.39361 0.97433,0.78092 1.47021,1.16097c0.74738,0.5728 1.87009,-0.067 2.82656,-0.01349c1.39663,0.39909 2.81203,0.76176 4.25177,1.1927c0.61864,0.20243 1.23489,0.41293 1.84948,0.62904c0.79216,0.37024 1.51069,0.91254 2.29611,1.30293c-0.06729,0.17941 -0.14615,0.34137 -0.24081,0.48099c-0.78058,1.15142 -2.20397,1.77737 -2.9509,2.9509c-0.79531,1.24956 -1.45625,2.55771 -2.01167,3.90641c-4.72182,-0.43511 -10.20913,2.31533 -12.90787,5.77589c-4.0763,5.22699 -6.17378,12.56458 -5.26295,19.18218c0.44062,3.20132 -0.65023,7.3436 1.71933,9.54082c2.04904,1.90001 4.54742,3.50933 7.23021,4.60671c-0.27703,0.41551 -0.55925,0.82755 -0.84816,1.2351c-1.15495,1.62925 -3.89305,2.49388 -3.96722,4.48959c-0.03692,0.99343 -0.00934,1.98266 0.06731,2.96869l-1.05637,-0.21127l-0.94314,4.71568c-0.15368,0.69672 -0.23469,1.42072 -0.23469,2.16364c0,0.53433 0.04191,1.05887 0.12262,1.57051c-0.31211,0.1602 -0.62012,0.3372 -0.92366,0.53179c-10.67404,6.84271 -9.23795,19.57859 -4.16143,28.38436c1.42396,2.47002 4.26087,3.91294 6.83062,5.14788c3.03155,1.45686 6.4032,2.10716 9.69574,2.79413c0.27356,0.05708 0.26408,-0.79525 0.51107,-0.66455c0.353,0.1868 0.01804,0.96793 0.38024,1.13621c5.38299,2.50092 11.28419,4.37667 17.21744,4.54315c3.92366,-0.00223 7.84487,0.13616 11.76495,0.32361c2.66355,2.35407 5.65474,4.21525 8.73892,5.08447c6.03171,1.69992 10.63297,1.09775 15.62039,1.05169c2.57983,2.76284 4.91659,5.92957 8.24687,7.5335c3.40802,1.64138 7.57086,1.04944 11.33045,0.63208c1.87981,-0.20868 3.70922,-0.62897 5.44736,-1.24515c2.221,0.73875 4.56264,1.47272 6.49484,1.91713c0.33114,0.56422 0.5616,1.33692 1.08128,1.16914c0.41014,-0.13242 0.70437,-0.42596 0.95305,-0.78595c8.68445,1.36277 18.85523,1.26524 27.54407,1.85972l1.69483,-1.81119c0.14253,0.00603 0.28582,0.00907 0.42983,0.00907c0.02725,0 0.05448,-0.00011 0.08168,-0.00033l0.45593,0.91186l3.74076,-1.87038c3.38246,-1.60344 5.72163,-5.04913 5.72163,-9.04116c0,-4.02025 -2.37237,-7.4864 -5.79353,-9.07489c-0.06274,-2.19891 -0.60062,-4.49387 -1.40447,-6.51256c0.19965,-0.13655 0.39916,-0.27333 0.59853,-0.41033c0.10291,-0.64977 0.42112,-1.12709 0.42112,-1.12709c2.09492,-3.12065 2.78345,-4.58929 6.08473,-7.10104c2.29817,-1.74854 4.97885,-3.03571 7.01484,-5.08356c2.77944,-2.79563 5.04217,-6.12012 7.85682,-8.84037c6.32326,-6.11118 12.96319,-12.50985 19.9019,-17.91085c3.11034,-2.42104 6.73187,-5.37954 10.28868,-7.17029c1.88328,-0.94817 3.9166,-1.6366 5.6633,-2.81763c6.99285,-4.16564 11.50951,-10.55793 17.6581,-15.75693c1.06682,-0.90206 2.2483,-1.67154 3.34609,-2.53509c0.01931,-0.03141 0.03868,-0.06283 0.05809,-0.09427c0.03878,-0.03857 0.07754,-0.07715 0.11629,-0.11576c1.15135,-1.14694 5.35898,-5.36762 6.39069,-6.37836c0.6155,-0.60299 2.01687,-0.93003 1.87458,-1.77985c-0.04095,-0.24456 -0.14405,-0.45442 -0.28867,-0.6415l1.8763,-1.8763c1.80964,-1.80964 2.92893,-4.30964 2.92893,-7.07107c0,-3.58279 -1.88416,-6.72551 -4.71567,-8.49134c5.2957,-5.81553 8.50205,-14.25281 8.6502,-21.01762c0.12593,-5.75049 -0.05333,-12.56339 -1.24519,-18.01029c-0.98078,-4.48224 -2.50359,-8.90734 -4.68982,-12.94129c-2.37672,-4.38544 -5.63073,-8.27311 -7.84698,-12.74179c-2.97379,-5.99613 -5.96417,-11.86414 -9.25972,-17.71202c0.98742,0.18715 1.97422,0.39333 2.96721,0.50895c0.93463,0.10883 1.88242,0.18857 2.83952,0.2452c1.70957,0.4785 3.50566,0.70404 5.26599,0.76469c2.76649,0.0953 6.07617,0.63822 8.33401,-0.87392c0.83653,-0.02525 1.66661,-0.04691 2.48769,-0.06104c1.51796,-0.02612 3.05096,0.09358 4.55272,-0.12913c1.12583,-0.16696 4.67246,-1.67159 6.05585,-1.36767c0.37608,0.08262 0.28499,0.73441 0.54479,1.0186c1.31363,1.43699 2.66813,2.84672 4.14666,4.11341c0.62192,0.53282 1.24168,1.07175 1.86835,1.60237c-1.00855,1.56135 -1.59394,3.42165 -1.59394,5.41868c0,2.39219 0.83998,4.58819 2.24107,6.30915l3.88477,4.85596l0.1998,-0.15984l0.15761,0.5821c1.62619,1.60127 3.33093,3.17978 5.29837,4.33638c2.14752,3.65303 5.48196,5.92567 8.19033,9.10514c1.2596,1.4787 2.14486,3.30696 3.63075,4.55807c0.79313,0.66781 2.1075,0.38054 2.9509,0.98363c0.37353,0.26711 0.02149,0.98152 0.30378,1.34372c0.28685,0.36805 4.54152,4.61035 5.58051,5.64934c6.56231,6.56231 13.25474,13.03362 19.18917,20.13722c1.28027,1.5325 8.56977,11.55613 9.95385,13.59624c1.50236,2.21445 2.15548,5.49992 3.75158,7.55743c0.98824,3.61511 2.12307,7.21615 3.88902,10.75707l0.07692,0.11655c-2.21955,3.20246 -4.23027,6.72918 -6.31325,9.52045c-1.05472,1.41336 -1.83992,3.12008 -3.25805,4.16837c-4.97095,3.67456 -9.9019,7.42826 -15.20058,10.59988c-0.11267,-0.01412 -0.22526,-0.01728 -0.33764,-0.00431c-0.43193,0.04982 -8.60203,2.03602 -9.4431,2.29114c-1.53822,0.46659 -3.11666,0.87122 -4.54853,1.60168c-4.59488,2.34403 -3.89444,4.02282 -7.92864,4.52246c-0.7682,0.4487 -1.5364,0.89741 -2.30461,1.34611h-1.11136c-2.2568,0 -4.33899,0.74759 -6.01244,2.00863c-7.88948,-2.82615 -15.53938,-6.00447 -22.87009,-10.12415c-2.85653,-1.6053 -5.81545,-3.11525 -8.33806,-5.20647c-0.6949,-0.57607 -0.77808,-1.71433 -1.50248,-2.25283c-0.68542,-0.50952 -1.679,-0.36416 -2.46556,-0.69691c-1.93664,-0.81929 -3.94128,-1.86765 -6.04329,-1.8097l-2.53984,-1.58958c-5.8286,5.5497 -11.77518,10.95787 -17.49555,16.63564c-1.59471,2.5898 -3.72729,4.56906 -5.97847,6.49105c-1.31931,2.79904 -2.7937,5.60166 -5.45787,6.88096zM249.938,272.66335l-1.94392,1.94392c-0.10611,0.11304 -0.2107,0.22778 -0.31415,0.34379c1.0657,-0.73104 2.10065,-1.50018 3.06075,-2.36218c1.05885,-0.95067 1.98253,-2.03263 2.87446,-3.14604c-1.03915,0.92257 -2.11537,1.81214 -3.25087,2.65216c-0.11477,0.2095 -0.25867,0.40077 -0.42626,0.56835zM212.57222,301.17636c-0.27548,0.26477 -0.54548,0.53562 -0.81104,0.81144c0.29218,-0.17962 0.58331,-0.35915 0.87346,-0.53884c0.18015,-0.27774 0.35811,-0.55922 0.53373,-0.84567c-0.19898,0.1913 -0.39769,0.38234 -0.59614,0.57307z"/><path d=""/><path d=""/><path d=""/><path d=""/></g></g></svg>