<svg version="1.1" xmlns="http://www.w3.org/2000/svg" xmlns:xlink="http://www.w3.org/1999/xlink" width="20.24696" height="14.3651" viewBox="0,0,20.24696,14.3651"><g transform="translate(-229.87652,-172.81745)"><g data-paper-data="{&quot;isPaintingLayer&quot;:true}" fill="#000000" fill-rule="nonzero" stroke="none" stroke-width="0" stroke-linecap="butt" stroke-linejoin="miter" stroke-miterlimit="10" stroke-dasharray="" stroke-dashoffset="0" style="mix-blend-mode: normal"><path d="M230.41939,172.81745l0.97002,0.2425h2.01291l0.49191,0.06149l0.62731,-0.07604l0.61304,0.15326h4.95877l1.90777,0.11924l0.31401,-0.05797l0.30978,0.07744h1.3871l0.55484,0.13871h3.05161l1.1943,-0.29857h0.17989v2.0889l0.69586,2.78346l0.11783,0.70698l-0.06369,0.50956l0.24212,0.298v0.06929l0.13871,0.55484v0.38667l-0.10438,0.22036l-0.27742,1.3871l0.04738,0.99489l-0.24157,0.96628v3.03871h-5.39776l-0.69792,-0.07755l-0.55803,0.07541l-0.54629,-0.13657h-1.94194l-0.55484,-0.13871h-0.27864l-0.28038,-0.06231l-0.09346,0.06231h-1.54975l-0.26743,-0.0382l-0.36931,0.0382h-0.07393l-0.05219,0.01305l-0.07838,0.00811h-0.20094l-1.1943,-0.29857h-1.40153l-0.00609,-0.00265l-0.05832,-0.00972l-0.08791,-0.0293l-0.16326,-0.01256l-0.28342,-0.04724l-0.29025,-0.1548l-0.55484,-0.13871h-0.33305l-0.30345,-0.13727l-1.52581,-0.27742l-0.2713,0.01769v-0.23338l-0.04237,-0.16949l0.02899,-0.17754l-0.13606,-1.63278l-0.10681,-1.38856v-4.90135l0.00265,-0.00609l0.06439,-0.38634l0.07167,-0.28668v-0.14334l0.00265,-0.01589l-0.00265,-0.03311v-0.77862l-0.03468,-0.13871l0.17339,-0.69355v-0.399l0.0382,-0.26743l-0.03346,-0.32349z"/></g></g></svg>