<svg version="1.1" xmlns="http://www.w3.org/2000/svg" xmlns:xlink="http://www.w3.org/1999/xlink" width="347.45219" height="327.84058" viewBox="0,0,347.45219,327.84058"><g transform="translate(-92.86322,1.62856)"><g data-paper-data="{&quot;isPaintingLayer&quot;:true}" fill="#000000" fill-rule="nonzero" stroke="none" stroke-width="0.5" stroke-linecap="butt" stroke-linejoin="miter" stroke-miterlimit="10" stroke-dasharray="" stroke-dashoffset="0" style="mix-blend-mode: normal"><path d="M101.28538,315.65189l-0.43926,0.17578c-2.25033,-2.33198 -6.36267,-2.97704 -7.68655,-6.16952c-0.81571,-1.96706 0.29937,-7.098 0.40991,-8.85205c0.59168,-9.38866 -0.00483,-19.01333 -0.00483,-28.42312c0.02479,-8.7912 2.73822,-17.58046 3.77631,-26.32362c1.17605,-9.90516 0.83206,-19.96415 1.59432,-29.88887c0.29227,-3.8054 1.72821,-7.7326 2.40232,-11.47048c0.45311,-2.51247 0.39648,-5.10108 0.8748,-7.60887c1.16638,-6.1152 3.24891,-12.24305 4.95945,-18.23041c1.67908,-5.87678 4.5767,-12.12171 5.46723,-18.1465c0.87545,-5.92277 -0.01252,-12.71998 -0.02211,-18.71449c-0.00913,-5.71071 0.32808,-11.59009 -0.21527,-17.27898c-1.28474,-13.45114 -4.20286,-26.87554 -6.4386,-40.1907c-1.52062,-7.90572 -3.14413,-15.80703 -4.62595,-23.7022c-0.79021,-4.21022 -0.63864,-8.77377 -0.6047,-13.02931c0.08078,-10.12791 0.62644,-20.21331 2.11063,-30.24067c0.62381,-4.2145 0.74535,-8.7754 2.44421,-12.73178c0.86501,-2.01446 0.88324,-4.82433 2.74952,-5.97468c1.85903,-1.14588 4.36778,0.10105 6.54688,0.24452c3.18537,0.20972 6.34781,0.86157 9.41843,1.7344c2.6506,0.44938 5.03668,0.57515 7.37568,2.13785c3.95929,2.64522 3.42876,7.05171 4.06841,11.2128c0.48437,3.15092 1.14428,6.30914 1.76989,9.43632c2.52878,12.64038 5.93146,23.72501 13.45613,34.34808c2.38623,3.3688 4.42938,6.90155 7.54455,9.62776c4.99563,-0.32359 8.14748,-3.27476 12.79222,-4.8127c4.85779,-1.60848 10.24849,-2.5292 14.83516,-5.0764c0.6855,-0.38069 1.00065,-1.23188 1.63871,-1.68763c1.57162,-1.12258 3.2694,-2.05716 4.91052,-3.07544c3.99353,-2.4779 8.69595,-4.30734 13.10504,-5.62819c3.13493,-0.93915 5.71312,-2.96116 8.68643,-4.08103c4.53013,-1.70624 8.76456,-1.38107 13.45979,-1.38107c7.49895,0.00036 14.89227,0.9361 22.3836,1.24797c7.80475,0.32492 15.64997,0.53845 23.46102,0.53818c4.17663,-0.00015 8.60117,-0.42282 12.74942,0.01217c2.20408,0.23112 4.24381,1.2806 6.38114,1.86646c5.35216,1.46707 10.92219,1.24026 16.28958,2.30623c4.60236,0.17444 8.09097,1.62905 12.35678,3.07226c3.10159,1.04933 4.62539,-0.01355 6.33124,3.81232c0.53458,1.19896 0.15947,2.62125 0.1903,3.93363c0.08291,3.52951 0.51873,8.32165 -0.04511,11.78508c-0.33147,2.03611 -1.25156,3.97218 -1.39116,6.03036c-0.43502,6.41338 -0.6982,13.09109 -0.35552,19.52605c0.23561,4.42438 1.48876,8.7977 1.78615,13.22c0.00745,0.1108 0.00563,9.95052 0.00563,10.16774c0,5.26611 -0.37745,10.66929 -0.00483,15.92004c0.18263,2.57353 0.94936,5.07964 1.18343,7.649c0.10394,1.14096 -0.2093,2.30756 -0.01713,3.43702c0.83928,4.93301 2.40304,9.16753 2.7083,14.29576c0.26977,4.53205 0.52771,9.12563 1.11999,13.63071c0.12704,0.96632 -0.34883,2.51311 0.55805,2.87017c0.89192,0.35117 1.43921,-1.29198 2.2797,-1.75287c1.33417,-0.7316 2.78994,-1.21586 4.19578,-1.79799c7.70053,-3.18865 15.42789,-6.46401 23.79358,-7.01816c9.22955,-0.57463 18.52552,-0.70973 27.66084,0.92158c7.39392,1.32035 14.77598,3.89798 22.04008,5.8168c6.64377,1.75496 16.78373,3.18306 21.45075,8.95712c1.92869,2.38619 2.49006,5.47147 3.17496,8.33138c1.04623,4.36866 2.35884,8.54101 2.38419,13.04711c0,13.59952 -0.04382,27.55186 -1.80734,41.04783c-1.19808,9.16874 -2.9266,18.67189 -5.16546,27.64124c-1.5569,6.23728 -4.70657,12.38611 -5.54901,18.77946c-0.32992,2.50376 -0.17884,5.06793 -0.65693,7.54766c-1.07707,6.97653 -2.43399,15.97614 -7.04957,21.73182c-2.75956,3.4412 -9.45726,5.3123 -13.62087,5.65269c-5.29087,0.43255 -10.57045,-0.29043 -15.82445,-0.59069c-5.46668,-0.31242 -11.05447,0.00383 -16.53252,0.00383c-1.29836,0 -7.93546,0.00212 -7.98634,-0.01217c-0.07959,-0.02234 -0.15855,-0.04618 -0.23694,-0.07142l-0.00701,0.03504l-2.93151,-0.5863c-1.16847,-0.20987 -2.05512,-1.23166 -2.05512,-2.46053c0,-1.1246 0.74256,-2.07576 1.76412,-2.38994l3.51762,-1.17254l0.01197,0.03592l0.10178,-0.07086c7.89911,-1.81707 16.07212,-1.39626 23.18628,-5.74311c1.07746,-0.65834 2.47265,-0.94537 3.25616,-1.93554c0.38145,-0.48206 -0.24642,-1.20874 -0.28255,-1.8224c-0.20017,-3.40001 -0.08742,-6.92389 0.39204,-10.29294c1.32894,-9.338 4.18341,-18.61277 6.23358,-27.82958c0.78815,-2.77093 1.94033,-5.43182 2.68703,-8.21421c1.93812,-7.22185 2.77591,-14.74182 4.59401,-21.99669c1.47758,-5.89608 3.76668,-11.22872 4.20037,-17.35588c0.29684,-4.19364 1.74417,-11.24331 -0.46655,-15.01131c-0.61123,-1.0418 -0.92398,-2.4366 -1.9693,-3.0418c-1.86698,-1.08091 -4.26582,0.67264 -6.41576,0.8508c-4.33011,0.35883 -8.7829,0.32616 -13.13229,0.59795c-12.24792,0.92782 -24.63412,0.1291 -36.86133,1.18658c-4.69877,0.40638 -9.55871,1.74412 -14.19792,2.59613c-4.8191,0.88506 -9.82139,1.51514 -14.57642,2.69323c-5.80704,1.43873 -11.61149,4.04501 -17.57244,4.82198c-4.48039,0.58399 -9.59414,-0.24051 -14.04861,-0.68534c-2.04835,-0.30887 -4.36514,0.13314 -6.14506,-0.9266c-3.53822,-2.10659 -1.89888,-5.40617 -1.66824,-8.21856c0.16621,-2.02671 -0.22199,-3.99452 0.00685,-6.02443c0.31111,-2.75972 1.20734,-5.4216 1.81851,-8.13072c2.58309,-11.45 5.98995,-22.54196 8.95878,-33.88011c2.6093,-9.96511 4.12497,-20.20058 6.74789,-30.17706c0.54561,-2.70248 1.42492,-5.32718 2.19516,-7.97441c1.52503,-5.24132 1.79236,-11.43628 2.05405,-16.85723c0.48653,-10.07868 -0.00599,-20.05688 -3.61641,-29.60696c-1.74458,-4.61467 -3.76101,-9.02636 -5.97803,-13.43675c-0.12068,-0.24007 -1.7507,-4.52076 -3.34128,-4.94365c-2.47528,-0.6581 -7.2477,0.41863 -9.52606,0.71833c-12.54788,0.01018 -24.7024,2.17729 -37.1588,2.97744c-8.25368,0.53018 -17.12375,-0.31327 -25.29829,1.15318c-5.34719,0.95925 -10.05622,3.58644 -14.68856,6.2567c-3.22565,1.85939 -6.19729,3.19377 -8.55469,6.12629c-1.8766,6.90001 -2.95704,14.35591 -5.21527,21.09846c-0.70752,2.11251 -2.22632,3.8851 -2.98587,5.97946c-2.08992,5.76272 -4.36953,11.51992 -6.52892,17.29509c-5.22025,13.96131 -9.64008,28.14164 -16.27512,41.44594c-4.47489,7.06408 -8.11113,14.44601 -11.84795,21.91697c-2.59277,5.18368 -5.28459,10.06574 -7.12269,15.59683c-5.22,15.70765 -7.03586,32.31658 -11.57904,48.22894c-1.98019,6.91972 -4.40058,13.71423 -6.34595,20.63683c-1.23304,4.38776 -1.92587,8.90802 -3.1802,13.30009c-1.69605,5.93878 -2.55311,13.20921 -5.81355,18.5256c-2.10766,3.4367 -2.87658,3.30977 -5.03181,5.71944c-3.41139,3.81413 -6.41183,8.08379 -9.34089,12.26943c0,0 -1.43366,2.04808 -3.48174,0.61442c-0.73011,-0.51108 -1.01776,-1.10024 -1.08562,-1.64687z"/></g></g></svg>