<svg version="1.1" xmlns="http://www.w3.org/2000/svg" xmlns:xlink="http://www.w3.org/1999/xlink" width="481.02072" height="362.75929" viewBox="0,0,481.02072,362.75929"><g transform="translate(-8.04721,-96.57873)"><g data-paper-data="{&quot;isPaintingLayer&quot;:true}" fill="#000000" fill-rule="nonzero" stroke="none" stroke-width="0.5" stroke-linecap="butt" stroke-linejoin="miter" stroke-miterlimit="10" stroke-dasharray="" stroke-dashoffset="0" style="mix-blend-mode: normal"><path d="M471.77267,215.39566c-4.98019,-0.38861 -9.99419,-0.64232 -14.5109,-2.37038c-4.80117,3.20721 -9.45581,6.70205 -14.1463,9.84054c-18.01243,12.05245 -35.96921,24.1937 -54.08029,36.09759c-3.93283,2.58493 -8.21158,4.98096 -11.94572,7.8443c-12.86959,9.8684 -23.76979,21.83294 -37.68891,30.46079c-5.4234,3.36173 -11.43841,5.89807 -17.03241,8.97015c-5.82753,3.20033 -11.56844,6.57528 -17.34907,9.86068c-8.26786,4.699 -17.16656,9.05781 -24.9803,14.48385c-5.49363,3.81489 -10.57904,8.08273 -16.18651,11.78628c-4.46354,2.94802 -8.93685,5.88133 -13.40736,8.81875c-2.66497,1.75106 -5.68485,3.04992 -8.01502,5.22244c-2.38653,2.22507 -3.69204,5.37851 -5.89237,7.78327c-3.37454,3.68806 -7.57079,6.89641 -11.57935,9.85481c-7.3901,5.44623 -15.46612,12.229 -24.15147,15.47808c-6.90686,2.58377 -14.86154,2.07497 -21.73939,5.03161c-2.95782,1.27151 -5.55789,3.26299 -8.34221,4.88521c-2.99157,1.74297 -7.71031,3.75494 -9.83981,6.71268c-1.76914,2.45722 -2.44066,5.50805 -3.74817,8.22422c-2.12872,4.42213 -4.38728,8.79277 -6.58552,13.18319c-2.06662,6.26768 -3.67851,14.70659 -8.1229,19.93685c-4.68764,5.51652 -12.25571,7.87676 -18.98793,9.67051c-2.66202,0.70927 -5.25878,1.90337 -7.99468,2.09233c-7.00048,0.4835 -13.55635,-1.4859 -20.2254,-2.94353c-6.32829,-1.38315 -13.26364,-2.08032 -19.27219,-4.52163c-2.54569,-1.03432 -6.24834,-3.75116 -8.43142,-5.2424c-7.02067,-6.85236 -10.75475,-15.96222 -12.17165,-25.74735c-0.54407,-3.75734 0.19215,-7.76172 -0.31737,-11.47576c-0.42684,-3.11134 -1.57133,-6.06494 -2.34637,-9.10035c-0.57322,-2.24498 -0.66921,-4.66596 -1.67132,-6.7481c-1.64087,-3.40932 -5.36613,-5.36726 -8.10617,-7.76609c-2.86648,-2.50952 -6.29685,-4.19993 -9.13449,-6.6598c-3.9989,-3.46652 -3.84292,-3.88043 -6.73491,-8.25624c-1.83178,-5.26545 -5.07508,-9.5127 -8.1198,-14.14652c-2.31998,-3.53081 -4.22814,-6.8055 -7.2126,-9.69656c-0.42536,0.24186 -0.98713,0.36693 -1.72325,0.22666c-2.41797,-0.46076 -1.88118,-2.863 -1.88118,-2.863c2.99298,-13.3941 5.62822,-26.92519 9.20329,-40.19557c0.83913,-3.11479 1.75123,-6.21309 2.52447,-9.3427c0.52214,-2.11329 -0.27152,-4.99264 1.46215,-6.36128c1.78182,-1.40665 4.50256,-0.18233 6.74862,-0.12069c8.07716,0.22166 14.53925,3.41201 21.83473,6.38377c13.22371,5.38658 26.36394,10.90913 38.36754,18.62116c5.49074,3.52766 10.57466,7.80263 15.72944,11.77601c10.26668,7.91371 20.53195,15.8291 30.78761,23.75654c0.20188,0.15605 7.07166,5.45543 7.41024,5.75823c0.58979,0.52746 1.25135,2.53895 1.55261,1.79087c0.38447,-0.95467 -0.98013,-1.80215 -1.14567,-2.80134c-0.23525,-1.41998 -0.02443,-2.89016 -0.03664,-4.33524c-0.06742,-7.97682 -1.07057,-15.84247 -1.22053,-23.79273c-0.29824,-15.81168 1.51972,-32.08082 4.98753,-47.59985c1.32303,-5.92078 2.63328,-11.84414 3.96911,-17.76245c0.33807,-1.49781 0.74499,-2.98349 1.0246,-4.4914c0.25919,-1.39776 -0.5346,-3.31072 0.59034,-4.21774c1.48519,-1.19749 3.746,-0.82873 5.63494,-0.80165c4.04516,0.058 8.57028,1.62095 12.5512,2.37954c2.50231,0.47684 4.94708,1.9732 7.48316,1.53344c1.44778,-0.25105 2.66414,-1.28776 4.0557,-1.77421c3.92711,-1.3728 8.47172,-2.72602 12.56856,-3.47494c8.17063,-1.49363 16.5141,-2.37303 24.72776,-3.59544c1.76836,-0.25136 3.52985,-0.83219 5.30507,-0.7541c1.01487,0.04464 1.9253,1.64208 2.80431,1.11082c0.92476,-0.55891 0.3397,-2.09713 0.5516,-3.13909c0.95623,-4.702 1.83761,-9.44435 2.81887,-14.133c0.44891,-2.14501 -0.08708,-4.93634 1.60283,-6.38453c1.68991,-1.44819 4.3969,-0.51791 6.60198,-0.64669c4.84496,-0.28296 9.18183,-0.00897 13.89173,0.9166c1.39276,0.27371 2.76282,0.65237 4.16885,0.86141c0.42579,0.0633 1.1111,0.34193 1.29774,-0.04866c1.21771,-2.54832 0.73212,-5.54678 1.16985,-8.31173c0.91278,-5.76561 1.52207,-9.80644 4.83305,-14.81045c0.7407,-1.11945 1.17345,-2.58703 2.32336,-3.29246c0.66043,-0.40515 9.36797,-2.55957 10.53146,-2.85439c8.03981,-2.03727 16.03394,-4.379 24.21888,-5.6272c3.27674,-0.4997 6.54147,-1.10966 9.83061,-1.49616c1.25452,-0.14742 2.75314,0.483 3.77508,-0.27311c1.02194,-0.75611 0.84782,-2.36815 1.3535,-3.52141c0.61887,-1.41139 1.54202,-2.70445 2.01713,-4.16567c1.96498,-6.04336 2.19286,-12.89222 3.66549,-19.08606c0.44755,-1.88236 0.386,-3.97209 1.4157,-5.63165c2.46259,-3.96894 5.82552,-3.02624 9.63804,-3.10109c6.27311,-0.12316 10.72295,-0.00188 16.51966,-2.82688c1.26689,-6.1549 2.93284,-12.38168 5.42899,-18.20667c0.83064,-1.93837 0.94011,-4.48941 2.65904,-5.74638c1.72213,-1.25931 4.20035,-0.60855 6.30925,-0.8117c0.00091,-0.00009 9.90681,-0.54725 9.91559,-0.54773c4.95815,-0.27388 10.18422,-0.59291 15.25314,-0.25202c2.17829,-2.89636 4.34848,-6.15113 6.93088,-8.54102c3.6814,-3.40696 8.06743,-6.3523 12.01762,-9.45228c2.59083,-2.0332 8.49159,-7.73437 11.72672,-8.2547c2.68004,-0.43106 5.06473,2.16459 7.76871,2.08261c2.76757,-0.08391 5.51396,-1.37745 8.25714,-1.09387c1.73894,0.17977 3.33445,0.98843 5.02819,1.39146c6.04198,1.43769 12.07344,2.25285 18.0096,4.0844c5.12082,2.24317 8.43635,5.04017 12.59976,8.6709c1.40126,1.22198 3.19317,2.12667 4.16854,3.70474c0.01161,0.01879 2.45072,8.86194 2.43896,9.63598c-0.04259,2.80292 -1.82993,5.4614 -1.82332,8.26322c0.00747,3.16598 1.38711,6.18532 1.44676,9.34927c0.07537,3.99732 -1.79884,8.45423 -1.36834,12.40612c0.34175,3.1373 1.56154,6.10087 2.11144,9.20335c0.46305,2.61249 0.23061,5.37344 1.0016,7.90564c1.43533,4.71411 5.21561,7.94785 7.02136,12.38189c0.64086,1.57364 0.68153,3.33992 1.0223,5.00988c2.51416,6.63877 3.24932,14.32015 -2.32548,20.2468c-0.74106,0.78782 -1.85746,1.13013 -2.69631,1.8153c-1.49689,1.22266 -2.47594,3.24356 -4.29311,3.89364c-1.92595,0.689 -4.06141,-0.02526 -6.07986,-0.18276z"/></g></g></svg>