<svg version="1.1" xmlns="http://www.w3.org/2000/svg" xmlns:xlink="http://www.w3.org/1999/xlink" width="585.93388" height="477.1547" viewBox="0,0,585.93388,477.1547"><g transform="translate(36.67176,53.85438)"><g data-paper-data="{&quot;isPaintingLayer&quot;:true}" fill-rule="nonzero" stroke="none" stroke-width="0.5" stroke-linecap="butt" stroke-linejoin="miter" stroke-miterlimit="10" stroke-dasharray="" stroke-dashoffset="0" style="mix-blend-mode: normal"><path d="" fill="#000000"/><path d="" fill="#000000"/><path d="" fill="#000000"/><path d="" fill="#000000"/><path d="" fill="#000000"/><path d="" fill="#000000"/><path d="" fill="#000000"/><path d="" fill="#000000"/><path d="" fill="#ff0000"/><path d="M10.85981,5.10691c0.98868,-1.4889 2.09738,-2.88469 3.29854,-4.20253l-0.45253,0.90505l-3.15196,4.20261l-1.16173,1.92133l-0.40337,0.63866c0.57923,-1.28547 1.20762,-2.46604 1.87104,-3.46512z" fill="#ff0000"/><path d="M450.77209,161.87063c0.22883,0.04631 0.45759,0.08861 0.68591,0.12645c-0.15056,0.14979 -0.30174,0.29902 -0.45346,0.44778c-0.07771,-0.19132 -0.15519,-0.38273 -0.23246,-0.57422z" fill="#000000"/><path d="M180.1143,263.57081c0,-1.38071 1.11929,-2.5 2.5,-2.5c0.02612,0 0.05215,0.0004 0.07808,0.0012c-0.14548,-3.02646 -0.42727,-7.52707 1.36661,-9.52816c0.13485,-1.25053 0.44084,-2.54527 0.44084,-3.76097c0,-2.62145 0.24976,-5.52121 0.34939,-8.38021c-0.2092,-0.37836 -0.76375,-1.59408 0.03702,-2.67533c-0.0184,-1.50082 -0.11595,-2.96115 -0.35413,-4.33194c-0.13017,-0.74914 -0.29741,-1.49575 -0.45294,-2.24361c-0.75844,-1.3274 -1.46959,-2.53307 -1.75281,-3.05155c-1.3373,-2.44816 -3.11279,-4.63425 -4.52456,-7.04023c-1.98112,-3.37628 -1.31589,-4.1152 -4.84924,-6.47077c-2.32148,-3.48222 -5.71183,-5.63772 -8.30794,-8.96138c-0.71419,-0.12737 -2.07247,-0.61183 -2.07247,-2.45457c0,-2.5 2.5,-2.5 2.5,-2.5l2.95723,1.11325c2.45729,3.71946 6.04081,5.6403 8.45872,9.26717c3.38863,2.25909 3.7696,4.32064 5.67605,7.56295c0.85384,1.45213 1.83525,2.82704 2.77542,4.22634c0.31371,-0.14947 0.70217,-0.24202 1.18316,-0.24202c2.5,0 2.5,2.5 2.5,2.5v2.63132c-0.00747,0.51601 0.04723,1.02694 0.13387,1.53533c0.93376,1.6406 1.87171,3.37023 2.34217,4.61417c0.45817,1.21146 0.85392,2.53184 1.24867,3.88196c-0.82572,0.7971 -1.42921,1.70916 -1.87029,2.61658c1.16138,2.73019 1.53862,5.45919 2.43142,8.58069c0.98447,3.44198 2.5845,6.15456 1.80881,9.94281c-0.54518,2.6625 -1.61652,5.21591 -2.84043,7.64247c-0.19181,0.38029 -0.49245,0.70159 -0.7866,1.02424c0.02734,0.11796 0.05161,0.23669 0.07234,0.35631c0.31651,1.82662 -0.12913,4.40816 -0.12913,6.29215c0,6.13975 0,12.27951 0,18.41926c0,1.69077 0,5.01114 0,6.81979c0.03158,0.10169 0.06464,0.20336 0.09923,0.305c0.50163,1.47416 2.01572,4.37426 2.75094,7.18449c0.39457,0.40998 0.84376,0.79372 1.35513,1.13609c-0.12404,0.2086 -0.28646,0.4111 -0.49917,0.58371c1.19003,5.28087 6.18544,9.58148 7.79422,14.77367c1.59824,5.15819 1.87676,10.34343 1.87676,15.68394c0,4.08454 0.46837,8.48248 -0.01217,12.52585c-0.20241,1.70317 -0.41473,3.44089 -1.03314,5.04069c-0.59729,1.54518 -1.96898,2.7118 -2.56159,4.25878c-1.35539,3.53818 -0.34763,7.26587 -0.79081,10.87401c-0.37825,3.07958 -0.73718,5.69983 -0.83738,8.65605c11.14461,0 22.28923,0 33.43384,0c5.22611,0 10.87979,0.55403 16.22572,0.32243c0.81417,-0.54354 1.68843,-0.35475 2.21556,-0.14627c0.36252,-0.03294 0.72307,-0.07052 1.08143,-0.11319c0.00425,-0.0138 0.00833,-0.02768 0.01225,-0.04164c0.53966,-1.92229 -0.56305,-4.06269 -0.04039,-5.98967c0.34227,-1.26192 1.39207,-2.25207 1.75422,-3.50843c0.2269,-0.78716 -0.17291,-1.64994 -0.0346,-2.4574c0.04162,-0.24298 1.8842,-5.8067 2.00749,-6.02246c0.18663,-0.3266 3.20253,-2.67403 2.45304,-4.25503c-2.00144,-4.2219 -6.22236,-6.48524 -8.94177,-10.24573c-3.95665,-5.47138 -5.1776,-11.8742 -5.19922,-18.54617c0,-2.62652 -0.07531,-5.26865 0,-7.89397c0.01764,-0.61482 0.37748,-1.27842 0.12829,-1.84075c-0.6638,-1.49798 -2.64036,-2.43966 -2.74951,-4.07449c-0.1224,-1.83325 1.20952,-3.49502 2.13827,-5.08033c0.84846,-1.44826 2.21184,-2.53766 3.14291,-3.93424c2.31959,-3.47934 4.29181,-9.21701 8.53151,-11.06179c0.58041,-0.25255 8.22061,-0.1903 8.85068,-0.1903c6.43212,0 12.86424,0 19.29637,0c5.14012,0 7.04035,0.68512 10.03372,-3.86102c1.82961,-5.6592 2.3705,-10.48182 2.37711,-16.44377c0.00472,-4.25785 0.04039,-7.329 -2.26478,-10.97629l-0.73328,-1.45156c-0.62251,-0.0728 -2.26458,-0.45685 -2.26458,-2.48297c0,-2.5 2.5,-2.5 2.5,-2.5c7.73268,0.08915 15.02737,-3.82397 22.45416,-5.86155c4.98535,-1.36776 10.40137,-2.41852 15.18186,-4.47344c4.55632,-1.95856 8.60287,-5.0649 13.10194,-6.99345c5.82512,-2.49696 11.91411,-3.49849 17.93223,-5.39793c4.21412,-0.84626 8.31995,-1.21998 12.50035,-1.80037c3.05181,-0.4237 6.42144,-1.83457 9.4423,-2.58896c2.13285,-0.53263 4.17046,-1.47823 6.34564,-1.79658c1.13331,-0.16587 2.31779,0.2603 3.43612,0.01283c2.66387,-0.58948 5.11244,-1.94454 7.7604,-2.60179c2.35554,-0.58467 4.81779,-0.59303 7.22274,-0.91947c3.52494,-0.47847 7.62629,-2.28117 11.01228,-3.41242l2.63132,-0.87711c0,0 2.37171,-0.79057 3.16228,1.58114c0.19874,0.59621 0.19764,1.0925 0.08461,1.50144c2.18178,-1.55096 4.56244,-2.80926 7.05759,-3.87426c4.41622,-1.88498 8.63407,-2.72562 12.91318,-5.13863c1.0174,-0.57372 2.27264,-0.75342 3.16138,-1.51132c2.56552,-2.18782 5.75498,-7.3285 7.13159,-10.35197c0.7906,-1.73641 0.44679,-3.79154 0.77363,-5.67126c0.3279,-1.8858 2.22316,-5.89459 2.72031,-7.38558c1.02721,-3.08067 1.82156,-6.42519 2.60976,-9.57798c2.08735,-6.26206 5.00943,-13.36659 6.07233,-19.87496c0.14526,-0.88944 -0.20514,-1.82917 0.01283,-2.70364c0.3808,-1.52771 1.35636,-2.86218 1.75422,-4.38554c0.43719,-1.67397 -0.28714,-3.4821 -0.01283,-5.19033c0.14659,-0.91286 0.74246,-1.71663 0.87711,-2.63132c0.40185,-2.72994 -0.21268,-5.52496 -0.02649,-8.27803c0.27699,-4.09575 0.34138,-8.58329 0.88692,-12.65094c0.39489,-2.94438 1.4593,-5.78216 1.75078,-8.73857c0.2883,-2.9241 0.30086,-5.88986 0.87711,-8.77108c0.01164,-2.11913 0.53444,-4.20598 0.89722,-6.29386c0.34493,-1.98518 -0.26662,-4.04579 -0.01355,-6.04476c0.27131,-2.14307 1.46221,-4.0963 1.76777,-6.23475c0.37523,-2.6261 -0.06433,-5.7038 -0.03228,-8.37062c0.01175,-0.9782 0.31133,-1.98681 0.06688,-2.93405c-0.85231,-3.30268 -3.24266,-7.05703 -4.33115,-10.3305c-0.74984,-2.25503 -0.88117,-4.69527 -1.72019,-6.91867c-2.68745,-7.12171 -4.69823,-13.64278 -6.1914,-21.20558c-1.27419,-3.16659 -2.58544,-6.36678 -3.51237,-9.66158c-0.3627,-1.28923 -0.76951,-2.576 -0.95808,-3.90194c-0.10391,-0.73068 0.32854,-1.5144 0.08854,-2.21232c-0.34281,-0.99685 -1.429,-1.62859 -1.75422,-2.63132c-0.31382,-0.96758 0.05594,-2.04344 -0.08854,-3.05032c-0.14466,-1.00814 -1.08271,-4.18546 -1.51873,-5.34683c-0.19607,-0.52224 -0.1812,-1.29257 -0.68807,-1.52551c-0.79697,-0.36627 -1.90787,0.49592 -2.63132,0c-1.28724,-0.8824 -2.06338,-2.37236 -2.82036,-3.73713c-1.54147,-2.77916 -0.59668,-5.27572 -1.81813,-8.03564c-3.30924,-7.4774 -7.52153,-15.16461 -13.30899,-20.95104c-2.84942,-1.8887 -6.2994,-4.03634 -9.72278,-5.4329l-0.46211,0.31702c0,0 -2.08013,1.38675 -3.46688,-0.69338c-0.16638,-0.24957 -0.28285,-0.48916 -0.359,-0.71757c-0.4597,0.04665 -0.92345,0.1225 -1.37476,0.05787c-2.81123,-0.40255 -5.52076,-1.44937 -8.35049,-1.68968c-11.60587,-0.98561 -23.25548,-0.36506 -34.87198,-0.92425c-11.289,-0.54342 -22.56711,-1.76807 -33.84297,-0.19639c-11.39528,0.33324 -22.50883,2.30902 -33.89462,2.82581c-6.34085,0.28781 -12.71751,-0.25621 -19.05948,0.00118c-6.53216,0.26511 -13.01529,1.44487 -19.53783,1.75327c-9.66203,0.45683 -19.38923,0.88011 -29.0671,0.88011c-14.676,0 -29.15088,0.56474 -43.54992,2.61259c-4.63401,0.65905 -9.36648,0.998 -13.93872,1.74066c-0.75956,0.12337 -1.57433,-0.30924 -2.30732,-0.07499c-1.88378,0.60201 -3.12262,2.4716 -4.88873,3.36149c-2.99015,1.50664 -6.00628,2.99344 -9.05811,4.50443c-8.32075,1.58326 -13.62118,8.29675 -20.47059,12.86899c-7.17403,4.78893 -14.51793,9.48197 -22.22064,13.32534c-5.35475,2.67182 -10.39501,6.74642 -16.01895,8.87c-3.63087,1.371 -7.93611,1.96867 -11.72129,2.7257c-5.73601,1.4056 -11.93577,1.95786 -17.78516,2.6735c-0.84425,0.10329 -7.26289,-0.06195 -7.95308,0.00656c-2.66272,0.26431 -5.18499,1.37601 -7.83485,1.74765c-2.41712,0.339 -4.88154,0.01873 -7.32232,0.01873c-3.78947,0 -7.89176,0.41076 -11.64874,-0.01217c-7.10395,-0.79969 -13.19253,-5.2473 -20.32758,-5.28276c-2.79514,-0.9011 -5.88899,-2.14037 -8.77108,-2.63132c-3.44554,-0.58694 -7.4834,0.07456 -11.00194,0.03228c-2.08608,-0.02507 -4.12144,0.79336 -6.06015,1.56391c-0.57333,0.22787 -1.39159,-0.10852 -1.82026,0.33518c-0.46371,0.47996 -0.11475,1.35817 -0.39909,1.96193c-1.04485,2.21865 -2.30044,4.34006 -3.64838,6.38876c-4.37648,6.6517 -9.2988,13.05931 -13.66228,19.71317c-2.4989,3.81057 -4.29463,8.34356 -6.3367,12.41716c-1.04103,2.60261 -2.52023,5.02721 -3.42408,7.68058c-1.55527,4.56567 -0.74179,10.24045 -0.74179,14.97659c0,1.88905 -0.46712,3.82567 -0.04511,5.66698c0.63208,2.75785 2.25305,5.261 2.6577,8.06128c0.28473,1.97037 -0.47113,4.03192 -0.02638,5.97244c0.32915,1.43612 1.20873,2.69253 1.67806,4.08913c0.39178,1.16585 0.69073,2.36642 0.89867,3.57863c0.07347,0.42829 -0.44904,1.10578 -0.06142,1.30219c0.59813,0.30308 1.44672,-0.20902 2.0983,-0.19811c0.5996,-0.72142 1.5356,-0.90862 1.5356,-0.90862c13.94548,-2.7891 27.96084,-5.19194 41.9029,-7.98058c7.12908,-1.42593 15.89953,-1.9174 22.5785,-4.85535c2.13392,-0.93867 3.74653,-2.80573 5.8035,-3.90283c0.17082,-0.09111 8.93894,-3.98119 9.26997,-4.12819c7.25483,-2.64056 14.89222,-4.84881 21.94759,-7.97816c2.78276,-1.23427 5.28462,-3.11717 8.17648,-4.06812c1.5855,-0.52137 3.32595,-0.45606 4.90965,-0.98288c3.59512,-1.19594 3.79673,-2.6286 7.50123,-3.12015c4.92079,-0.65294 10.40956,-0.03228 15.40046,-0.03228c5.90198,0 12.93397,-0.5529 18.64287,1.09286c4.20876,1.2133 9.01546,4.44122 12.9473,6.40714c2.45645,1.22823 4.84285,2.60694 7.36654,3.6903c1.23336,0.52945 5.05971,1.524 6.14167,2.06391c0.97916,0.48862 5.06243,3.4599 6.15644,4.08351c3.90006,2.22311 8.74729,3.92332 13.17911,4.70022c9.36903,1.6424 19.67794,0.94298 28.98397,-0.74725c4.43084,-0.80477 8.71694,-2.56484 13.16747,-3.25607c5.04015,-0.7828 10.25977,-0.93692 15.34712,-0.99218c4.6298,-0.04053 8.81438,0.99684 13.40472,0.03586c2.26371,-0.4739 3.93503,-2.80936 6.23611,-3.04162c0.74065,-0.07476 7.2853,1.60103 9.03302,2.03796c5.37099,1.34275 10.48901,2.67247 16.10544,1.94203c4.86025,-0.6321 9.61881,-2.54268 14.44608,-3.41263c4.94781,-0.89167 10.07825,-1.27505 15.07574,-1.80084c2.61315,-0.27493 5.22112,-0.99221 7.8418,-0.80207c3.8238,0.27743 6.6811,1.22623 10.33532,2.21038c2.73185,0.74022 5.62721,0.84011 8.31118,1.73856c2.89284,0.96837 5.24929,3.19958 8.13121,4.19999c5.14629,1.78646 11.30253,2.83823 16.65595,3.90231c5.94433,1.18154 11.85475,2.11737 17.79638,2.96635c3.5941,0.51355 7.23412,0.68905 10.70593,2.19498c5.64573,2.44889 10.20971,7.63941 14.52728,12.21209l0.69357,-0.69357c0.45241,-0.45241 1.07741,-0.73223 1.76777,-0.73223c1.38071,0 2.5,1.11929 2.5,2.5v2.77392c0.34667,1.43937 1.05894,2.84466 0.99816,4.32203c-0.1996,4.85138 -3.70378,6.28278 -6.91319,8.83741c-3.28565,2.61532 -5.64598,5.76237 -9.19822,8.14677c-5.1571,3.41115 -9.75833,7.60522 -15,11c-1.21183,0.78484 -2.28193,1.88938 -3.66229,2.3126c-2.35604,0.72237 -5.98061,-0.10332 -8.03879,-1.2661c-0.82087,-0.46375 -1.19155,-1.51493 -2,-2c-0.90388,-0.54233 -2.12377,-0.41405 -3,-1c-2.09706,-1.40233 -3.51639,-3.77544 -5.78405,-4.88084c-3.88216,-1.8924 -8.1313,-3.07923 -12,-5c-2.45999,-1.22136 -4.78041,-2.70591 -7.15644,-4.08351c-0.89657,-0.51982 -1.55366,-1.47589 -2.54058,-1.79218c-1.10068,-0.35275 -2.32613,0.06511 -3.46494,-0.1325c-1.74053,-0.30202 -3.41518,-0.9051 -5.12276,-1.35766c-13.56127,-4.27934 -25.95058,3.18911 -39.20811,5.58642c-6.01968,1.08851 -12.35267,0.41452 -18.36732,1.37126c-2.99448,0.47633 -6.73238,2.26506 -9.70963,2.64027c-4.71554,0.59427 -7.92009,-1.62314 -12.4002,-0.88819c-4.56445,0.74879 -9.00892,2.75493 -13.50409,3.87348c-4.38872,0.44377 -8.79903,0.78199 -13.17772,1.31165c-6.41054,0.77543 -13.1121,2.34093 -19.59801,1.69312c-9.4108,-0.93994 -16.9266,-6.71729 -26.22676,-8.36277c-3.21239,-0.56837 -6.40873,-1.2692 -9.65257,-1.61554c-0.57785,-0.0617 -1.16317,-0.08276 -1.75259,-0.08193c-3.05189,1.42057 -6.44231,1.66346 -10.25164,-0.2322l-0.00001,-0.00003c-0.89572,-0.44574 -1.77637,-1.14978 -2.63242,-1.97472c-2.80179,-0.33737 -5.61534,0.24059 -8.53629,-0.73306c-3.18572,0.03956 -6.87567,0.45249 -10,0c-0.38913,-0.05636 -6.66155,-2.19286 -6.91387,-2.34109c-0.81291,-0.47757 -1.19597,-1.50763 -2,-2c-1.93503,-1.18497 -4.39441,-1.24302 -6.41677,-2.27188c-2.93327,-1.49227 -5.50511,-3.6716 -8.52413,-4.98173c-1.5623,-0.67797 -3.29738,-0.91235 -4.84314,-1.62723c-1.81098,-0.83752 -3.32952,-2.47794 -5.30208,-2.77807c-0.29444,-0.0448 -0.592,-0.08198 -0.8922,-0.11226c-0.83431,1.16047 -1.55471,2.08457 -1.78474,3.62237c-0.42604,2.84824 0.48009,5.91633 0,8.77108c-0.40829,2.42778 -2.05994,5.01397 -2.69151,7.29004c-1.23216,4.44052 -1.77346,9.82197 -2.2537,14.40284c-0.90005,8.58514 -0.28515,17.51365 -0.28515,26.14757c0,5.23692 0.64084,10.89986 -0.01873,16.09339c-0.17339,1.36525 -1.94691,3.45606 -0.7135,4.06653c2.17519,1.0766 4.71204,1.20356 6.98609,2.05163c4.48324,1.67194 8.79292,3.60298 13.36566,5.04029c1.58086,0.4969 3.37557,0.51071 4.767,1.41068c1.0929,0.70688 1.48471,2.14062 2.29656,3.15796c1.00825,1.26345 2.10949,2.44981 3.15934,3.67891c1.85286,2.16921 3.18469,4.7443 4.54489,7.25197c2.38267,4.39269 6.1864,8.68302 6.80445,13.86017c0.21339,1.78749 0.02152,3.6003 0.03228,5.40046c0,5.6335 0.55955,12.13548 -0.97462,17.6191c-0.36874,1.318 -1.33154,2.40287 -1.81199,3.68438c-0.77638,2.07085 -0.87498,4.38724 -1.85314,6.37077c-1.06867,2.16706 -2.3916,4.19919 -3.59194,6.29619c-0.49447,0.86383 -1.10682,1.65468 -1.6707,2.47488c-0.22301,0.32438 -0.86302,0.60509 -0.68977,0.95856c1.05124,2.14488 6.48108,3.57744 7.99246,4.83994c0.91035,0.76044 1.27007,2.01234 2.03306,2.92055c2.24034,2.6667 4.42981,6.1777 6.85127,8.58828c0.82317,0.81947 2.14351,1.08278 2.85032,2.0045c0.33096,0.43159 1.78085,4.92731 2.07715,5.82342c1.40254,2.80508 2.07373,5.87539 3.44452,8.62941c1.49731,3.0082 3.16873,6.06246 1.90116,9.71681c-2.90676,8.38 -15.57728,12.0768 -22.41386,6.45756c-1.29521,-1.06458 -2.08271,-2.62905 -3.0703,-3.98388c-2.47501,-3.39533 -5.0512,-7.06888 -7.13829,-10.7144c-0.4183,-0.73065 -2.14604,-4.67226 -3.11392,-5.6268c-1.50111,-1.48041 -3.52413,-2.31574 -5.26265,-3.50843c-1.56494,-2.28119 -3.47108,-4.3389 -4.83222,-6.74725c-2.03163,-3.5947 -2.00476,-8.71602 -4.29772,-12.12544c-1.32349,-1.96791 -3.56575,-3.15804 -5.06937,-4.992c-1.39787,-1.70497 -2.14389,-3.86239 -3.00767,-5.89091c-1.79224,-4.20893 -4.41225,-8.92877 -6.83379,-12.79899c-2.81046,-4.49182 -6.42358,-9.41847 -8.13114,-14.53414c-1.35613,-4.0628 -0.535,-7.84644 -1.85813,-11.81585c0,-1.16948 0.13753,-2.34707 0,-3.50843c-0.14517,-1.22586 -1.19754,-2.42389 -0.84251,-3.60616c0.4287,-1.42759 1.97059,-2.23713 2.93782,-3.37127c0.20257,-0.23753 0.73157,-0.47514 0.57061,-0.74261c-0.91992,-1.52867 -3.05086,-1.87609 -4.41449,-3.02656c-1.0736,-0.90577 -2.21655,-1.80046 -2.97971,-2.97971c-0.31327,-0.48407 0.50685,-1.78248 -0.0672,-1.72846c-0.61374,0.05776 -0.18551,1.24915 -0.49634,1.78149c-0.13314,0.22802 -3.638,4.72313 -4.02838,5.60013c-0.67123,1.50789 -0.88536,3.19311 -1.56015,4.69942c-0.44971,1.00387 -1.43074,1.73336 -1.78767,2.77384c-0.23812,0.69413 0.1719,1.47176 0.08143,2.2c-0.30358,2.44362 -1.37482,4.74119 -1.77433,7.17097c-0.71448,4.34536 -0.95207,12.4649 -7.73036,12.62483c-2.10764,0.04973 -3.54971,-2.27552 -5.32456,-3.41328c-1.23254,-1.83481 -2.07932,-3.90189 -3.06098,-5.8823c-2.67956,-5.40581 -7.30875,-9.41442 -8.95841,-15.43482c-1.1342,-4.13924 -0.21999,-9.3502 1.01618,-13.69158c-0.6837,-0.00082 -1.41224,-0.17606 -2.09148,-0.17074c-4.36697,0.03423 -7.68488,-2.00347 -11.80285,-2.6636c-0.86605,-0.13883 -1.76615,0.1442 -2.63132,0c-2.61093,-0.43516 -4.3696,-0.93727 -7.09306,-0.87711c-0.40068,0.00885 -0.9973,-0.2392 -1.19747,0.10801c-0.42087,0.73004 -0.12022,1.68802 -0.31111,2.50878c-0.15047,0.64695 -1.98525,5.84152 -2.16775,6.08116c-0.63867,0.83865 -1.96328,0.93876 -2.63132,1.75422c-0.48521,0.59227 -0.27868,1.52591 -0.61809,2.21222c-1.38201,2.7945 -3.28851,4.5824 -4.25962,7.58616l-3.24882,1.70943c0,0 -0.80475,0 -1.50109,-0.45659c-3.46952,1.57684 -5.86131,4.40115 -9.01065,6.74122l-2.39909,3.24066c0,0 -1.17331,1.56441 -2.82812,0.88833c-0.02561,1.85628 -0.18031,3.74673 -0.18031,5.50564c0,6.64238 0.00619,13.28477 -0.01217,19.92713c1.123,5.61498 0.1577,11.03241 0.87054,16.60593c1.52114,11.89338 1.52966,24.59086 0.00656,36.51321c-0.85435,6.68762 0.01217,14.07313 0.01217,20.80424c0,1.91313 -0.34822,3.85244 -0.03228,5.7393c0.14839,0.88624 0.40437,1.72027 0.72776,2.52213c1.08823,-0.58214 2.3081,0.0278 2.3081,0.0278l2.02293,1.03305c2.76807,1.84538 5.53162,3.69296 8.27498,5.575c0.88492,1.29715 2.47754,3.9683 3.9321,4.90379c0.70972,0.45645 1.66121,0.37941 2.41537,0.75795c1.76748,0.88715 3.00273,2.76647 4.88873,3.36149c0.91068,0.28731 2.00778,-0.34065 2.86357,0.08303c1.22641,0.60716 1.84513,2.06311 2.98894,2.81439c0.77277,0.50757 1.86287,0.36302 2.63132,0.87711c2.71719,1.81776 4.64357,4.49914 7.67802,6.02059c6.55899,3.28864 15.41359,1.40171 22.27807,0.64163c2.31105,-0.2559 4.71601,-0.12827 6.92186,-0.86356c8.31936,-0.06871 16.63984,-0.03228 24.95947,-0.03228c3.86488,0 8.14207,0.50883 11.97405,0.01873c9.93772,-1.27102 20.03327,-0.89584 30.12711,-0.89584c4.0738,0.00025 7.82724,0.56347 11.86163,0.88485c12.52074,0.99741 25.5569,-0.00774 38.1335,-0.00774c5.31966,0 12.98233,-1.49733 17.82531,1.16266c0.83059,0.4562 1.5796,1.03981 2.31972,1.63731c0.49127,-0.16864 0.90555,-0.16864 0.90555,-0.16864c1.51396,0 3.02792,0 4.54187,0c0.09594,-3.12137 0.4556,-5.93892 0.86426,-9.14874c0.52979,-4.16125 -0.43266,-7.96218 1.08109,-12.12694c0.99049,-2.72512 3.01198,-5.16178 3.30444,-8.04654c0.39676,-3.91347 -0.01217,-8.08966 -0.01217,-12.03316c0,-4.8527 -0.22122,-9.43486 -1.63167,-14.13772c-1.22717,-4.09173 -4.49191,-7.54777 -6.49993,-11.41433c-1.34556,0.00699 -2.89686,-0.7367 -4.04249,-1.40573c-4.46561,-2.60786 -2.73673,-11.77846 -2.73673,-16.02049c0,-3.39535 -0.39549,-7.44502 0.01873,-10.83075c0.0747,-0.61058 0.18743,-1.21785 0.30685,-1.82434c-0.90341,-5.38378 -1.72063,-10.95762 -1.98835,-16.43057c-0.07339,0.00648 -0.1477,0.00979 -0.22277,0.00979c-1.38071,0 -2.5,-1.11929 -2.5,-2.5zM-18.112,36.39996c0,-5.96832 -0.39974,-12.11615 0.00579,-18.06402c0.29191,-4.28146 1.54233,-8.52043 1.75422,-12.8048c0.06363,-1.28655 -0.08484,-8.88601 0.00142,-10.01963c0.50585,-6.64793 1.99642,-13.47207 3.23986,-20.01645c1.48392,-7.8101 2.26145,-16.04036 4.90948,-23.53563c0.80548,-1.15245 1.27773,-2.63257 2.41645,-3.45734c4.03031,-2.91913 6.40613,-2.29326 10.96073,-2.31288c5.05433,-0.02177 10.07096,0.00081 15.11918,0.25411c10.90642,0.54725 21.94126,1.0754 32.78751,2.39297c6.13026,0.74468 12.23222,2.0736 18.38174,2.62738c6.5994,0.59429 13.27405,0.67618 19.88834,1.10652c0.13348,0.00869 9.90976,0.64304 10.01763,0.65736c2.9289,0.3889 5.74678,1.49014 8.69039,1.7449c1.21582,0.10523 7.17231,-0.11385 8.68007,-0.00734c12.87333,0.9094 25.24379,4.26095 37.94383,6.16452c3.27516,0.4909 7.31207,0.19835 10.5422,0.87979c5.5032,1.16098 11.08386,2.96742 16.57005,4.37199c3.28683,0.01634 5.97259,1.03719 9.16459,1.83518l2.72292,0.9057c0,0 1.30476,0.43492 1.65618,1.62734c14.55343,-2.08007 29.20908,-2.63274 44.03995,-2.63274c9.59702,0 19.24088,-0.422 28.82199,-0.8741c6.53617,-0.30842 13.03365,-1.48947 19.58019,-1.75516c6.32493,-0.2567 12.68475,0.28615 19.00796,0.00118c11.33241,-0.51072 22.38794,-2.4996 33.73292,-2.81495c11.49407,-1.59176 22.9923,-0.36908 34.49936,0.18484c11.6777,0.56213 23.39691,-0.08987 35.06266,0.93708c2.88874,0.2543 5.65941,1.29938 8.53031,1.70852c0.92359,0.13163 1.89415,-0.2022 2.79863,0.02638c0.48252,0.12194 0.96668,0.25996 1.45156,0.41238c0.57021,-0.89297 1.00116,-1.91653 1.82083,-2.57558c0.72053,-0.57934 1.90937,-0.29954 2.63132,-0.87711c0.82315,-0.65852 0.92468,-1.98086 1.75422,-2.63132c1.45913,-1.14414 3.73455,-1.06871 5.01236,-2.41232c1.53737,-1.61654 2.92698,-3.43588 4.76655,-4.6979c3.50467,-2.24557 4.35444,-6.34245 9.43606,-6.5548c1.36468,-0.05703 2.33682,1.42557 3.57436,2.0036c1.70701,0.79731 3.66409,0.8491 5.32453,1.78555c1.2459,0.70266 2.14445,1.94628 3.42259,2.58843c1.01107,0.50797 2.24387,0.38724 3.30137,0.78974c2.56284,0.97546 6.00616,3.0334 7.91726,4.96248c2.19443,2.21508 3.64708,4.47637 4.20838,7.50706c0.14014,0.75664 -0.32271,1.57877 -0.07499,2.30732c0.33935,0.99804 1.47051,1.61607 1.75422,2.63132c0.72869,2.60764 0.33171,5.42788 0.92347,8.06996c0.81842,3.65406 2.29609,7.06601 2.68006,10.82742c0.01447,0.14176 0.01217,6.13697 0.01217,7.2632c0,11.76089 0.12877,23.09353 1.73233,34.75425c0.38813,2.82237 0.16185,5.73653 0.82728,8.50666c1.06151,4.41894 3.76538,8.6433 5.20613,12.96073c3.35245,10.04614 6.40528,20.10722 10.50175,29.90291c6.38193,14.02192 9.89542,29.48728 12.9234,44.48187c3.2949,16.31638 6.3532,32.40166 8.55748,48.92376c2.28125,13.76343 5.06681,27.36421 7.5784,41.07223c1.11263,6.07263 1.46606,12.27881 2.62401,18.37917c2.20175,11.59936 4.89519,23.04265 6.24208,34.77964c1.96531,10.85096 3.40979,21.83177 5.54025,32.64752c0.11832,0.60065 2.19876,9.40981 2.26871,9.86052c0.7247,4.66975 0.62902,9.62014 0.97682,14.33241c1.08211,14.66118 1.58089,29.51669 -0.372,44.10913c-0.89016,6.65076 -0.86503,14.66075 -4.51607,20.51205c-0.69662,1.11643 -1.92596,1.80357 -2.76814,2.81472c-3.50409,4.20717 -8.0023,7.72328 -13.40152,9.55079c-1.4121,0.47796 -2.97124,0.40568 -4.38554,0.87711c-2.8132,0.93773 -5.51,2.4429 -8.45896,2.75447c-8.11073,0.85693 -16.52914,-0.34113 -24.68082,0.00906c-4.25145,0.18264 -8.39289,0.87681 -12.66668,0.88021c-18.16116,-0.01813 -35.99013,4.46371 -53.87221,6.12764c-12.55778,1.1685 -26.1521,-1.19793 -38.59835,-2.85743c-4.84184,-0.64619 -9.76183,-1.30305 -14.64686,-1.51843c-0.92969,-0.04099 -7.66307,0.06498 -8.95288,-0.06274c-4.27537,-0.42335 -8.4333,-1.41679 -12.74011,-1.69287c-12.17961,-0.78073 -24.45012,0.30296 -36.58698,0.87837c-8.08993,0.38354 -16.29981,0.01322 -24.3995,-0.01236c-1.54236,0.35134 -7.28952,1.66835 -7.89397,1.75422c-9.75772,1.38612 -20.0744,-1.29631 -29.83949,0.00189c-9.39789,1.24939 -18.94057,3.05453 -28.4641,3.51854c-8.33892,0.40629 -16.70165,0.83245 -24.97459,2.1584c-8.11251,1.29686 -16.48615,1.90342 -24.52113,3.57812c-6.37534,1.32878 -12.53761,3.04659 -19.1712,2.1291c-0.9412,-0.13018 -1.76798,-0.7605 -2.71017,-0.88334c-4.94645,-0.64489 -9.88628,-0.90801 -14.85982,-1.75259c-4.29538,-0.72942 -8.64766,-2.18 -12.98087,-2.6076c-1.47439,-0.14549 -2.97246,0.15974 -4.44465,-0.00656c-2.65889,-0.30035 -5.17214,-1.48334 -7.83485,-1.74765c-2.929,-0.29074 -5.88682,0.00519 -8.83019,-0.00656c-10.02878,-2.50719 -20.684,0.73278 -30.79376,-0.89066c-0.91286,-0.14659 -1.72042,-0.71883 -2.63132,-0.87711c-1.78548,-0.31023 -3.68754,0.4398 -5.43657,-0.0346c-1.26192,-0.34227 -2.2408,-1.43372 -3.50843,-1.75422c-1.04701,-0.26471 -2.16821,0.18465 -3.23951,0.04815c-4.03428,-0.51403 -8.54177,-2.31773 -12.32593,-3.79572c-4.85289,-1.89541 -9.01658,-4.44836 -13.9621,-6.11776c-3.41383,-2.51473 -6.94132,-4.96017 -10.62274,-7.07055c-4.50993,-2.58533 -9.40726,-3.84991 -13.48677,-7.24578c-6.38837,-5.31781 -11.66097,-11.87324 -16.59548,-18.46684c-1.77914,-2.37733 -4.2243,-4.22928 -5.86819,-6.70207c-0.58824,-0.88485 -0.60544,-2.04866 -1.08176,-2.99846c-1.71357,-3.41691 -3.88235,-6.31894 -4.52764,-10.20405c-0.35721,-2.15063 -0.03228,-4.36011 -0.03228,-6.54021c0,-6.91234 -0.8294,-14.42339 0.01217,-21.29692c1.4222,-11.61588 1.42369,-23.82642 0.00656,-35.40961c-0.69034,-5.64267 0.24865,-11.06255 -0.88367,-16.72416c-0.01692,-6.8066 -0.01217,-13.6132 -0.01217,-20.41982c0,-2.66487 0.48644,-5.75682 0.03228,-8.37062c-0.15827,-0.9109 -0.74978,-1.71558 -0.87711,-2.63132c-0.75786,-5.45041 0.79915,-11.23606 0,-16.66504c-0.91603,-6.22301 -1.7865,-12.2423 -1.7865,-18.64137c0,-25.49557 0,-50.99113 0,-76.4867c0,-2.78455 -0.07676,-5.58796 0.03228,-8.37062c0.01321,-0.33704 0.4419,-0.87811 0.12884,-1.00367c-0.81407,-0.3265 -1.97632,0.58334 -2.63132,0c-1.60348,-1.42806 -2.03774,-5.48365 -2.67117,-7.39868c-0.52622,-1.5909 -1.47582,-3.04421 -1.83037,-4.68194c-0.44484,-2.05477 0.26662,-4.22521 -0.02638,-6.30706c-0.37879,-2.69146 -2.02985,-5.07021 -2.60494,-7.72666c-0.05505,-0.25427 -0.04511,-5.6968 -0.04511,-6.61252c0,-5.40914 -0.6966,-11.37823 1.01242,-16.59928c0.91956,-2.80925 2.49496,-5.36286 3.59278,-8.10736c2.155,-4.3097 4.07996,-9.06772 6.71272,-13.10424c2.26343,-3.47028 4.68854,-6.86859 7.1107,-10.26789c-0.00936,-0.10186 -0.00936,-0.16215 -0.00936,-0.16215zM266.6853,379.349c0,0.85508 -0.29247,1.4177 -0.67733,1.78788c1.47433,0.00372 2.94544,0.03053 4.4062,0.09925c17.52095,0.82424 34.99195,0.87552 52.53734,0.87552c8.18777,0 16.79583,0.76021 24.94068,0.01086c3.63228,-0.33418 7.13128,-1.30787 10.71527,-1.74635c5.48819,-0.67144 11.16425,-0.22656 16.66504,-0.87711c2.78406,-0.32925 4.75831,-1.63875 7.43025,-2.52879c5.83446,-1.94347 11.4329,-4.06731 17.49998,-5.24859c3.6396,-1.84141 7.50235,-3.35634 11.11536,-5.14375c4.09664,-2.02667 7.46986,-5.59602 10.9158,-8.45864c0.74837,-0.62169 1.74431,-0.91733 2.44853,-1.58863c3.83146,-3.65231 3.15557,-10.56368 3.67215,-15.20367c0.13335,-1.19776 0.74154,-2.30997 0.87699,-3.50749c0.55809,-4.93385 -0.59169,-10.06923 0.01355,-15.00583c0.11251,-0.91768 0.74607,-1.7161 0.87711,-2.63132c0.5666,-3.95742 0.82855,-7.73366 1.82163,-11.70091c4.20621,-12.64566 9.0857,-25.22832 11.33498,-38.29422c0.18617,-1.08145 1.50648,-4.30372 1.80568,-5.50386c1.00068,-4.01388 0.95178,-8.09381 1.70275,-12.03829c0.31502,-1.65464 1.25289,-3.14609 1.59031,-4.79631c0.15076,-0.73732 0.13947,-5.39822 0.14379,-6.45198c0.76689,-3.83444 1.19597,-7.62257 1.76078,-11.46151c0.63545,-4.3191 0.0793,-8.53421 0.26125,-12.79574c-0.86875,0.43557 -1.82367,0.74355 -2.66492,1.22975c-7.04865,4.07376 -16.5703,5.1019 -22.29185,11.00789c0,0 -1.76777,1.76777 -3.53553,0c-1.76777,-1.76777 0,-3.53553 0,-3.53553c0.30834,-0.30098 0.62285,-0.59323 0.94318,-0.87715l-1.89327,0.63109c-3.65376,1.21531 -7.98622,3.03755 -11.79251,3.60444c-1.18805,0.17694 -2.4112,-0.13257 -3.60343,0.01355c-3.96081,0.48543 -7.43664,2.63471 -11.23509,3.48205c-1.16496,0.25987 -2.39854,-0.15161 -3.58074,0.01283c-5.29453,0.73642 -10.48875,3.61013 -15.78794,4.38554c-4.03341,0.5902 -7.98752,0.89736 -12.05866,1.70806c-5.77011,1.81099 -11.57565,2.73797 -17.15207,5.12737c-4.5291,1.94064 -8.61337,5.07475 -13.21129,7.04027c-4.98137,2.12945 -10.58433,3.2597 -15.77547,4.67671c-6.31211,1.723 -12.2814,4.44313 -18.62089,5.5486c5.0379,9.24279 2.98143,21.99658 -0.27598,31.54164c-2.1339,3.1766 -2.68595,4.80618 -6.71786,6.53597c-2.39198,1.02622 -5.2046,0.12829 -7.80743,0.12829c-6.43212,0 -12.86424,0 -19.29637,0c-1.46185,0 -2.92424,0.04009 -4.38554,0c-0.85262,-0.02339 -1.76427,-0.51804 -2.55172,-0.1903c-0.79824,0.33223 -1.16151,1.28269 -1.6994,1.95963c-2.84275,3.57762 -4.87948,7.47874 -7.67676,11.11178c-0.48241,0.62654 -1.55052,1.16663 -1.37016,1.93653c0.29421,1.25585 2.01869,1.75106 2.51313,2.94237c0.43755,1.05424 0.10411,2.28072 0.12829,3.42189c0.0557,2.62804 0,5.26527 0,7.89397c-0.02651,7.10644 1.82614,14.1054 7.08343,19.20783c2.4473,2.37521 5.82975,4.45017 6.84302,8.13515c1.26403,4.59692 -0.7038,4.33933 -2.8096,8.02448c-1.36479,2.38839 -0.85172,4.89451 -1.53554,7.30808c-0.35642,1.258 -1.37485,2.25716 -1.75422,3.50843c-0.28842,0.9513 -0.18164,1.96164 -0.05157,2.97586c0.7428,-0.36853 1.30542,-0.66079 1.42961,-0.72072c1.06857,-0.02229 2.13714,-0.04459 3.2057,-0.06688h2.63132c0,0 2.5,0 2.5,2.5z" fill="#000000"/><path d="M348.25629,285.4985c0,2.5 -2.5,2.5 -2.5,2.5h-2.63132c-3.51722,-0.0509 -6.98539,0.81398 -10.48474,1.3483c-0.05061,0.60027 -0.11704,1.20489 -0.20415,1.8148c-0.29649,2.07573 -1.4529,3.9678 -1.74066,6.04476c-0.28372,2.0478 -0.3757,4.13412 -0.87711,6.13975l0.01873,2.32586c0,0 0,2.5 -2.5,2.5c-2.5,0 -2.5,-2.5 -2.5,-2.5l0.01873,-2.93678c0.50141,-2.00564 0.57715,-4.09427 0.87711,-6.13975c0.31343,-2.13731 1.46221,-4.0963 1.76777,-6.23475c0.03302,-0.23112 0.06071,-0.46317 0.08366,-0.69605c-0.74059,-0.18059 -1.87015,-0.73148 -1.87015,-2.41193c0,-1.67871 1.12723,-2.23019 1.86785,-2.41136c-0.1303,-2.21869 -0.32175,-4.44822 -0.10147,-6.60605c0.08025,-0.78612 0.17378,-1.46237 0.28239,-2.07464c-0.04058,-0.08147 -0.07924,-0.1677 -0.11574,-0.25896c-0.66665,-1.66664 0.34201,-2.61528 0.9639,-3.01776c0.21711,-0.66551 0.46258,-1.37346 0.7398,-2.20971c0,0 0.79057,-2.37171 3.16228,-1.58114c1.31135,0.43712 1.65595,1.35761 1.70196,2.09331c7.6507,-1.46947 16.11368,-0.46739 23.8207,-0.46739l2.87225,1.14104c0,0 2.23607,1.11803 1.11803,3.3541c-1.11803,2.23607 -3.3541,1.11803 -3.3541,1.11803l-0.63618,-0.61318c-7.88401,0 -17.27402,-1.42287 -24.92007,0.80158c-0.359,2.64676 -0.31462,5.24463 -0.3156,7.87876c3.42977,-0.50244 6.84599,-1.3638 10.32485,-1.40084h2.63132c0,0 2.5,0 2.5,2.5z" fill="#000000"/><path d="M385.97192,287.25271c0,2.5 -2.5,2.5 -2.5,2.5l-3.26488,-0.01189c-4.27578,0.85638 -8.54068,1.62501 -12.79382,2.56857c-0.88519,0.19638 -1.91507,0.00015 -2.67465,0.49529c-0.6331,0.4127 -0.74281,1.31636 -1.11421,1.97453c0,0 -0.38494,0.5774 -1.05341,0.92098c-0.26515,1.08607 -0.4722,2.17312 -0.65462,3.27807l3.90611,-0.18953c0,0 2.49769,-0.10733 2.60503,2.39036c0.10733,2.49769 -2.39036,2.60503 -2.39036,2.60503l-3.68164,0.13393c-0.32028,0.10862 -0.64057,0.21724 -0.96085,0.32586c0.0564,0.67694 0.11314,1.35235 -0.04857,2.00243c-0.31564,1.26884 -1.37485,2.25716 -1.75422,3.50843c-0.19904,0.6565 0.2603,1.39876 0.06688,2.05694c-0.10738,0.3654 -1.24801,0.83596 -0.88406,0.72377c1.08175,-0.33346 1.98323,-1.1761 3.09195,-1.40438c4.22694,-0.87029 9.35941,-0.06518 13.71137,-0.06518l-0.89066,-0.14487c0,0 1.76777,-1.76777 3.53553,0c1.76777,1.76777 0,3.53553 0,3.53553l-2.64487,1.60934c-4.41936,0 -8.84526,-0.07584 -13.26321,0.04505c-2.2579,0.06179 -4.80252,1.34556 -6.77198,0.23961c-0.77244,-0.43377 -1.1353,-6.57174 -0.81719,-7.74458c0.30983,-1.1423 1.23503,-2.0523 1.64401,-3.15514c-0.61037,-0.16471 -1.24266,-0.59984 -1.5826,-1.61966c-0.79057,-2.37171 1.58114,-3.16228 1.58114,-3.16228c0.08193,-0.0269 0.16385,-0.05379 0.24578,-0.08069c0.54711,-3.73051 1.16856,-7.06147 2.60914,-10.75558c0,0 0.9087,-2.27175 3.17558,-1.42143c1.15952,-0.54973 2.54915,-0.61236 3.80192,-0.95256c4.43952,-1.20557 9.00787,-1.81316 13.5194,-2.69407l3.75198,-0.01189c0,0 2.5,0 2.5,2.5z" fill="#000000"/><path d="M389.74299,322.33701c0,-2.5 2.5,-2.5 2.5,-2.5l1.21452,0c-0.20609,-0.53489 -0.20609,-1.00843 -0.20609,-1.00843v-0.87711c0,-7.01098 -0.64109,-14.32734 0.01217,-21.29692c0.0144,-0.15364 1.73069,-8.71551 1.7906,-9.01502c0,0 0.16009,-0.80047 0.75473,-1.39511c-0.60069,-0.00079 -1.20424,-0.00014 -1.81171,-0.00014c0,0 -2.5,0 -2.5,-2.5c0,-2.5 2.5,-2.5 2.5,-2.5c6.06378,0 12.21265,-0.06971 18.13437,1.5242c1.56748,0.42191 3.37848,0.60258 4.55593,1.71998c7.32281,6.94932 -0.11227,14.11349 -6.99756,17.499c3.32531,1.25415 5.96151,4.24502 9.08754,5.82426c0.96847,0.48926 2.26006,0.39273 3.05043,1.13613c2.83701,2.66838 3.8138,5.27149 1.42451,8.65876c-6.46828,9.16997 -19.68947,7.22853 -29.25473,7.23041l-1.7547,0c0,0 -2.5,0 -2.5,-2.5zM415.97081,317.31068c1.3896,-0.90334 3.90426,-1.78077 3.61596,-3.41291c-0.17982,-1.01798 -5.31823,-3.11226 -5.92573,-3.51435c-1.63721,-1.08363 -3.06611,-2.5464 -4.87954,-3.29886c-1.04335,-0.43293 -2.10593,-0.81622 -3.17557,-1.18125l-0.07089,0.42532l-4.89143,-0.81524c-1.20503,-0.179 -2.12954,-1.21791 -2.12954,-2.47274c0,-0.99801 0.58479,-1.85943 1.43041,-2.26029l3.45999,-1.72999l0.03726,0.07452l0.20631,-0.18053c3.65298,-0.92415 7.92983,-2.38704 10.07267,-5.85443c0.69928,-1.13152 1.05721,-3.7848 -0.31264,-4.82718c-1.94228,-1.47795 -4.76256,-1.09412 -7.17761,-1.44671c-2.35105,-0.34325 -4.65046,-0.48095 -6.96163,-0.53591c0.97767,0.89292 0.68826,2.33998 0.68826,2.33998c-0.56863,2.84317 -1.44892,5.64015 -1.71783,8.52713c-0.63383,6.80466 0.01217,13.95778 0.01217,20.80424v0.87711c0,0 0,0.53908 -0.25032,1.11658c6.14242,0.2592 12.88849,0.66866 17.96971,-2.63448z" fill="#000000"/><path d="M331.72257,330.97677c-2.5,0 -2.5,-2.5 -2.5,-2.5v-0.87711c0.02445,-3.03644 -0.85761,-5.71393 -0.87711,-8.77108c0,0 0,-2.5 2.5,-2.5c2.5,0 2.5,2.5 2.5,2.5c-0.02445,3.03644 0.85761,5.71393 0.87711,8.77108v0.87711c0,0 0,2.5 -2.5,2.5z" fill="#000000"/><path d="M369.92005,347.53221c1.11803,2.23607 -1.11803,3.3541 -1.11803,3.3541l-2.87225,1.14104c-2.04658,0 -4.09317,0 -6.13975,0c-2.92369,0 -5.84746,0.02153 -8.77108,0c-1.36108,-0.01002 -2.81172,0.41991 -4.08281,-0.06688c-1.998,-0.76516 -4.65563,-1.52208 -5.3503,-3.54567c-0.60436,-1.76052 1.27826,-3.55741 2.4027,-5.04076c0.72163,-0.95197 1.98397,-1.33175 2.95516,-2.0273c2.15296,-1.54189 4.36996,-3.21085 6.93187,-3.88111c3.1108,-0.81387 4.97847,-0.39433 7.47278,-2.65922c0.37285,-0.33855 0.31629,-0.9657 0.35949,-1.46746c0.50108,-5.81932 -2.43735,-4.98372 -7.18046,-4.99351c-2.19298,-0.00453 -4.37742,0.39229 -6.52657,0.82856c0,0 -2.45145,0.49029 -2.94174,-1.96116c-0.49029,-2.45145 1.96116,-2.94174 1.96116,-2.94174c6.45032,-1.27278 18.08875,-3.54396 19.62305,5.55943c1.41794,8.413 -4.53559,10.74718 -11.46409,12.46217c-2.00586,0.49651 -3.6643,1.93725 -5.34763,3.13575c-0.74455,0.5301 -1.48965,1.07308 -2.30749,1.48113c-0.33638,0.16784 -1.4628,0.10432 -1.10573,0.22189c2.15415,0.70923 7.69494,-0.10412 9.60061,-0.10412c1.25703,0 2.51405,0 3.77108,0c2.04658,0 4.09317,0 6.13975,0l0.63618,-0.61318c0,0 2.23607,-1.11803 3.3541,1.11803z" fill="#000000"/><path d="M393.1201,359.92132c-2.5,0 -2.5,-2.5 -2.5,-2.5l0.07464,-0.27077c-0.97777,-3.99202 -1.44903,-8.0425 -1.67027,-12.12583c-3.57636,0.06431 -7.30396,0.31091 -10.81521,-0.01423c-1.48021,-0.13707 -3.34795,0.31891 -4.39909,-0.73223c-1.05114,-1.05114 -0.57824,-2.92055 -0.73223,-4.39909c-0.39345,-3.77763 -0.14617,-7.74036 1.0054,-11.31586c0,0 0.79057,-2.37171 3.16228,-1.58114c2.37171,0.79057 1.58114,3.16228 1.58114,3.16228c-0.88487,2.53898 -0.74882,4.42132 -0.74882,7.1034c0,0.87711 0.17986,1.77285 0,2.63132c-0.07739,0.36938 -0.9991,0.59669 -0.73223,0.86356c0.26686,0.26686 0.49134,-0.66989 0.86356,-0.73223c1.15341,-0.19318 2.33895,0 3.50843,0c2.38113,0 4.76226,0 7.14339,0c-0.05165,-3.54101 0.00479,-7.09869 0.00479,-10.65661c0,0 0,-2.5 2.5,-2.5c2.5,0 2.5,2.5 2.5,2.5c0,8.90376 -0.52163,17.98619 1.67957,26.58399l0.07464,1.48345c0,0 0,2.5 -2.5,2.5z" fill="#000000"/></g></g></svg>