<svg version="1.1" xmlns="http://www.w3.org/2000/svg" xmlns:xlink="http://www.w3.org/1999/xlink" width="40.5" height="38.30822" viewBox="0,0,40.5,38.30822"><g transform="translate(-109.25,-137.00444)"><g data-paper-data="{&quot;isPaintingLayer&quot;:true}" fill-rule="nonzero" stroke-width="0.5" stroke-linecap="butt" stroke-linejoin="miter" stroke-miterlimit="10" stroke-dasharray="" stroke-dashoffset="0" style="mix-blend-mode: normal"><path d="M129.5,137.25444c11.04569,0 20,8.46366 20,18.90411c0,10.44045 -8.95431,18.90411 -20,18.90411c-11.04569,0 -20,-8.46366 -20,-18.90411c0,-10.44045 8.95431,-18.90411 20,-18.90411z" fill="#ffb337" stroke="#ff9e00"/><path d="M112.3901,151.36055c0.24979,-0.84561 0.68693,-1.56053 1.25773,-2.17c1.23901,-1.32294 3.10779,-2.14899 5.05719,-2.73615l2.08662,-1.19235c0.25148,0.1437 0.48098,0.30728 0.69035,0.48897c0.94009,-0.20675 1.83607,-0.38512 2.6216,-0.56624c1.65004,-0.38047 3.87502,-1.44962 4.9696,0.73954c1.42614,2.85228 -2.29172,4.01434 -5.60038,4.69718c0.35519,3.61201 -0.3457,8.08578 0.17601,11.21609c0.31107,1.8664 1.34589,5.07888 -1.50325,5.64871c-4.08299,0.8166 -4.15179,-11.23017 -4.14181,-13.82271c0.00126,-0.32743 0.01419,-0.76236 0.03182,-1.2142c-1.08379,0.90149 -2.42064,2.00313 -3.31731,1.40535z" fill="#9966ff" stroke="none"/><path d="M143.75924,155.20508c-0.88345,1.38828 -6.3955,4.6895 -8.86812,3.61106c-0.60373,1.0542 -1.15577,1.99328 -1.56935,2.72594c-0.59979,1.06253 -2.32256,5.7121 -4.18162,5.12913c-4.50357,-1.41225 -1.59088,-4.98402 -0.22091,-7.50441c0.67362,-1.23929 1.3912,-2.45468 2.06828,-3.70474c1.47482,-2.7229 2.33998,-5.60539 3.53545,-8.43588c0.03038,-0.09877 0.06671,-0.19493 0.10857,-0.28806c0.39115,-0.87014 1.2655,-1.47606 2.28137,-1.47606c0.81041,0 1.53075,0.3856 1.98756,0.98334c3.63765,0.14833 7.14938,5.36015 4.85877,8.95968z" fill="#9966ff" stroke="none"/></g></g></svg>