<svg version="1.1" xmlns="http://www.w3.org/2000/svg" xmlns:xlink="http://www.w3.org/1999/xlink" width="372.77645" height="261.63805" viewBox="0,0,372.77645,261.63805"><g transform="translate(53.59706,24.69747)"><g data-paper-data="{&quot;isPaintingLayer&quot;:true}" fill-rule="nonzero" stroke="none" stroke-width="0.5" stroke-linecap="butt" stroke-linejoin="miter" stroke-miterlimit="10" stroke-dasharray="" stroke-dashoffset="0" style="mix-blend-mode: normal"><g><path d="M263.60087,18.89541c14.26616,-7.1367 28.46639,-14.22179 42.77203,-21.37715l0.28431,-0.03047l-0.02623,-0.07199l5.91966,-2.15649c0.54824,-0.21439 1.14495,-0.33207 1.76914,-0.33207c2.68388,0 4.8596,2.17572 4.8596,4.8596c0,0.57714 -0.10061,1.13079 -0.28525,1.64435l-3.03761,9.11283l-0.02991,-0.00997c-0.02725,0.10539 -0.0551,0.21067 -0.08357,0.31581c-1.82803,6.75159 -8.15273,12.73031 -9.7768,19.49056c-0.50935,2.1202 0.54554,4.43039 0,6.54157c-1.83425,7.09835 -7.42472,13.34071 -9.98421,20.19423c-3.22483,8.63509 -6.94808,22.21355 -14.69114,28.34222c-2.73689,2.16626 -7.30373,1.04138 -9.92065,3.35114c-2.04352,1.80366 -3.27079,4.36105 -4.90618,6.54157l-4.17559,1.54851c-0.06773,1.6072 -0.1884,3.20882 -0.37149,4.80039c-0.95371,8.28998 -3.8105,16.34931 -4.91554,24.61755c-1.72529,12.90903 -4.59315,24.49067 -9.09958,36.81846c-4.40575,8.80511 -8.7315,15.10671 -14.78085,22.83092c-1.85708,2.37124 -3.21548,5.20348 -5.49318,7.17417c-3.90442,3.37815 -9.60121,4.03857 -13.78297,7.06667c-2.43577,1.7638 -3.91465,4.64261 -6.34522,6.41357c-4.21369,3.07017 -10.14604,3.15013 -14.3372,6.25098c-1.71632,1.26983 -1.84734,4.16635 -3.69924,5.22873c-2.71033,1.55484 -6.23419,0.95326 -9.12868,2.13026c-9.74242,3.96163 -18.03554,10.5997 -28.40862,13.27317c-16.50018,4.25263 -34.96214,3.4077 -51.8426,3.4077c-21.24591,-0.00046 -40.65242,-3.86758 -59.55341,-13.66979c-7.37639,-3.82546 -13.14177,-10.58606 -19.84235,-15.43074c-9.47057,-6.84745 -22.75978,-13.96467 -29.40322,-23.90141c-2.76989,-4.14299 -3.58558,-9.30016 -5.33545,-13.96649c-4.44785,-11.86093 -8.42085,-23.19061 -8.47347,-36.01475c0.00016,-2.28237 -0.07432,-12.74932 0.27128,-14.51973c0.62124,-3.18248 2.46658,-6.04389 3.07497,-9.22885c1.57964,-8.2695 0.80768,-17.42141 1.58358,-25.79206c0.79916,-8.62159 3.05114,-16.7026 5.92508,-24.57297c-1.18462,-0.67389 -1.86178,-1.68963 -1.86178,-1.68963c-5.42304,-8.13859 -9.10773,-16.50247 -13.40517,-25.09144c-2.75593,-5.50809 -6.63507,-10.66341 -9.65002,-16.04984c-5.28953,-9.4501 -9.15701,-19.45966 -13.13484,-29.4977l-3.02254,-4.53382c-0.53807,-0.78218 -0.85302,-1.72976 -0.85302,-2.7509c0,-2.68388 2.17572,-4.8596 4.8596,-4.8596c1.1117,0 2.13621,0.37329 2.95503,1.00137l6.5023,4.87673l-0.00805,0.01074c0.02282,0.01172 0.04563,0.02348 0.06842,0.03528c2.67858,1.38619 4.47475,4.09373 7.02945,5.69681c3.86304,2.42407 8.73311,3.02256 12.4606,5.65029c1.79828,1.26772 2.80895,3.46462 4.61956,4.71467c5.91504,4.08374 16.46024,5.34972 23.51279,7.70057l3.04418,7.22004c0.18119,-0.21625 0.34923,-0.41713 0.50179,-0.60023c7.65509,-9.18797 14.12425,-19.00022 26.04804,-22.96009c2.99351,-0.99414 6.18349,-1.24985 9.27523,-1.87478c20.45986,-0.08833 41.49031,0.14145 61.85644,2.20515c14.69469,1.48902 28.94231,6.62638 43.58953,7.59295c5.68292,0.37501 10.97567,-0.07886 16.33415,-0.70992c1.36916,-0.93487 2.98861,-0.93487 2.98861,-0.93487h4.89797c0.04286,-0.00043 0.08575,-0.00042 0.12867,0c1.84597,0.00001 3.67572,0.00059 5.49141,0.03215c1.64819,-0.74868 2.7548,-2.7153 4.54093,-3.10047c3.61984,-0.78059 7.40487,-0.13498 11.1073,-0.20247c0,0 4.8596,0 4.8596,4.8596c0,0.70546 -0.10241,1.30851 -0.2775,1.82402c0.21831,0.0888 0.43653,0.1799 0.65465,0.27338c3.50524,1.50214 6.71481,5.34598 10.59829,6.25615c4.09752,0.96033 8.7059,0.10978 12.46632,1.99954c4.05718,2.0389 6.84208,6.01644 9.80003,9.46149c3.02338,3.52125 6.40701,6.77103 9.1578,10.50034c5.4994,-3.12311 12.95227,-5.34298 18.1348,-7.93556z" fill="#9966ff"/><path d="M36.34956,50.48403c0,-2.68388 2.17572,-4.8596 4.8596,-4.8596c2.68388,0 4.8596,2.17572 4.8596,4.8596c0,2.68388 -2.17572,4.8596 -4.8596,4.8596c-2.68388,0 -4.8596,-2.17572 -4.8596,-4.8596z" fill="#000000"/><path d="M152.46246,60.29639c0,-2.68388 2.17572,-4.8596 4.8596,-4.8596c2.68388,0 4.8596,2.17572 4.8596,4.8596c0,2.68388 -2.17572,4.8596 -4.8596,4.8596c-2.68388,0 -4.8596,-2.17572 -4.8596,-4.8596z" fill="#000000"/><path d="M183.32288,168.3978c-0.60213,-0.60213 -0.99324,-1.20426 -1.22879,-1.7879c-16.76478,-4.61147 -33.55204,-8.67129 -48.16721,-18.54301c-3.62568,-1.18316 -6.79499,-3.63096 -10.49447,-4.55792c-2.1979,-0.55071 -4.57446,0.31865 -6.79637,-0.12539c-3.15521,-0.63056 -6.01563,-2.35347 -9.1542,-3.06226c-4.19389,-0.94712 -8.62654,0.51238 -12.89848,0.02634c-4.00438,-0.4556 -7.65954,-2.61964 -11.63241,-3.29713c-3.76162,-0.64146 -7.67141,0.54816 -11.44775,0c-3.41195,-0.49526 -6.40795,-2.72604 -9.81236,-3.27079c-3.5306,-0.56494 -7.17864,-0.69134 -10.57068,-1.82202c-0.95107,-0.31702 -5.19825,-2.25746 -6.86738,-1.59453c-3.21778,1.278 -5.64418,4.01339 -8.52497,5.93392c0,0 -4.04343,2.69562 -6.73905,-1.34781c-2.69562,-4.04343 1.34781,-6.73905 1.34781,-6.73905c1.29667,-0.86445 10.22558,-6.88446 11.09974,-7.14922c6.65447,-2.01552 10.88124,2.16111 16.90519,3.12502c1.61485,0.2584 3.29455,-0.27779 4.90618,0c3.39761,0.58563 6.39787,2.79328 9.81236,3.27079c3.77914,0.5285 7.68198,-0.61662 11.44775,0c3.85568,0.63134 7.37861,2.82529 11.26309,3.24445c4.39709,0.47447 8.9398,-0.88355 13.2678,0.02634c3.19209,0.67108 6.08825,2.44454 9.28669,3.0847c2.44336,0.48903 5.05677,-0.34928 7.47061,0.26922c4.34894,1.11433 8.15004,3.81083 12.40103,5.25444c15.7671,10.38917 33.56791,14.1848 51.53254,19.31755l0.46583,9.74427c0,0 -3.43626,3.43626 -6.87251,0z" fill="#000000"/></g></g></g></svg>