<svg version="1.1" xmlns="http://www.w3.org/2000/svg" xmlns:xlink="http://www.w3.org/1999/xlink" width="618.63586" height="519.46312" viewBox="0,0,618.63586,519.46312"><g transform="translate(73.13167,89.2964)"><g data-paper-data="{&quot;isPaintingLayer&quot;:true}" fill-rule="nonzero" stroke="none" stroke-width="0.5" stroke-linecap="butt" stroke-linejoin="miter" stroke-miterlimit="10" stroke-dasharray="" stroke-dashoffset="0" style="mix-blend-mode: normal"><path d="" fill="#000000"/><path d="" fill="#000000"/><path d="" fill="#000000"/><path d="" fill="#000000"/><path d="" fill="#000000"/><path d="" fill="#000000"/><path d="" fill="#000000"/><path d="" fill="#000000"/><path d="" fill="#ff0000"/><path d="M10.85981,5.10691c0.98868,-1.4889 2.09738,-2.88469 3.29854,-4.20253l-0.45253,0.90505l-3.15196,4.20261l-1.16173,1.92133l-0.40337,0.63866c0.57923,-1.28547 1.20762,-2.46604 1.87104,-3.46512z" fill="#ff0000"/><path d="M73.39106,382.70526c0.05874,-0.14098 0.12251,-0.26977 0.19047,-0.38731c-7.65372,-3.04658 -15.47313,-5.89646 -22.91509,-9.37424c-5.99822,-2.80309 -11.11756,-6.29779 -17.71229,-7.29384c-14.35453,-2.26186 -28.82203,-5.19357 -43.33286,-6.2422c-6.34187,-0.45829 -12.72257,-0.50402 -19.07525,-0.9597c-2.39174,-0.17156 -7.82861,-0.41856 -9.78533,-1.31454c-5.03077,-2.3036 -5.17467,-4.3314 -7.32928,-8.82112c-0.17474,-0.36411 -4.33114,-9.16508 -4.39174,-9.35682c-0.06679,-0.2113 -1.71188,-9.76438 -1.78395,-10.18111c-1.16215,-6.71926 -2.58348,-13.61622 -1.99905,-20.48805c0.42002,-4.93865 2.55928,-9.74818 2.92506,-14.6845c0.48676,-6.56906 -1.27509,-13.31828 -0.97343,-19.90612c0.21633,-4.72436 1.84351,-9.40548 1.9924,-14.12823c0.34389,-10.90762 -1.42282,-22.2227 -1.99135,-33.13093c1.98044,-8.10795 4.22463,-16.1748 6.05028,-24.31824c1.11622,-4.97897 1.76207,-10.00701 3.39424,-14.86555c1.59534,-4.7489 3.65808,-9.44652 5.55195,-14.08437c0.55707,-1.36418 1.48979,-2.62092 1.70468,-4.07871c0.07939,-0.53859 -0.79062,-6.39915 -0.70991,-7.51964c0.12774,-1.77335 1.46287,-8.38609 1.81882,-10.22004l0.22513,-1.15967c0,0 0.22719,-1.17029 1.17594,-1.7377c-9.50791,-9.97761 -21.36313,-25.33607 -29.94981,-33.4346c7.00753,3.06024 17.01077,7.06401 27.11466,11.07348c-0.03022,-0.16106 -0.06272,-0.32078 -0.09929,-0.47826c-0.46406,-1.99804 -1.62329,-4.02016 -1.22044,-6.03143c0.35182,-1.75649 2.15203,-2.86548 3.28102,-4.25631c2.1867,-2.69386 4.24615,-4.88914 6.57552,-7.45159c3.77294,-4.15046 7.68613,-8.51077 12.10775,-12.14474c0.22552,-3.81832 0.6406,-7.6697 0.83009,-11.36309c-0.999,-0.26484 -1.99811,-0.52919 -2.9975,-0.79219l-2.13153,-1.64992c0,0 -1.76777,-1.76777 0,-3.53553v-0.00001c1.76777,-1.76777 3.53553,0 3.53553,0l-0.13153,0.35008c0.63701,0.16764 1.27422,0.33467 1.91154,0.50135c0.18826,-6.87335 0.21342,-13.84226 0.9655,-20.62313c0.73488,-6.62592 2.36448,-13.28789 3.53537,-19.85266c0.29265,-1.64077 0.55556,-3.28713 0.87794,-4.92232c0.17203,-0.87258 0.81341,-1.7341 0.60485,-2.59868c-0.32673,-1.35444 -1.40207,-2.40816 -2.1031,-3.61224c-3.27578,-6.0836 -6.47287,-12.00606 -7.75941,-18.9027c-1.67622,-8.98563 -1.09332,-18.53074 -2.15476,-27.61454c-0.98446,-8.42502 -2.85778,-16.68701 -2.4973,-25.18594c0.03503,-0.82595 0.41644,-10.25217 0.56421,-10.68685c1.31353,-3.864 6.95778,-10.64224 11.04792,-11.60927c1.91895,-0.4537 3.91016,0.51328 5.86523,0.76993c26.1553,4.21341 52.61764,7.83918 79.14536,8.75111c8.25775,0.28387 16.62016,-0.19485 24.88353,-0.29042c9.99933,-0.11564 19.99866,-0.23129 29.99799,-0.34693c4.81422,-0.05568 9.83876,-0.49612 14.6417,-0.16198c4.26305,0.29658 9.41358,2.40646 13.65716,2.00118c3.14214,-0.30008 6.0401,-1.83593 9.06828,-2.72657c2.34856,-0.69075 4.88849,-0.90261 7.05364,-2.04496c1.53583,-0.81031 2.72355,-2.26662 4.35715,-2.85544c1.7516,-0.63136 3.69208,-0.48554 5.54016,-0.71202c4.96238,-0.60815 9.93399,-1.1513 14.90027,-1.72687c4.81544,-0.55809 8.57497,-0.91935 13.42595,-0.57804c2.80547,0.19739 5.65451,1.23527 8.41027,0.67368c3.07073,-0.62577 5.71275,-2.57877 8.58384,-3.83485c4.57183,-2.00015 9.11484,-4.05806 13.66042,-6.11703c4.54306,-2.05782 9.16491,-4.6288 13.87103,-6.27205c6.26973,-2.18922 13.1658,-3.32393 19.60909,-4.94561c0.53667,-0.13507 9.84778,-2.49133 10.14232,-2.51086c0.29454,-0.01953 9.83526,1.08649 10.38507,1.14951c6.62604,0.77093 12.87672,2.84567 19.28918,4.64917c5.82597,1.63855 12.10546,2.8149 17.74833,4.99984c4.40917,1.70725 8.49777,4.45003 12.96568,5.98763c5.45256,1.87646 10.52991,1.86604 16.15007,1.85883c1.1116,-1.65959 3.0538,-0.77677 3.0538,-0.77677c3.16682,1.43946 6.50372,2.81887 9.75095,4.35556c2.27368,-1.86147 4.54588,-3.69466 6.76562,-5.52268c7.64844,-6.26364 17.31448,-11.3201 27.39076,-11.68286c6.08871,-0.2192 12.41019,0.81166 18.50584,1.08781c4.99341,0.22622 9.99418,0.39543 14.98462,0.67902c1.92293,0.10927 3.96353,-0.29559 5.76527,0.38512c0.48001,0.18135 7.76923,6.08773 8.47636,6.65626c6.5091,5.23335 12.93146,10.55877 19.34041,15.91414c12.78936,10.68691 25.57872,21.37382 38.36808,32.06073c4.27747,3.57429 7.89924,6.34629 10.9242,11.10406c1.09916,1.7288 2.80683,3.24616 3.17697,5.26108c0.12792,0.69632 -3.03075,8.89859 -3.17983,9.25682c-3.05917,7.35129 -7.00946,14.23972 -9.70246,21.75045c-1.12683,3.13709 -2.22531,6.28452 -3.38048,9.41129c-0.50317,1.36194 -1.43023,2.62312 -1.55185,4.06994c-0.26121,3.10748 1.18216,6.12402 1.7316,9.19367c0.85412,4.77186 1.33649,9.87665 2.59606,14.55601c1.50777,5.60144 5.36033,11.06404 6.47881,16.69822c0.24126,1.21533 -0.2327,2.46732 -0.37458,3.69822c-0.73586,6.38394 -2.9422,12.56607 -3.61478,18.91468c-0.67561,6.37729 0.01427,13.24138 0.01274,19.66022c0.57443,9.32737 1.16285,18.62645 2.06306,27.92859c0.64171,6.63096 1.97098,13.60254 1.93555,20.26091c-0.02183,4.10214 -1.63378,8.77055 -2.39373,12.78738c-0.2907,1.53653 -0.58139,3.07306 -0.87208,4.60959c0.25452,-0.00615 0.51061,-0.00959 0.7684,-0.01009c0,0 2.5,0 2.5,2.5c0,2.5 -2.5,2.5 -2.5,2.5c-0.58244,-0.00123 -1.15525,0.01394 -1.72049,0.04257c-0.94104,4.97406 -1.88207,9.94812 -2.82312,14.92218c0,0 -0.46473,2.45642 -2.92115,1.99169c-2.45643,-0.46473 -1.99169,-2.92115 -1.99169,-2.92115c0.79636,-4.20936 1.59273,-8.41872 2.38909,-12.62808c-1.23026,1.41941 -2.46768,2.83265 -3.7115,4.24016c-0.47998,2.14692 -2.2061,4.2014 -1.77064,6.35779c0.25951,1.28508 1.73476,1.96773 2.54947,2.99487c1.04174,1.31337 2.02461,2.67253 3.0173,4.02335c3.5838,4.87673 7.43723,9.94246 10.20964,15.34053c1.47126,2.86463 2.13465,6.10052 3.6254,8.95505c3.10068,5.93729 8.52696,10.35521 11.72391,16.08595c0.13738,0.24627 3.30467,9.33001 3.4799,9.83066c0.15899,0.45425 3.33495,9.50546 3.3955,9.77514c0.96006,4.27562 0.56405,9.40392 0.81459,13.76977c0.04205,0.73266 0.60809,10.20286 0.53222,10.5981c-0.87113,4.53809 -4.59698,9.93193 -6.52337,14.15778c-3.99892,8.77231 -7.32396,18.09776 -11.9732,26.5508c-2.3628,4.29593 -5.90001,8.09071 -8.04703,12.4925c-1.36678,2.80214 -1.81713,5.97084 -2.94525,8.87729c-2.69889,6.95331 -6.82027,13.64876 -10.15878,20.322c-2.33309,4.36341 -4.86705,8.68305 -7.02753,13.13401c-0.86143,1.7747 -1.05887,3.96696 -2.40823,5.40601c-1.02321,1.09121 -2.73719,1.24218 -4.18355,1.62392c-4.1544,1.09648 -9.08679,0.9881 -13.35055,1.44493c-11.24959,1.20531 -22.27055,1.76565 -33.58041,2.0095c-4.96589,0.10706 -10.31504,0.73254 -15.26069,0.31505c-4.94565,-0.41749 -10.11426,-1.93082 -14.99192,-2.86883c-13.18854,-2.53625 -25.86387,-6.72492 -38.71325,-10.60962c-3.06436,-0.92643 -7.08809,-1.63988 -10.59974,-2.7598c-0.01419,0.01606 -0.02867,0.03198 -0.04344,0.04774c-1.49164,1.59172 -4.08089,1.54835 -6.15754,2.21625c-4.73805,1.52386 -9.66916,2.63729 -14.47146,3.94676c-10.5488,2.8764 -20.80896,6.80842 -31.36846,9.63282c-7.94003,2.12376 -16.12591,3.52407 -24.16888,5.19969c-8.15817,1.69962 -16.31634,3.39924 -24.47451,5.09886c-2.84189,0.59206 -5.80251,0.76166 -8.52988,1.7558c-3.03096,1.1048 -5.76158,2.90406 -8.64703,4.34679c-2.89954,1.44977 -5.98267,2.57623 -8.70538,4.33577c-3.76055,2.43024 -7.3514,7.76026 -11.57011,9.28907c-0.51424,0.18636 -9.81996,0.62776 -10.75711,0.67582c-8.3224,0.42679 -16.64479,0.85358 -24.96719,1.28037c-7.96132,0.40681 -16.17597,2.36958 -24.12333,2.20037c-4.97488,-0.10592 -9.80681,-1.94128 -14.60069,-3.05086c-1.81483,-0.42006 -3.79456,-0.3499 -5.46262,-1.17914c-1.6863,-0.83831 -2.87168,-2.4371 -4.29413,-3.67121c-6.22441,-5.40025 -11.47841,-12.15166 -17.89246,-17.27859c-2.51409,-2.00958 -5.41775,-3.47629 -8.13756,-5.19724c-2.55507,-1.61672 -4.9045,-3.62652 -7.67903,-4.82825c-2.97586,-1.28894 -6.22803,-1.81383 -9.31628,-2.80368c-4.54957,-1.5055 -8.56117,-0.10977 -13.15815,-1.02917c-0.31643,-0.06329 -9.14742,-3.75883 -9.70202,-3.98991l-2.76923,-1.15385c0,0 -2.30769,-0.96154 -1.34615,-3.26923zM101.38001,346.1872c4.98167,-0.5596 10.20463,-0.38826 15.21593,-0.57386c4.62357,-0.17124 9.73252,-0.93364 14.34306,-0.43497c4.75932,0.51477 9.36405,2.37424 14.10682,3.01264c4.8467,0.65239 9.90695,0.66293 14.78734,0.99269c13.303,0.89885 26.606,1.7977 39.909,2.69655c6.24802,0.42216 12.68833,1.34864 18.94849,1.28656c8.30809,-0.08238 16.60017,-1.74538 24.90933,-1.84662c6.74148,-0.08214 13.73372,0.49319 20.36281,1.62469c4.22603,0.72515 8.66714,1.94261 12.94812,2.23094c7.88013,0.53073 15.8162,-0.63277 23.68069,-0.88853c15.27544,-0.49677 30.78282,-0.46 46.04681,1.08573c-3.97947,-4.76942 -8.74699,-9.04269 -12.33163,-14.08887c-14.97576,-21.12185 -31.61278,-41.08085 -48.20766,-60.95342c-0.02578,2.29647 -0.05858,4.34828 -3.71116,5.22863c-0.8644,0.20834 -9.64969,-1.90522 -10.99527,-2.21574c-6.49594,-1.49906 -12.99188,-2.99813 -19.48782,-4.49719c-3.11412,-0.71864 -6.14462,-1.99386 -9.3346,-2.18925c-6.09296,-0.37319 -12.62407,1.71348 -18.74101,1.99565c-6.09802,0.2813 -12.03477,-1.00267 -18.13051,-0.99659c-15.76954,0 -31.93536,0.18219 -47.52097,2.78798l-1.06803,0.17801c0,0 -2.09556,0.34926 -2.74511,-1.52791c-0.31004,0.25568 -0.73395,0.45417 -1.31234,0.5368c-2.47487,0.35355 -2.82843,-2.12132 -2.82843,-2.12132c-0.96755,-6.77759 -2.97148,-13.38914 -2.311,-20.25939c0.20786,-2.16215 -0.5387,-4.79497 0.85641,-6.45984c1.3951,-1.66487 4.11955,-1.3847 6.21037,-1.97341c4.30799,-1.21299 8.75216,-1.97234 13.08912,-3.08024c1.42175,-0.36319 2.96322,-0.4452 4.24844,-1.15335c1.4561,-0.8023 2.30768,-2.47462 3.77032,-3.26492c1.62087,-0.8758 3.51894,-1.09282 5.28231,-1.62649c4.79159,-1.45012 9.64357,-3.14633 14.51308,-4.30394c2.91098,-0.69201 6.10703,-0.32643 8.84403,-1.53536c1.3576,-0.59965 2.39159,-1.75809 3.58738,-2.63714c6.73716,-4.7743 14.7606,-6.26089 22.00896,-9.87626c5.84231,-2.91405 10.39208,-8.97007 16.40386,-11.48669c5.22121,-2.18568 11.20654,-1.24942 16.57115,-2.16425c3.9871,-0.67992 8.03019,-1.56855 12.095,-2.01355c4.26414,-0.46682 9.59095,1.09255 13.73108,0.04815c1.25997,-0.31784 2.30423,-1.20196 3.45635,-1.80295l0.35027,-0.5317c0,0 1.76777,-1.76777 3.53553,0c1.76777,1.76777 0,3.53553 0,3.53553l-1.03741,0.92332c0.30481,-0.04658 0.60427,-0.09726 0.89272,-0.15939c3.1932,-0.68781 6.55077,-0.30755 9.75289,-0.95256c2.39354,-0.48213 4.44893,-2.01851 6.72173,-2.91063c7.37336,-2.89419 14.93086,-5.40227 22.33987,-8.22475c7.34304,-2.76449 14.99742,-2.95827 22.78118,-3.78366c4.81791,-0.5109 10.51188,-1.89379 15.3367,-1.59077c6.38329,0.4009 13.27467,3.13755 19.56498,4.43244c6.52975,1.34419 13.05943,2.68871 19.58914,4.03306c1.63243,0.33609 3.27263,0.6364 4.89729,1.00826c1.30918,0.29966 2.57747,1.23041 3.90158,1.00571c1.15408,-0.19584 1.83147,-1.46011 2.78418,-2.14027c2.83776,-2.02592 5.98199,-3.63471 9.19906,-4.97919c4.72235,-1.94266 9.1322,-2.68765 14.08507,-3.78516c2.72109,-0.60297 5.31259,-1.72769 8.04438,-2.28015c4.85503,-0.98184 9.9821,-1.36517 15.08418,-1.6861c-1.786,-3.81812 -3.25959,-7.83674 -4.98882,-11.65977c-5.45824,-12.06724 -10.92029,-24.14568 -17.67118,-35.53781c-3.40679,-5.74895 -7.0111,-11.42657 -10.23736,-17.27828c-6.30439,-11.43475 -11.08808,-23.80444 -17.72107,-35.04789c-7.51812,-12.7438 -16.84799,-24.72697 -25.17105,-36.96619c-11.66069,-14.09693 -23.30794,-28.205 -34.96086,-42.30835c-4.38347,-5.30523 -8.99243,-10.52189 -13.3667,-15.89955l-0.09066,2.12923c0,0 -0.10929,2.49761 -2.6069,2.38832c-2.49761,-0.10929 -2.38832,-2.6069 -2.38832,-2.6069l0.18923,-4.21937c0.1919,-1.1458 0.29928,-2.30804 0.35577,-3.47935c-1.42928,-1.9021 -2.81139,-3.83378 -4.12752,-5.80524c0,0 -1.38675,-2.08013 0.69338,-3.46688c1.87387,-1.24925 3.18506,0.31496 3.42665,0.63743c0.00286,-0.40643 0.00947,-0.81179 0.02122,-1.21578c-3.87744,-0.25446 -7.70235,-0.69213 -11.66652,-1.27066c-1.46917,-0.21441 -9.56749,-1.30507 -10.65959,-1.87132c-1.21543,-0.63021 -6.16028,-6.2252 -7.5038,-7.27984c-4.81365,-3.7786 -10.96952,-6.98404 -16.53939,-9.45136c-3.04604,-1.35379 -6.10547,-2.67784 -9.13812,-4.06138c-1.31357,-0.59927 -2.49313,-1.62268 -3.92016,-1.84222c-1.37162,-0.21101 -2.74369,0.42008 -4.11901,0.60545c-3.30346,0.44525 -6.61263,0.84812 -9.92321,1.2369c-1.46517,0.17206 -3.01677,-0.03328 -4.3995,0.48089c-1.38273,0.51417 -2.42298,1.6837 -3.64483,2.51039c-4.89644,3.31284 -9.29255,8.38998 -14.37815,11.23004c-0.26314,0.14695 -9.36188,3.20036 -9.89649,3.38057c-4.74468,1.59935 -9.53391,3.55744 -14.37267,4.83902c-6.44421,1.70679 -13.24629,2.59022 -19.79111,3.86726c-6.12733,1.19558 -13.37015,1.60227 -19.23004,3.71702c-1.41539,0.5108 -6.9178,4.44452 -7.76052,4.89552c-5.24177,2.8053 -11.63629,3.44264 -17,6c-2.5454,1.21362 -5.01273,2.90932 -7.81258,3.2452c-4.8313,0.57959 -10.14201,-0.33028 -14.96553,-0.68536c-10.15608,-0.74763 -19.78834,-2.47344 -29.78771,-4.42545c-9.79096,-0.92649 -20.37735,-3.02009 -30.24277,-1.88969c-4.8245,0.5528 -7.32268,4.43885 -12.04607,5.00531c-4.08024,0.48933 -9.52281,-0.90847 -13.57004,-1.44922c-1.32992,-0.17769 -2.64303,-0.8157 -3.97357,-0.64272c-0.60867,0.07913 -0.80422,0.9355 -1.2782,1.32549c-1.01588,0.83587 -2.62997,1.1446 -3.17759,2.34076c-0.56911,1.24308 0.26178,2.72814 0.2312,4.09496c-0.1165,5.20555 -1.32399,10.65174 -1.99527,15.82273c0.68096,4.57678 1.63094,9.23439 1.99381,13.8447c0.57592,7.31724 -0.05232,14.85909 0.0581,22.20729c0.0669,4.45191 0.97527,8.66253 0.87987,13.09432c-0.10113,4.698 -0.62892,9.37366 -1.12938,14.04596c0.76827,0.0329 1.52941,0.12254 2.27859,0.30634c4.09586,1.00487 8.57096,4.26628 12.31309,6.16246c10.64285,5.46895 21.66937,2.83823 33.14331,2.81445c14.98915,-0.03107 29.9799,1.84935 44.96919,1.95468c7.94999,0.05587 15.9762,-0.61376 23.92155,-0.91796c8.30051,-0.3178 16.88673,-1.30561 25.18258,-0.95607c13.29853,0.56031 26.48658,3.97334 39.76739,4.89089c9.91515,0.68502 20.3524,-0.9396 30.18242,0.484c0.31493,0.04561 9.80511,2.72527 10.16233,2.82573c7.56128,3.67804 15.37336,6.84484 22.91546,10.51164c6.05369,2.94317 11.74154,6.76435 17.42379,10.34861c4.67021,2.94589 8.43947,5.16416 9.65069,10.8561c0.44793,2.10496 1.72876,4.2946 1.11913,6.35854c-0.20699,0.70079 -5.80036,4.4737 -6.86057,5.16785c-1.655,1.08357 -3.07085,2.7635 -5.00157,3.19415c-3.93302,0.87726 -9.7419,-1.92453 -13.88405,-1.62089c-3.18235,0.23328 -6.18224,1.5835 -9.27786,2.3574c-0.32893,0.08223 -9.73572,2.43749 -9.92955,2.47123c-4.28401,0.74571 -8.99042,0.5397 -13.32631,0.79475c-6.65516,0.39148 -13.31032,0.78296 -19.96549,1.17444c-20.07558,1.18092 -39.97438,2.05958 -60.08641,2.05958c-18.19071,0 -36.51137,0.55227 -54.68862,-0.11501c-2.08829,-0.07666 -94.17371,67.81899 -96.25705,67.69584c-0.95288,-0.05633 -1.91396,-0.36238 -2.88216,-0.88503c-0.04469,1.88326 -0.00898,3.74965 0.28943,5.558c0.26314,1.59463 1.09735,3.04725 1.47593,4.61848c0.74727,3.10142 0.96846,6.16923 2.35084,9.13162c2.41884,5.18347 5.29281,8.47998 5.95302,14.40468c0.68861,6.17957 -0.79665,11.89795 0.53433,17.92435c0.90633,4.33916 2.59241,10.71744 5.29526,14.27727c2.49112,3.28097 6.3309,5.54923 8.86237,8.81538c0.08428,0.10873 5.61106,8.38284 5.73809,8.58762c2.58026,4.15951 5.713,8.83615 7.65515,13.3238c2.63257,6.08294 3.18531,13.06097 5.80534,19.14333c2.84527,6.60525 7.39811,12.89745 10.95746,19.15749c0.04348,0.05785 0.15711,0.20879 0.32429,0.43092c7.93986,-2.06981 16.19554,-4.63103 24.26757,-5.53778zM-1.55642,87.9804c-0.73772,-0.23563 -1.47287,-0.48826 -2.21644,-0.67893c-2.08043,-0.53349 -4.1581,-1.07856 -6.23478,-1.62756c-0.13006,2.06578 -0.32115,4.17705 -0.49575,6.29777c0.91477,-0.4362 7.68858,-3.42797 8.94697,-3.99127zM-63.5293,115.01807c-7.71807,-3.37054 -11.80212,-5.59651 -8.3841,-5.42488c2.02968,0.10191 4.94468,2.181 8.3841,5.42488z" fill="#000000"/></g></g></svg>