<svg version="1.1" xmlns="http://www.w3.org/2000/svg" xmlns:xlink="http://www.w3.org/1999/xlink" width="276.0592" height="59.46138" viewBox="0,0,276.0592,59.46138"><g transform="translate(-163.64615,-251.35498)"><g data-paper-data="{&quot;isPaintingLayer&quot;:true}" fill-rule="nonzero" stroke="none" stroke-width="0.5" stroke-linecap="butt" stroke-linejoin="miter" stroke-miterlimit="10" stroke-dasharray="" stroke-dashoffset="0" style="mix-blend-mode: normal"><path d="" fill="#000000"/><path d="" fill="#000000"/><path d="" fill="#000000"/><path d="" fill="#000000"/><path d="" fill="#000000"/><path d="" fill="#000000"/><path d="" fill="#000000"/><path d="" fill="#000000"/><path d="" fill="#ff0000"/><path d="" fill="#000000"/><path d="M182.16346,307.40595c-2.49971,-0.03791 -2.46181,-2.53762 -2.46181,-2.53762l0.03218,-2.10558c0.2877,-9.44815 1.44554,-18.9315 3.00155,-28.26751c0,0 0.1044,-0.62639 0.52366,-1.19516c-1.55442,-1.31415 -3.7333,-3.42016 -4.20709,-3.86605c-4.85482,-4.56893 -9.70933,-9.1382 -14.564,-13.70729c0,0 -1.8205,-1.71341 -0.10709,-3.53391c1.71341,-1.8205 3.53391,-0.10709 3.53391,-0.10709c4.85467,4.5691 9.70949,9.13803 14.564,13.70729c0.82116,0.77291 1.7297,1.46246 2.46338,2.31887c0.3213,0.37505 0.16752,1.36775 0.65967,1.32662c2.39974,-0.20053 3.67026,-3.12708 5.36731,-4.83558c3.14413,-3.16535 6.3097,-6.3097 9.46447,-9.46447l2.64973,-1.4683c0,0 2.23607,-1.11803 3.3541,1.11803c1.11803,2.23607 -1.11803,3.3541 -1.11803,3.3541l-1.35027,0.5317c-3.15477,3.15477 -6.29993,6.31951 -9.46447,9.46447c-1.27687,1.26897 -2.32706,2.8227 -3.84153,3.79587c-1.00659,0.64682 -2.07236,1.35915 -3.19097,1.8465c0.32525,0.75595 0.19518,1.53639 0.19518,1.53639c-1.518,9.10803 -2.67625,18.37376 -2.93567,27.59213l-0.03061,2.03478c0,0 -0.03791,2.49971 -2.53762,2.46181z" fill="#00ff25"/><path d="M228.94799,261.38738c-0.14774,-0.01186 -0.23691,-0.02969 -0.23691,-0.02969c-2.49726,-0.50578 -5.22412,-2.1607 -7.55848,-1.13949c-2.47182,1.08134 -3.54377,4.06923 -5.30705,6.1113c-4.09918,4.74729 -5.47552,9.92797 -5.9193,16.10521c-0.07135,0.99312 -0.50836,2.00647 -0.27481,2.97437c0.30696,1.27212 1.29278,2.27998 1.83053,3.47302c0.63452,1.40773 0.88119,2.99569 1.68065,4.31674c0.67161,1.10978 1.53235,2.19456 2.65406,2.84606c1.34104,0.7789 3.05279,0.66093 4.46964,1.2915c1.13581,0.5055 1.85756,1.9952 3.09812,2.07655c1.26949,0.08325 2.29821,-1.09202 3.44269,-1.64763c1.47816,-0.71759 2.90371,-1.55133 4.42514,-2.17192c0.73511,-0.29985 1.76239,-0.00202 2.31109,-0.5758c0.86533,-0.90487 1.01533,-2.28899 1.523,-3.43348c0.5241,-2.27364 1.63358,-4.47688 1.6185,-6.81009c-0.05488,-8.49063 -3.62907,-16.22833 -7.75688,-23.38665zM225.66329,255.62165c0.04473,-0.52475 0.29255,-1.09827 0.93734,-1.63575c1.92033,-1.60073 3.52106,0.3196 3.52106,0.3196l1.65093,2.02703c5.2064,8.68015 9.98648,18.22738 9.92525,28.70591c-0.01649,2.82122 -1.25688,5.50085 -1.90936,8.24564c-0.98305,1.83693 -1.5085,4.00571 -2.94914,5.51079c-0.91143,0.9522 -2.48398,0.88986 -3.68891,1.4242c-2.15646,0.95631 -7.95208,4.26576 -10.13217,4.18045c-1.77911,-0.06962 -3.08756,-1.79452 -4.73078,-2.48003c-1.64536,-0.6864 -3.59905,-0.65347 -5.09716,-1.61991c-1.7111,-1.10384 -3.10389,-2.70888 -4.23633,-4.40119c-6.85402,-10.24259 -4.62914,-23.75134 3.09525,-32.82286c1.06555,-1.25139 5.6167,-6.83108 7.20087,-7.48126c1.57312,-0.64565 4.0991,-0.38934 6.41316,0.02738z" fill="#00ff25"/><path d="M284.52029,258.42666c2.47957,0.31892 2.16065,2.7985 2.16065,2.7985l-0.46136,3.49502c-3.07403,9.09325 -1.69312,19.03735 -4.75572,28.24959c-0.47472,0.76883 -4.90559,7.96863 -5.16532,8.27829c-3.05679,3.64437 -9.03818,9.47306 -14.27441,9.15189c-6.42982,-0.39438 -10.98745,-10.23133 -13.35873,-15.11892c-0.16852,-0.34735 -3.87973,-9.69842 -3.91894,-9.90202c-0.05335,-0.27703 -0.04511,-7.04463 -0.04511,-8.47277c0,-0.7316 -0.01546,-10.04992 0.05106,-10.50266c0.56247,-3.82835 3.50529,-8.19817 5.21288,-11.61537c0,0 1.11803,-2.23607 3.3541,-1.11803c2.23607,1.11803 1.11803,3.3541 1.11803,3.3541c-1.48498,2.96813 -4.36002,7.07433 -4.78712,10.38463c-0.40511,3.1398 0.05106,6.33151 0.05106,9.49734c0,2.50912 -0.5196,5.06338 -0.04511,7.52723c0.80954,4.20362 3.6743,9.18408 5.88399,12.7877c1.08409,1.76795 3.86944,8.12904 6.83834,8.19136c2.73832,0.05747 4.94484,-2.77946 6.61446,-4.28883c3.52312,-3.18498 5.43575,-6.29166 7.94582,-10.28099c2.95091,-8.82263 1.50984,-18.43031 4.40656,-27.23725l0.37636,-3.01814c0,0 0.31892,-2.47957 2.7985,-2.16065z" fill="#00ff25"/><path d="M361.96913,261.13847c1.76777,1.76777 0,3.53553 0,3.53553l-0.34174,-0.16413c-0.98023,3.93688 -1.9326,7.62049 -1.95971,11.69004c-0.02488,2.3777 0.01598,8.15454 -0.43222,10.4456c-0.84674,4.3283 -2.97532,8.94818 -4.26796,13.1782c-0.7016,2.29591 -1.86452,9.59754 -5.96802,9.57435c-4.05285,-0.0229 -3.50027,-7.66569 -4.0406,-9.37862c-0.49687,-1.57513 -1.78129,-2.81961 -2.3056,-4.38582c-0.55019,-1.64351 -0.50097,-3.43316 -0.87819,-5.12477c-0.88538,-3.97035 -2.65994,-7.95561 -3.94543,-11.81206c-0.65951,-1.97853 -1.34291,-3.94928 -1.99157,-5.93134c-0.087,1.69602 -0.29947,3.31785 -0.32567,4.44247c-0.90447,5.41893 -2.02734,12.5101 -4.25216,17.55145c-1.11592,2.52864 -2.90495,4.70351 -4.30753,7.08513c-1.40475,2.38532 -4.99597,10.1777 -10.0657,7.18835c-1.45288,-0.85669 -1.19005,-10.19557 -1.18567,-12.12663c0.00595,-2.62646 -0.69501,-5.20675 -1.04307,-7.81005c-0.65778,-4.91991 -0.84884,-9.7243 -1.89596,-14.64118c-0.95566,-4.4874 -2.37578,-8.61112 -3.03585,-13.19522c0,0 -0.35355,-2.47487 2.12132,-2.82843c2.47487,-0.35355 2.82843,2.12132 2.82843,2.12132c0.6311,4.45551 2.03057,8.44337 2.96415,12.80478c1.07877,5.0397 1.29351,9.9933 1.96807,15.03455c0.6079,4.54304 1.8042,8.79089 1.0929,13.51423c-0.15429,1.02458 -1.01163,1.85196 -1.18567,2.87337c-0.11044,0.64813 0.66075,-1.13689 0.98705,-1.70768c1.21689,-2.12872 2.26539,-4.35408 3.54951,-6.44292c0.82135,-1.33606 1.99855,-2.46402 2.63722,-3.89642c2.03084,-4.55476 3.02557,-11.06814 3.84483,-15.99199c0.05434,-2.62067 -0.18547,-5.26453 0.16721,-7.86194c0.32727,-2.41023 -0.76577,-5.9256 1.3202,-7.17661c5.49099,-3.29308 7.52692,6.41338 8.13249,8.15703c2.19704,6.3261 5.02044,12.92456 6.47343,19.44452c0.34808,1.5619 0.25546,3.22252 0.7658,4.73917c0.61029,1.8137 1.57266,3.59108 2.24358,5.40625c0.86094,-3.15975 2.20473,-6.34406 3.18812,-9.3197c1.62718,-4.92368 1.7907,-8.80241 1.8428,-13.98074c0.0598,-4.4662 1.03268,-8.52377 2.10738,-12.84598l1.65826,-2.16413c0,0 1.76777,-1.76777 3.53553,0z" fill="#00ff25"/><path d="M384.66908,271.30669c-0.80695,5.50314 0.4542,11.3574 -0.15935,16.9282c-0.64071,5.81745 -1.55961,8.35998 1.77175,13.2846c0,0 1.38675,2.08013 -0.69338,3.46688c-0.31572,0.21048 -0.61546,0.34109 -0.89681,0.41124c0.50336,0.00186 1.00671,0.00464 1.51006,0.00864c1.14205,0.00906 2.32011,0.35364 3.42562,0.06688c1.36477,-0.35401 2.4256,-1.48526 3.76304,-1.93156c1.68591,-0.56258 3.48264,-0.71157 5.22395,-1.06735l2.56424,-0.06786c0,0 2.49989,-0.02315 2.52304,2.47674c0.02315,2.49989 -2.47674,2.52304 -2.47674,2.52304l-1.62996,-0.02902c-1.52728,0.29794 -3.10677,0.39833 -4.58185,0.89381c-1.48983,0.50044 -2.70954,1.69829 -4.23696,2.06844c-4.26162,1.03275 -10.19835,0.06688 -14.57438,0.06688c0,0 -2.5,0 -2.5,-2.5c0,-2.5 2.5,-2.5 2.5,-2.5c2.48078,0 4.96161,-0.01465 7.44238,-0.01124c-0.9544,-0.24985 -1.5225,-1.10201 -1.5225,-1.10201c-3.9214,-5.9543 -3.35586,-9.69738 -2.58426,-16.57934c0.63682,-5.67987 -0.58965,-11.57072 0.19666,-17.20786c0.23859,-1.71047 0.86612,-3.38225 0.95719,-5.09954c-1.56634,0 -3.0776,0 -4.48947,0c0,0 -2.5,0 -2.5,-2.5c0,-2.5 2.5,-2.5 2.5,-2.5c2.33333,0 4.66667,0 7,0c4,0 8,0 12,0h2c0,0 2.5,0 2.5,2.5c0,2.5 -2.5,2.5 -2.5,2.5c-3.45938,0 -7.51548,0 -11.51641,0c-0.10973,1.98597 -0.72657,3.92751 -1.01587,5.90046z" fill="#00ff25"/><path d="M437.20137,254.40623c2.5,0 2.5,2.5 2.5,2.5v4c-0.00083,4.47349 0.08304,9.2099 -0.4786,13.65878c-0.42045,3.33051 -1.99543,6.43148 -2.55368,9.74167c-0.71958,4.26679 1.23389,8.08733 1.1803,12.28074l0.81022,4.86135c0.02742,0.14831 0.04176,0.30121 0.04176,0.45746c0,1.38071 -1.11929,2.5 -2.5,2.5c-1.0024,0 -1.86702,-0.58996 -2.26556,-1.4416l-1.11792,-2.2629l0.01497,-0.0074l-0.03203,-0.02781c-1.38794,-3.0615 -2.05719,-6.40787 -3.33674,-9.51624c-0.91488,-2.22249 -2.49463,-4.10934 -3.69489,-6.1916c-1.64059,-2.84617 -2.96156,-5.87211 -4.6601,-8.68408c-2.57981,-4.27092 -6.59913,-7.36593 -9.31971,-11.48574l-0.08803,0.11737l-0.00643,-0.00482c-0.07614,6.08594 -0.78908,12.70734 -0.01569,18.67296c0.80318,6.19538 4.93975,10.9901 5.02212,17.33186c0,0 0,2.5 -2.5,2.5c-2.5,0 -2.5,-2.5 -2.5,-2.5c0.10475,-5.86843 -4.18759,-10.80127 -4.97788,-16.66814c-0.87536,-6.49848 -0.02212,-13.76754 -0.02212,-20.33186l0,-4c0,0 0,0 0,0c0,-1.38071 1.11929,-2.5 2.5,-2.5c0.57191,0 1.09897,0.19204 1.5202,0.51515l3.9798,2.98485l-0.01451,0.01935c0.07942,0.05506 0.15823,0.1111 0.23641,0.16818c0.06607,0.04824 4.36135,5.20725 5.19865,6.21201c4.08062,4.89674 6.79458,9.63459 9.97883,15.15537c0.46842,0.81213 0.98264,1.601 1.49605,2.39009c0.03253,-0.51651 0.07826,-0.97198 0.13685,-1.34545c0.51086,-3.25611 2.1254,-6.288 2.52753,-9.55932c0.52257,-4.25108 0.44101,-8.76845 0.44019,-13.04023v-4c0,0 0,-2.5 2.5,-2.5z" fill="#00ff25"/></g></g></svg>