<svg version="1.1" xmlns="http://www.w3.org/2000/svg" xmlns:xlink="http://www.w3.org/1999/xlink" width="1166.42911" height="701.10311" viewBox="0,0,1166.42911,701.10311"><g transform="translate(400.00538,161.35489)"><g data-paper-data="{&quot;isPaintingLayer&quot;:true}" fill-rule="nonzero" stroke="none" stroke-linecap="butt" stroke-linejoin="miter" stroke-miterlimit="10" stroke-dasharray="" stroke-dashoffset="0" style="mix-blend-mode: normal"><path d="" fill="#000000" stroke-width="0.5"/><path d="" fill="#000000" stroke-width="0.5"/><path d="" fill="#000000" stroke-width="0.5"/><path d="" fill="#000000" stroke-width="0.5"/><path d="" fill="#000000" stroke-width="0.5"/><path d="" fill="#000000" stroke-width="0.5"/><path d="" fill="#000000" stroke-width="0.5"/><path d="" fill="#000000" stroke-width="0.5"/><path d="" fill="#ff0000" stroke-width="0.5"/><path d="" fill="#000000" stroke-width="0.5"/><path d="" fill="#a500ff" stroke-width="0.5"/><path d="M470.9934,514.57463v-583.0236h145.44512v583.0236z" fill="#000000" stroke-width="0"/><path d="M162.63718,476.60821c8.78604,-9.81189 16.13544,-20.73403 23.19711,-31.80143c-8.86461,-0.65432 -17.84133,-0.36887 -26.64503,-1.22108c-1.88434,-0.18241 -3.76743,-0.43011 -5.65374,-0.60345c-0.10848,4.81624 -0.27247,9.62823 -0.53935,14.43152c-0.26209,4.71695 -0.99991,9.11758 -0.99617,13.86175c0,5.29893 0,10.59786 0,15.8968c3.77856,-3.36736 7.35898,-6.90314 10.63718,-10.5641zM190.60915,446.6177c-7.37838,11.5946 -15.04833,23.05287 -24.24633,33.32511c-9.7663,10.90691 -22.12768,20.76222 -34.51077,28.43554c-7.08906,4.69685 -15.36489,7.13204 -23.28686,10.17409c-24.76624,9.51026 -50.54737,14.84278 -76.71509,18.82814c-14.82114,2.25681 -29.34024,2.32592 -44.30257,2.36415c-20.0954,0.05135 -40.02419,-0.46652 -60.09372,-1.46894c-0.30755,-0.01536 -10.07012,-0.49927 -10.22749,-0.52248c-2.00167,-0.29512 -5.95049,-1.57636 -8.23281,-2.02965c-6.19006,-1.2294 -12.31175,-1.9645 -18.30643,-4.08401c-7.87184,-2.78321 -15.57446,-6.22651 -23.32748,-9.32772c-11.68729,-4.67492 -24.06082,-8.55942 -34.38137,-15.90828c-12.78569,-9.14241 -27.48174,-15.54966 -40.12478,-24.89143c-6.8289,-5.04578 -12.65879,-11.17122 -18.6642,-17.13053c-7.22391,-7.16847 -14.243,-14.11381 -20.52861,-22.12789c-22.78725,-25.70627 -46.79938,-50.14152 -70.22307,-75.23833c-7.95158,-8.51955 -16.41867,-16.713 -24.14756,-25.41628c-15.17023,-17.08277 -28.63693,-36.75453 -36.93227,-58.07759c-5.25913,-13.52348 -11.82683,-27.13783 -14.93142,-41.36058c-4.22759,-19.36741 -4.51225,-39.81246 -6.15475,-59.52246c-0.61311,-7.36542 -1.34723,-14.98162 -1.27157,-22.37376c0.08538,-8.34106 1.02257,-16.76807 1.5324,-25.09534c0.6516,-10.64273 0.39992,-21.87086 2.51008,-32.353c1.21059,-6.01353 3.09445,-11.94492 4.74638,-17.84467c2.24844,-8.03015 3.88215,-16.19884 6.06452,-24.21958c2.62036,-9.63048 7.03402,-18.77332 9.64737,-28.40464c0.69024,-2.54382 0.83591,-5.22042 1.59165,-7.74555c3.77447,-12.61156 8.56177,-25.48787 13.59178,-37.64599c3.70394,-8.93883 8.21084,-17.57287 12.40868,-26.2901c1.79391,-3.72523 3.09455,-8.09001 5.2284,-11.61647c3.21094,-5.30649 6.99839,-10.29411 10.23153,-15.61927c6.34735,-10.45446 12.02259,-20.75689 20.71495,-29.45798c7.91703,-7.91703 16.08311,-15.45697 24.38567,-22.96881c4.6037,-4.16525 9.17859,-8.42832 14.3198,-11.94279c7.05142,-4.82026 14.77894,-9.33526 22.39345,-13.01347c6.04986,-2.9224 12.9398,-4.78877 19.25088,-7.09996c4.22857,-0.74133 8.20998,-2.39907 12.387,-3.1221c11.18435,-1.93598 23.10157,-2.72573 34.4241,-3.04857c18.31417,-0.52218 36.60838,-1.89536 54.92904,-2.46719c34.34143,-1.07187 68.72667,-0.54655 103.08263,-1.2623c33.67123,-0.70148 67.38143,-0.27153 101.05967,-0.27153c16.00048,0 32.16437,-0.02924 48.14022,0.95029c6.66558,0.40869 13.29793,1.40973 19.95361,1.94753c11.606,0.93782 23.26454,1.44365 34.8863,2.16505c5.00554,0.31071 10.09628,0.40501 15.08237,0.9387c9.44549,1.01101 18.67043,3.39813 28.0476,4.78985c19.80434,2.93927 39.51433,6.29563 59.24968,9.7693c13.88926,2.44468 27.81981,5.11868 41.75805,7.23186c19.51477,2.95863 39.29147,4.79258 58.87675,7.29283c15.53507,1.98336 31.32981,4.81244 47.03051,4.91472c10.32398,0.06726 20.6507,-0.00013 30.97492,-0.00013c6.79365,0 13.44766,-0.28395 20.16019,0.83243c9.95198,0.16191 20.05569,0.18853 29.97418,1.08284c16.75855,1.51106 33.31153,5.29294 50.04032,6.91853c6.72689,0.65367 13.26668,1.52554 19.96204,2.64691c12.44105,2.08369 24.60666,4.24045 36.91325,7.0805c4.6004,1.06166 9.43905,1.86969 13.85115,3.60684c7.81928,3.07865 14.85833,7.14249 21.80613,11.79882c1.13264,0.75908 2.18125,1.65863 3.39113,2.28734c1.06628,0.55409 2.47429,0.45305 3.38688,1.23481c3.57479,3.06236 6.56312,8.97767 9.30889,12.82341c3.24648,5.14933 6.74815,10.34554 9.32765,15.87171c3.51795,7.53664 6.04359,15.73521 9.02379,23.50303c7.21158,18.79683 12.84673,37.92179 18.59865,57.20788c4.05139,13.58424 7.83664,27.43018 12.61462,40.77678c6.72126,18.77484 14.5446,37.23003 21.80083,55.80597c3.8505,9.85729 6.71137,19.97076 9.61774,30.143c3.14924,11.02227 6.51956,22.12905 8.67653,33.40154c2.19309,11.46126 3.47911,23.17823 5.21031,34.71957c1.23415,8.22768 3.0773,16.60695 3.7285,24.89852c0.7078,9.01225 0.67318,19.00962 0.10224,28.01769c-1.05011,16.56822 -4.23114,33.28433 -6.32771,49.7574c-1.48771,11.49187 -6.35507,22.86766 -9.67553,33.98774c-6.55124,21.93984 -13.44761,43.54078 -21.26842,65.04799c-1.65016,4.53794 -2.89667,8.83826 -5.7764,12.80996c-2.92187,4.02982 -6.75085,7.70522 -10.03667,11.44808c-3.48681,3.97181 -6.52999,8.08319 -11.09595,10.91733c-4.36676,2.7105 -9.5057,4.16263 -14.28481,5.94281c-4.69716,1.74965 -9.40133,3.79229 -14.1868,5.28042c-8.87143,2.75873 -18.21231,4.24675 -27.35049,5.76864c-17.3949,2.11306 -34.79468,4.18877 -52.18215,6.36221c-4.3145,0.53931 -8.62587,1.08353 -12.93582,1.65819c-3.12398,0.41654 -6.38493,0.20806 -9.37972,1.1899c-2.62494,0.86059 -4.66774,2.95797 -7.05377,4.35001c-4.03154,2.35206 -7.76282,4.55773 -11.49685,7.36205c-18.07042,12.05153 -35.21022,24.8954 -55.82843,32.46949c-5.02646,1.84647 -10.21414,1.82022 -15.47539,2.2222c-6.97568,0.53297 -13.46589,1.02338 -20.423,0.03805c-11.34421,-1.43003 -22.83934,-2.43668 -34.11887,-4.30309c-4.92909,-0.81561 -9.72038,-1.94951 -14.68366,-2.59137c-11.50364,-1.48769 -23.83019,-1.99412 -34.97859,-5.34969c-5.49175,-1.65297 -10.70636,-4.45621 -16.14274,-6.33699c-3.75897,-3.02829 -7.40943,-6.29572 -11.27994,-9.17955c-3.2027,-2.38626 -8.58495,-5.19288 -10.63993,-8.69558c-0.02171,-0.03701 -2.09326,-7.56652 -2.32675,-8.83374c-0.8924,-4.84341 -1.08359,-9.57194 -1.04663,-14.48058c0.00897,-1.19164 -0.26879,-2.43096 0.06688,-3.57438c1.21769,-4.14796 3.81513,-8.57432 7.02231,-12.53753c-1.08735,0.22254 -2.17645,0.43042 -3.27387,0.58718c-3.26131,0.46588 -6.57332,0.51296 -9.83474,0.9781c-3.58262,0.89971 -7.46141,2.55688 -11.08013,3.01435c-4.30883,0.54471 -9.04333,0.03228 -13.40046,0.03228c-5.66578,0 -11.48777,0.38306 -17.14278,-0.00408c-9.8232,-0.67249 -19.74038,-2.18884 -29.49679,-3.42643c-7.48101,-0.94895 -14.98113,-3.59248 -22.52377,-3.57483c-14.47345,-1.88238 -28.94158,-4.01782 -43.27568,-6.1755c-0.67801,-0.10206 -1.35715,-0.19514 -2.03729,-0.28019c-0.0527,0.73462 -0.41454,1.30323 -0.41454,1.30323zM354.22289,444.12633l2.15908,-1.08689c0,0 1.32977,-0.66489 2.45111,0.05629c0.02106,-0.74401 0.07938,-1.48492 0.1992,-2.22067c0.68944,-4.2333 2.24671,-8.39395 2.77317,-12.72579c2.28537,-18.80467 9.17738,-36.63547 13.20847,-55.13713c-0.01883,-5.9978 1.35308,-11.85569 1.85443,-17.81837c0.58776,-6.99038 -0.94866,-14.42028 0.16394,-21.31871c0.16784,-1.04064 0.86685,-1.95435 1,-3c0.65007,-5.10505 -0.25981,-10.52908 -0.03069,-15.68866c0.46007,-10.36062 0.99841,-20.52535 0.99841,-30.91088c0,-13.14362 -2.60218,-26.07479 -5.61972,-38.87706c-2.38297,-10.11002 -4.33747,-20.45734 -7.28058,-30.42397c-2.20523,-7.46786 -5.40751,-14.4751 -7.92879,-21.79049c-6.99474,-15.96977 -14.56139,-31.7905 -23.79753,-46.59415c-3.07258,-4.92472 -7.21211,-9.23762 -10.80673,-13.72936c-5.54982,-6.9349 -10.97102,-13.95481 -17.27903,-20.26628c-4.67193,-3.82155 -8.39575,-8.2757 -12.59001,-12.58625c-8.99964,-9.24917 -18.07505,-18.58411 -27.45097,-27.45165c-9.79868,-9.26738 -20.46882,-16.96295 -31.46035,-24.72612c-5.34899,-3.27488 -10.29756,-7.13538 -15.61703,-10.43828c-10.70274,-6.6454 -22.49618,-11.50776 -33.6561,-17.3151c-12.91247,-6.71932 -25.85103,-13.3928 -39.15141,-19.33994c-31.71905,-14.18637 -63.38443,-28.37785 -95.64452,-41.28188c-17.34897,-6.93959 -34.57046,-14.34743 -52.08063,-20.8333c-5.04799,-1.8698 -11.29789,-3.38032 -15.99649,-5.99871c-0.94199,-0.52495 -1.55312,-2.59444 -2.4917,-2.06342c-0.91842,0.51961 0.65134,2.03883 0.67034,3.09388c0.06589,3.65811 -0.70816,7.65275 -1.86572,11.10443c-0.40608,6.51721 -0.25521,13.32738 -0.97151,19.78802c-0.1583,1.42779 -0.76897,2.7725 -1.02357,4.18629c-0.8831,4.90371 -0.9995,9.9455 -1.85524,14.85478c-0.48429,2.7783 -1.65585,5.40611 -2.15194,8.18232c-2.16525,12.11718 -0.72354,24.80849 -2.99017,36.94843c-0.84112,4.505 -2.01861,8.19947 -2.47051,12.78174c-0.6723,6.68075 -1.50521,14.67297 -0.52236,21.3756c0.15293,1.04294 0.852,1.95635 1,3c0.88927,6.2707 -0.16927,13.46293 1.85573,19.46867c0.89474,-0.77408 2.16684,-0.51966 2.16684,-0.51966c10.94332,2.25522 20.04727,10.1233 30.06171,14.92532c15.57385,7.46782 31.65058,13.65122 46.07398,23.27438c3.10588,2.48896 6.50041,3.65039 9.93452,5.82698c4.65509,2.95046 8.55541,6.14044 12.9395,9.42478c2.3432,1.7554 4.9721,3.14742 7.14108,5.11404c3.64833,3.30795 6.28693,7.48847 9.29138,11.2999c2.64471,3.35506 4.97879,6.9468 7.58237,10.36461c0.80033,1.05062 1.95374,1.82605 2.64026,2.95434c0.58847,0.96715 0.60546,2.19641 1.11029,3.20973c2.69649,5.41255 6.47426,10.63387 9.81647,15.67322c4.7841,7.18473 8.01588,14.51944 11.23811,22.45262c1.88652,4.64464 4.3078,9.17682 5.95461,13.91058c1.95568,5.62161 2.43496,11.4715 3.9218,17.18595c0.55222,2.12239 1.68447,4.06665 2.21988,6.19335c2.23595,8.88135 4.20858,17.83323 6.43446,26.73676c2.35402,9.4451 6.38623,18.88673 7.63091,28.60233c0.16223,1.26629 -0.29625,2.58196 -0.02673,3.82982c0.34319,1.58894 1.44679,2.94057 1.83025,4.52027c1.56428,6.44406 1.02426,13.55575 2.0392,20.11267c1.47867,9.55277 3.6335,18.99067 4.17161,28.69764c0.23991,4.32772 0.04264,8.61306 0.35393,12.95136c0.79841,11.17768 0.06838,22.0606 -0.2591,33.24332c-0.31814,10.86357 -0.28952,21.76479 -0.46061,32.6522c2.01702,0.17569 4.03051,0.4311 6.04451,0.62911c11.29115,1.11007 22.85824,0.35736 34.12772,2.04063c14.19771,2.12065 28.53168,4.22372 42.86093,6.13091c7.66647,0.01697 15.22499,2.64421 22.82487,3.60372c9.64526,1.21774 19.44467,2.72166 29.15458,3.39502c5.55751,0.3854 11.28843,-0.00408 16.85722,-0.00408c4.09446,0 8.55011,0.53162 12.59954,0.03228c3.55473,-0.43834 7.38735,-2.10621 10.91987,-2.98565c3.33244,-0.47679 6.71544,-0.539 10.04798,-1.0151c3.32588,-0.47515 6.58661,-1.38329 9.93865,-1.81502c1.72759,-1.51274 3.49372,-2.82748 5.21684,-3.86569z" fill="#000000" stroke-width="0.5"/></g></g></svg>