<svg version="1.1" xmlns="http://www.w3.org/2000/svg" xmlns:xlink="http://www.w3.org/1999/xlink" width="183.51095" height="70.56596" viewBox="0,0,183.51095,70.56596"><g transform="translate(-208.57787,-133.1132)"><g data-paper-data="{&quot;isPaintingLayer&quot;:true}" fill-rule="nonzero" stroke="none" stroke-linecap="butt" stroke-linejoin="miter" stroke-miterlimit="10" stroke-dasharray="" stroke-dashoffset="0" style="mix-blend-mode: normal"><path d="M209.88139,162.64978c-0.11641,0.08316 -0.2744,0.1396 -0.48882,0.1396c-0.8147,0 -0.8147,-0.8147 -0.8147,-0.8147l0.04181,-0.58351c0.15044,-0.40484 0.17059,-0.88632 0.45133,-1.21453c1.23784,-1.44715 2.16822,-0.49317 3.54832,-1.21498c0.35619,-0.18629 0.63475,-0.51083 1.00599,-0.66496c0.97194,-0.40353 2.08904,-0.25672 3.13353,-0.38525c0.9052,-0.11139 1.74833,-0.56654 2.65575,-0.65807c0.0518,-0.00522 3.23745,-0.00396 3.33909,-0.00396c10.31956,0 20.63913,0 30.95869,0c4.22174,0 8.4283,0.18428 12.61052,-0.41314c0.91872,-0.13124 4.17294,-0.84363 4.90307,-0.33407c0.46791,0.32656 -0.0425,2.96008 -0.08544,3.29392c-0.04672,0.36315 -0.30383,2.81895 -0.33549,2.99146c-0.35652,1.94305 -1.29073,3.77728 -1.68889,5.71184c-0.21781,1.05833 -0.25299,2.14616 -0.38168,3.21897c-0.37897,1.52217 -0.96718,3.14086 -1.17826,4.69459c-0.05667,0.41711 0.03084,0.84273 0.00398,1.26281c-0.12474,1.95073 -0.55935,3.87721 -0.65034,5.84088c-0.07076,1.52706 0.14925,3.09706 -0.00416,4.61737c-0.02939,0.29126 -0.6207,2.68627 -0.65221,2.93693c-0.18741,1.49088 0.05887,3.06164 -0.04197,4.56182c-0.18148,2.69987 -0.634,5.42914 -1.29573,8.04636c-3.88018,-0.09985 -7.7317,-0.79123 -11.59996,-1.13538c-3.14835,-0.2801 -6.32134,-0.33133 -9.46556,-0.65321c-1.51557,-0.15515 -3.01616,-0.52884 -4.53439,-0.64929c-2.38221,-0.18899 -4.84978,0.00908 -7.24213,-0.00847c-3.99528,-1.31332 -8.31396,-0.05454 -12.38149,-0.65144c-1.00412,-0.14735 -1.95937,-0.54434 -2.96052,-0.71066c-0.96544,-0.16039 -1.90405,-0.47747 -2.87637,-0.58877c-1.4223,-0.16281 -2.24617,0.44059 -3.22581,-1.07594c-0.13474,-0.20859 -0.0964,-2.92984 -0.0964,-2.99147c0,-1.95529 0,-3.91057 0,-5.86586c0,-1.3753 0.12645,-2.82097 -0.06263,-4.18884c-0.03653,-0.26426 -0.56744,-3.02914 -0.58584,-3.23326c-0.17477,-1.93822 -0.00329,-3.98932 -0.00329,-5.93902c0,-4.44593 0,-8.89185 0,-13.33778z" fill="#00ff06" stroke-width="0.5"/><path d="M263.76777,133.89889c1.76777,1.76777 0,3.53553 0,3.53553l-2.46447,2.46447c-1.08223,1.06306 -2.33005,1.98042 -3.2467,3.18917c-1.62613,2.14433 -1.91245,5.06252 -3.30061,7.36805c-2.21239,3.67445 -4.00247,4.79908 -6.74697,7.94776c-5.11398,5.86712 -9.4026,12.55396 -14.19019,18.69535c-2.87478,3.6877 -6.2117,12.43171 -12.76194,9.24401c-1.74286,-0.84817 -1.68731,-3.53548 -2.93109,-5.02207c-0.68683,-0.82091 -1.87264,-1.05545 -2.71078,-1.72115c-1.90999,-1.51702 -3.45806,-3.44086 -5.18279,-5.16559c0,0 -1.76777,-1.76777 0,-3.53553c1.76777,-1.76777 3.53553,0 3.53553,0c1.60861,1.60861 3.04557,3.40735 4.81721,4.83441c1.03876,0.83673 2.46956,1.22657 3.28922,2.27885c0.8632,1.10817 0.66573,2.82357 1.54104,3.9222c0.2762,0.34666 0.98172,-0.05734 1.26998,-0.39404c0.87986,-1.02774 1.29203,-2.3834 2.06087,-3.49663c2.83869,-4.11029 6.25589,-7.86029 9.24408,-11.8642c2.75953,-3.69753 5.21177,-7.56741 8.24777,-11.05872c2.22876,-2.56301 4.47203,-4.29233 6.23025,-7.23655c1.43428,-2.40177 1.80455,-5.39519 3.47522,-7.63896c1.08481,-1.45693 2.54958,-2.58793 3.82437,-3.8819l2.46447,-2.46447c0,0 1.76777,-1.76777 3.53553,0z" fill="#000000" stroke-width="0.5"/><text transform="translate(280.33883,183.62758) scale(0.5,0.5)" font-size="40" xml:space="preserve" fill="#9966ff" fill-rule="nonzero" stroke="none" stroke-width="1" stroke-linecap="butt" stroke-linejoin="miter" stroke-miterlimit="10" stroke-dasharray="" stroke-dashoffset="0" font-family="Sans Serif" font-weight="normal" text-anchor="start" style="mix-blend-mode: normal"><tspan x="0" dy="0">Show guide</tspan></text></g></g></svg>