<svg version="1.1" xmlns="http://www.w3.org/2000/svg" xmlns:xlink="http://www.w3.org/1999/xlink" width="523.49304" height="206.70981" viewBox="0,0,523.49304,206.70981"><g transform="translate(26.72846,34.53507)"><g data-paper-data="{&quot;isPaintingLayer&quot;:true}" fill="#000000" fill-rule="nonzero" stroke="none" stroke-width="0.5" stroke-linecap="butt" stroke-linejoin="miter" stroke-miterlimit="10" stroke-dasharray="" stroke-dashoffset="0" style="mix-blend-mode: normal"><path d="M438.92689,-20.15361c1.6004,-1.27978 2.99286,-3.10607 4.98079,-3.60329c1.87566,-0.46914 3.80362,0.71907 5.72603,0.9253c1.07731,0.11557 2.1983,-0.22189 3.25024,0.03765c7.91357,1.95243 11.51727,8.99444 13.06167,16.14538c0.63224,1.6335 1.56817,3.18 1.89672,4.9005c0.92575,4.84784 -0.45781,9.77941 0.93131,14.65889c0.74617,2.62102 2.45656,4.87067 3.50418,7.38643c1.24411,2.98761 1.85208,6.23505 3.28925,9.13472c1.81034,3.65257 5.82411,6.43457 7.95618,9.92506c1.68757,2.76278 2.19258,6.14891 3.92488,8.88387c1.53305,2.42038 4.48666,3.70043 6.06142,6.09388c0.43488,0.66096 3.2525,9.6707 3.25311,9.69349c0.05142,1.91389 -0.94935,3.70974 -1.4494,5.55787c-1.48575,5.49113 -2.72074,9.78262 -5.76859,14.61954c-3.95529,4.94397 -8.54836,9.06529 -12.80837,13.72953c-1.19421,1.30752 -2.08356,2.90924 -3.43813,4.04981c-2.13684,1.79925 -5.14243,2.24001 -7.50147,3.73611c-2.30483,1.46172 -2.87244,5.05201 -5.34896,6.19909c-2.98944,1.38466 -11.05161,-0.18856 -14.33335,-0.47393c-5.00362,-0.4351 -10.28656,-0.4898 -15.2341,-1.34201c-3.47058,-0.5978 -7.07158,-2.17519 -10.48254,-3.43886c-4.04908,3.16675 -8.59188,5.85337 -12.88597,8.4271c-0.0076,0.00455 -8.58678,5.14663 -8.58758,5.14706c-1.87404,1.01997 -3.58782,2.98575 -5.7186,2.87556c-2.12681,-0.10999 -3.61916,-2.24828 -5.37777,-3.44941c-5.28481,-3.60953 -10.09644,-8.03611 -14.53508,-12.62686c-6.39582,0.84856 -10.0481,3.47504 -15.35839,6.924c-3.22736,2.09612 -5.52021,4.81511 -9.75776,2.78744c-1.77187,-0.84784 -2.86797,-2.68516 -4.27567,-4.0551c-4.63197,-4.50773 -8.58335,-10.28587 -13.54416,-14.38478c-1.19947,-0.99107 -2.68104,-1.58319 -3.97329,-2.44981c-1.05591,-0.70813 -1.79562,-2.19723 -3.06489,-2.27022c-1.26927,-0.07299 -2.17555,1.32007 -3.30494,1.9039c-2.96109,1.5307 -6.02448,2.85483 -9.03738,4.28086c-7.52587,3.56208 -15.49276,6.07283 -23.33064,8.87208c-1.13426,0.40509 -9.59452,3.48172 -10.36895,3.50656c-1.34839,0.04324 -2.51596,-0.97733 -3.74972,-1.5231c-5.51497,-2.43962 -8.24312,-5.57962 -12.17205,-10.03528c-1.88416,-2.13675 -3.12489,-4.99819 -5.54193,-6.50605c-0.37046,-0.23111 -0.79021,0.3976 -1.11129,0.6935c-1.06028,0.97715 -1.99734,2.0802 -3.01103,3.10561c-3.42797,3.46758 -6.90199,6.16176 -11.10647,8.6635c-1.91358,1.13862 -3.66506,3.47515 -5.87263,3.18379c-2.20757,-0.29136 -3.29243,-3.00272 -4.8455,-4.59841c-3.39477,-3.48795 -6.73555,-7.07883 -10.11672,-10.59247c-0.74927,-0.77862 -1.10501,-2.43694 -2.18477,-2.39492c-1.02635,0.03994 -0.91002,1.93374 -1.73367,2.54741c-1.44074,1.07344 -3.23182,1.57076 -4.84773,2.35613c-7.53571,3.6006 -14.99155,7.57062 -22.64023,10.91291c-3.83513,1.67586 -8.37632,3.08426 -12.41219,4.12582c-1.4301,0.36907 -3.01595,0.16424 -4.36376,0.76821c-2.36098,1.05798 -3.58246,3.73416 -5.41188,5.56358c-2.91043,2.91043 -5.83396,6.82303 -9.18279,9.16559c-1.56378,1.09389 -3.25073,2.69323 -5.14953,2.50207c-1.43822,-0.14479 -1.8253,-2.24462 -2.80947,-3.30333c-1.06173,-1.14214 -2.21764,-2.19296 -3.32267,-3.29326c-4.36634,-4.34761 -8.71408,-8.71408 -13.07107,-13.07107c-11.42018,-11.42018 -21.87343,-24.42237 -30.3069,-38.22931c-4.24043,-6.94226 -7.72134,-14.29507 -12.04533,-21.21346c-0.78334,-1.25334 -1.76685,-2.40192 -2.35001,-3.76001c-0.41035,-0.95564 0.26472,-2.45997 -0.58083,-3.06551c-0.66257,-0.47449 -0.11088,1.63539 -0.31414,2.42458c-0.11668,0.45306 -2.94793,8.91722 -3.03096,9.16623c-4.21779,12.64982 -8.45023,25.29469 -12.68479,37.93891c-2.12612,6.34851 -4.02741,12.91699 -6.67905,19.07147c-5.7969,13.45464 -13.74603,25.66496 -21.83961,37.80533c-4.4652,6.6978 -8.11386,13.11183 -14.7425,17.88061c-1.84326,1.32608 -3.44476,3.92403 -5.70633,3.72058c-2.20045,-0.19795 -3.11831,-3.13125 -4.71516,-4.6581c-2.3648,-2.26113 -4.82845,-4.41657 -7.24017,-6.62758c-10.27502,-9.41988 -19.90774,-19.59725 -29.76423,-29.45374c0,0 -1.76777,-1.76777 0,-3.53553c0.53818,-0.53818 1.07635,-0.74867 1.56465,-0.78112c0.90664,-4.185 0.70312,-8.0909 0.70312,-12.45111c0,-5.72232 0.37823,-11.22375 -0.98232,-16.80344c0.01404,-5.41322 -0.34361,-5.68183 1.09482,-10.93809c1.02072,-3.72988 2.95934,-7.132 3.97689,-10.92104c0.97267,-3.62192 3.01084,-7.42191 2.51,-11.29246c-0.30587,-2.36382 -1.55509,-4.50636 -2.30882,-6.76757c-1.01912,-3.05735 -1.68454,-6.25352 -3.03636,-9.17902c-1.61368,-3.49221 -4.4279,-6.52883 -6.03648,-10.07795c-4.18918,-9.24289 -6.07101,-19.21657 -3.96644,-29.10573c1.00558,-2.52345 2.60812,-6.9652 4.16765,-9.30006c3.68096,-5.51093 9.09423,-10.04275 13.62347,-14.8222c4.77312,-5.03681 9.17063,-10.4509 15.28668,-14.00128c2.39025,-1.38754 5.21618,-1.82928 7.8304,-2.72617c6.61136,-2.26823 14.23235,-4.52155 21.17927,-2.42007c6.58644,1.99243 12.56764,8.35766 17.73658,12.59244c4.24806,2.54101 8.53569,5.03079 12.74307,7.63856c2.58427,1.60175 4.82079,3.85258 7.64867,4.96935c3.4039,1.34425 8.45235,0.40536 11.90963,0.21329c3.21777,-0.17876 6.48433,0.06539 9.65451,-0.51421c7.37165,-1.34774 13.74026,-6.29478 20.9314,-7.98057c9.04283,-2.11987 19.51688,-0.84654 28.68375,-0.33727c4.97465,0.2799 10.24342,0.66901 15.08887,1.93758c3.15943,0.82716 5.98214,2.80719 9.19852,3.37384c3.14041,0.55326 6.37747,-0.03792 9.56624,-0.03792c5.3492,0 10.69848,-0.00513 16.04767,0.00796c6.72009,0.01645 13.31377,0.81548 19.99987,0.99249c9.50983,0.25176 19.34035,-1.03186 28.83047,-1.66453c6.6352,-0.44235 13.28637,-0.78495 19.91405,-1.32725c6.36208,-0.52057 12.78183,-1.74183 19.16039,-1.91589c16.37053,-0.44672 32.05033,3.69544 48.22497,4.91353c4.69311,0.35343 9.58474,-0.00486 14.29101,-0.00416c21.67289,0.00321 43.34715,0.29859 65.01917,0.48584c5.64346,0.04876 11.45263,0.42519 17.22633,0.47049c2.82584,-4.05026 6.87689,-7.11069 10.82561,-10.26832z"/></g></g></svg>