<svg version="1.1" xmlns="http://www.w3.org/2000/svg" xmlns:xlink="http://www.w3.org/1999/xlink" width="800.19725" height="554.73039" viewBox="0,0,800.19725,554.73039"><g transform="translate(251.50197,102.33766)"><g data-paper-data="{&quot;isPaintingLayer&quot;:true}" fill="#ffffff" fill-rule="nonzero" stroke="none" stroke-width="0.5" stroke-linecap="butt" stroke-linejoin="miter" stroke-miterlimit="10" stroke-dasharray="" stroke-dashoffset="0" style="mix-blend-mode: normal"><path d="M347.82382,391.93736c-1.03868,2.27402 -3.31269,1.23534 -3.31269,1.23534l-2.31954,-1.05947c-2.1192,0.0956 -4.23771,0.19466 -6.3553,0.2988c0,0 -2.49698,0.1228 -2.61978,-2.37418c-0.0588,-1.19554 0.48297,-1.84681 1.0637,-2.20094c-0.00513,-0.00647 -0.01025,-0.01295 -0.01536,-0.01944c-5.79577,3.18016 -11.82782,6.04234 -17.59026,9.10094c-11.44397,6.07426 -22.86334,13.35737 -34.96751,18.01216c-11.74983,4.51853 -24.33391,8.92685 -36.49897,12.15636c-12.59327,3.34319 -25.75268,4.4291 -38.64563,5.97626c-10.65065,1.27749 -21.14848,3.25166 -31.69407,5.02705c-10.85887,1.82813 -22.09874,2.03921 -33.03945,3.31095c-16.12122,1.87392 -32.20249,4.29223 -48.26923,6.58114c-16.00592,1.01036 -32.01297,2.00301 -48.01951,3.00342c-7.41223,0.46326 -15.08206,1.53493 -22.50451,1.39436c-3.35728,-0.06358 -6.66536,-0.82125 -9.99729,-1.2379c-10.99822,-1.37531 -21.89591,-3.1462 -32.8765,-4.60986c-10.6875,-1.4246 -21.31258,-3.05092 -31.96073,-4.73601c-5.21546,-0.82536 -12.15521,-0.88585 -17.07067,-2.76262c-3.62057,-1.38237 -6.57412,-4.10661 -9.89432,-6.10553c-1.50439,-0.90571 -2.93289,-1.94973 -4.50867,-2.7246c-1.13752,-0.55937 -2.54498,-0.5384 -3.58899,-1.25736c-1.01374,-0.69812 -6.89463,-6.94453 -8.00003,-7.90948c-7.54552,-6.58679 -14.80461,-16.00099 -19.34939,-25.03257c-1.51732,-3.22388 -3.3017,-6.49503 -4.9628,-9.80705c-1.42965,-0.53745 -2.85861,-1.07688 -4.28727,-1.61695c-0.485,0.35449 -0.99066,0.68742 -1.41481,1.02478c-2.01681,1.60409 -3.93937,4.42116 -6.50478,4.17772c-2.25893,-0.21435 -3.03311,-3.38482 -4.38038,-5.21063c-1.47022,-1.99243 -2.84345,-4.04172 -4.12402,-6.14133c-2.22708,-0.81268 -4.45326,-1.62771 -6.65837,-2.49768c-2.0789,-0.82018 -4.6788,-0.92021 -6.19612,-2.56101c-1.72085,-1.8609 -2.61022,-3.38353 -2.92064,-4.79745c-1.48863,-0.49621 -2.97725,-0.99242 -4.46588,-1.48863l-4.51839,-1.50613c-1.13842,-0.35011 -1.96592,-1.41008 -1.96592,-2.66332c0,-1.53865 1.24732,-2.78598 2.78598,-2.78598c0.27609,0 0.5428,0.04016 0.7946,0.11496l5.31405,1.44929c1.20152,0.08721 2.43361,0.28381 3.68137,0.53771c0.18232,-0.34161 0.37393,-0.69384 0.57237,-1.05895c1.18246,-2.17564 1.71684,-5.17657 3.91756,-6.31168c0.38721,-0.19972 0.79784,-0.28983 1.22197,-0.29995c-12.26501,-4.77787 -24.53988,-9.53102 -36.8016,-14.31558c-10.38863,-4.05373 -20.72596,-8.23942 -31.07986,-12.38098c-5.10639,-2.04256 -11.28482,-3.68662 -16.01925,-6.46898c-1.0521,-0.6183 -1.75911,-1.69193 -2.62863,-2.54816c-1.32331,-1.30308 -6.91389,-6.89377 -7.18082,-7.48073c-0.84115,-1.84963 0.05182,-7.97191 0.2858,-10.08588c0.58128,-5.25167 1.06024,-9.73843 2.51882,-14.83758c0.59666,-2.0859 0.72467,-4.39095 1.86781,-6.23492c0.84216,-1.35844 2.51797,-1.9701 3.80572,-2.91682c2.46569,-1.81271 5.05623,-3.51703 7.85852,-4.74696c5.12624,-2.2217 10.23722,-4.74714 15.47049,-6.70084c10.53263,-3.93207 21.68074,-6.50364 32.66474,-8.69043c8.82232,-1.75642 17.60097,-4.13659 26.34727,-6.59802c-0.4684,-1.8066 -0.94175,-3.60612 -1.44038,-5.38634c-1.62743,-9.72149 -2.30628,-19.15544 -2.98965,-28.96413c-0.61313,-8.80058 -2.73163,-17.50272 -3.28845,-26.30759c-0.62615,-9.90114 -2.01029,-19.69897 -3.4342,-29.52899c-0.54694,0.36203 -1.30931,0.55386 -2.33926,0.21054c-2.64301,-0.881 -1.76201,-3.52401 -1.76201,-3.52401l1.36927,-3.87212c1.77507,-1.82557 3.49333,-3.69576 5.18482,-5.58876c-3.22596,-6.99835 -6.32759,-14.11903 -10.39262,-20.64248c-1.6538,-2.65397 -2.2739,-4.4359 -4.5492,-6.23936c-2.23849,-1.77428 -5.09426,-2.58747 -7.59868,-3.96107c-6.46936,-3.54827 -12.00959,-8.87491 -18.54347,-12.29113c-1.6825,-0.87969 -3.60442,-1.24187 -5.2826,-2.12976c-2.61463,-1.38333 -4.63841,-3.67218 -6.94823,-5.52005c-3.90208,-3.12167 -8.25699,-5.88153 -12.09933,-9.02398c-1.02761,-0.84043 -5.95622,-6.78575 -6.26655,-7.15244c-0.34424,-0.40683 -7.26729,-8.57508 -7.43177,-8.82648c-2.82455,-4.31729 -4.48317,-10.09935 -5.81168,-15.00951c-2.67642,-9.89199 -4.53046,-19.72665 -5.54903,-29.91236c-0.0628,-0.62804 -1.13389,-11.21155 -1.11534,-11.56805c0.08066,-1.5502 0.88929,-2.98618 1.10967,-4.52276c0.45677,-3.18464 0.79101,-6.77403 2.89615,-9.20692c1.20499,-1.3926 3.07559,-2.02661 4.62888,-3.01585c6.34723,-4.04233 13.26517,-6.65467 20.16495,-9.61657c3.35255,-1.43223 6.39955,-3.49743 9.65923,-5.13005c9.58758,-4.80197 21.62195,-7.48 32.0798,-9.6576c10.63487,-2.21447 21.89161,-2.77225 31.94331,-7.22727c4.73058,-2.09665 9.28901,-5.37536 13.77105,-7.96115c5.8729,-3.38821 11.81825,-6.6685 17.54503,-10.29929c4.89186,-3.0935 9.86324,-5.45049 15.118,-7.86678c1.87031,-0.86002 3.62732,-2.05041 5.62396,-2.55154c3.35519,-0.8421 6.91829,-0.06613 10.37754,-0.06613c10.18797,0 20.3176,1.16617 30.49234,0.98557c5.41545,-0.09613 11.09941,0.25379 16.48757,-0.27975c10.74065,-1.06356 21.62008,-3.96896 32.21272,-6.03115c4.469,-2.30193 9.276,-3.04403 14.15018,-4.19558c9.28969,-2.19474 18.20364,-4.06802 27.70386,-5.05762c12.92238,-1.34608 25.96615,-3.3619 38.93788,-4.05226c9.76072,-0.51946 19.68753,-0.00375 29.46695,-0.00375c11.09435,0 21.97062,-0.51408 33.03288,-1.09333c25.88886,-1.35563 52.113,-2.12401 77.35131,-8.43358c10.73028,-2.64235 21.83611,-3.57163 32.90337,-4.80597c25.17078,-2.80733 50.25895,-4.34639 75.5475,-5.85944c7.42863,-0.44447 14.85568,-0.84347 22.28917,-1.19745c0.73123,-0.03482 11.19986,-0.5478 11.64452,-0.50708c1.17231,0.10737 2.1928,0.91245 3.354,1.10599c1.05959,0.1766 2.16114,-0.17489 3.22259,-0.00988c12.29497,1.91138 24.15814,7.33456 36.34421,9.89442c10.4743,2.20028 21.26309,3.52544 31.80213,5.5747c5.29727,1.03003 10.78097,2.56923 16.14389,3.15216c1.56589,0.17021 3.18103,-0.25729 4.72504,0.05422c4.48151,0.90415 9.62739,4.03147 13.88825,5.73589c4.62683,1.85081 9.54532,3.39773 14.09197,5.42268c2.67535,1.19153 4.98535,3.09689 7.62617,4.36312c1.20236,0.57651 2.67329,0.59259 3.7602,1.36504c1.07236,0.76211 1.46245,2.23651 2.48031,3.07002c4.38951,3.59452 9.72093,6.04979 13.43757,10.62436c0.18885,0.23245 5.19392,9.43367 5.27007,9.57574c0.98593,1.8394 2.40623,3.51503 2.92189,5.53729c0.51566,2.02226 0.05759,4.17355 0.08638,6.26032c0,21.9518 0.70346,44.01827 -0.00161,65.95499c-0.44638,13.88825 -1.09454,27.64024 -1.09454,41.55888c-0.02121,5.0614 -1.56406,9.5586 -2.31044,14.52717c-0.7089,4.71905 -0.41176,9.5899 -0.99865,14.28408c-1.19544,9.56167 -3.82066,18.79095 -6.54104,27.99341c0.18956,0.60846 0.3661,1.21571 0.52779,1.82095c1.22072,4.56937 0.57475,9.50608 1.04565,14.12408c0.16418,1.61004 0.82328,3.14406 0.98363,4.75448c0.74801,7.51216 0.01299,15.47741 0.01299,23.04178c0,0 0,2.2747 -2.16978,2.48454c0.364,0.9026 0.74631,1.82344 1.10704,2.79331c1.0155,6.82097 2.82565,13.11383 4.0952,19.84346c1.47475,7.81736 2.69983,16.06148 5.80308,23.44825c6.56317,15.62252 16.57411,30.06907 21.88066,46.19753c2.55085,7.79275 4.22888,16.17726 7.20593,23.79042c1.10105,2.81569 2.91853,5.40702 3.47132,8.37937c1.2577,6.76266 0.99208,13.87168 0.34635,20.667c-0.46599,4.90377 -0.33479,10.57722 -1.49972,15.35596c-0.70339,2.88544 -2.4956,5.39024 -3.76019,8.07749c-3.91761,8.32491 -7.73906,15.08691 -15.02563,20.92006c-7.62389,3.68191 -15.79462,6.06638 -23.86977,8.59324c-4.7258,1.47879 -9.73603,3.62869 -14.59664,4.54978c-6.48116,1.22819 -13.65138,0.99194 -20.23653,1.4623c-14.49302,1.03522 -28.98168,2.15411 -43.48793,2.98539c-9.98327,0.57209 -19.8892,1.74409 -29.85711,2.46267c-15.95057,1.14986 -31.97153,1.71926 -47.96481,2.40354c-0.01035,0.02402 -0.02108,0.04819 -0.03218,0.07249zM-125.7601,373.75741c0.31698,0.50542 0.62362,1.03175 0.91939,1.58235c0.64484,1.20042 1.56142,2.35543 2.25265,3.56442c0.05211,0.0194 0.10422,0.03879 0.15633,0.05819c-0.25218,-0.66367 -0.48862,-1.32874 -0.70635,-1.99517c-0.31038,-0.95001 -0.52964,-1.92199 -0.69788,-2.90623c-0.64641,-0.08956 -1.28859,-0.18897 -1.92414,-0.30355zM-143.97524,370.92863c-0.07339,-0.15122 -0.14636,-0.30264 -0.21892,-0.45425c-0.99388,-0.16557 -2.27575,-0.37923 -3.56948,-0.59516c0.97422,0.31825 2.12044,0.47151 3.16399,0.83187c0.20834,0.07194 0.41647,0.14448 0.62441,0.21754zM-148.41685,363.51055c0.16283,0.0305 0.32566,0.061 0.48847,0.09151c0.21067,-0.97579 0.93249,-1.76139 1.87126,-2.06259c-0.19616,-0.21054 -0.39151,-0.42181 -0.58788,-0.63188c-0.26882,-0.28757 -0.54914,-1.22577 -0.76706,-0.89794c-0.67196,1.01087 -0.58185,2.36221 -1.00479,3.5009zM-130.97515,375.78236c-0.31147,-0.60051 -0.63797,-1.18999 -1.04129,-1.72602l-0.22378,1.25514c0.42169,0.15696 0.84338,0.31392 1.26507,0.47088zM-129.10671,382.44537c-0.62783,-0.23709 -1.25571,-0.47397 -1.88367,-0.71053c0.27867,0.87114 -0.3679,2.64411 0.49131,2.54606c0.78925,-0.09006 1.05187,-0.99502 1.39235,-1.83553zM3.59432,35.57749c-2.69382,4.24209 -7.16207,7.38939 -10.3658,11.12649c-1.23761,1.44365 -1.89629,3.33365 -3.1818,4.73482c-2.28723,2.49301 -5.48164,3.96719 -8.23761,5.92961c-5.84938,2.94395 -11.92229,6.9048 -18.10587,9.0246c-10.23824,3.50978 -22.00804,3.4322 -32.65779,3.4322c-9.41513,0 -18.83025,0 -28.24538,0c2.24123,2.55153 4.54855,5.02898 7.03209,7.15022c1.00936,0.86212 2.33062,1.31755 3.3114,2.21205c3.62083,3.30229 6.17723,7.78691 9.89691,10.98939c9.11459,7.84723 19.57792,15.04451 27.49965,24.22957c3.64894,4.23086 6.51832,9.66836 9.10167,14.58304c2.7138,4.1187 5.31459,8.04047 7.79392,12.28573c1.61763,2.7698 4.54034,4.80798 5.5726,7.84491c0.46599,1.37095 1.20448,2.96072 1.41732,4.44216c2.17925,1.6792 2.80386,4.17019 4.27273,7.20418c2.40946,4.9768 4.57005,10.10853 7.11209,15.01849c6.59192,12.7323 14.89405,24.6026 21.31255,37.41767c2.3293,4.65063 3.61309,10.19874 6.32787,14.62932c2.32549,3.79523 5.81597,7.22998 8.60479,10.71848c4.58714,6.41951 8.81471,13.13638 12.33824,20.18714c1.31894,2.63927 2.05496,5.55911 3.51075,8.12543c2.39631,4.22431 4.88551,8.35945 7.35728,12.50145c2.3087,-2.14899 4.55148,-4.37847 6.84818,-6.51112c6.10664,-5.67045 12.51864,-11.14006 18.37854,-17.06384c6.52187,-6.59296 12.38502,-14.0667 19.24396,-20.30424c5.53467,-5.03324 12.46489,-8.72307 18.7191,-12.77446c7.53575,-5.39056 15.0725,-10.77971 22.60897,-16.16927c4.51909,-3.23174 9.01796,-7.05603 13.80976,-9.86157c5.45179,-3.19197 11.69977,-4.98449 17.1604,-8.1854c1.3421,-0.78671 8.19061,-5.60038 9.39048,-6.24634c1.14088,-0.61421 2.56714,-0.63264 3.64392,-1.35334c1.30526,-0.87362 2.03391,-2.45202 3.34153,-3.32209c0.99098,-0.65938 2.37022,-0.52116 3.38048,-1.15061c2.75514,-1.71662 4.7837,-4.40279 7.3634,-6.37325c2.53836,-1.93889 5.31306,-3.54705 7.97145,-5.31779c4.43306,-3.48326 9.254,-7.40163 13.06473,-11.52744c2.12586,-2.30162 3.74578,-4.92593 6.16344,-7.0995c6.32921,-5.69019 13.56139,-10.63155 19.63453,-16.57522c1.98912,-1.94672 3.51275,-4.3277 5.45328,-6.32286c0.29125,-0.29944 0.58445,-0.59963 0.87955,-0.9004c1.96093,0.81011 4.02435,1.39155 5.74493,1.74908c7.99413,1.66114 16.29954,-1.00785 24.43845,-1.65873c1.30277,-0.10418 2.65117,-0.06998 3.98292,-0.10362c-3.37315,2.34167 -6.76166,4.70366 -9.49992,7.45716c-5.6243,5.6556 -9.89827,12.51856 -14.48047,18.93439c-3.93834,5.51433 -8.46925,10.60149 -12.17706,16.29845c-3.32903,5.11498 -6.39504,10.48974 -9.95014,15.47319c-3.80345,5.33159 -7.9021,10.25083 -11.26855,15.8732c-4.30311,7.1638 -9.31523,14.51034 -15.27745,20.35639c-1.73838,1.7045 -6.98202,5.20255 -8.88973,6.93426c-2.26357,2.05475 -3.86388,4.75075 -6.01236,6.92555c-0.30481,0.30854 -7.96265,7.07861 -8.38626,7.47961c-5.39771,5.10946 -9.81449,11.27724 -15.21838,16.30668c-1.2982,1.20824 -3.00034,1.93595 -4.26918,3.175c-0.86117,0.84095 -1.20577,2.11079 -2.03607,2.98222c-4.80636,5.04443 -11.18995,7.99287 -15.9868,12.84918c-9.05832,9.05832 -19.38016,16.20596 -29.01101,24.58812c-8.26714,7.19525 -15.49449,14.96304 -22.6634,23.22641c-4.52168,5.212 -7.28125,11.20616 -11.42312,16.63916c-0.91526,1.20057 -1.64022,2.84816 -2.57079,4.12872c0.52398,0.23798 1.17517,0.31586 1.61651,0.6838c2.95369,2.4624 5.29988,5.04258 7.02937,8.46427c4.19888,8.30727 5.37491,18.1306 11.58074,25.47229c6.25342,7.398 15.90963,9.16199 24.80189,11.06747c3.20836,0.68775 6.34331,1.74451 9.58953,2.22267c4.36789,0.64338 9.46236,0.00842 13.86473,-0.09142c3.57082,-0.08098 7.19405,0.30958 10.71053,-0.31623c7.83215,-1.39384 16.1456,-5.89088 23.25166,-9.22586c4.31885,-2.0269 8.85988,-3.76847 13.28817,-5.53803c2.73199,-1.09171 5.72385,-1.59419 8.28595,-3.04028c0.90139,-0.50876 1.2978,-1.6813 2.19642,-2.19494c4.53576,-2.59258 10.23082,-4.36337 15.00751,-6.59249c9.64759,-4.50147 19.5954,-8.29042 29.02807,-13.24951c5.32492,-2.7995 10.37585,-7.7636 15.81046,-10.0621c0.97399,-0.41193 2.20455,0.46644 3.1723,0.04007c1.21395,-0.53485 1.91505,-1.83709 2.9066,-2.71832c1.0204,-0.90687 7.4456,-6.35723 8.48567,-7.24105c9.83176,-8.35466 18.18462,-16.84539 26.11857,-27.05469c4.54662,-5.84995 8.74893,-12.36849 13.7528,-17.82562c6.18653,-6.7469 13.80188,-12.60049 20.71663,-18.58535c4.27922,-3.70375 8.43962,-7.82327 13.2486,-10.85411c13.64603,-8.60032 28.75744,-14.95119 43.58324,-21.05593c4.81547,-1.98284 9.14689,-4.01552 13.68258,-6.47337c3.21592,-1.74268 6.86756,-2.65859 9.94875,-4.62973c1.55425,-0.9943 2.69891,-2.5444 4.2421,-3.55578c1.57401,-1.03159 3.44259,-1.54698 5.04632,-2.53172c3.76111,-2.30943 7.19556,-5.83883 10.4687,-8.74427c4.12479,-3.6614 8.44218,-7.19991 12.41901,-11.02084c2.03015,-1.95056 3.77314,-4.17408 5.57866,-6.33938c-0.40737,0.33332 -0.98139,0.56817 -1.79026,0.56817c-2.78598,0 -2.78598,-2.78598 -2.78598,-2.78598v-2.1923c0,-9.69597 -0.0159,-19.39204 0.02655,-29.08793c0.04136,-9.44448 0.80737,-18.62358 1.67007,-28.02354c0.53277,-5.80502 0.15692,-11.47423 1.71559,-17.15168c1.71798,-6.25777 4.82984,-12.18032 6.54756,-18.53257c3.62066,-13.38947 6.50577,-28.11566 6.48248,-42.03069c0,-14.54338 1.32307,-29.49333 -1.86875,-43.68317c-1.07896,-4.79671 -1.47365,-14.05672 -5.96475,-17.26424c-5.684,-4.05948 -12.85511,-7.20342 -19.02756,-10.52132c-5.39428,-2.89961 -11.61876,-5.81611 -17.81491,-5.78355c-14.02326,-3.31865 -28.42242,-4.06847 -42.69387,-5.65637c-7.27773,-0.80975 -14.51629,-2.61232 -21.83596,-3.09962c-14.41449,-0.95963 -28.95324,-1.07194 -43.4031,-1.10028c-1.48986,0.26677 -3.13139,0.09314 -4.46957,0.80031c-1.46812,0.77584 -2.2616,2.45635 -3.58667,3.45709c-1.43546,1.08412 -3.20636,1.66911 -4.63982,2.75588c-2.18401,1.6558 -3.39259,4.31127 -5.23579,6.33962c-6.22269,6.84774 -13.6966,12.65856 -19.69945,19.6959c-0.74618,0.87477 -6.2684,8.18828 -6.81076,8.72551c-0.4869,0.4823 -9.53483,7.27928 -9.9093,7.41228c-1.90387,0.67615 -4.06148,-0.10761 -6.05767,0.20402c-3.67697,0.57402 -7.0137,2.6565 -10.69452,3.20528c-4.6806,0.69784 -9.45493,-0.24453 -14.17806,0.49492c-0.28814,0.04433 -11.06741,1.70531 -11.22551,1.7188c-11.94481,1.0186 -24.20462,-1.20004 -36.12731,-0.0021c-15.14413,1.52162 -31.00574,2.87415 -45.89906,6.55864c-9.56338,0.41371 -19.15126,1.37044 -28.69969,2.21376c-7.22402,0.63803 -14.77847,0.00701 -22.02929,0.00701c-5.07603,0 -10.72904,0.52308 -15.77041,-0.01999c-3.41204,-0.36755 -6.65322,-1.69127 -10.00549,-2.42567c-9.01739,-1.97549 -18.12779,-3.00923 -27.27604,-4.15276c-4.10543,-0.51318 -8.16539,-1.6265 -12.15835,-2.20676c-0.29341,-0.04264 -0.58752,-0.08162 -0.88229,-0.11719c-4.87837,4.46552 -10.12251,8.64348 -15.32075,12.81455c-0.52707,1.20877 -1.07762,2.40417 -1.78225,3.51378z"/></g></g></svg>