<svg version="1.1" xmlns="http://www.w3.org/2000/svg" xmlns:xlink="http://www.w3.org/1999/xlink" width="613.40926" height="509.64957" viewBox="0,0,613.40926,509.64957"><g transform="translate(75.70031,71.65059)"><g data-paper-data="{&quot;isPaintingLayer&quot;:true}" fill-rule="nonzero" stroke="none" stroke-width="0.5" stroke-linecap="butt" stroke-linejoin="miter" stroke-miterlimit="10" stroke-dasharray="" stroke-dashoffset="0" style="mix-blend-mode: normal"><path d="" fill="#000000"/><path d="" fill="#000000"/><path d="" fill="#000000"/><path d="" fill="#000000"/><path d="" fill="#000000"/><path d="" fill="#000000"/><path d="" fill="#000000"/><path d="M51.64296,29.04081c-2.26697,5.03917 -6.4961,8.97547 -9.15647,13.81849c-1.50051,2.73158 -1.61235,6.29616 -3.7487,8.56531c-5.43053,5.76809 -9.97885,4.24552 -16.01786,4.40479l-1.66556,8.32778l-0.24036,2.45169l-0.24512,2.45122l0,16.04601c0.9531,-0.44313 1.80742,-1.15514 2.83021,-1.39273c3.29839,-0.76621 6.77156,-0.13683 10.15777,-0.13376c8.72266,0.00791 8.99222,-0.3446 18.50555,1.53639c1.63646,0.32356 3.13032,1.2006 4.76697,1.52319c0.93664,0.18462 1.9228,-0.17936 2.86392,-0.01911c7.16084,1.21931 12.83904,3.59862 20.21372,4.39698c3.749,0.40585 7.45283,1.1698 11.19958,1.5959c2.20677,0.25097 4.47131,-0.25572 6.66208,0.10942c1.10392,0.184 2.002,1.001 3.003,1.5015c7.5914,-0.20905 16.16236,-1.1424 23.67617,-0.06919c3.54436,0.50625 6.79146,2.37215 10.32052,2.9759c5.91992,1.01278 12.42524,-1.096 18.35264,0.05276c2.64604,0.51281 4.90101,2.31695 7.50751,3.003c3.08345,0.81159 6.37651,-0.09022 9.56497,-0.09022c7.00701,0 14.01401,0 21.02102,0c4.62589,0 11.96306,-0.71269 17.0092,0.02433c5.75916,0.84116 9.58967,3.15726 15.01502,3.003c6.26892,1.24248 8.05463,1.23336 13.43274,3.35927c2.52725,0.999 5.01203,2.30662 7.70651,2.65986c1.55158,0.20341 3.15081,-0.22942 4.6945,0.0271c1.56131,0.25944 2.95252,1.1911 4.5045,1.5015c0.98156,0.19631 2.02354,-0.20652 3.003,0c1.92558,0.40601 3.78427,1.10077 5.61701,1.81754c0.79658,0.31154 1.3956,1.10848 2.23835,1.25465c6.55102,1.13623 14.04221,-2.68589 19.97582,-4.43886c0.71743,-0.21195 1.4358,-0.42873 2.15705,-0.63518c1.33879,3.45876 3.40321,6.4635 6.02003,8.8788c-0.05413,0.00543 -0.1082,0.01142 -0.16222,0.01801c-1.78282,0.21762 -3.50106,0.8156 -5.21898,1.33956c-8.18742,2.49715 -16.25318,6.00493 -25.06923,4.57015c-2.54565,-0.4143 -4.62371,-2.46372 -7.15965,-2.93381c-0.98423,-0.18245 -2.02144,0.19631 -3.003,0c-1.55199,-0.3104 -2.94345,-1.24052 -4.5045,-1.5015c-1.41851,-0.23715 -2.89279,0.24419 -4.31451,0.0271c-3.57221,-0.54547 -6.96252,-1.98876 -10.31151,-3.34614c-3.87693,-1.57137 -6.17419,-1.75348 -10.59128,-2.64673c-1.72019,-0.03647 -3.47418,0.23182 -5.16058,-0.10942c-1.25575,-0.2541 -2.24762,-1.27742 -3.47692,-1.63838c-2.07885,-0.61042 -4.23138,-0.95798 -6.37751,-1.2552c-4.75207,-0.65811 -11.77484,0.02433 -16.02383,0.02433c-7.00701,0 -14.01401,0 -21.02102,0c-0.18149,0 -10.93932,0.03314 -11.45605,-0.09022c-2.62161,-0.62583 -4.8682,-2.45659 -7.50751,-3.003c-5.62428,-1.16439 -11.97035,0.98649 -17.6834,0.05276c-3.65854,-0.59795 -7.0307,-2.50572 -10.70051,-3.0301c-1.71772,-0.24545 -3.46996,0.05457 -5.20509,0.06456c-6.39138,0.03681 -12.77663,-0.01429 -19.16678,-0.13376c-1.001,-0.5005 -1.89908,-1.31752 -3.003,-1.5015c-1.75942,-0.29322 -3.57661,0.30139 -5.34993,0.10942c-3.69712,-0.40023 -7.34857,-1.16147 -11.04347,-1.58168c-3.55814,-0.40465 -7.12299,-0.82396 -10.63362,-1.53075c-3.39444,-0.68339 -6.55495,-2.35133 -9.97266,-2.90671c-8.29207,-1.34746 -16.33694,-2.97374 -24.91461,-2.96554c-2.62046,0.0025 -5.33736,-0.8422 -7.86024,-0.13376c-0.21942,0.06161 -0.42544,0.15627 -0.62444,0.2683c0.24535,0.44007 0.49696,0.8754 0.76014,1.30199c0,0 2.57248,4.28746 -1.71499,6.85994c-1.3662,0.81972 -2.55827,0.9429 -3.54845,0.7302v11.49885l0.20521,2.05208l0.13494,2.05789l1.5015,9.00901l0.26157,0.96455l0.14471,0.98886l0.75506,3.02026v4.42987l0.12407,1.2407l0,1.24689l1.37743,13.77431v10.76512l0.12595,1.25946l-0.00753,0.07737l0.14365,1.28391l0.12855,1.28551l0.02357,0.07408l0.14074,1.2579l4.5045,21.02102l0.42317,1.31758l0.30481,1.34988l1.19788,3.59365l1.1659,4.66359l3.86081,18.0171v3.3575l0.11822,1.18217l-0.0056,1.18806l2.89039,30.34909v48.36176l0.24512,2.45122l0.24036,2.45169l1.01602,5.08009v13.53166l-0.15576,0.61332l0.15576,0.993l0,0.12489c0.51474,0.00131 1.02621,-0.0322 1.53194,-0.12562c4.23649,-0.78259 7.35861,-4.72512 11.50863,-5.88168c2.39475,-0.66739 4.96932,-0.16995 7.45493,-0.21454c6.00186,-0.10767 12.0158,0 18.01802,0c9.16917,0 18.33834,0 27.50751,0c0.7018,0 8.74476,-0.00465 8.94093,0.01704c8.68483,0.95998 17.09604,3.08386 25.21118,6.25173c4.61204,1.31539 15.40056,4.24334 19.65871,6.09291c4.81471,2.09131 5.05098,4.18755 9.92052,5.79009c0.84098,0.27676 1.79709,-0.28733 2.65515,-0.06919c4.60179,1.16987 8.84611,3.63251 13.51351,4.5045c3.37704,0.63092 6.80118,0.9766 10.20229,1.46127c1.09278,0.15573 2.23937,-0.22348 3.31123,0.04023c3.13529,0.77138 6.03199,2.40289 9.19782,3.03737c7.02845,1.40861 14.73049,0.7332 21.84348,1.41223c19.67449,1.8782 39.36732,1.44111 59.13846,1.5293c4.94988,-1.26287 10.12039,-1.46685 15.10829,-2.57004c1.2878,-0.28483 2.26473,-1.44858 3.54877,-1.74992c9.8679,-2.31581 20.58958,-3.00489 30.6508,-4.1369c6.1966,-0.6972 12.36326,-1.76314 18.59074,-2.08328c0.17993,-0.00925 19.9208,-0.00894 20.27989,-0.00784c3.59871,0.01104 7.21589,-0.30177 10.796,0.06377c1.58399,0.16173 2.95831,1.27639 4.53453,1.5015c1.88185,0.26876 3.81328,-0.24855 5.70269,-0.03944c2.53657,0.28074 4.98275,1.12922 7.50751,1.5015c2.08227,0.30704 4.24587,-0.34964 6.31423,0.04023c1.55533,0.29317 2.93014,1.33911 4.5045,1.5015c3.16239,0.32619 6.36621,-0.27892 9.53735,-0.05311c3.6418,0.25933 7.27656,0.75234 10.8492,1.50482c1.33772,0.28176 2.42725,1.42368 3.78562,1.57762c3.18497,0.36094 6.41059,-0.03925 9.61589,-0.05888c5.78132,1.3083 11.62837,2.42043 17.51296,3.21236l0.28877,-0.57755l0.86567,-2.27239l0.13905,-0.25126l0.17725,-0.57902l0.21557,-0.56588l0.0445,-0.2837l0.71179,-2.32519l1.38483,-6.92416l1.35722,-5.42887l0.2815,-1.92359l0.07431,-0.23355l0.0866,-0.86604l0.12603,-0.86118l-0.01545,-0.2446l0.19344,-1.93443v-0.52752l0.89935,-4.49674l1.35722,-5.42887l0.2815,-1.92359l0.07431,-0.23355l0.0866,-0.86604l0.12603,-0.86118l-0.01545,-0.2446l0.19344,-1.93443v-0.52752l1.01602,-5.08009l0.24036,-2.45169l0.24512,-2.45122v-15.54253l1.01602,-5.08009l0.24036,-2.45169l0.24512,-2.45122v-1.44656l1.1212,-8.96962l1.13536,-4.54145l0.2815,-1.92359l0.07431,-0.23355l0.0866,-0.86604l0.12603,-0.86118l-0.01545,-0.2446l0.19344,-1.93443v-2.92837l0.75506,-3.02026l0.2815,-1.92359l0.07431,-0.23355l0.0866,-0.86604l0.12603,-0.86118l-0.01545,-0.2446l0.19344,-1.93443v-60.06006l-0.39062,-3.90625l-0.24977,-0.78498l-0.05963,-0.8216l-1.08806,-3.77194l-1.21492,-3.0373v-2.69295l-0.20521,-2.05208l-0.13494,-2.05789l-1.5015,-9.00901l-0.51194,-1.88779l-0.43082,-1.90793l-1.5015,-4.5045l-0.72524,-1.61784l-0.63116,-1.65681l-0.36368,-0.72737l0,-1.09644l0.15576,-0.61332l-0.15576,-0.993v-0.40454l-0.39062,-3.90625l-0.56327,-1.77027l-0.28789,-1.83527l-1.39754,-3.66855l-0.18092,-0.36183l-0.30476,-0.95783l-0.37129,-0.42991c-0.01173,0.01068 -0.02349,0.02136 -0.03527,0.03204c-2.64466,2.39587 -5.86285,4.17233 -9.15495,5.54947c-2.5803,1.07939 -5.48546,1.09918 -8.21355,1.71608c-10.03985,2.27029 -19.30068,3.10865 -29.60818,3.12478c-3.62711,0.00568 -7.38919,-1.11685 -10.88053,-0.13373c-1.07726,0.30334 -1.9146,1.24096 -3.003,1.5015c-0.73002,0.17475 -1.5677,-0.58403 -2.23835,-0.24685c-0.84832,0.42652 -1.01744,1.64198 -1.74648,2.25032c-2.77113,2.31233 -6.23961,3.69161 -9.00901,6.00601c-1.70824,1.42758 -3.16727,3.12934 -4.7509,4.694c-0.79701,0.32694 -1.78188,0.37168 -2.39102,0.98082c-0.60914,0.60914 -0.42816,1.73021 -0.98082,2.39102c-1.1264,1.34683 -3.0307,1.9932 -3.94132,3.49437c-0.51916,0.85585 0.51492,2.1446 0,3.003c-1.33732,2.22939 -3.67365,3.69923 -5.25719,5.76103c-1.25323,1.63173 -2.35391,3.37233 -3.45205,5.11483c-0.12109,0.9487 -0.20054,1.32927 0.63854,2.30519c0.99862,1.16147 2.45259,1.96089 3.20005,3.2979c2.69365,4.81827 2.20928,6.62335 2.24825,11.63766c0.05112,6.57899 1.08698,14.2063 -0.13376,20.66828c-0.20774,1.0997 -1.19816,1.92574 -1.5015,3.003c-0.62976,2.23647 0.43642,4.67125 0.09629,6.96966c-0.86854,5.86921 -3.12233,8.16283 -3.0301,13.70351c-0.5005,1.5015 -1.16992,2.95691 -1.5015,4.5045c-0.93802,4.378 0.86502,9.41705 -0.06919,13.86137c-0.31408,1.4942 -1.25656,2.78374 -1.92798,4.15504c-2.30095,4.6994 -4.92954,9.2362 -7.62272,13.72234c-1.43561,2.39135 -2.16534,5.27924 -4.08517,7.30255c-1.12906,1.18991 -3.11156,1.07342 -4.57167,1.82089c-6.57016,3.36344 -7.80477,5.48075 -14.38631,6.81588c-2.53417,0.51408 -8.48145,0.49699 -10.95868,-0.06919c-1.09102,-0.24936 -1.9175,-1.22914 -3.003,-1.5015c-1.06827,-0.26804 -2.27878,0.32381 -3.30316,-0.08078c-1.67841,-0.66292 -2.86522,-2.24852 -4.5045,-3.003c-1.5658,-0.72066 -3.46597,0.44936 -5.168,0.17708c-3.78346,-0.60527 -7.56962,-1.49064 -11.4011,-1.46404c-4.77152,0 -9.60538,0.70508 -14.31442,-0.06456c-3.53345,-0.5775 -6.75529,-2.64731 -10.32052,-2.9759c-4.76615,-0.43928 -15.32665,0.65159 -19.70951,-0.0271c-3.12816,-0.4844 -5.94325,-2.21487 -9.00901,-3.003c-2.99914,-0.77101 -6.29381,0.20951 -9.2667,-0.65722c-3.37919,-0.98518 -6.45295,-2.81758 -9.72731,-4.10912c-7.90598,-3.11843 -15.98065,-6.08415 -23.96691,-8.98769c-4.73258,-1.72061 -13.08541,-3.99064 -17.54918,-6.52673c-0.97102,-0.55168 -1.124,-2.15073 -2.16397,-2.55781c-1.16338,-0.45539 -2.51478,0.49186 -3.73985,0.24685c-1.35763,-0.27153 -2.47034,-1.26476 -3.76766,-1.74835c-3.02578,-1.12789 -6.24516,-1.7436 -9.18488,-3.07984c-2.59906,-1.18139 -4.88776,-2.95178 -7.33164,-4.42767c-6.10314,-1.54524 -7.31573,-1.10338 -12.34548,-5.81489c-0.74465,-0.69753 -0.5797,-2.0427 -1.28864,-2.77648c-1.02653,-1.0625 -3.00314,-1.11696 -3.72072,-2.40838c-1.54703,-2.78417 -0.74675,-9.96404 -0.74675,-13.13917c0,-6.95123 -0.82532,-14.94155 0.06456,-21.82193c0.60904,-4.70894 3.33854,-8.91073 4.5045,-13.51351c0.33786,-1.33375 -0.40325,-2.94263 0.31604,-4.11551c4.224,-6.88772 5.70367,-5.95393 12.63742,-6.08959c3.53632,-0.06918 7.12492,-0.561 10.61092,0.03746c3.26277,0.56014 7.0589,0.98413 9.33612,3.38698c1.75527,1.85211 0.8607,5.03756 1.05897,7.58157c0.39552,5.07487 -0.86066,7.90794 1.36775,12.36475c-0.20433,1.0082 -1.27579,2.23789 -0.61299,3.02461c0.9575,1.13652 2.93291,0.64304 4.26239,1.30711c1.27643,0.63757 2.08608,2.10346 3.44379,2.54209c1.30294,0.42094 2.76726,-0.38814 4.10646,-0.10286c1.61875,0.34483 2.99494,1.43011 4.56613,1.9503c3.13046,1.03644 6.38796,1.66134 9.5139,2.71134c8.26146,2.77502 16.3333,6.04999 24.30822,9.61425c3.21527,1.43701 6.49543,2.73786 9.64168,4.32028c0.58619,0.29482 0.85552,1.13277 1.49475,1.28083c3.10358,0.71887 6.36642,0.55769 9.47384,1.25977c3.78731,0.85569 7.41017,3.51988 11.32209,4.34163c3.65727,0.76826 7.47401,-0.06456 11.2111,-0.06456c7.60243,0 14.51052,0.38623 21.91161,-1.46404c8.44006,0.05602 13.37717,-3.91773 20.71724,-7.58357c6.24123,-3.11705 8.20815,-2.64966 12.75977,-6.33562c6.84694,-5.54474 12.29971,-13.85954 16.90444,-21.23484c1.80205,-2.88632 2.61086,-6.34714 4.57635,-9.12475c1.91086,-2.7004 4.20538,-5.11106 6.18159,-7.764c0.85714,-1.15065 1.56481,-2.19135 2.19636,-3.17557c-0.46022,-1.33169 -0.48506,-3.12395 1.3072,-4.91621c0.90307,-0.90307 1.80614,-1.3448 2.65029,-1.50196c0.82282,-1.24585 1.78397,-2.59105 3.02454,-4.13846c1.03467,-1.29059 2.90057,-1.82969 3.75182,-3.24798c0.51513,-0.85828 -0.51182,-2.14275 0,-3.003c1.27649,-2.14549 3.53646,-3.54287 5.06769,-5.51464c0.84686,-1.0905 1.04587,-2.63867 2.02218,-3.61499c0.97631,-0.97631 2.40999,-1.34812 3.61499,-2.02218c4.18852,-4.24448 8.61996,-6.73042 13.26712,-10.32101c1.49791,-1.15735 2.56551,-2.91101 4.25953,-3.75569c1.12633,-0.56161 2.54905,0.06783 3.76766,-0.24685c1.08361,-0.27981 1.91198,-1.25214 3.003,-1.5015c4.27125,-0.97621 8.7621,-0.12692 13.14349,-0.13373c7.42728,-0.01154 14.23337,-0.0497 21.57864,-1.40828c1.98376,-0.36692 3.89904,-1.04362 5.87023,-1.47294c4.69148,-1.02179 12.23956,-1.4893 14.3295,-7.08124c0.7152,-1.91363 -0.93898,-6.00018 -1.45946,-7.48045c0,0 -1.28628,-3.85885 1.94198,-5.77572l-0.72709,-5.08962l0,-14.66518l1.91121,-7.64484l0.60314,-1.60837l1.50217,-0.47796l1.70184,-1.46977l1.72431,-0.88285l1.78383,-2.14691l3.38377,-2.92235l0.46071,-1.70464l1.62836,-1.9598l0.63648,-6.4201l1.1807,-4.36859l-0.54697,-2.02379l0.20682,-2.08618l-1.88283,-4.11504l-1.68327,-6.22811l-1.92839,-1.66543l-0.73469,-1.60571l-3.81816,-2.3263l-0.65329,-0.56421c-19.16804,0.40414 -38.36441,0.08924 -57.53279,0.08924c-10.78468,0 -21.881,-0.72413 -32.63793,-0.01335c-3.84602,0.25413 -9.20691,2.60952 -11.94599,3.1726c-4.41325,0.90725 -8.99235,0.67894 -13.45192,1.32091c-2.52602,0.36363 -4.97046,1.22512 -7.50751,1.5015c-3.01195,0.32812 -6.0842,-0.3786 -9.08929,0.0073c-8.15295,1.04695 -15.94559,2.47025 -24.18736,3.01383c-13.90392,0.91703 -28.34645,0.00621 -42.29111,0.00621c-27.05301,0 -54.18172,0.57053 -81.22795,-0.00216c-8.50981,-0.18019 -17.0228,-1.11389 -25.52553,-1.5015c-11.08595,-0.50537 -22.29964,0.00216 -33.39668,0.00216c-8.5195,0 -12.62407,0.22802 -20.55471,-1.85528c-11.69804,-1.45966 -23.927,-0.38635 -35.51407,-2.75515c-3.06621,-0.62684 -5.85062,-2.28987 -8.90276,-2.98198c-1.7223,-0.39055 -3.56266,0.11729 -5.29278,-0.23702c-3.6048,-0.73823 -7.12472,-1.86318 -10.61736,-3.02121c-0.63603,-0.21088 -1.18402,-0.64181 -1.76523,-0.98367c-0.2028,0.97928 -0.45013,1.94312 -0.85859,2.85107zM-56.64933,-58.94088c-1.68592,0.31379 -3.37465,0.60497 -5.06703,0.85458c0.01053,0.10672 0.01605,0.21871 0.01605,0.33623c0,2.5 -2.5,2.5 -2.5,2.5h-1c-1.80015,-0.01076 -3.69433,0.54201 -5.40045,-0.03228c-0.12713,-0.04279 -0.25212,-0.0899 -0.37515,-0.1409l-0.01497,0.04489l-2.94531,-0.98177c-1.02156,-0.31417 -1.76412,-1.26534 -1.76412,-2.38994c0,-1.14816 0.774,-2.11554 1.82869,-2.40884l3.30395,-1.00151l0.03001,0.099l0.26714,-0.16958c8.28303,-0.43272 16.4187,-2.44072 24.56862,-3.96824c9.25957,-2.05849 18.84716,-4.2969 28.32437,-5.04454c11.55559,-0.91161 23.59247,-0.00629 35.17723,-0.00629c10.37508,0 20.99026,-0.67361 31.30666,0.46313c3.33326,0.37302 6.7207,0.12749 10.04652,0.56194c1.44254,0.18844 2.76266,0.94718 4.19392,1.20783c7.67066,1.39695 15.83507,1.33493 23.59115,1.77092c6.07702,0.3416 12.11365,1.53672 18.16065,2.17974c14.12731,1.50225 28.23756,2.48496 42.36126,4.27117c14.73628,1.86368 29.65986,4.66316 44.48904,5.54973c4.27996,0.25588 8.61747,-0.09901 12.90599,-0.00385c14.33554,0.3181 28.64728,1.10893 42.99116,1.34408c19.56929,0.32081 39.84771,-0.78035 59.2,1.66748c3.79109,0.47953 7.92716,-0.01216 11.75365,-0.01216c9.4432,0.00001 18.84675,0.08575 28.28021,0.53843c17.46983,0.83834 34.77617,2.9553 52.02525,5.48029c3.95529,0.57899 8.12168,-0.16221 12.14354,0.35694c4.7597,0.61439 9.34497,1.95111 14.03373,2.75829c3.28024,0.5647 6.66449,0.33716 9.94457,0.90282c0.13932,0.02403 9.65386,2.48646 9.80764,2.52621c11.1257,3.35169 21.77747,4.31292 33.22618,5.81425c9.41676,1.23486 18.72554,3.32706 28.12118,4.71878c6.46182,0.95716 13.72456,1.18055 19.99838,2.97236c1.55904,0.44526 3.55247,0.61784 4.44742,1.96985c1.00865,1.52378 0.38914,3.63627 0.4719,5.46177c0.1186,2.61606 0.01997,5.24082 0.19217,7.8539c2.6144,14.31222 2.08874,28.53145 2.804,43.00785c0.46176,9.34563 1.58609,18.6778 2.00223,28.04914c0.35435,7.97985 0.00082,16.06103 0.00205,24.05111c1.61717,32.2431 2.21276,65.09549 -0.24221,97.279c-1.865,24.26294 -1.95504,48.58188 -2.82418,72.87766c-0.33384,9.33214 -0.93407,18.5327 -0.93407,27.88134c0,6.33463 0.45021,12.85994 -0.00629,19.17723c-0.3399,4.70368 -1.56516,9.34506 -2.0032,14.04031c-0.68871,7.38209 -0.13515,15.0048 -1.06197,22.33425c-0.4189,3.31268 -1.59726,6.50259 -1.97882,9.81977c-1.29135,11.22665 -1.48721,22.38088 -3.56782,33.54252c-2.55732,10.87527 -4.56089,21.74015 -6.63662,32.71194c-0.30727,1.62412 -1.75446,10.55146 -2.64341,11.29336c-1.69606,1.41548 -4.39606,0.45981 -6.60187,0.58062c-2.99551,0.16405 -6,0 -9,0c-14.56304,0 -29.06289,0.61854 -43.48149,-1.54425c-3.23516,-0.48528 -6.44438,-1.19117 -9.70445,-1.46267c-5.92219,-0.49321 -11.97737,0.25592 -17.918,0.00477c-8.0457,-0.34015 -16.15411,-1.27801 -24.17392,-2.01325c-4.24656,-0.38932 -8.94412,-0.33165 -13.12259,-1.01687c-1.0402,-0.17058 -1.95706,-0.84707 -3,-1c-2.83621,-0.41589 -5.73301,0.03228 -8.59954,0.03228c-6.33252,0 -12.66505,0 -18.99758,0c-12.67777,0.02455 -25.28103,0.71167 -37.94565,0.99936c-21.32743,0.48447 -42.72318,0.00064 -64.05678,0.00064c-32.01604,0 -64.04958,0.30383 -96.06337,-0.05694c-17.85207,-0.20132 -35.92687,-3.00972 -53.78638,-1.94758c-11.65682,0.69326 -22.38316,4.92961 -33.69985,7.24677c-4.56701,0.93512 -9.20422,1.59348 -13.78129,2.54703c-13.04699,2.71812 -26.15126,6.14313 -39.31856,8.18603c-7.68561,1.19241 -15.73724,1.08617 -23.49362,1.28334c-13.47137,0.34244 -26.94266,0.73965 -40.41605,0.99042c-2.18101,-0.92746 -5.29346,-0.76853 -6.54303,-2.78236c-1.1752,-1.89396 0.37068,-4.44517 0.68956,-6.65118c0.89504,-6.19193 2.40769,-12.36648 3.48569,-18.53785c4.29946,-24.61386 9.83286,-48.95565 13.39927,-73.70265c2.36051,-16.37631 5.61409,-32.88552 7.11815,-49.35917c1.65487,-18.12543 1.42404,-36.63759 2.13277,-54.82833c1.35103,-34.67626 -1.49176,-69.2135 -4.14261,-103.77987c-1.27441,-16.61787 -2.54884,-33.23574 -3.82322,-49.85362c-0.50418,-6.57453 -0.58259,-13.29116 -1.39946,-19.83134c-1.43213,-11.46619 -4.17238,-22.9265 -6.23994,-34.29808c-2.96025,-16.28135 -6.12226,-32.47276 -10.52306,-48.44209c-2.05181,-7.44549 -5.37262,-14.66763 -7.04884,-22.20445c-0.88622,-3.98472 -0.72902,-8.55741 -0.99516,-12.66887z" fill="#000000"/><path d="" fill="#000000"/><path d="" fill="#ff0000"/><path d="M23.54601,51.69898l-0.77671,3.88353c-0.13914,-1.36889 -0.27921,-2.73769 -0.4203,-4.1064c0.39563,0.08373 0.79471,0.1581 1.19701,0.22288z" fill="#ff0000"/><path d="M10.85981,5.1069c0.98868,-1.4889 2.09738,-2.88469 3.29854,-4.20253l-0.45253,0.90505l-3.15196,4.20261l-1.16173,1.92133l-0.40337,0.63866c0.57923,-1.28547 1.20762,-2.46604 1.87104,-3.46512z" fill="#ff0000"/><path d="M10.03585,88.5796c0,-1.38071 1.11929,-2.5 2.5,-2.5c1.38071,0 2.5,1.11929 2.5,2.5c0,1.38071 -1.11929,2.5 -2.5,2.5c-1.38071,0 -2.5,-1.11929 -2.5,-2.5z" fill="#ff0000"/></g></g></svg>