<svg version="1.1" xmlns="http://www.w3.org/2000/svg" xmlns:xlink="http://www.w3.org/1999/xlink" width="636.47829" height="568.13736" viewBox="0,0,636.47829,568.13736"><g transform="translate(61.5,148.77273)"><g data-paper-data="{&quot;isPaintingLayer&quot;:true}" fill="#000000" fill-rule="nonzero" stroke="none" stroke-width="0" stroke-linecap="butt" stroke-linejoin="miter" stroke-miterlimit="10" stroke-dasharray="" stroke-dashoffset="0" style="mix-blend-mode: normal"><path d="M215.72942,303.17092l-41.99985,0.11208l-0.45899,-171.99939l41.99985,-0.11208z"/><path d="M-61.5,350.22727v-49h429v49z"/><path d="M-39.5,349.22727v-311h83v311z"/><path d="M-15.34001,65.22932l-9.63057,-22.66017l79.31058,-33.707l9.63057,22.66017z"/><path d="M84.5,1.22727v-97h77.00763v97z"/><path d="M151.5,-14.13443v-76.6383h42v76.6383z"/><path d="M12.5,40.22727v-189h83.7v189z"/><path d="M189.5,-27.77273v-112h321v112z"/><path d="M461.72661,182.97199l7.5889,-213.8654l66.95786,2.37597l-7.5889,213.8654z"/><path d="M564.97828,219.02441l-86.7299,107.34023l-69.22667,-55.9345l86.7299,-107.34023z"/><path d="M343.5,332.72727v-72h83v72z"/><path d="M170.68739,170.98033l-0.36817,-41.99839l171.99339,-1.50774l0.36817,41.99839z"/><path d="M548.97829,215.02441l-86.7299,107.34022l-69.22667,-55.93449l86.7299,-107.34022z"/><path d="M503.97829,302.02441l-86.7299,107.34022l-69.22667,-55.93449l86.7299,-107.34022z"/><path d="M574.97829,312.02441l-86.7299,107.34022l-69.22667,-55.93449l86.7299,-107.34022z"/></g></g></svg>