<svg version="1.1" xmlns="http://www.w3.org/2000/svg" xmlns:xlink="http://www.w3.org/1999/xlink" width="44.88369" height="39.55272" viewBox="0,0,44.88369,39.55272"><g transform="translate(-240.84394,-54.53001)"><g data-paper-data="{&quot;isPaintingLayer&quot;:true}" fill-rule="nonzero" stroke="none" stroke-width="0.5" stroke-linecap="butt" stroke-linejoin="miter" stroke-miterlimit="10" stroke-dasharray="" stroke-dashoffset="0" style="mix-blend-mode: normal"><path d="M267.05777,56.53423c0.1146,0.04284 0.22819,0.088 0.34071,0.13556c2.9362,1.24124 4.79526,3.70134 6.76957,6.00471c1.684,1.96466 3.76422,3.12545 5.55612,4.92908c1.84946,1.86155 3.29948,4.58115 4.33636,6.95746c0.47914,1.44871 2.1486,5.8122 1.53228,7.24258c-0.48075,1.11576 -2.07906,1.25796 -3.10618,1.90685c-2.25484,1.4245 -4.44501,2.96696 -6.66413,4.44636c-2.4237,1.61579 -5.19831,3.97171 -7.93458,5.00821c-2.55975,0.96964 -5.30461,0.71338 -7.96487,0.71338c-2.82302,0 -6.1726,0.47282 -8.96228,-0.02009c-4.39768,-0.77702 -7.3963,-4.7599 -8.76738,-8.68689c-1.75804,-4.50158 -1.88313,-9.48618 0.12789,-14.0219c0.6447,-1.45409 1.90516,-2.61113 2.40606,-4.12081c0.21667,-0.65306 -0.24726,-1.45069 0.06631,-2.06315c0.9987,-1.95064 3.73791,-3.90541 5.31616,-5.48366c0.5194,-0.5194 3.811,-3.85653 4.23894,-4.07144c0.65994,-0.33143 1.48604,0.0301 2.21327,-0.09835c0.64602,-0.1141 1.21943,-0.5179 1.86708,-0.62236c2.15357,-0.34733 4.95151,-0.02009 7.0952,-0.02009c0,0 1.5559,0 1.5559,1.5559c0,0.11054 -0.00785,0.21323 -0.02245,0.30863z" fill="#0024ff"/><path d="M247.91107,67.02827c0.36153,-0.63268 0.48569,-1.50434 0.99036,-1.99291c0.07697,-0.07451 0.16278,-0.14011 0.25964,-0.19459c0.53791,-0.30258 2.7799,-0.9151 5.2847,-1.33598l0.031,-0.03059c0.01932,0.00513 0.03858,0.01039 0.05778,0.01577c3.51562,-0.58289 7.51315,-0.77847 8.03602,0.79017c0.71332,2.13996 -1.43233,3.35391 -3.88293,4.06829c0.96528,2.69361 1.28676,5.86208 1.30076,7.8653c0.01486,2.12576 1.19067,4.86659 -0.3125,6.36977c-1.70832,1.70832 -4.54924,1.50203 -4.6875,-1.25c-0.14117,-2.81 0.07164,-5.65931 -0.41521,-8.43042c-0.0811,-0.46161 -0.84529,-1.988 -1.53229,-3.50492c-1.10776,0.17965 -3.46185,0.54905 -3.89865,-0.21536z" fill="#9966ff"/><path d="M274.61709,66.9906c0.88124,3.09167 0.1612,5.43857 -2.10976,7.52752c-0.41007,0.37721 -2.13644,1.06999 -2.19342,1.18212c-1.28178,2.52215 1.2594,6.36479 -2.1928,7.80103c-1.31291,0.54622 -1.84274,0.37291 -3.03242,-0.76719c-1.43328,-1.37356 -0.28391,-3.97447 -0.13453,-5.95403c0.25586,-3.39067 0.26087,-5.49171 -0.92188,-8.87099c-0.10315,-0.27395 -0.15958,-0.57078 -0.15958,-0.8808c0,-1.38071 1.11929,-2.5 2.5,-2.5c0.20338,0 0.40109,0.02429 0.59038,0.07012c2.8298,0.22454 5.40283,-5.50565 7.654,2.39222z" fill="#9966ff"/></g></g></svg>