<svg version="1.1" xmlns="http://www.w3.org/2000/svg" xmlns:xlink="http://www.w3.org/1999/xlink" width="107.6951" height="107.6951" viewBox="0,0,107.6951,107.6951"><g transform="translate(-172.10526,-121.47005)"><g data-paper-data="{&quot;isPaintingLayer&quot;:true}" fill-rule="nonzero" stroke="none" stroke-linecap="butt" stroke-linejoin="miter" stroke-miterlimit="10" stroke-dasharray="" stroke-dashoffset="0" style="mix-blend-mode: normal"><path d="M279.80036,175.3176c0,14.54726 -5.76862,27.74718 -15.14314,37.43705c-0.2452,-0.12233 -8.97457,-4.39987 -13.43894,4.39047c-1.23977,2.44111 -1.47175,4.55331 -1.15486,6.33371c-7.25357,3.63839 -15.44293,5.68632 -24.1106,5.68632c-29.73918,0 -53.84755,-24.10837 -53.84755,-53.84755c0,-29.73918 24.10837,-53.84755 53.84755,-53.84755c29.73918,0 53.84755,24.10837 53.84755,53.84755z" fill="#003fff" stroke-width="0"/><path d="M202.38203,148.62795c0,-1.38071 1.11929,-2.5 2.5,-2.5c1.38071,0 2.5,1.11929 2.5,2.5c0,1.38071 -1.11929,2.5 -2.5,2.5c-1.38071,0 -2.5,-1.11929 -2.5,-2.5z" fill="#000000" stroke-width="0.5"/><path d="M234.22232,148.62795c0,-1.38071 1.11929,-2.5 2.5,-2.5c1.38071,0 2.5,1.11929 2.5,2.5c0,1.38071 -1.11929,2.5 -2.5,2.5c-1.38071,0 -2.5,-1.11929 -2.5,-2.5z" fill="#000000" stroke-width="0.5"/><path d="" fill="#000000" stroke-width="0.5"/><path d="M244.53029,222.52773c0.02406,-0.41871 0.1239,-0.71538 0.1239,-0.71538l1.4781,-2.51973c1.8751,-1.12332 3.11065,-1.80439 4.34083,-2.60862c0.03378,-0.05881 0.06988,-0.11612 0.10818,-0.1718l1.68434,-2.52651c0.42297,-1.45268 0.37718,-3.16365 1.35196,-4.31228c0.86244,-1.01626 2.4762,-0.99035 3.68703,-1.54755c1.26819,-0.5836 2.37399,-1.61475 3.74592,-1.87296c0.05876,-0.01106 0.11757,-0.02141 0.17645,-0.03108l-0.01031,-0.03093l2.80943,-0.93648l0.30205,0.90614c0.87248,0.0591 1.74711,0.14256 2.61515,0.15124l-1.01101,2.42995l0.65215,0.65215l-1.56261,1.56262c-1.59416,4.62407 -5.23503,7.72105 -8.92145,10.7772c-1.10385,0.91511 -1.87922,2.21922 -3.08008,3.00271c-0.28258,0.18437 -5.5486,1.92002 -6.14264,2.11803c0,0 -2.3717,0.79058 -3.16227,-1.58113c-0.47903,-1.43709 0.20297,-2.29367 0.81488,-2.7456z" fill="#003fff" stroke-width="0.5"/><path d="M190.33609,171.89401c-0.79057,-2.37171 1.58114,-3.16228 1.58114,-3.16228l2.90104,-0.96507c1.37981,-0.33915 2.75962,-0.6783 4.13943,-1.01745c3.83691,-0.02307 8.05632,-0.41781 11.84464,-0.00049c7.70613,0.84889 15.24581,3.97672 23.03174,3.72892c6.22954,-0.19826 12.77282,-3.71131 19.04699,-0.64435c4.18842,2.0474 3.05083,5.53547 3.4166,9.20052c0.4463,4.47196 2.67478,8.81826 1.54697,13.39663c-0.3326,1.35021 -1.42858,2.38889 -2.22484,3.52891c-2.89299,4.14195 -6.52909,6.58557 -10.11819,10.04572c-4.5264,1.85754 -9.19007,4.33081 -14.0927,5.03881c-2.57242,0.37149 -5.19819,0.01904 -7.79729,0.01873c-1.63599,-0.0002 -7.32808,0.08897 -8.62268,-0.34773c-9.64534,-3.25355 -12.49188,-12.61619 -16.13342,-20.7942c-0.95618,-2.14735 -2.68567,-4.72294 -2.99656,-7.17904c-0.48003,-3.79241 0.24823,-7.0138 1.31536,-10.41889c-0.31937,0.0815 -0.63874,0.163 -0.95811,0.2445l-2.71784,0.90789c0,0 -2.37171,0.79057 -3.16228,-1.58114zM202.63154,171.6561c-0.03057,0.14905 -0.06019,0.23792 -0.06019,0.23792c-1.1212,3.3564 -2.22264,6.41685 -1.77695,10.04672c0.42387,3.45211 3.34446,7.53807 4.54577,10.73731c1.92591,5.12893 5.39133,11.38107 11.12059,13.25837c0.52866,0.17323 6.7233,0.12624 7.15085,0.12619c2.39547,-0.00029 4.81434,0.35293 7.18637,0.01873c4.13034,-0.58192 8.1196,-2.77064 11.96867,-4.26197c3.06314,-3.08323 6.17216,-5.21675 8.77144,-8.74788c0.51078,-0.6939 1.30734,-1.25527 1.52108,-2.08997c0.81128,-3.16831 -1.4818,-8.44498 -1.7402,-11.48653c-0.14976,-1.76274 0.92772,-4.81744 -0.78806,-5.24844c-7.40313,-1.85965 -14.0691,2.27438 -21.64718,1.20569c-6.18625,-0.87241 -12.44513,-3.05315 -18.68426,-3.73999c-2.42403,-0.26685 -5.02526,-0.1417 -7.56794,-0.05615z" fill="#000000" stroke-width="0.5"/></g></g></svg>