<svg version="1.1" xmlns="http://www.w3.org/2000/svg" xmlns:xlink="http://www.w3.org/1999/xlink" width="194.3354" height="328.17786" viewBox="0,0,194.3354,328.17786"><g transform="translate(-186.65894,-53.23445)"><g data-paper-data="{&quot;isPaintingLayer&quot;:true}" fill="#000000" fill-rule="nonzero" stroke="none" stroke-width="0.5" stroke-linecap="butt" stroke-linejoin="miter" stroke-miterlimit="10" stroke-dasharray="" stroke-dashoffset="0" style="mix-blend-mode: normal"><path d="M306.65128,135.90287c0,-2.5 2.5,-2.5 2.5,-2.5h1c0.6811,0.06343 1.38831,0.38759 2.04329,0.1903c3.10021,-0.93382 -0.36251,-4.40655 -0.51101,-6.28985c-0.04655,-0.5903 1.00127,-1.12295 0.69995,-1.63269c-0.24313,-0.4113 -0.76144,0.65078 -1.23223,0.73223c-0.98536,0.17048 -2.00071,0.03771 -3,0c-4.98411,-0.18807 -8.51262,6.67169 -9.57464,11.10634c-1.08996,4.27068 -0.75804,8.03086 -0.92536,12.39366c-0.03697,0.96397 -0.69182,2.01738 -0.26393,2.88197c1.16956,2.36321 2.95089,1.66268 4.76393,1.61803c5.41081,-0.13325 10.83429,0.20259 16.24191,-0.10643c0.4651,-0.02658 7.0731,-0.23239 7.91494,-1.27522c0.79656,-0.98673 0.2547,-2.5255 0.46942,-3.77531c0.27409,-1.5954 0.7568,-3.15211 0.99576,-4.75315c0.56039,-3.75465 1.66952,-9.25157 0.93887,-13.04144c-0.1599,-0.82939 -0.80238,-1.48892 -1.13837,-2.26388c-1.71162,-3.94791 -2.96539,-7.96373 -5.11245,-11.703c-3.30445,-5.82702 -4.03297,-12.72094 -7.81391,-18.20002c-0.81301,-1.17816 -1.29671,-2.64943 -2.40069,-3.56063c-3.34268,-2.75898 -10.21489,-1.32091 -14.09549,-1.32091c-7.07375,0 -13.5129,0.54563 -20.18278,2.93948c-2.95548,1.06074 -6.25526,1.40841 -8.8893,3.11773c-3.03805,1.97149 -5.55882,6.29453 -7.23979,9.41286c-2.64851,3.97714 -6.17081,8.00958 -8.46034,12.16437c-1.31475,2.38587 -1.56654,5.21827 -2.36791,7.82188c-0.38305,1.24452 -2.1374,6.66835 -2.37861,8.34914c-0.36435,2.53884 0.01873,5.12969 0.01873,7.69454c-0.00001,7.67212 0.80537,15.11928 1.98964,22.71239c0.98565,6.31964 2.09864,13.45072 6.33793,18.58174c1.0987,1.32981 3.44865,1.84246 4.93763,2.32586c20.19679,6.25516 43.0184,7.53984 64.01119,5.06555c0.18877,-0.02225 9.98064,-1.17555 10.07731,-1.18125c2.33297,-0.13765 4.87184,0.67205 7.00542,-0.28163c3.52072,-1.57371 7.14859,-4.6031 10.31945,-6.74739c2.31553,-2.10032 5.07545,-3.78576 6.97744,-6.26678c0.93977,-1.22586 1.33966,-2.78554 2.08727,-4.13719c0.92594,-1.67407 3.3043,-5.18431 4.0781,-7.26632c1.55958,-4.19627 2.03435,-8.70644 3.34832,-12.9824c2.31035,-7.51843 4.78983,-15.25878 5.84422,-23.08595c0.67212,-4.98942 -0.26118,-10.44041 -0.98685,-15.36977c-0.83512,-5.67287 -1.63706,-11.34613 -2.88288,-16.94359c-1.17038,-5.36777 -3.53073,-9.65977 -6.02444,-14.54583c-0.60708,-1.18948 -3.49055,-7.05523 -4.49085,-8.21943c-3.85378,-4.48521 -10.34216,-7.06398 -15.4457,-9.71763c-4.22602,-2.19738 -8.68384,-4.23584 -13.29698,-5.51689c-4.08883,-1.13545 -8.72898,-1.30691 -12.91408,-2.06938c-2.7175,-0.49509 -5.32967,-1.55836 -8.07551,-1.85895c-4.6049,-0.5041 -9.7521,0.17753 -14.39143,0.23835c-4.61835,0.91888 -9.75302,1.33517 -14.25384,2.65092c-2.80374,0.81964 -5.46027,2.12047 -8.29431,2.82826c-4.70557,1.1752 -10.58279,3.01668 -14.38718,6.22557c-6.51422,5.49455 -13.03982,11.90326 -17.9621,18.90611c-1.42418,2.02616 -1.9403,4.5687 -3.15779,6.7254c-0.80288,1.42225 -1.94058,2.6394 -2.7257,4.07153c-1.9972,3.6431 -3.08935,8.24989 -4.55176,12.13337c-2.32459,6.17256 -5.23901,12.24035 -7.29583,18.50078c-2.46407,7.5 -4.18513,15.26188 -5.8369,22.97036c-0.68002,3.17351 -1.7157,6.28968 -2.05371,9.51758c-0.16986,1.62216 0.08873,3.26399 0.00901,4.89307c-0.34605,7.07187 -2.36656,13.97399 -3.00139,21.02077c-0.48464,5.37964 0.27292,10.77962 -0.39284,16.17147c-1.56957,12.45566 -1.96134,25.22986 -4.79001,37.62909c-1.33273,5.84189 -3.84659,11.43895 -4.8362,17.37726c-0.45942,2.75679 0.08225,5.62707 -0.43837,8.37296c-0.30604,1.61415 -1.22968,3.06488 -1.56857,4.67245c-0.74119,3.51594 0.36385,7.79276 -0.09531,11.34625c-0.42801,3.31247 -1.46405,6.52461 -1.93785,9.83084c-2.30133,15.98038 -3.92661,31.83588 -5.95328,47.72792c-0.95267,7.4703 0.49884,15.34465 0.01244,22.87176c-0.30411,4.70626 -1.352,9.50849 -2.01884,14.17633c0,0 -0.35355,2.47487 -2.82843,2.12132c-2.47487,-0.35355 -2.12132,-2.82843 -2.12132,-2.82843c0.64997,-4.54978 1.68712,-9.23627 1.98116,-13.82367c0.48899,-7.62882 -0.91782,-15.54407 0.01244,-23.12824c0.16732,-1.36415 0.84733,-2.63414 1,-4c0.55694,-4.98278 -0.02037,-10.1147 0.85331,-15.11408c1.64486,-9.41229 2.7331,-19.12968 4.11357,-28.71562c0.47505,-3.28354 1.49578,-6.47515 1.92875,-9.7645c0.48634,-3.69473 -0.60804,-7.84002 0.11792,-11.5008c0.32883,-1.65815 1.27086,-3.15506 1.59371,-4.81438c0.51885,-2.66666 -0.04173,-5.45959 0.39935,-8.14021c1.00122,-6.08478 3.54657,-11.79944 4.91076,-17.77926c2.78989,-12.22923 3.17912,-24.84953 4.70338,-37.13717c0.6712,-5.29807 -0.09853,-10.61107 0.36681,-15.90575c0.61814,-7.03325 2.65924,-13.92699 2.99861,-20.97923c0.08182,-1.70034 -0.17223,-3.41429 0.00901,-5.10693c0.01871,-0.17472 2.06621,-9.70872 2.13687,-10.03847c1.68792,-7.8767 3.45115,-15.81072 5.97252,-23.47359c2.08353,-6.33221 5.01893,-12.4681 7.37001,-18.71197c1.53529,-4.07703 2.7069,-8.81564 4.7824,-12.65388c0.80867,-1.49547 1.98414,-2.76926 2.82131,-4.24897c1.26311,-2.23256 1.83483,-4.84529 3.29521,-6.9541c5.16825,-7.46303 12.13393,-14.41194 19.10897,-20.16496c6.0521,-4.99177 13.77864,-5.84081 20.85431,-8.26858c1.18367,-0.40614 2.19128,-1.25782 3.39313,-1.60653c4.81501,-1.39706 10.29862,-1.89335 15.23376,-2.85468c5.02729,-0.08609 10.60918,-0.76572 15.6051,-0.21779c2.81393,0.30862 5.49373,1.38628 8.27906,1.89164c4.30472,0.78103 9.03623,0.98433 13.24722,2.14176c4.98782,1.37096 9.80477,3.55695 14.37367,5.92647c5.68012,2.94582 12.60377,5.85425 16.88365,10.83901c1.51261,1.76172 4.11787,7.13999 5.20172,9.26164c2.69826,5.28189 5.14095,9.93072 6.4523,15.73498c2.31221,10.42052 5.36911,23.18588 3.96097,33.92477c-1.06801,8.14494 -3.62891,16.21219 -6.0375,24.02963c-1.3545,4.39621 -1.85222,9.00567 -3.46791,13.32604c-0.96872,2.59036 -3.06395,5.55521 -4.36892,7.88459c-0.87428,1.56059 -1.39993,3.33597 -2.49208,4.75267c-0.21006,0.27248 -7.48265,6.817 -7.85325,7.15151c-3.55096,2.41397 -7.71711,5.85998 -11.70048,7.51448c-2.23738,0.9293 -6.35582,0.45322 -8.41965,0.57341c-3.27901,0.19095 -6.52356,0.77248 -9.78571,1.15557c-21.7113,2.54966 -45.24041,1.19964 -66.1258,-5.27128c-2.69052,-0.91554 -5.01135,-1.37469 -7.06237,-3.67414c-5.07817,-5.69327 -6.50143,-14.01044 -7.62324,-21.22407c-1.22001,-7.84517 -2.04919,-15.55183 -2.0492,-23.4818c0,-2.76849 -0.37135,-5.56458 0.01873,-8.30546c0.31917,-2.24266 1.93659,-7.1746 2.56225,-9.20865c0.88501,-2.87719 1.25936,-5.97247 2.69123,-8.62033c2.30268,-4.25818 5.92561,-8.41922 8.63367,-12.47664c2.06417,-3.78569 5.1205,-8.60935 8.78727,-11.01751c1.55482,-1.02113 3.48229,-1.30948 5.22903,-1.94909c3.30256,-1.20933 7.62958,-3.3614 11.17738,-3.89003c5.12174,-0.76316 10.13741,-1.03228 15.40046,-1.03228c5.52484,0 12.41353,-1.25041 17.18928,2.393c1.51266,1.154 2.26893,3.05484 3.38505,4.59567c4.05555,5.59882 4.6464,12.65972 8.07698,18.6122c2.22119,3.90387 3.61311,8.05333 5.35398,12.1841c0.44999,1.06774 1.21687,2.02839 1.43382,3.16659c0.84504,4.43336 -0.21436,10.4712 -0.87185,14.87642c-0.16727,1.12074 -2.18435,10.56088 -2.61905,11.05007c-2.42887,2.73332 -8.20516,2.80164 -11.4257,3.00765c-4.49071,0.28726 -9.02639,0.11431 -13.5225,0.11431c-0.74571,0 -6.44887,0.03383 -6.79057,-0.12829c-2.08098,-0.9873 -4.24715,-2.28665 -5.4455,-4.25367c-0.88877,-1.45887 -0.2145,-3.41047 -0.26393,-5.11803c-0.13715,-4.73801 -0.05646,-8.99918 1.07464,-13.60634c1.39519,-5.3955 3.14861,-7.7985 7.19312,-11.69696c1.06704,-1.02851 1.92001,-2.40725 3.27552,-3.0064c0.31274,-0.13823 6.15243,-0.26612 6.95671,-0.1903c1.60079,0.1509 3.59192,-0.36444 4.76777,0.73223c1.07819,1.00559 0.36964,2.93044 0.69995,4.36731c1.25603,5.46375 4.44717,7.64602 -2.51101,11.71015c-1.14019,0.66596 -2.63781,0.12687 -3.95671,0.1903h-1c0,0 -2.5,0 -2.5,-2.5z"/></g></g></svg>