<svg version="1.1" xmlns="http://www.w3.org/2000/svg" xmlns:xlink="http://www.w3.org/1999/xlink" width="635.40627" height="558.51102" viewBox="0,0,635.40627,558.51102"><g transform="translate(57.05187,74.19426)"><g data-paper-data="{&quot;isPaintingLayer&quot;:true}" fill="#000000" fill-rule="nonzero" stroke="none" stroke-width="0.5" stroke-linecap="butt" stroke-linejoin="miter" stroke-miterlimit="10" stroke-dasharray="" stroke-dashoffset="0" style="mix-blend-mode: normal"><path d="M147.94959,366.66852c-0.79074,0 -1.33137,-0.25011 -1.70101,-0.59211c0.05713,1.25787 -0.08918,2.53335 -0.08087,3.79544v1.5015c0,0 0,2.5 -2.5,2.5c-1.48326,0 -2.0865,-0.88002 -2.33183,-1.59583c-0.56908,0.86169 -1.03724,1.76446 -1.26489,2.76617c-0.49719,2.1878 -0.02165,4.48617 0.1348,6.7485c0.58004,-0.63822 1.17003,-1.26156 1.89533,-1.71369c0.29257,-0.18238 9.19659,-3.59075 9.77996,-3.81513c4.71044,-1.81171 9.39141,-3.61142 14.17709,-5.21592c14.11046,-4.73081 27.89133,-10.19411 42.64828,-12.28715c4.81514,-0.0683 10.94334,-0.96219 15.66811,-0.04802c1.44492,0.27957 7.84347,3.32388 9.49226,3.80207c6.41115,1.85938 14.98693,3.35194 21.66249,3.57274c3.24105,0.1072 6.4659,-0.50569 9.69942,-0.75116c14.35637,-1.08986 28.45931,-3.66742 42.87099,-3.66742c5.87737,0 12.62029,-0.86066 18.3985,0.02912c0.90804,0.13983 8.578,2.76862 9.72202,3.0428c2.96712,0.71112 6.0728,0.74969 9.02865,1.5063c3.00042,0.76801 5.74514,2.49425 8.80683,2.96156c2.89508,0.44189 5.86618,-0.25556 8.78578,-0.02599c3.32633,0.26155 6.58203,1.16534 9.90928,1.41493c6.34755,0.47615 13.30644,0.47231 19.66006,0.08371c5.06014,-0.30949 9.92797,-1.22503 15.02218,-1.33791c5.02553,-0.10821 9.76419,-0.18291 14.64964,-1.58477c5.04879,-1.44873 9.01271,-3.72787 14.46064,-3.06802c0.37269,0.04514 9.34569,2.33776 9.92522,2.46329c9.21765,1.99664 18.38236,3.48881 27.80235,3.52399c2.69776,0.01007 5.35771,-0.74828 7.96186,-1.45285c0.98815,-0.26735 2.43041,0.31917 3.02806,-0.51193c0.59922,-0.83329 -0.41178,-2.01812 -0.47189,-3.04273c-0.0327,-0.55734 0.01924,-8.46853 0.02416,-9.35576c1.7746,-6.31907 3.89679,-12.75507 4.47979,-19.33534c1.08376,-12.23215 0.00055,-25.09173 0.00055,-37.37497c0,-5.00501 0,-10.01001 0,-15.01502c0,-0.65621 -0.01539,-10.13086 0.0508,-10.5014c0.54297,-3.03991 2.3397,-5.71578 3.48647,-8.58297c1.61574,-3.84549 0.44448,-7.22265 0.98597,-11.25111c1.19707,-8.90568 3.8232,-17.9181 4.49429,-26.92777c0.37337,-5.01272 -0.05213,-10.27913 -0.00852,-15.30431c0.01345,-1.55042 -0.35222,-3.16276 0.08375,-4.65068c1.02881,-3.51123 3.77425,-5.57771 5.03906,-8.92454c1.13208,-2.9956 1.26322,-6.27897 1.91112,-9.41512c0.84231,-4.0772 2.08944,-8.03725 3.24963,-12.03362c0.06514,-3.01885 0.84741,-6.09042 0.27171,-9.05459c-0.61802,-3.18208 -2.90976,-5.82518 -3.87142,-8.92079c-0.13544,-0.436 -1.85287,-9.32808 -2.00549,-9.96265c-0.20094,-0.83548 -2.56409,-8.95387 -2.72221,-9.6737c-0.70295,-3.20002 -0.60902,-6.56494 -1.53008,-9.70913c-0.90974,-3.10556 -3.26822,-6.13331 -4.03415,-9.27359c-0.06206,-0.25443 -0.75103,-10.50426 -0.7255,-10.79158c0.9466,-10.65389 6.30774,-21.71297 10.43711,-31.41967c0.97171,-5.9592 1.90395,-11.51636 0.09674,-17.49346c-1.93771,-6.40872 -6.9521,-11.15523 -9.6658,-17.07144c-0.10107,-0.22035 -2.76863,-9.51522 -2.89633,-9.96052c-2.58251,-9.00531 -2.64716,-18.54258 -2.64716,-27.84614c0,-8.23812 0.24614,-15.95219 1.42133,-24.11205c0.02372,-2.99014 0.70078,-6.03595 0.12316,-8.96986c-0.45319,-2.3019 -2.71865,-8.10642 -5.19524,-9.26645c-0.69254,-0.32438 -8.58269,-0.69753 -8.90112,-0.70631c-6.47491,-0.17857 -11.61876,0.54233 -17.79118,2.61615c-0.07453,0.02504 -8.40325,3.28535 -8.73917,3.34632c-1.47312,0.26739 -3.02297,-0.29366 -4.49156,-0.00246c-2.6438,0.52424 -4.84231,2.60146 -7.50751,3.003c-7.1826,1.08214 -15.61683,0.05522 -22.86527,0.01599c-12.84056,-3.97436 -27.52265,-6.80533 -40.90211,-3.14957c-9.52234,2.60185 -17.4167,9.43735 -26.34345,13.39881c-2.39859,1.06443 -4.67759,2.46421 -7.2033,3.17628c-2.43783,0.6873 -5.09594,0.5546 -7.4524,1.4833c-3.11267,1.22673 -5.9797,3.00305 -8.97975,4.48401c-3.09761,0.53989 -6.23396,0.88526 -9.29701,1.59547c-0.83874,0.19447 -9.16766,2.68496 -9.78915,2.7802c-4.85268,0.74364 -10.37796,0.2845 -15.28297,0.28464c-3.86314,0.00011 -7.87886,0.34332 -11.72272,-0.00852c-3.16511,-0.28971 -6.32636,-0.77856 -9.40544,-1.5667c-3.00042,-0.76801 -5.74514,-2.49425 -8.80683,-2.96156c-2.44255,-0.37282 -4.9729,0.40517 -7.41251,0.01355c-4.08371,-0.65554 -8.60128,-2.25385 -12.84878,-1.50872c-1.54543,0.27111 -2.91277,1.25506 -4.46333,1.49517c-1.77898,0.27548 -3.6003,0.02152 -5.40046,0.03228c-7.64593,0 -15.71753,-0.75296 -23.32233,-0.00852c-3.02994,0.29661 -5.97316,1.2732 -9.00901,1.5015c-9.12697,0.68637 -18.57271,0.00852 -27.72872,0.00852c-10.53417,0 -20.93995,0.60918 -31.28238,-1.51367c-8.06332,0.02064 -15.28175,-0.94189 -23.16487,-2.51846c-3.34544,-0.66907 -7.41165,-0.7655 -10.52331,-2.14207c-2.6568,-1.17535 -4.71441,-3.56947 -7.4698,-4.49027c-4.18364,-1.3981 -8.71096,-0.81726 -12.95519,-1.36627c-1.66658,-0.21558 -3.22813,-0.98269 -4.89202,-1.21811c-2.89214,-0.40921 -5.89086,0.25637 -8.75756,-0.30395c-6.89595,-1.34789 -13.51207,-4.5208 -20.5795,-4.46521c-2.63601,0 -5.32018,0.46963 -7.90796,-0.03228c-2.91186,-0.56477 -5.83611,-1.91017 -8.7725,-1.4913c-4.57617,0.65277 -8.464,3.39362 -12.79696,4.46475c-2.60827,0.64477 -5.37408,0.12532 -8.06011,0.06184c-1.18397,-0.02798 -2.45537,-0.64766 -3.5478,-0.1903c-1.13581,0.47552 -1.51286,1.98261 -2.49794,2.72141c-2.20251,1.65188 -5.29229,1.68818 -7.65496,3.10152c-1.10138,0.65885 -1.70722,1.92708 -2.67933,2.76501c-1.7953,1.5475 -4.24816,2.36359 -5.72463,4.21774c-1.35462,1.70113 -1.60796,5.05792 -1.95001,6.79433c-0.81665,4.14575 -1.93481,8.12852 -3.22798,12.14885c-0.02392,1.02493 -0.19619,9.47078 -0.3227,10.09399c-0.22035,1.08544 -1.2101,1.89756 -1.49307,2.96838c-0.64488,2.44035 0.2076,5.05213 0.06276,7.57208c-0.43509,7.56939 -1.49738,14.76311 -1.49738,22.37906c0,6.50651 0,13.01301 0,19.51952c0,3.23176 -0.41869,6.48836 -0.01864,9.69527c0.20459,1.64005 0.97755,3.17266 1.20436,4.80978c0.64411,4.64921 0.30969,8.78773 1.24781,13.43609c0.88026,4.49928 0.08545,8.84469 0.5573,13.35906c0.2653,2.53823 1.32241,4.96174 1.5015,7.50751c0.38837,5.52058 0.01217,11.22736 0.01217,16.76286c0,2.63601 0.51582,5.32957 -0.03228,7.90796c-1.43019,6.7279 -5.27079,12.12578 -7.59923,18.42313c-2.63049,7.11424 -4.38901,14.29509 -4.38901,21.92316c-0.49559,3.00382 -1.27536,5.97299 -1.5015,9.00901c-0.36639,4.91901 0.89416,10.42458 -0.03643,15.26572c-0.99155,5.15826 -5.2315,9.8721 -6.00617,15.03088c-0.78165,5.20524 0.22733,10.93087 1.21889,15.95067c0.46548,2.35653 -0.09163,4.82946 0.29544,7.20013c1.34294,8.22507 7.08329,15.96417 11.2575,22.9212c2.61365,4.36081 5.93554,9.51511 6.76052,14.61634c0.70598,4.36544 0.03228,9.46894 0.03228,13.91397c0,2.69406 0.72785,5.50772 -0.06688,8.08189c-2.53223,8.20207 -8.77082,14.8896 -13.06906,22.13124c-1.10973,1.86967 -4.00251,5.8302 -3.41286,8.42545c1.25408,5.5196 5.50592,9.8087 8.75742,14.25841c0.47067,1.44908 0.63962,3.03393 1.412,4.34723c1.55183,2.63863 4.65952,4.04034 6.50363,6.48366c0.48512,0.64275 0.2835,1.67396 0.82387,2.27102c0.80712,0.8918 1.88308,1.58167 3.01955,1.97562c1.08953,0.37767 2.40568,-0.22424 3.4491,0.26667c2.93491,1.38082 4.64156,4.76607 7.61902,6.0526c1.33737,0.57786 2.88443,0.41293 4.32369,0.63879c3.00762,0.47197 6.00602,1.00089 9.00901,1.5015c7.0641,1.17761 13.70237,2.82977 20.94248,2.15769c7.45297,-0.69183 14.84008,-3.49538 21.98515,-5.53683c5.57688,-1.5888 11.513,-3.53019 16.67709,-6.22177c2.65754,-1.38514 4.90566,-3.58266 7.7244,-4.60042c3.69627,-1.3346 9.04911,-1.8116 12.92997,-2.45768c3.02408,-0.50344 5.96063,-1.4877 8.99808,-1.90288c3.14708,-0.43017 6.5221,0.85528 9.52748,-0.17279c1.77074,-0.60573 4.20966,-3.97161 6.20802,-4.52054c4.54642,-1.24886 4.96596,0.73203 9.11897,2.26841c0.78374,0.28994 6.4495,1.52558 8.51753,2.1096c-0.46412,-1.09213 -0.85475,-2.2006 -1.07543,-3.34858c-0.89879,-4.67571 -0.0498,-10.64911 -0.04497,-15.43105l-0.06214,-1.79984c-0.05754,-0.40277 -1.4253,-9.94179 -1.43826,-10.17961c-0.15171,-2.78293 0.44715,-5.55617 0.6786,-8.33361c0.53729,-6.44751 1.30973,-12.62117 2.48774,-18.97996c1.82158,-9.83269 3.64315,-19.66539 5.46473,-29.49808c0.90509,-4.88557 1.38424,-10.24232 2.79333,-15.00316c1.40909,-4.76084 3.92265,-9.51546 5.82244,-14.10662c2.75368,-6.65473 5.50736,-13.30946 8.26104,-19.96419c-0.12123,-0.05994 -0.24518,-0.13146 -0.3717,-0.21581c-2.08013,-1.38675 -0.69338,-3.46688 -0.69338,-3.46688c1.75979,-2.63968 4.10131,-4.96312 5.31843,-7.89286c1.25774,-3.02755 0.74778,-6.58773 1.93834,-9.64232c1.0304,-2.64367 3.768,-4.51091 4.42608,-7.27092c0.31266,-1.31131 -0.19419,-2.69996 -0.08219,-4.04337c0.39994,-4.79753 2.28611,-9.08998 3.02677,-13.70777c0.39434,-2.45861 -0.47626,-5.02491 -0.00578,-7.47008c1.25053,-6.49926 4.7904,-12.67762 5.88132,-19.16688c0.50968,-3.03179 0.06016,-6.1484 0.10822,-9.22235c1.83529,-11.10582 1.49147,-22.05859 1.49147,-33.30479c0,-3.003 -0.15778,-6.01015 0,-9.00901c0.07,-1.33057 -0.47939,-3.03634 0.47189,-3.96928c4.10985,-4.03062 9.00051,-1.90519 13.73466,-2.52099c3.35905,-0.43694 6.38388,-2.11589 9.77389,-2.43321c0.24767,-0.02318 9.8908,0.54871 10.3617,0.5762c6.6708,0.38953 13.32955,0.92597 19.99231,1.43333c6.55764,0.50162 13.05302,0.51247 19.61433,0.06468c4.93236,-0.33662 10.3348,-1.28115 15.26672,-1.02129c4.9323,0.25988 10.20469,1.76759 15.07486,2.61997c6.20624,1.08622 12.95176,1.58535 19.00158,3.33805c4.79672,1.38966 9.55756,3.70375 14.21435,5.51472c5.99798,2.33255 11.97149,4.52785 17.73101,7.40383c3.03546,1.51908 6.03525,3.12165 8.92807,4.89738c0.89829,0.5514 1.63771,1.4656 2.66485,1.70213c3.67357,0.84599 9.30682,-0.25128 12.93863,-0.77248c7.8948,-1.13299 15.52401,-2.19255 23.50723,-2.28461l4.13904,-1.40962c0,0 2.37171,-0.79057 3.16228,1.58114c0.79057,2.37171 -1.58114,3.16228 -1.58114,3.16228l-4.86997,1.59338c-8.0311,0.21617 -15.69653,1.17594 -23.65033,2.30718c-4.3467,0.61822 -10.63337,1.69656 -14.97889,0.64173c-1.456,-0.35343 -2.60902,-1.47416 -3.90148,-2.23205c-2.81862,-1.65282 -5.6713,-3.25414 -8.59436,-4.71432c-5.61577,-2.81175 -11.45531,-4.94022 -17.30717,-7.21594c-4.50425,-1.75165 -9.10722,-4.00904 -13.74579,-5.35867c-5.88304,-1.71171 -12.48097,-2.17204 -18.51991,-3.22898c-4.67102,-0.81752 -9.74389,-2.3027 -14.47595,-2.55203c-4.73239,-0.24935 -9.93252,0.69524 -14.66398,1.01666c-6.80215,0.4621 -13.53524,0.44787 -20.33364,-0.06756c-6.63335,-0.50513 -13.26272,-1.03972 -19.90408,-1.4274c-3.20201,-0.18691 -6.4108,-0.88839 -9.6043,-0.58947c-3.29486,0.30841 -6.34698,1.99338 -9.62896,2.41751c-2.23846,0.28927 -8.03733,-0.96127 -10.28936,0.48201c-0.32198,0.20635 0.44214,0.66447 0.47189,1.04573c0.23369,2.9939 0,6.00601 0,9.00901c0,11.3833 0.3792,22.51057 -1.51153,33.75227c-0.01153,0.93021 -0.10529,9.29225 -0.15692,9.60121c-1.08114,6.46974 -4.56035,12.61731 -5.86556,19.06661c-0.49887,2.465 0.38151,5.05995 -0.00578,7.54493c-0.70118,4.49897 -2.55724,8.66419 -2.97924,13.31926c-0.14946,1.64868 0.33276,3.36305 -0.08219,4.96564c-0.31635,1.22175 -4.15903,6.65756 -4.58293,7.74409c-1.20573,3.09053 -0.70997,6.68915 -1.98267,9.75271c-0.0337,0.08113 -0.46546,0.74891 -1.07944,1.68304c0.50382,1.0047 0.03829,2.12973 0.03829,2.12973c-3.82352,9.24017 -7.64704,18.48034 -11.47055,27.7205c-1.83288,4.42946 -4.28837,9.01977 -5.64811,13.61389c-1.35974,4.59411 -1.79819,9.78142 -2.6714,14.49492c-1.82158,9.83269 -3.64315,19.66539 -5.46473,29.49808c-1.14825,6.19813 -1.89762,12.19948 -2.42136,18.48439c-0.21591,2.59095 -0.8148,5.17599 -0.66349,7.77151c0.18855,3.23428 0.93199,6.41217 1.39017,9.61938l0.11028,2.36286c0,0 0.00075,0.01822 0.00057,0.05162c0.00156,0.03336 0.00156,0.0516 0.00156,0.0516c0,4.46623 -0.88644,10.15045 -0.04495,14.52808c0.49098,2.5542 1.79632,4.89546 2.90309,7.30904c0.17183,-0.01002 0.34258,-0.0152 0.51079,-0.00896c0.97248,-0.00049 1.94497,-0.00098 2.91745,-0.00146l2.5,4.0015c0,0 0,2.5 -2.5,2.5zM129.22064,395.06876c0,0 -1.50722,0.50241 -2.51911,-0.49532c-1.85849,0.58606 -3.72178,1.15747 -5.57871,1.74831c-6.20884,1.97554 -12.60301,4.69291 -18.97758,6.02555c-4.41434,0.92285 -9.12901,0.51698 -13.5252,1.50396c-3.17612,0.71306 -6.21922,1.92514 -9.33046,2.88244c-7.95688,2.44827 -15.98724,5.45453 -24.10483,7.30195c-5.97314,1.35939 -11.88629,1.2368 -17.90355,1.87004c-7.59404,0.79918 -15.24619,2.31082 -22.9402,1.50339c-0.52543,-0.05514 -9.6501,-1.54788 -10.16885,-1.8943c-1.38111,-0.9223 -1.37957,-3.22229 -2.75719,-4.1498c-1.10441,-0.74356 -2.65488,-0.21604 -3.97573,-0.38324c-4.36815,-0.55294 -8.5831,-0.88537 -12.98369,-1.07291c-1.30223,-0.06325 -2.73302,0.37799 -3.90669,-0.18974c-1.56249,-0.75581 -2.56407,-2.34072 -3.81406,-3.54493c-3.05651,-2.94459 -6.00772,-6.00772 -9.00901,-9.00901c-6.26948,-6.26948 -13.78348,-12.13352 -17.71938,-20.13688c-0.84142,-1.71097 -2.13698,-3.28394 -2.46315,-5.16251c-0.32617,-1.87857 0.36951,-3.7955 0.57877,-5.69066c0.36583,-3.3132 0.79692,-6.61886 1.19538,-9.9283c1.19538,-9.9283 2.39076,-19.85659 3.58615,-29.78489c1.58313,-13.10359 1.44985,-26.52203 1.97737,-39.71006c0.33307,-8.32667 0.66613,-16.65335 0.9992,-24.98002c0.19274,-4.81854 0.866,-9.93784 0.6013,-14.75081c-0.4457,-8.10403 -2.49565,-16.4527 -3.70831,-24.48382c-1.24582,-8.25076 -2.79719,-16.5196 -3.74442,-24.80922c-1.52307,-13.32903 -1.55465,-26.65831 -1.55465,-40.04831c0,-8.32469 -0.54461,-16.86108 0.00547,-25.16524c0.33086,-4.9947 1.3345,-10.07018 1.99494,-15.03346c0.32741,-2.46051 1.09314,-4.89824 1.00261,-7.37879c-0.23555,-6.45422 -1.65977,-13.11246 -2.46141,-19.52555c-1.45482,-11.63854 -2.51932,-23.24477 -3.43695,-34.93735c-0.39116,-4.98416 -0.8164,-9.96732 -1.17359,-14.95402c-0.13329,-1.86088 -0.6679,-3.74393 -0.36588,-5.58498c0.79931,-4.87249 4.90895,-9.10033 5.90941,-13.90067c0.30662,-1.47118 -0.01024,-3.00558 -0.01537,-4.50836c0.1031,-8.40657 -4.3949,-16.50255 -2.90144,-25.06362c0.81826,-4.69059 4.07949,-10.167 6.14316,-14.42956c3.72475,-7.69356 7.9061,-15.43017 13.97182,-21.57554c3.49734,-3.54326 7.8532,-6.59405 11.67171,-9.79323c3.8323,-3.21074 7.64494,-6.4473 11.49797,-9.63311c1.00735,-0.83291 1.86257,-1.91153 3.04262,-2.47365c1.66568,-0.79346 3.54966,-1.00807 5.32449,-1.51211c0.38616,-0.10532 9.75182,-2.66615 9.95893,-2.69514c8.122,-1.13668 17.10657,-0.22281 25.31514,-0.32004c11.78118,-0.13954 23.50285,-0.86824 34.89671,2.86052c11.06389,3.62078 21.2679,9.50009 32.42803,13.04978c12.80092,4.07157 25.22254,8.80935 37.73291,13.69565c5.90482,2.30631 12.16077,5.67862 18.31123,7.17591c4.55951,1.10998 9.91745,1.02516 14.58828,1.51852c9.94468,1.05042 19.88936,2.10084 29.83403,3.15127c6.82152,0.77442 13.88375,-1.79558 20.66687,-2.65256c4.82937,-0.61014 9.98751,-0.48513 14.7529,-1.46337c9.67479,-1.98604 18.92052,-6.50194 28.48715,-8.98714c11.28057,-2.93045 22.98783,-4.73636 34.40535,-7.08715c17.93186,-3.69204 35.56194,-8.45696 53.27847,-13.06527c8.01898,-2.08585 16.24874,-5.01052 24.42246,-6.34143c8.17372,-1.33091 16.90619,-1.16817 25.17267,-1.73406c19.80726,-1.35592 39.68493,-3.3855 59.5408,-3.3855c4.6744,0 9.34969,-0.02502 14.02402,0c1.83417,0.00982 3.70556,-0.31757 5.50235,0.05099c7.50165,1.53876 14.17495,7.76607 20.2318,12.00587c10.08017,7.06328 20.83827,13.17892 28.9675,22.64248c2.00674,2.33612 4.43082,4.37873 5.98872,7.0353c0.14988,0.25558 3.78701,9.11419 3.98738,9.60081c2.21144,5.37064 5.20726,10.89971 6.77903,16.48979c2.25986,8.03734 3.54527,16.49657 5.29502,24.66207c2.20978,10.31229 5.32562,20.82725 6.80149,31.26258c1.74611,12.34611 0.73422,25.26339 2.99978,37.51669c1.79703,9.71923 4.65599,19.36751 6.96317,28.98077c2.5729,10.7204 3.95508,21.69207 6.51448,32.39899c0.2215,0.9266 2.78606,9.47947 2.81182,10.08302c0.19735,4.62422 -2.02913,10.74326 -2.92113,15.30761c-0.95804,4.9023 -1.59734,10.0661 -2.91539,14.88235c-2.63027,9.6112 -6.75422,19.05507 -10.08765,28.44929c-3.29091,9.27437 -6.57797,18.51334 -10.23301,27.65093c-1.75216,4.38039 -3.17393,9.31436 -5.40374,13.47315c-2.92251,5.45075 -8.2864,10.56946 -9.89806,16.69453c-0.37874,1.43938 -0.07428,2.97587 -0.12739,4.4633c-0.11955,3.34844 -0.45635,6.69168 -0.92985,10.00863c-1.19968,8.40379 -3.35682,16.64513 -5.2675,24.91374c-4.14958,8.58389 -2.23894,19.44858 -2.97214,28.87493c-0.34404,4.42315 -0.91757,8.93883 -1.56344,13.3314c-0.42396,2.88335 -1.58032,5.70487 -1.47702,8.61739c0.18715,5.27639 3.04019,9.89282 3.79131,15.07179c0.25034,1.72611 1.16598,3.54321 0.61097,5.19672c-0.64685,1.92713 -2.58634,3.13753 -3.92258,4.66942c-4.37798,5.01896 -8.99455,9.85117 -13.48539,14.76971c-3.37121,3.69228 -6.72699,7.39954 -10.11404,11.07728c-1.23576,1.34182 -2.26073,2.9204 -3.72308,4.01088c-0.24922,0.18585 -8.88451,4.34909 -9.40711,4.60197c-7.50129,3.62975 -15.00258,7.25951 -22.50387,10.88926c-4.50012,2.17753 -8.98471,4.3926 -13.50232,6.53355c-1.60902,0.76253 -3.09366,1.92572 -4.84427,2.25089c-0.42757,0.07942 -9.84659,-0.595 -10.62268,-0.64853c-6.65087,-0.45868 -13.30174,-0.91736 -19.95261,-1.37604c-11.63902,-0.80269 -23.27804,-1.60538 -34.91706,-2.40807c-6.22466,-0.42929 -13.3581,-1.92872 -19.56022,-1.37985c-4.58316,0.4056 -9.6949,2.45973 -14.16367,3.57889c-10.82184,2.71021 -21.63335,5.46666 -32.47169,8.11015c-8.59106,4.82435 -17.15246,10.38454 -26.09525,14.51388c-9.04555,4.17679 -18.93443,7.09262 -28.26916,10.58565c-4.68288,1.75232 -9.36576,3.50464 -14.04864,5.25696c-0.69859,0.26141 -9.56869,3.60549 -9.97623,3.64904c-1.86369,0.19919 -3.71809,-0.47786 -5.57465,-0.73515c-4.95205,-0.68627 -9.8955,-1.44614 -14.84234,-2.16908c-4.77291,-0.69752 -10.7073,-0.74873 -15.27186,-2.27125c-0.27464,-0.09161 -8.7092,-4.69967 -9.18652,-4.95968c-3.62064,-1.97223 -7.84767,-3.68518 -11.19096,-6.10958c-5.52818,-4.00879 -10.11051,-9.02555 -15.12352,-13.60482c-7.30595,-6.6738 -15.02664,-12.69015 -20.90018,-20.80889c-2.61295,-3.61178 -4.66192,-7.85444 -6.91018,-11.71183c-0.1123,-0.38744 -2.78599,-9.58102 -2.8926,-10.06785c-0.7072,-3.22941 -0.69047,-6.59881 -1.50377,-9.80315c-0.65519,-2.5814 -1.44262,-5.14149 -2.31195,-7.68358c-0.81475,0.23392 -1.64393,0.43684 -2.43901,0.71302zM135.45303,381.37498c-0.01875,0.04141 -0.03866,0.08322 -0.05976,0.12542c-0.7164,1.4328 -1.89185,1.48846 -2.64392,1.34355c0.36563,0.90427 0.72614,1.81274 1.08002,2.72464c0.05187,-0.17451 0.11557,-0.34134 0.20264,-0.492c0.32486,-0.56218 1.13082,-0.85106 1.25705,-1.48796c0.1444,-0.72861 0.18259,-1.46827 0.16398,-2.21365z"/></g></g></svg>