<svg version="1.1" xmlns="http://www.w3.org/2000/svg" xmlns:xlink="http://www.w3.org/1999/xlink" width="668.31121" height="446.89659" viewBox="0,0,668.31121,446.89659"><g transform="translate(94.15561,43.4483)"><g data-paper-data="{&quot;isPaintingLayer&quot;:true}" fill="#000000" fill-rule="nonzero" stroke="none" stroke-width="0.5" stroke-linecap="butt" stroke-linejoin="miter" stroke-miterlimit="10" stroke-dasharray="" stroke-dashoffset="0" style="mix-blend-mode: normal"><path d="M41.34732,-14.02988c7.79417,0.03342 15.27969,-0.10561 23.0351,-0.92397c2.81795,-0.29736 5.78693,0.08262 8.45638,-0.8678c1.17416,-0.41804 1.94194,-1.67058 3.13114,-2.0437c2.77499,-0.87066 5.81609,-0.10727 8.72446,-0.10727c5,0 10,0 15,0c8.66667,0 17.33333,0 26,0l0.00089,0.00041c1.11694,-0.90175 2.39999,-1.54743 4.50252,-1.95059c0.33857,-0.06492 9.87211,-0.04982 10.49659,-0.04982c2.96637,0 5.89192,-0.02767 8.81077,0.02818c8.24571,-1.78748 16.56331,-3.16972 24.97575,-3.67951c0.45504,-0.02757 9.9813,0.01114 10.58242,-0.00554c12.53054,-0.3478 25.08843,-1.39493 37.60494,-2.09013c5.22908,-0.34865 10.57572,-1.01992 15.81508,-1.04951c6.31688,-0.03567 12.65165,0.89474 18.96787,1.04564c9.78024,0.23366 19.58587,0.12997 29.38194,0.05385c-7.52007,-0.69463 -15.00314,-1.69247 -22.43013,-3.10714c-11.41038,-2.17341 -23.02161,-5.08538 -34.56304,-6.38996c-23.54054,-2.66091 -47.35992,-1.42193 -70.96909,-2.26325c-12.85894,-0.45925 -25.54873,-1.20234 -38.37866,0.17452c-6.94662,0.74548 -13.85843,2.3202 -20.82487,2.8361c-5.22945,0.38726 -10.62027,0.13572 -15.86487,0.20029c-3.31733,0.04084 -6.6614,0.52127 -9.95224,0.1009c-5.57905,-0.71267 -11.04389,-2.42623 -16.68748,-3.13426c-15.54202,-0.90997 -30.91023,-1.82916 -46.33317,0.52586l-3.28837,0.50212c0,0 -2.5875,0.39511 -2.98261,-2.19241c-0.39511,-2.58751 2.19241,-2.98261 2.19241,-2.98261l3.28837,-0.50212c15.84952,-2.42015 31.63299,-1.5075 47.602,-0.56391c5.68963,0.70873 11.2004,2.42105 16.81649,3.14773c3.06814,0.39699 6.18668,-0.0978 9.28016,-0.13589c5.13699,-0.06325 10.42036,0.19294 15.54271,-0.18639c6.91329,-0.51196 13.77657,-2.08339 20.67106,-2.82243c13.07405,-1.40146 26.00324,-0.66712 39.10594,-0.19916c23.75867,0.85044 47.72701,-0.3931 71.41611,2.29844c11.65962,1.32475 23.38141,4.24822 34.90872,6.44389c16.66857,3.17496 33.63278,4.218 50.66295,4.4501c0.55204,-0.34946 1.11287,-0.68716 1.65439,-1.05066l2.37534,-1.21027c0,0 2.34115,-1.17059 3.51174,1.17058c0.20954,0.41908 0.30655,0.80064 0.32461,1.1447c15.90446,0.01288 31.83555,-0.50328 47.60671,-0.47532c36.64258,0.06497 73.26734,1.0247 109.91838,1.0247c8.55658,0.00539 17.04729,1.19175 25.55595,2.05998c11.91306,1.21562 23.82972,2.40057 35.73766,3.66545c4.84983,0.51515 10.19344,0.6987 15.38005,1.4102c0.89585,-2.59124 2.16692,-5.69266 3.34389,-6.01861c1.71363,-0.47457 3.03082,1.86042 4.54623,2.79063l1.047,1.047c0,0 1.85085,1.85084 0,3.7017l-0.00004,-0.00004c-0.13529,0.13528 -0.27057,0.2508 -0.40513,0.3487c2.23127,0.73604 4.34911,1.69112 6.2882,2.95155c0,0 2.17789,1.45193 0.72597,3.62982c-1.45193,2.17789 -3.62982,0.72596 -3.62982,0.72596c-2.27206,-1.56521 -4.97587,-2.58884 -7.88345,-3.28349c-0.88415,2.59574 -1.92016,5.19563 -2.30295,7.89225c-1.23261,8.68362 -1.3731,17.10387 -1.88585,25.8421c-1.07739,18.31558 0.39353,36.85396 -1.76575,55.10655c-1.98727,16.79859 -5.7704,33.54578 -8.48973,50.25025c-1.65115,10.14274 -4.17955,20.53158 -5.01948,30.76811c-0.66648,8.12246 0.32065,16.74414 0.47165,24.8981c0.32348,17.4683 0.58202,34.92156 0.58202,52.39303c-0.00227,17.16928 2.2677,34.08268 3.13805,51.17879c0.96639,18.98258 -0.45572,38.28189 -2.32386,57.16029c-0.85794,8.66985 -1.76322,17.33555 -2.49818,26.01674c-0.2246,2.65288 -0.53767,9.77692 -2.11223,11.86231c-1.01516,1.3445 -3.02798,1.58893 -4.684,1.89844c-4.46116,0.83379 -8.90338,-0.63727 -13.36218,0.60611c-16.94877,4.72632 -32.16745,13.72723 -49.46537,17.19616c-18.50239,3.67611 -38.38039,2.27098 -57.11299,1.33435c-17.42861,-0.87143 -34.73619,-1.30385 -52.18658,-1.30385c-35.258,-0.0013 -70.44064,2.20021 -105.64308,3.73074c-15.36683,0.66812 -30.8424,2.39457 -46.21817,2.45342c-12.23405,0.04682 -24.47404,-1.49128 -36.68575,-1.99761c-7.99073,-0.33131 -16.06816,-0.00048 -24.06658,-0.00205c-36.63512,-0.00716 -73.41012,-1.04988 -109.99936,-2.87934c-21.33571,-1.08616 -42.28413,-7.73277 -63.16587,-11.82013c-6.23825,-1.22106 -12.38617,-1.47923 -18.64704,-2.06449c-6.38511,-0.59686 -13.03,-2.86523 -19.29331,-4.25012c-3.292,-0.73149 -6.64511,-1.18204 -9.9969,-1.55319c-2.09012,-0.23144 -4.35281,0.09193 -6.25797,-0.79834c-1.32879,-0.62093 -2.12125,-2.10376 -2.76879,-3.41979c-2.65621,-5.39831 -3.67106,-12.79345 -5.29647,-18.56016c-2.42437,-8.60127 -4.43132,-17.32766 -4.66214,-26.33038c-0.13429,-5.2379 0.75725,-10.58233 0.92247,-15.8209c0.26506,-8.40379 0.00423,-16.87034 -0.04873,-25.27807c-0.05454,-8.66044 0.2581,-17.41472 -0.16179,-26.06401c-0.84566,-17.41954 -3.9435,-34.70556 -5.02232,-52.10449c-0.60453,-9.74958 -0.00377,-19.73258 -0.00264,-29.50297c0.37011,-8.57605 0.40772,-17.24408 1.11809,-25.79767c2.26205,-27.23727 6.73145,-54.45394 10.00681,-81.59269c2.66749,-22.10211 5.15834,-44.12327 9.14129,-66.02942c0.92912,-5.11015 1.50441,-10.51434 2.82601,-15.53526c0.50404,-1.9149 0.40573,-4.33369 1.90563,-5.62644c1.48085,-1.27633 3.8415,-0.74044 5.77953,-0.99735c5.16701,-0.68498 10.45159,-0.92221 15.6442,-1.38037c13.38882,-1.18136 26.51583,-1.3905 39.95525,-1.3905c13.06326,0 26.00382,0.69011 38.67019,3.55264c3.428,-0.03027 6.87662,-0.24823 10.18899,-0.23403zM50.90005,-2.98109c-2.64896,0.23759 -5.38223,0.18715 -8.09971,0.11248c-2.5401,6.386 -4.61536,12.95612 -7.0198,19.39623c-1.04932,2.81052 -1.05695,5.96095 -2.2457,8.71541c-0.41193,0.9545 -1.63105,1.3492 -2.1752,2.23502c-1.11106,1.80867 -1.02668,4.15397 -1.96924,6.05589c-1.90375,3.84144 -4.42938,7.21624 -6.48942,10.95546c-1.53647,2.7889 -2.4536,5.88182 -3.87401,8.73157c-1.81316,9.24658 -5.13721,18.21368 -6.15408,27.64241c-0.36881,3.4197 0.02034,6.88217 -0.149,10.31753c-0.56793,11.5217 -1.43883,23.04242 -2.01567,34.55986c-0.48747,9.73306 -2.00094,19.46031 -1.99213,29.1947c-0.00444,9.88467 -0.69005,19.38623 -2.40287,29.12329c-0.61046,3.47039 -1.96258,6.76874 -2.90177,10.16495c-0.7299,2.63942 -0.42852,5.46022 -0.65712,8.18914c-0.41805,4.99031 -1.46036,10.36752 -1.34901,15.36941c0.1129,5.07098 1.52998,10.31128 2.06269,15.35914c0.80279,7.60697 1.12055,15.22218 2.06347,22.82182c1.93945,7.76939 2.75459,16.16511 5.15608,23.76644c1.92268,6.08576 5.73096,11.40532 8.52243,17.07016c1.52763,3.1001 2.43907,6.49059 4.08524,9.52941c2.40738,4.444 5.71355,7.49961 8.90906,11.27297c3.22274,3.80549 6.7817,8.68858 11.59868,10.78272c3.72476,1.6193 8.67191,0.70712 12.55128,0.62625c4.45682,-0.0887 8.68304,-0.68225 13.10338,-1.12965c3.35126,-0.3392 6.78508,-0.18866 10.05639,-0.99148c3.32869,-0.81689 6.28016,-2.77718 9.53967,-3.83693c1.20348,-0.39128 2.59456,-0.22485 3.70368,-0.83421c2.81747,-1.54794 4.96605,-6.1584 7.25407,-8.4354c4.32796,-4.30711 6.55051,-9.55545 9.97612,-14.61493c3.57987,-5.28732 7.59408,-10.35809 9.87492,-16.41681c1.15599,-3.07073 1.59655,-6.36505 2.40223,-9.54571c0.90402,-3.31503 1.99159,-6.58501 2.71852,-9.94331c0.96288,-4.44837 0.59623,-8.93405 1.01405,-13.39921c0.6895,-7.36873 3.42253,-15.03443 5.54836,-22.19744c1.37439,0.95291 2.7576,1.71131 4.05292,2.06107c3.51447,0.94896 7.21562,0.66155 10.61487,-0.49278c3.60331,1.92849 7.9279,2.30151 11.8848,1.79273c2.77311,-0.35657 5.54961,-2.3132 8.27809,-2.88341c1.3897,-0.02771 2.69851,-0.08788 3.72191,-0.11659c0.35104,-0.11442 0.69993,-0.2349 1.04689,-0.36075c3.36208,-0.26782 6.71147,-0.55871 9.95311,-1.63925c9.59284,0.88592 20.6875,0.84395 30,-1c4.07096,-0.80608 8.82576,0.66382 13,0c2.27147,-0.36123 4.34316,-1.6202 6.62001,-1.9458c4.5548,-0.65135 10.1722,-0.09603 14.55633,1c6.27134,-0.0939 12.36734,1.90478 18.82366,0.9458c4.23347,-0.62881 8.35026,-2.33521 12.62001,-2.9458c3.03731,-0.43434 6.30428,0.40264 9.37999,-0.0542c3.03213,-0.45037 5.98493,-1.40299 9,-2c4.92433,-0.97506 7.78176,0.5092 12.79169,-1.88772c3.5706,-1.70829 8.24269,-5.551 9.84528,-9.15632c0.93005,-2.09232 0.50747,-4.55122 0.7612,-6.82683c-1.72311,-0.41025 0.51005,0.26319 1.57092,-3.10216c0.43158,-1.36908 0.04815,-2.88278 0.29995,-4.29602c0.1849,-1.03775 0.92988,-1.94824 1,-3c0.40579,-6.08626 -1.16884,-9.91142 -3.88772,-14.99534c-0.42941,-0.80293 -0.87915,-1.57295 -1.35345,-2.313c0.53282,-0.19441 0.84244,-0.34921 0.84244,-0.34921l0.69014,-0.45744c1.41041,-0.50123 2.89694,-0.82534 4.23124,-1.50368c0.6131,-0.31169 0.85449,-1.18694 1.50433,-1.41223c0.54491,-0.18891 1.13763,0.40884 1.70398,0.29995c1.79185,-0.34449 3.52721,-0.96362 5.22501,-1.63208c1.65311,-0.65086 3.00674,-2.19558 4.77499,-2.36792c2.54995,-0.24853 5.1299,-0.57386 7.56046,-1.38404c1.83673,-0.61224 3.88906,-0.33383 5.73556,-0.91591c1.47086,-0.46366 2.83416,-2.04436 4.32399,-1.64584c5.66437,-1.41609 10.55601,-0.83399 16.17634,-0.0542c2.08818,0.28972 3.91999,1.65648 6,2c2.31201,0.38183 4.80282,0.88423 7.05592,0.29547c1.17909,2.18186 5.60174,2.23421 8.32407,2.75873c3.08117,0.59366 7.05373,0.07492 10.22183,0.07492c6.33136,0 12.58012,0.03055 18.89784,-0.42908c1.5669,-0.90193 2.89614,-2.719 4.70398,-2.70005c3.40599,0.03572 5.25012,1.35082 8.79636,2c2.50766,0.45906 5.09701,0.5613 7.6469,0.83508c0.00837,0.24715 0.01823,0.42622 0.02984,0.51587c0.32811,2.53235 1.58329,4.87027 2.0542,7.37999c0.65444,3.48788 -0.57286,6.54236 -1,9.79636c-0.57181,4.35616 -0.12913,9.19727 -0.12913,13.60182c0,6.576 -0.73682,13.70494 0.07492,20.22183c0.7282,5.84623 3.10479,11.56841 4.26008,17.34485c1.79592,4.6025 1.00466,9.25495 1.79412,14.03514c0.67063,4.06066 3.45481,7.99073 4,12c0.23825,1.75204 -0.28785,3.62841 0.29995,5.29602c0.83091,2.35732 2.35433,4.43019 3.8375,6.44205c3.73366,5.06455 13.77999,13.58053 20.452,9.47686c0.41948,-0.258 0.80083,-0.55369 1.14773,-0.882c0.20816,0.04556 0.4143,0.0963 0.61782,0.15364c3.32032,0.93538 6.77102,2.49527 10.15745,3.07041c4.16885,0.70802 8.00445,-0.12393 12.10249,0.65867c0.17533,-1.05367 0.37066,-2.10198 0.70739,-3.11242c0.53955,-1.61906 2.74993,-4.78518 3.03312,-6.89879c0.46537,-3.47334 -0.06932,-7.5954 -0.0338,-11.09772c0.00862,-0.84922 0.31219,-1.73339 0.06832,-2.54689c-0.43348,-1.44595 -1.57351,-2.60683 -2.04339,-4.04135c-1.45684,-4.44775 -1.16593,-8.74376 -1.16593,-13.30473c0,0 0,-0.86951 0.50116,-1.60623c-0.2711,-0.39956 -0.38175,-0.75321 -0.38175,-0.75321l0.77985,0.30607c0.0008,-0.00068 0.00159,-0.00136 0.0024,-0.00204c-6.20357,-2.48596 -12.44998,-5.07908 -15.40935,-11.72843c-0.52235,-1.17365 0.00783,-2.57671 -0.15706,-3.85072c-0.20654,-1.59587 -0.55848,-3.1725 -0.9538,-4.73236c-3.11524,-12.29216 -5.40627,-24.66123 -8.4428,-36.99221c0,-2.81373 -0.65838,-5.58924 -1.047,-8.37599c-0.57699,-4.13767 -0.01961,-8.70435 -0.01961,-12.8838c0,-6.97999 0,-13.95999 0,-20.93998c0,-13.68761 -0.54013,-27.52207 1.06263,-41.11857c0.72247,-6.12893 0.71634,-12.15417 2.05207,-18.20585c1.56473,-7.02244 2.31643,-14.16151 3.72322,-21.22549c0.692,-3.4748 1.15851,-7.00135 2.06287,-10.42702c0.42406,-1.60633 1.33882,-3.07904 1.60301,-4.71924c0.27949,-1.73518 -0.27569,-3.53787 0.00639,-5.27263c0.06061,-0.37275 3.27088,-9.00571 3.30762,-9.1335c1.6336,-5.68191 3.65745,-11.06375 4.30282,-16.91683c0.24707,-2.24075 0.91243,-5.18489 1.07717,-7.88441c-10.49374,0.84764 -20.98679,1.70517 -31.45639,2.66721l0.00002,0.00003c-13.87207,1.27468 -27.62767,5.28925 -41.53296,6.06819c-0.15399,0.00863 -10.3986,-0.33619 -10.69778,-0.34616c-5.23208,-0.1744 -10.46418,-0.34862 -15.69626,-0.52321c-2.65466,-0.08858 -5.33839,-0.58027 -7.96607,-0.19256c-1.42355,0.21004 -2.75758,0.8904 -4.188,1.047c-6.54336,0.71635 -13.61962,0.01961 -20.2128,0.01961c-2.58949,0 -5.23315,-0.59999 -7.76816,-0.07155c-0.4015,0.0837 -0.78835,0.20686 -1.16429,0.35934c-1.40483,-4.12558 -5.31261,-7.09328 -9.91353,-7.09328h-4.188v0.82965l-1.31279,0.43759l-1.72125,-0.818c-0.23535,0.13542 -0.50118,0.28628 -0.79128,0.45013c-2.37929,-0.27518 -5.75177,3.1489 -8.27698,4.44002c-1.30642,0.66796 -2.50365,1.3383 -3.60627,2.02636c-3.73865,0.12192 -7.23777,0.77378 -10.54082,4.07683c-2.29076,2.29076 -2.65226,5.91152 -3.9784,8.8673l0.49797,1.22404c-0.05462,0.14946 -0.10594,0.30052 -0.15386,0.45308h-0.47932v1.36528c-0.10053,0.09325 -0.20167,0.18951 -0.30347,0.28891c-1.83811,1.79478 -2.35992,4.56677 -3.41577,6.90879c-1.6123,3.57631 -3.60079,6.46424 -4.38404,10.56046c-0.06261,0.32742 0.77947,0.47599 0.63208,0.77499c-0.41686,0.84565 -1.67728,1.11414 -2,2c-0.60051,1.64839 -0.29062,3.50419 -0.63208,5.22501c-0.59825,3.01492 -1.54962,5.96784 -2,9c-0.4765,3.20803 0.53739,6.86757 0,10c-0.53873,3.14025 -2,5.65937 -2,9c-1.15082,2.84574 -2.11321,6.04286 -2.79412,9.03514c-0.26003,1.1427 0.02658,2.42072 -0.46406,3.48498c-0.61283,1.32932 -2.0739,2.13149 -2.72873,3.44063c-0.94928,1.8978 -1.55181,3.96801 -2.01308,6.03924c-0.21738,0.97609 0.13743,2.00949 0,3c-0.28972,2.08818 -1.65648,3.91999 -2,6c-0.25005,1.51404 -0.22678,3.07039 -0.12913,4.60182c0.00936,0.14673 0.4955,-0.02901 0.42908,0.10216c-0.54296,1.07221 -1.68348,1.84058 -2,3c-0.64103,2.34813 0.17283,4.90832 -0.29995,7.29602c-0.20474,1.03402 -0.84484,1.95739 -1,3c-0.08489,0.57044 0.42323,1.14058 0.29995,1.70398c-0.05897,0.2695 -0.57148,0.14016 -0.74958,0.35084c-0.56397,0.6671 -0.85187,1.53756 -1.41292,2.20711c-2.46409,2.94065 -5.62317,5.55435 -8.33765,8.26882c-0.97145,1.20004 -2.64035,1.6014 -3.9482,2.42197c-0.39271,0.24639 -0.43371,0.94768 -0.87857,1.07818c-1.26119,0.36997 -2.71564,-0.1731 -3.92899,0.33212c-1.34955,0.56194 -2.16614,1.99846 -3.43048,2.73229c-0.91166,0.52913 -2.09612,0.45767 -3,1c-0.80845,0.48507 -1.2259,1.46181 -2,2c-1.63186,1.13455 -6.66446,1.71006 -8.38376,2.64871c-1.46285,0.79865 -2.57751,2.1315 -4,3c-1.99764,1.21966 -4.57498,1.20613 -6.61624,2.35129c-0.82226,0.46129 -1.2042,1.49443 -2,2c-0.44797,0.2846 -1.07798,0.06757 -1.56952,0.26771c-2.34594,0.95518 -5.14648,2.91698 -7.77499,3.36792c-1.9712,0.33817 -4.02673,-0.32589 -6,0c-1.56739,0.25886 -3.0403,0.92269 -4.56046,1.38404c-2.21213,0.94654 -4.35197,0.48683 -6.83772,0.48683c-2.59098,0 -5.85886,0.53879 -8.39818,0.12913c-1.04064,-0.16788 -1.95739,-0.84484 -3,-1c-0.57044,-0.08489 -1.14058,0.42323 -1.70398,0.29995c-0.2695,-0.05897 -0.11151,-0.61236 -0.35084,-0.74958c-2.33174,-1.33692 -4.53853,-3.40179 -7.21967,-3.59102c-3.28575,-0.2319 -6.53563,1.15864 -9.58464,2.40501c-0.83427,0.34103 -1.45659,1.02097 -2.07211,1.71073l-0.27241,-0.07509c-4.25149,0 -8.45582,1.74465 -12.79636,1c-2.79028,-0.47869 -6.34211,-2.19336 -9,-3c-3.99566,0 -4.79785,-1.30601 -9,-2c-1.04248,-0.17217 -8.16117,-0.17217 -9.20364,0c-7.192,1.18777 -13.21609,4.71987 -18.73807,9.13745c-4.1203,3.29624 -9.08834,6.02184 -12.16662,10.47611c-0.59928,0.86716 -0.45767,2.09612 -1,3c-0.48507,0.80845 -1.54642,1.17347 -2,2c-1.65771,3.02071 -2.36991,6.53193 -3.19492,9.83195c-0.92534,3.70138 -2.16945,6.99344 -2.16945,10.82353c-2.11418,4.94101 -5.00403,9.55944 -6,15c-0.90483,4.94274 -1.30865,10.01705 -2,15c-0.41427,2.98585 -2.54706,5.95812 -3,9c-0.5401,3.62726 -0.12913,7.88936 -0.12913,11.60182c0,1 0,2 0,3c0,0.79096 -0.12352,2.63585 0.09687,3.12614c-0.38003,0.20709 -0.93536,0.58219 -1.16793,0.8028c-1.20753,1.20753 -4.16351,5.08548 -5.18624,5.56456c-0.6639,0.31099 -1.48888,0.17919 -2.1362,0.52336c-0.00167,0.00089 -0.00335,0.00178 -0.00503,0.00267c-0.55201,-0.25796 -1.18584,-0.43609 -1.70362,-0.59044c-0.44716,-0.1333 -0.79816,1.02339 -1.17926,0.75417c-0.98163,-0.69343 -0.96942,-2.38165 -2,-3c-0.85749,-0.5145 -2.03301,0.25483 -3,0c-0.36802,-0.09698 1.18674,-0.18359 1.01484,-0.52314c-0.70408,-1.39077 -4.623,-3.6282 -5.22691,-4.91742c-2.18816,-4.67121 -3.44647,-10.44826 -6,-15c-0.79019,-1.40854 -2.13904,-2.56754 -2.52336,-4.1362c-0.47074,-0.50144 -1.18694,-0.85449 -1.41223,-1.50433c-0.18891,-0.54491 0.3983,-1.1357 0.29995,-1.70398c-0.35949,-2.07731 -1.64353,-3.92217 -2,-6c-0.33817,-1.9712 0.32589,-4.02673 0,-6c-0.25886,-1.56739 -0.88168,-3.05336 -1.38404,-4.56046c-0.14556,-0.43668 -0.77095,-0.80248 -0.61596,-1.2359c1.97034,-5.50977 0.4962,-10.9642 1.08046,-16.61645c0.37942,-3.6706 2.38146,-6.76985 2.91954,-10.38355c0.74115,-4.97748 0.12913,-10.54847 0.12913,-15.60182c0,-3.99563 -0.44952,-7.31544 -1.07492,-11.22183c-0.38309,-2.39284 0.07492,-5.34805 0.07492,-7.77817c0,-10.757 0.94493,-22.12723 -1.12913,-32.60182c-0.58673,-2.96318 0.38657,-7.05507 0,-10c-0.13719,-1.04513 -0.82507,-1.96052 -1,-3c-0.36993,-2.19817 -0.40517,-4.45749 -0.9458,-6.62001c0.12115,-2.87522 -0.60078,-6.41593 -0.0542,-9.17634c0.3818,-1.92822 1.25581,-3.87384 1.02514,-5.81639c1.10629,-1.38721 2.09783,-3.06067 2.31937,-4.77748c1.65132,-0.76378 2.56915,-2.63136 3.85568,-3.93688c8.81321,-8.94331 10.44762,-21.43776 9.79981,-33.46925c1.29087,-3.87262 1.12913,-7.55359 1.12913,-11.60182c0,-7 0,-14 0,-21c0,-1.57389 0.02805,-6.54365 -0.12913,-7.60182c-0.15487,-1.04265 -0.79526,-1.96598 -1,-3c-0.04015,-0.20278 0.04808,-0.43795 0.12921,-0.66439c0.20924,-0.12044 0.39568,-0.29759 0.50642,-0.47648c1.1169,-1.80428 1.56928,-3.9917 2.81399,-5.71031c0,0 5.547,-8.3205 -2.7735,-13.8675c-6.85349,-4.569 -11.82527,0.27057 -13.3654,2.11915c-1.02364,-0.34504 -2.07787,-0.70268 -2.99038,-1.00985c-0.26256,0.0257 -0.52509,0.05035 -0.78758,0.0739zM306.84548,-23.91873c0.75029,0.111 1.51478,0.5701 2.24557,0.3671c0.2891,-0.08032 0.73293,-0.38691 1.24291,-0.80828c-2.53434,-0.06284 -5.06676,-0.14642 -7.59654,-0.25499c1.36055,0.27898 2.73699,0.49334 4.10806,0.69618zM55.29653,-8.72386l-0.08339,-0.05422c0.46782,-0.19561 0.93612,-0.38326 1.40498,-0.56365c-2.26092,0.11664 -4.51783,0.191 -6.77678,0.23722c0.23246,0.05751 0.46482,0.11682 0.69705,0.17818c0.42882,0.1133 0.85356,0.24099 1.27544,0.37874c1.1622,-0.04945 2.3235,-0.10621 3.4827,-0.17627z"/><path d="M323.30121,141.99776c1.13081,-10.10793 0.32277,-20.30327 0.73784,-30.45682c0.43722,-10.69547 2.11193,-20.9746 4.05658,-31.47463c0.80968,-4.37184 1.10845,-9.63343 2.66931,-13.76363c0.63592,-1.68271 1.98757,-3.01325 2.7563,-4.63958c0.11588,-0.24516 0.22429,-0.49324 0.32643,-0.74375c0.59621,0.30378 1.18354,0.5742 1.75089,0.80781c0.64649,0.2662 1.41199,-0.56563 2.07101,-0.33212c0.43666,0.15472 0.15562,1.05964 0.56952,1.26771c2.10349,1.05744 4.36872,1.8044 6.65549,2.36437c0.9713,0.23785 2.00949,-0.13743 3,0c2.08818,0.28972 3.92628,1.62038 6,2c3.84398,0.70369 7.70637,0.55955 11.61645,1.08046c6.02888,0.80318 12.3345,3.13287 18.5872,1.91954c2.62032,-0.50847 5.01933,-1.90664 7.29602,-3.29995c0.1254,-0.07675 -0.04466,0.42136 0.10216,0.42908c0.64078,0.0337 1.28205,0.03408 1.92355,0.01832c0.84116,0.34026 1.67943,0.66099 2.50548,0.96537c1.95889,0.72179 3.91084,-0.69967 5.86258,-1.90112c1.34593,0.00939 2.7779,0.12071 5.31021,-0.2117c1.04513,-0.13719 1.96598,-0.79526 3,-1c3.69379,-0.7314 8.57155,0.12913 12.39818,0.12913c1.46669,0 2.95942,-0.41401 4.39818,-0.12913c0.90112,0.17843 1.71817,0.68771 2.6034,0.91818c1.91982,1.85688 3.90124,3.62821 6.43499,4.83962c0.00007,0.17958 0.03284,0.36257 0.0766,0.5336c0.63369,2.47691 1.52725,4.26021 1.48683,6.83772c-0.10069,6.42129 -0.48525,12.98113 1.07492,19.22183c0.04954,3.08957 0.50436,6.37646 1.0542,9.37999c0.55674,3.04122 2.4856,6.00158 3,9c1.18594,6.9128 -1.92324,12.27653 -3,18.79636c-0.71729,4.34324 -0.47849,8.72879 -0.0712,13.0932c-1.15703,-0.09909 -2.31278,-0.20362 -3.45611,-0.36225c-2.08818,-0.28972 -3.91999,-1.65648 -6,-2c-5.3122,-0.87732 -12.45105,-0.5008 -16.49966,3.29995c-0.24178,-1.01551 -2.05826,-0.42908 -3.10216,-0.42908c-4.33333,0 -8.66667,0 -13,0c-1,0 -2.00012,-0.01568 -3,0c-0.69802,0.01095 -1.49613,0.69115 -2.07301,0.298c-1.10339,-0.75197 -1.83299,-2.11581 -3.10015,-2.5368c-4.38252,-1.45599 -7.26505,0.04728 -11.22501,-0.63208c-2.07783,-0.35647 -3.92628,-1.62038 -6,-2c-7.09101,-1.2981 -14.68657,-1.83847 -21.82366,-0.0542c-1.55867,0.11805 -3.18158,-0.10417 -4.67601,0.35416c-1.14903,0.3524 -1.8697,1.5915 -3,2c-0.54239,0.19602 -1.1357,-0.3983 -1.70398,-0.29995c-2.07731,0.35949 -3.91182,1.71028 -6,2c-0.99051,0.13743 -2.01912,-0.19463 -3,0c-3.01489,0.59824 -6.57861,3.30049 -9.52492,3.91836c0.42077,-3.05209 0.59626,-6.18788 0.93155,-9.20596z"/><path d="M46.59452,73.42531c0.07993,-0.25532 0.16098,-0.51028 0.24314,-0.76488c-0.07883,0.25451 -0.16021,0.50986 -0.24314,0.76488z"/></g></g></svg>