<svg version="1.1" xmlns="http://www.w3.org/2000/svg" xmlns:xlink="http://www.w3.org/1999/xlink" width="573.00002" height="178.44559" viewBox="0,0,573.00002,178.44559"><g transform="translate(21.99307,-88.47673)"><g data-paper-data="{&quot;isPaintingLayer&quot;:true}" fill-rule="nonzero" stroke-width="0.5" stroke-linejoin="miter" stroke-miterlimit="10" stroke-dasharray="" stroke-dashoffset="0" style="mix-blend-mode: normal"><path d="" fill="#000000" stroke="none" stroke-linecap="butt"/><path d="" fill="#000000" stroke="none" stroke-linecap="butt"/><path d="" fill="#000000" stroke="none" stroke-linecap="butt"/><path d="" fill="#000000" stroke="none" stroke-linecap="butt"/><path d="" fill="#000000" stroke="none" stroke-linecap="butt"/><path d="" fill="#000000" stroke="none" stroke-linecap="butt"/><path d="" fill="#000000" stroke="none" stroke-linecap="butt"/><path d="" fill="#000000" stroke="none" stroke-linecap="butt"/><path d="" fill="#ff0000" stroke="none" stroke-linecap="butt"/><path d="" fill="#000000" stroke="none" stroke-linecap="butt"/><path d="M150.58038,100.47519c-11.6105,0.42504 -23.57794,0.42763 -35.19053,-0.00254c-4.81313,-0.17829 -9.58685,-0.6216 -14.3829,-0.85207c0,6.78523 0,13.57046 0,20.35569v2c0,0 0,2.5 -2.5,2.5c-2.5,0 -2.5,-2.5 -2.5,-2.5c0,-6.83402 0,-15.57432 0,-22.49874c-0.16661,-0.00088 -0.33328,-0.0013 -0.5,-0.00126c-24.39545,0 -48.67663,-1.62632 -73.03536,-1.94588c-0.06011,0.07114 -0.12562,0.14239 -0.19688,0.21364c-1.76777,1.76777 -3.53553,0 -3.53553,0c-0.0633,-0.07763 -0.12131,-0.16334 -0.17656,-0.25325c-1.35161,-0.00951 -2.70349,-0.01451 -4.05567,-0.01451c0,0 -1.98085,0 -2.4161,-1.76323c-1.56645,-0.85246 -3.01619,-2.12144 -4.76112,-2.24307c-2.75948,-0.19235 -6.62038,3.48256 -9.42232,3.97401c-5.11729,0.89755 -11.18026,0.03228 -16.40046,0.03228h-1c0,0 -2.5,0 -2.5,-2.5h-0.00002c0,-2.5 2.5,-2.5 2.5,-2.5h1c4.99063,0 10.69434,0.78845 15.59954,0.03228c4.17164,-0.64308 5.66007,-4.19469 10.57768,-4.02599c1.75059,0.06005 3.16391,1.50721 4.77949,2.18401c2.17397,0.91073 4.78691,0.18895 7,1c0.4764,0.17459 0.87243,0.4823 1.2365,0.84293c24.95347,0.26065 49.82031,1.96677 74.80679,1.96677c6.71783,0.00183 13.34593,0.74992 20.05066,0.99919c11.50646,0.4278 23.37174,0.42614 34.87591,0.00189c8.18464,-0.30183 16.68827,-0.24653 24.82536,-0.97115c6.12381,-0.54533 12.00368,-1.75634 18.19274,-2.02932c4.40463,0.00379 8.54019,-0.78735 12.89999,-0.99578c8.01056,-0.38296 16.13419,-0.00483 24.15535,-0.00483c8.0034,0 16.12049,-0.35999 24.11328,0.00257c11.03432,0.50053 22.03633,1.42437 33.05296,1.95622c12.04282,1.56633 24.07212,-0.12119 36.08009,1.05338c1.66033,0.16241 3.24804,0.81143 4.90765,0.98105c6.13754,0.62731 12.67117,0.00674 18.84603,0.00678c3.37653,0.00002 7.28637,0.45418 10.59952,0.03228c1.04565,-0.13315 1.95936,-0.83216 3,-1c3.8588,-0.62235 8.52068,-0.03228 12.40046,-0.03228c5.59688,0 11.74399,-0.68163 17.28289,0.01605c4.42804,0.55776 8.94372,2.04742 13.30138,3.05318l4.02207,1.00541c0,0 2.42536,0.60634 1.81902,3.03169c-0.60634,2.42535 -3.0317,1.81902 -3.0317,1.81902l-3.97793,-0.99459c-4.16251,-0.96045 -8.46994,-2.40727 -12.69862,-2.94682c-5.33625,-0.68087 -11.32132,0.01606 -16.71711,0.01606c-3.55188,0 -8.06338,-0.64341 -11.59954,-0.03229c-1.0387,0.17951 -1.95378,0.87144 -3,1c-3.59395,0.44164 -7.73697,0.03231 -11.40047,0.03229c-2.88667,-0.00002 -5.84316,0.12353 -8.80264,0.19909c0.18468,0.33275 0.30265,0.75785 0.30265,1.30091c0,2.5 -2.5,2.5 -2.5,2.5l-0.23223,-0.73223c-2.5264,2.4601 -3.72926,5.67724 -5.68764,8.61898c-3.25678,4.89211 -6.87242,9.32014 -10.14677,14.19822c-1.57309,1.57309 -2.56256,3.67634 -4.18328,5.20032c-1.94701,1.83078 -6.85526,4.16209 -9.2773,4.6696c-0.4922,0.10314 -0.98341,0.17797 -1.47278,0.22643v-0.68132c0,0 0,-7.88818 -7.00592,-9.6527c0.00393,-0.11528 0.00592,-0.23106 0.00592,-0.3473c0,-1.88905 -0.52379,-3.65575 -1.43407,-5.16281c0.43407,-1.60208 0.43407,-2.83719 0.43407,-2.83719l-0.18044,-4.89108c-0.84493,-2.27428 -1.68986,-4.54855 -2.5348,-6.82283c0,0 -3.71391,-9.28477 -12.99867,-5.57086c-0.10299,0.0412 -0.20439,0.08308 -0.3042,0.12563c-1.80216,-1.75782 -4.26555,-2.84086 -6.98189,-2.84086c-0.50961,0 -1.01032,0.03812 -1.49942,0.11166c-0.00024,-0.03724 -0.00042,-0.07447 -0.00056,-0.11167c0,0 0,-0.16004 0.04049,-0.39913c-6.21311,-0.40452 -12.42819,-0.82104 -18.65378,-1.10343c-7.91689,-0.35912 -15.95928,0.00257 -23.88671,0.00257c-7.91845,0 -15.9365,-0.37373 -23.84466,-0.00483c-4.42049,0.2062 -8.6329,1.00053 -13.10001,1.00422c-4.41341,0.19637 -8.6583,0.88487 -12.95634,1.45251c-1.46088,-1.18716 -3.51535,-2.02193 -6.40457,-2.02193c-3.71998,0 -6.05613,1.38382 -7.52324,3.12191c-5.37741,0.20271 -10.80396,0.25324 -16.09775,0.44704z" fill="#000000" stroke="none" stroke-linecap="butt"/><path d="M114.4336,213.13847c1.25592,-0.91074 2.21893,-2.8212 3.76777,-2.73223c3.93448,0.22599 6.10109,7.07137 6.46772,10.09954c0.1599,1.32069 0.51221,2.82483 0.00543,4.03069c0.1132,0.6603 -0.00179,1.34053 -0.03872,2.01447l0.62674,0.9401c0.27681,0.40239 0.43883,0.88987 0.43883,1.41519c0,0.4692 -0.12926,0.90821 -0.35411,1.28337c0.30859,0.95192 0.67488,1.91405 1.04271,2.86257c2.3444,0.29448 5.11343,-0.30584 7.88246,-3.07487c0.06134,-0.06134 0.12162,-0.12269 0.18085,-0.18402c1.35479,1.94528 3.10391,3.48605 7.14626,3.98383c3.67193,0.45216 7.08073,-2.14785 10.62109,-3.22177c0.12026,-0.14758 0.31459,-0.28159 0.49175,-0.41875c3.40119,1.24147 6.81175,0.14152 10.26715,0.69472c1.35709,0.21727 2.63945,0.80562 4,1c10.27718,1.4683 21.10811,1.65471 31.44367,0c4.45008,-0.71245 10.27978,-0.40449 12.89059,-4.07797c2.04628,-2.87918 0.24707,-14.98307 -1.24155,-19.44893c0.22557,-2.44245 0.20109,-4.94696 0.12913,-7.39818c-0.01111,-0.37847 0.08077,-0.80449 -0.02086,-1.15983c2.59435,-2.45906 2.92524,-5.77986 4.25965,-9.01334c0.7713,-1.86898 1.98966,-3.57126 2.49369,-5.52931c0.39037,-1.51648 -0.05271,-3.1415 0.13838,-4.69571c0.25727,-2.09243 1.62038,-3.92628 2,-6c0.18007,-0.98365 -0.13743,-2.00949 0,-3c0.38484,-2.77376 2.98717,-5.24801 3.70005,-7.70398c0.54947,-1.89301 0.28605,-3.93189 0.42908,-5.89784l0,-0.92994c0.76852,0 1.53704,0 2.30556,0c4.06027,0 8.07076,-0.05237 12.05343,0.03996c0.52019,5.03414 4.77491,8.96001 9.94657,8.96001c1.07334,0 2.10718,-0.1691 3.07634,-0.48212c1.65013,3.25287 5.02656,5.48212 8.92366,5.48212c1.14379,0 2.24274,-0.19203 3.26635,-0.54561c0.00056,0.02225 0.00113,0.0445 0.0017,0.06675c0.64526,0.08235 2.23195,0.48732 2.23195,2.47898c0,1.8378 -1.35101,2.3246 -2.06671,2.45354c0.03833,1.1969 0.06671,2.38182 0.06671,3.54646c-0.0001,6.57269 2.06375,12.23045 2.96772,18.59954c0.36501,2.57177 -0.25356,5.65154 0.03894,8.24531c0.18699,1.65812 0.77941,3.25241 0.98117,4.9088c0.32005,2.62754 -0.30342,5.31062 -0.00656,7.94089c0.15413,1.3657 0.93983,2.62695 1,4c0.03847,0.87785 -0.95615,1.69316 -0.7135,2.53769c0.13194,0.45921 0.76144,-0.65078 1.23223,-0.73223c0.98536,-0.17048 2,0 3,0c1.66667,0 3.33333,0 5,0c9,0 18,0 27,0c11.31396,0 22.5894,0.01672 33.89241,-0.52152c2.50861,-0.11946 10.36571,1.09875 11.87153,-2.09652c0.46759,-0.9922 -0.36481,-2.19367 -0.23165,-3.28242c0.12796,-1.0463 0.82671,-1.96025 1,-3c0.1644,-0.98639 -0.1644,-2.01361 0,-3c0.17329,-1.03975 0.84707,-1.95706 1,-3c0.41588,-2.83621 -0.03228,-5.73301 -0.03228,-8.59954c0,-5.00261 -0.00001,-10.00523 0.00001,-15.00784c0.00647,-0.6688 0.03384,-1.33475 0.07922,-1.99826c0.13825,0.00399 0.27849,0.00601 0.42076,0.00601c5.19398,0 7.69022,-2.69774 8.88991,-5.29082c3.26918,-1.51033 5.46387,-4.82424 8.79576,-6.8358c0.97169,-0.58664 2.19929,-0.61446 3.21595,-1.11916c1.2126,-0.60197 6.64404,-4.80032 6.93811,-4.96866c0.93466,-0.53505 2.09721,-0.55252 3.06189,-1.03134c1.51697,-0.75295 3.0934,-1.70514 4.62016,-2.76759c5.11475,-0.26291 9.21389,-4.36893 9.46593,-9.48655c3.0041,0 6.0082,0 9.0123,0c9.76482,0 19.1964,-1.00001 29,-1c4.91561,0 8.92249,-0.44888 13.75366,-0.98783c0.7608,-0.08487 1.58503,0.47739 2.28964,0.17813c0.86779,-0.36856 1.11993,-1.66182 2,-2c2.31328,-0.88891 4.9476,-0.50894 7.35037,-1.11566c5.56322,-1.40476 10.83928,-3.04955 16.60634,-3.07464c0,0 0.39426,0 0.86964,0.15657c0.94633,-1.68648 2.92093,-1.02828 2.92093,-1.02828c6.22107,2.07369 12.96564,5.07661 19.51489,5.89044c5.15739,0.64087 10.36181,-0.57939 15.46597,-1.00826c10.72276,-0.90097 21.47589,-1.0104 32.22857,-1.01047h1c0,0 2.5,0 2.5,2.5l-0.00002,-0.00007c0,2.5 -2.5,2.5 -2.5,2.5h-1c-10.60026,-0.00007 -21.20041,0.10473 -31.77143,0.98953c-5.46991,0.45783 -11.00664,1.68612 -16.53403,0.99174c-6.89025,-0.86559 -13.93978,-3.92778 -20.48511,-6.10956c0,0 -0.01552,-0.00517 -0.04362,-0.01593c-0.68106,1.14423 -2.16581,1.14423 -2.16581,1.14423c-5.32509,-0.027 -10.247,1.65066 -15.39366,2.92536c-1.43291,0.35489 -2.83756,0.8613 -4.30088,1.05591c-0.77815,0.10349 -1.62511,-0.47583 -2.34875,-0.17157c-0.86911,0.36542 -1.1191,1.66399 -2,2c-1.15691,0.44129 -2.48321,0.01302 -3.71036,0.17813c-4.96432,0.66795 -9.19934,1.01216 -14.24634,1.01217c-9.80196,0.00001 -19.227,1 -29,1c-2.17615,0 -4.3523,0 -6.52845,0c0.47051,1.82404 -1.35353,2.73606 -1.35353,2.73606l0.00001,-0.00004l-1.35027,0.5317c-3.23727,3.21175 -7.57151,6.41521 -11.66939,8.47802c-0.9211,0.46367 -2.04233,0.45779 -2.93811,0.96866c-2.5107,1.43186 -4.48027,3.73169 -7.06189,5.03134c-0.8694,0.43768 -1.94773,0.38284 -2.78405,0.88084c-4.25689,2.53482 -6.61669,6.80986 -11.73995,8.3065c-1.14386,0.33415 -2.38292,0.04459 -3.57438,0.06688c0,0 -0.18576,0 -0.456,-0.05064c-0.02763,0.51842 -0.04281,1.03787 -0.044,1.55848c0.00003,7.90812 1.0576,16.57928 -0.03227,24.39262c-0.14562,1.04398 -0.82671,1.96025 -1,3c-0.33333,2 -0.68046,3.99775 -1,6c-0.24812,1.55475 0.60558,3.38422 -0.23165,4.71758c-3.71028,5.9089 -10.34826,4.58062 -16.10584,4.85479c-11.38237,0.54202 -22.73693,0.52718 -34.13023,0.52718c-10.66667,0 -21.33333,0 -32,0c-1.51443,0 -6.98553,0.1518 -7.76777,-0.73223c-1.21683,-1.37517 -0.3863,-3.65546 -0.7135,-5.46231c-0.55601,-3.07041 -1.01619,-6.18511 -1.01873,-9.30546c-0.00209,-2.57054 -0.68793,-5.0954 -0.96782,-7.65066c-0.2885,-2.63387 0.37768,-5.32629 0.0001,-7.94888c-0.61655,-4.2825 -2.43448,-8.56803 -2.97973,-12.9448c-0.06778,-0.54406 -0.05254,-5.71223 -0.05255,-6.45566c0,-1.15175 -0.02512,-2.32066 -0.06144,-3.5c-2.14619,0 -4.29237,0 -6.43856,0c-4.00561,0 -8.68007,-0.70965 -12.59954,-0.03228c-1.0387,0.17951 -1.96025,0.82671 -3,1c-1.86831,0.31139 -3.78625,0.39223 -5.60989,0.90399c-0.66152,0.18564 -1.56599,-0.11716 -2.0228,0.39606c-0.70083,0.78737 -0.25008,2.25924 -1,3c-0.67022,0.66204 -2.11985,-0.01544 -2.73966,0.69401c-0.43597,0.49902 0.51432,1.28027 0.43961,1.93868c-0.11884,1.04737 -0.84707,1.95706 -1,3c-0.33853,2.30865 0.37152,4.69643 0,7c-0.16784,1.04064 -0.84707,1.95706 -1,3c-0.47721,3.25446 0.52591,6.73918 0,10c-0.16784,1.04064 -0.86926,1.95405 -1,3c-0.33333,2.66667 -0.15016,5.45049 -1,8c0.07821,8.72117 1.84328,19.66482 -2.22193,27.69792c-1.52605,3.01557 -3.99966,5.12067 -6.12431,7.66098c-2.4666,2.94916 -4.45956,5.96356 -8.20288,7.56576c-4.12884,1.76722 -10.61531,1.00866 -14.99305,1.18691c-8.30268,0.33806 -16.63525,1.33254 -24.91958,1.99159c-3.26971,0.00222 -6.50899,0.63152 -9.75962,0.98422c-5.29022,0.574 -10.82665,-0.18905 -16.15069,0.10307c-6.09166,0.33423 -11.984,0.9091 -18.09565,0.9091c-3.67126,0 -8.0353,-0.55509 -11.69454,-0.01873c-1.35984,0.19932 -2.6388,0.81018 -4,1c-7.41964,1.03465 -15.78302,0.01873 -23.30546,0.01873c-5.28404,-0.03876 -9.51665,-1.73878 -14.55204,-3.20486c-1.73937,-0.50643 -3.58423,-0.74296 -5.2135,-1.53501c-1.50386,-0.73108 -5.97067,-4.69006 -7.9018,-5.35084c-0.93805,-0.32098 -2.02013,0.27614 -2.97434,0.00696c-3.2539,-0.91792 -9.2299,-4.21757 -10.66803,-7.45954c-0.79835,-1.79973 -0.08174,-4.00389 -0.73744,-5.86035c-1.66276,-4.7077 -3.73408,-9.75995 -4.42869,-14.7496c-0.98943,-7.10747 -0.02416,-15.16248 -0.02416,-22.34675c0,-2.68095 0.4882,-5.96145 0.03228,-8.59954c-0.92963,-5.37917 -2.24601,-10.63016 -3.01355,-16.095c-1.01071,-7.19624 -0.49602,-14.60869 -1.96635,-21.79638c-0.51074,-2.49676 -0.86754,-4.99434 -1.05326,-7.50911h0.42953c0.32182,0.31889 0.73708,0.73138 1.24449,1.2388c1.8431,0.16456 3.69831,0.22619 5.52931,0.49369c0.59881,0.08748 0.79855,0.91066 1.22646,1.33858c1.04466,1.04466 1.99501,2.2214 3.22396,3.04135c1.88098,1.25499 3.96432,2.185 6.02027,3.12637c1.84483,0.84471 3.60141,1.87199 5.43332,2.74436c1.46685,0.69853 3.02748,1.20069 4.59764,1.61805c0.60293,0.16026 1.34055,-0.23097 1.86889,0.1008c1.33748,0.83988 1.92804,2.83841 3.45485,3.24227c1.48658,0.39322 3.03545,0.87954 4.60059,1.303c0.00094,-0.76795 0.10254,-1.55735 0.06599,-2.31731c0,0 0,-2.5 2.5,-2.5c2.5,0 2.5,2.5 2.5,2.5c-0.04959,0.53247 -0.00076,1.05169 0.1251,1.55704c0.68386,0.2164 1.14266,0.6752 1.14266,0.6752l1,1c1.5173,1.52935 2.83729,3.26654 4.13705,5.01653c1.13081,0.66286 2.12518,1.48198 2.5283,3.17686c0.01686,0.07088 0.03035,0.14176 0.04073,0.21263c0.72761,0.90819 1.48299,1.78306 2.29391,2.59398c0.79238,0.79238 1.94941,1.12542 2.81721,1.83441c2.25394,1.84147 4.12473,4.10752 6.18279,6.16559c1.50325,1.51519 2.49077,3.49077 4,5c0.79238,0.79238 1.95941,1.11335 2.81721,1.83441c2.11809,1.78047 3.57699,4.22271 5.34838,6.34838c2.21891,2.6627 5.38765,5.29019 7.19327,8.27064c0.55622,0.91813 0.48757,2.12509 1.0307,3.05102c0.07076,0.12063 0.14471,0.23682 0.22142,0.34903z" fill="#000000" stroke="none" stroke-linecap="butt"/><path d="M162.20137,149.90623l-5,-54l6,57" fill="none" stroke="#000000" stroke-linecap="round"/><path d="M136.20137,241.90623l-71,-7l8,-62l0.0327,0.03138" fill="none" stroke="#000000" stroke-linecap="round"/><path d="M133.46391,230.7257l13.73746,13.18053" fill="none" stroke="#000000" stroke-linecap="round"/><path d="M134.20137,230.90623l-6,14" fill="none" stroke="#000000" stroke-linecap="round"/></g></g></svg>