<svg version="1.1" xmlns="http://www.w3.org/2000/svg" xmlns:xlink="http://www.w3.org/1999/xlink" width="928.78082" height="660.13546" viewBox="0,0,928.78082,660.13546"><g transform="translate(240.51414,151.04322)"><g data-paper-data="{&quot;isPaintingLayer&quot;:true}" fill-rule="nonzero" stroke="none" stroke-width="0.5" stroke-linecap="butt" stroke-linejoin="miter" stroke-miterlimit="10" stroke-dasharray="" stroke-dashoffset="0" style="mix-blend-mode: normal"><path d="" fill="#000000"/><path d="" fill="#000000"/><path d="" fill="#000000"/><path d="" fill="#000000"/><path d="" fill="#000000"/><path d="" fill="#000000"/><path d="" fill="#000000"/><path d="" fill="#000000"/><path d="" fill="#ff0000"/><path d="" fill="#000000"/><path d="M634.8533,384.18287c4.36773,-0.28428 19.71769,-4.95223 25.6039,-1.62127c3.20766,1.81519 6.40948,3.64096 9.59504,5.49466c2.47607,1.44085 2.56812,5.1219 3.82591,7.69579c0.97589,1.99701 3.04411,3.78849 2.89626,6.00627c-0.1107,1.66045 -0.84013,14.49387 -1.1758,14.92545c-2.32377,2.98771 -3.76707,7.04578 -7.07879,8.87848c-6.92672,3.83323 -11.89977,4.59568 -19.27317,7.25346c-7.13306,2.57115 -12.82263,5.89177 -20.79055,4.95049c-2.6522,-0.31331 -5.04968,-1.74072 -7.57481,-2.61024c-0.31086,-0.10704 0.27915,0.61817 0.52788,0.83317c0.72791,0.62923 2.00909,1.94871 2.39335,2.88049c1.52769,3.70449 3.73662,10.05594 2.89406,14.02847c-0.78532,3.70265 -1.65684,7.39584 -2.79508,11.00565c-2.8878,9.15831 -17.55776,13.02625 -25.85454,12.92727c-51.13529,-0.61008 -70.77948,-1.24099 -113.84098,-5.03257c-38.85413,-3.42112 -77.95794,-4.70531 -116.5593,-10.29836c-20.23918,-2.93251 -40.44595,-6.09272 -60.70737,-8.86737c-0.80131,-0.10973 -3.66956,2.0361 -4.23812,2.32038c-4.02596,2.01298 -9.39639,3.28076 -13.89754,3.28076c-48.25677,0 -99.74383,1.05234 -149.3845,-0.21966c-32.37048,-0.82947 -64.32667,-4.96388 -96.73416,-4.54172c-14.37197,0.18722 -28.92069,0.74168 -43.29307,0.89456c-9.94914,0.10583 -15.83902,0.60544 -22.16036,-0.15884c-1.81155,1.03673 -3.76684,1.89826 -5.87156,2.61867c-1.16004,1.24047 -2.39254,2.18798 -3.64939,2.65337c-1.47116,0.54474 -7.9762,1.07497 -8.11469,2.42032l-0.75765,9.09179c-1.46363,7.9169 -2.028,12.43154 -7.38219,19.66264c-0.6047,0.81668 -1.89153,0.78273 -2.72981,1.3571c-1.93124,1.32326 -3.44752,3.2697 -5.54384,4.31188c-2.67041,1.32757 -12.19172,1.17902 -14.93853,0.9959c-1.55734,-0.10382 -3.68481,-2.15813 -5.37454,-1.18398c-1.48768,0.85767 -1.31997,3.24775 -2.47593,4.5176c-3.27103,3.59328 -12.08443,7.70264 -15.64372,8.37191c-2.05155,0.38577 -4.06303,-1.01445 -6.13807,-1.24223c-2.07504,-0.22778 -4.34237,0.70274 -6.26139,-0.11889c-3.32935,-1.42546 -11.04143,-7.34885 -13.45507,-11.56615c-3.99279,-6.9765 -6.6924,-24.18189 -7.65816,-30.30896c-2.623,-16.64107 -3.95395,-33.6458 -3.52789,-50.44994c0.49387,-19.47876 4.84133,-39.19148 1.74547,-58.42899c-2.10125,-13.05704 -3.85039,-26.17701 -6.35084,-39.16352c-0.18352,-0.95314 -1.72593,-0.88955 -2.57265,-1.36413c-3.84402,-2.15452 -8.46754,-4.82448 -11.06487,-8.56544c-0.69137,-0.99579 -0.70451,-2.32194 -1.13561,-3.45496c-2.37455,-6.24078 -5.67613,-12.35442 -7.23318,-18.91767c-5.3903,-22.72109 -11.68794,-47.46183 -12.28218,-70.29001c-0.57875,-22.23305 -1.54741,-44.46288 -1.56257,-66.70346c-0.01015,-14.88036 -1.01218,-29.80003 0.06933,-44.64104c1.26607,-17.37373 2.57789,-34.7441 3.88914,-52.11448c0.93406,-12.37368 0.69691,-19.94138 11.25538,-29.34502c2.29628,-2.04512 5.91267,-1.70038 8.90538,-2.40686c0.93269,-0.22018 7.0678,-2.02863 9.0416,-1.82985c0.92955,0.09361 1.65541,1.14633 2.58716,1.07798c0.04241,-0.00311 0.07279,-1.34077 0.1033,-1.74557c1.98579,-26.34564 3.95446,-52.6926 5.96452,-79.03641c-22.02377,-0.05968 -44.04795,-0.01153 -66.0709,0.15483c-3.47453,0.02625 -6.80698,1.57453 -10.27768,1.7398c-11.03525,0.52549 -24.54034,-4.61046 -29.84746,-14.2787c-0.49286,-0.89787 -1.61925,-1.4367 -1.88648,-2.42548c-0.52697,-1.94978 -0.10811,-4.04771 -0.40305,-6.0458c-0.20118,-1.36289 -0.98669,-2.61522 -1.07833,-3.98983c-0.20584,-3.08757 1.33022,-5.82554 2.32534,-8.60377c0.68107,-1.90144 0.68179,-4.04078 1.58091,-5.84935c0.45596,-0.91716 1.66614,-1.22463 2.32552,-2.00841c8.27339,-9.83426 15.82864,-6.95367 27.42099,-8.53847c0.38713,-0.05293 -0.1038,-0.77503 -0.179,-1.15845c-0.50617,-2.58057 -1.96481,-5.13331 -1.5649,-7.73247c1.39028,-9.036 7.57083,-15.75186 15.3226,-19.62774c26.13745,-13.06872 97.28657,-10.56288 108.32762,-11.06263c0.6684,-0.03025 1.33849,-0.03492 2.0072,-0.01269c55.38513,1.84141 110.76452,3.85611 166.15206,5.62361c64.42321,2.05584 129.69053,-5.93067 194.19508,-0.95576c16.34743,1.2608 32.9087,0.83458 49.04579,3.73671c3.72525,0.66996 7.31586,2.14505 10.65257,3.93185c2.61075,1.39805 5.30673,8.52354 7.59188,8.75723c11.36295,1.16204 22.87751,1.94543 34.25629,2.94059c64.96014,5.68127 130.8208,11.87982 195.78966,17.46046c14.69505,1.26226 39.45762,1.4604 52.31657,1.7999c13.02628,0.34391 28.65709,-1.30803 41.76971,3.29288c1.7185,0.60298 3.53148,2.60989 4.75573,3.61487c6.73012,5.52473 6.87229,8.18032 9.08445,17.4378c0.54132,2.26532 -2.57556,7.15797 -1.66969,8.17197c0.60875,0.68142 4.16851,3.29973 4.61413,4.94855c0.63508,2.3498 0.72264,4.81727 1.22831,7.19827c0.29195,1.37468 1.85848,5.45691 1.29005,7.5601c-0.46756,1.72996 -1.35159,3.32377 -1.8884,5.03351c-0.53481,1.70338 -1.21498,7.12254 -3.37055,8.98417c-2.21574,1.91359 -6.24814,5.61577 -9.2587,6.57368c-11.54406,3.67311 -28.23781,2.74162 -42.97238,1.02242c3.08057,5.29009 5.29413,11.06109 6.38605,17.66632c0.79933,4.8353 -0.34916,11.71606 -3.75502,15.01268c-2.76359,2.67494 -6.94037,4.10654 -8.78354,7.48226c-2.30911,4.22909 -1.76977,8.31778 -5.54697,12.12327c-1.24663,1.25597 -2.79868,2.17458 -4.28975,3.12759c-0.6153,0.39327 -2.0898,0.09456 -2.03051,0.82239c1.5666,19.23274 7.115,38.21395 6.65932,57.505c-1.23914,52.45825 -0.72706,105.69006 -4.00659,158.06036c-2.45047,39.13124 -7.16935,78.37502 -11.75274,117.26058c-1.06929,9.07185 -1.51075,20.07351 -3.88298,29.87525c12.98107,-0.07549 26.73416,-0.30511 35.20258,-0.85629zM460.68687,220.93307c3.9281,-26.23139 8.22677,-52.36532 11.57658,-78.68467c0.88311,-6.93858 0.74931,-16.2378 2.53284,-23.37192c0.8133,-3.25319 2.33439,-6.28739 3.46805,-9.44326c3.29352,-9.16849 4.02032,-19.10114 5.02189,-28.79162c0.78472,-7.59241 0.27559,-15.39756 0.4608,-23.02817c0.37684,-15.52516 14.03397,-37.92581 1.13598,-46.57535c-30.47116,-20.43431 -79.49022,-6.91762 -114.71805,-4.86124c-23.56133,1.37536 -47.13869,5.28988 -70.69796,3.87955c-44.14751,-2.64281 -88.07227,-8.24157 -132.03301,-13.08312c-2.6264,-0.28925 -4.68305,5.18235 -6.48641,6.7398c-1.92707,1.66429 -9.23945,3.55029 -10.65257,3.93185c-7.86369,2.12329 -35.64348,-1.76109 -40.8202,-2.33743c-1.27619,-0.14208 -2.54449,-0.3775 -3.78985,-0.69043c-19.67944,-4.94494 -38.77855,-10.84359 -58.9629,-13.73834c-18.81086,-2.69777 -37.63775,-5.29256 -56.49302,-7.66007c-3.58685,-0.45037 -7.54495,-2.33018 -10.81612,-0.79142c-1.66625,0.78381 2.79159,2.53167 3.61073,4.18084c1.33725,2.69228 1.9349,5.69592 2.73438,8.59375c1.72353,6.24727 2.99852,21.60437 3.29195,24.00761c1.47283,12.06276 5.98007,24.12854 8.79749,36.06149c0.24355,1.03152 0.4564,2.08558 0.64199,3.15809c3.61014,2.50007 6.49383,5.95796 9.01544,9.74149c4.796,7.19611 4.79815,21.55346 5.01666,28.98923c0.00721,0.24528 0.07261,0.48712 0.07325,0.73251c0.0029,1.10734 0.05864,3.72334 0.1104,7.05655c4.11845,-0.40132 8.27466,-0.03258 12.42532,1.10797c2.39899,0.65921 10.65382,6.06143 13.73633,8.63416c1.8352,1.5317 3.6721,3.06335 5.4448,4.66697c0.76531,0.69232 1.14493,2.01481 2.15592,2.22193c2.80838,0.57535 7.16611,-1.48444 9.95865,-0.79269c5.32084,1.31803 9.62186,3.83203 13.55999,7.13157c13.14261,-3.86344 28.63155,-4.55205 38.20582,4.37778c0.83372,0.02482 1.66762,0.0456 2.50168,0.06271c0.9754,-0.37973 2.00134,-0.82222 2.18058,-0.89742c4.60675,-1.93265 8.92144,-4.44417 13.93463,-5.2866c8.95925,-1.50553 26.23813,-0.3245 30.67403,-0.39063c2.06937,-0.03085 4.35679,-0.93359 6.52072,-0.93359c2.93933,0 10.4792,-0.51535 12.54831,-1.52948c2.11431,-1.03628 3.44594,-3.31422 4.9344,-4.99333c0.97101,-1.09538 2.39576,-1.76236 3.25592,-2.94678c1.59855,-2.20116 0.21194,-5.43663 0.31134,-8.15519c0.18638,-5.09702 -0.01254,-12.07824 1.47103,-16.74089c4.48054,-14.08169 18.25445,-22.17761 31.84914,-25.66367c15.73269,-4.03431 33.74046,-2.27919 47.19452,6.60583c2.08995,-0.04144 4.17961,-0.07338 6.26449,0.05276c1.4647,0.08862 3.38466,-0.52474 4.36552,0.56664c0.37268,0.41467 1.02185,2.78757 1.56643,5.11199l1.28385,-0.20139l1.77027,-0.56327l3.90625,-0.39062l0.40454,0l0.993,-0.15576l0.61332,0.15576h4.21176l2.05208,0.20521l2.05789,0.13494l3.85932,0.64322l6.96355,0.69636l2.75326,0.55621l0.27198,0.01974l0.40727,0.11748l0.41549,0.08394l0.25034,0.10813l2.69884,0.77851l0.11666,0.04666l0.93117,0.06106l4.66697,0.77783l3.219,0.87295l0.18282,0.02868l0.19041,0.07254l0.19666,0.05333l0.16472,0.08434l2.7263,1.03859l1.09838,0.18306l1.88779,0.51194l1.90793,0.43082l11.22413,3.74138l0.33299,0.0333l0.08302,0.02641l0.08711,0.00119l1.5925,0.3596h1.33158l1.93443,0.19344l0.2446,-0.01545l0.86118,0.12603l0.86604,0.0866l0.23355,0.07431l1.92359,0.2815l2.53417,0.63354l3.30579,0.66116l0.57032,0.17459l0.59016,0.08637l3.11131,0.77783l1.32669,0.47625l0.12171,0.01909l1.11922,0.42637l1.12726,0.40466l0.10483,0.06471l1.31724,0.50181l4.66697,2.33348l3.31916,2.09631l0.06244,0.06075l0.00904,0.00467l1.113,0.371l2.21895,0.9947l0.27599,0.07935l0.53477,0.28409l0.55257,0.2477l0.23207,0.16914l2.12464,1.12872l2.31026,1.03563l0.35771,0.2607l2.12975,0.8874l2.22366,2.28543l2.57694,1.87811l1.17967,1.98285l0.30867,0.31725l2.09631,3.31916l0.65637,1.31274l0.41361,0.47891l0.28237,0.88746l0.86874,1.46022l-0.0361,0.62398l0.76821,2.01655l0.28789,1.83527l0.56327,1.77027l0.39063,3.90625l0,0.40454l0.15576,0.993l-0.15576,0.61332v7.54929l0.18885,1.08754l-0.41988,1.77434l-0.1596,1.59598l-0.85096,2.67445l-0.6463,2.73114l-0.68427,1.45065l-0.55284,1.73751l-0.72148,0.8354l-1.22183,2.03638l-0.08414,0.42072l-0.45503,1.48644l-0.3424,1.51635l-0.77783,2.33348l-0.72524,1.61784l-0.63116,1.65681l-2.33348,4.66697l-0.83011,1.31434l-0.72932,1.37283l-1.54987,2.32481l-0.14868,0.33167l-0.63116,1.65681l-0.77783,1.55566l-0.68451,1.08381l-0.71303,1.71128l-3.54172,3.446l-3.43226,3.5276c-0.67311,1.64317 -1.64856,3.57178 -3.00718,5.94936c-5.3337,9.33398 -17.286,10.70264 -26.69666,10.70264c-7.48344,0 -18.02709,-3.83831 -22.96871,-10.26753h-0.98585l-3.90625,-0.39062l-0.08302,-0.02641l-0.08711,-0.00119l-1.5925,-0.3596l-0.09855,0l-0.61332,0.15576l-0.993,-0.15576h-0.40454l-3.90625,-0.39062l-1.77027,-0.56327l-1.83527,-0.28789l-2.06989,-0.78853l-0.1348,0.02728l-2.39944,-0.99977l-0.38408,-0.12221l-0.06289,-0.05431l-3.41801,-1.22698l-1.03137,-0.63665l-3.18579,-1.32741l-1.55696,-1.60021l-1.89986,-1.17275l-0.84319,-1.19758l-0.60026,-0.447l-1.40864,-0.91301l-1.821,-1.4568l-0.74241,-0.37121l-1.89833,-1.19895l-1.92133,-1.16173l-1.86616,-1.39962l-3.49094,-1.99482l-0.10655,-0.05327l-2.51759,-0.35966l-2.18005,-0.53711l-2.19011,-0.49454l-3.75612,-1.25204l-5.29117,-1.32279l-0.90469,-0.32476l-0.93761,-0.21172l-3.75612,-1.25204l-2.17986,-0.54496l-1.59407,-0.57223l-1.62731,-0.46942l-3.26727,-1.30691l-1.87309,-0.26758l-2.18005,-0.53711l-0.13139,-0.02967l-3.50407,-0.35041l-1.77027,-0.56327l-1.83527,-0.28789l-3.66855,-1.39754l-0.36183,-0.18092l-0.95783,-0.30476l-0.47891,-0.41361l-1.31274,-0.65637l-3.31916,-2.09631l-3.12452,-3.04007c-8.68109,7.25618 -17.22322,16.29322 -28.53432,19.75701c-5.97987,1.83121 -13.22161,2.89296 -20.74118,3.50801c-6.62805,2.15391 -14.75135,2.31659 -21.13566,3.37036c-3.27508,0.54057 -6.44072,1.64241 -9.71536,2.18565c-4.0176,0.66649 -8.27333,0.3231 -12.33107,0.96399c-2.3825,0.37629 -4.67122,1.26794 -7.06496,1.56445c-0.82765,0.10252 -1.66092,0.11241 -2.49642,0.08612c-2.82362,1.01524 -5.69796,1.87714 -8.68152,2.39565c-2.55345,0.44376 -5.16664,0.95583 -7.79785,1.46655c0.41841,15.52009 -6.84604,33.38536 -12.98802,44.89151c-3.23837,6.06664 -6.32305,12.25265 -8.70811,18.70267c-1.19745,3.23831 -2.8091,9.00239 -5.09175,14.54456c1.10749,1.17224 2.24237,2.32746 3.41962,3.45561c9.89344,9.48084 21.7698,17.9779 31.06348,28.05991c5.86738,6.36508 11.70093,12.76136 17.58407,19.11186c1.67874,1.8121 3.57102,5.06345 5.10312,5.98513c1.84895,1.11229 4.21757,0.91619 6.33714,1.32024c14.8865,2.83776 32.20959,4.60998 46.85623,7.98945c2.93614,0.67747 20.18478,5.98582 25.76962,6.88345c16.74609,2.69155 33.26092,4.34549 49.91699,7.61869c3.94604,0.77546 8.55055,2.57088 11.58302,5.11021c1.26671,1.06071 2.0893,2.98887 3.28417,4.08575c2.21134,0.35451 4.42287,0.70883 6.6347,1.0615c16.73359,0.63009 33.5184,-0.8239 50.2678,-1.31667c35.30873,-1.03878 70.4556,-5.02166 105.76994,-4.67707c5.55951,0.05425 10.85417,2.9937 16.09233,3.56143c4.60117,0.49869 11.34494,0.28375 15.79862,0.32771c0.3211,0.00317 0.89337,0.41028 0.95857,0.09586c2.10943,-10.17287 -0.375,-20.99162 0.61166,-31.25359c0.8029,-8.35082 1.64451,-16.69788 2.4933,-25.04419c-4.45089,-0.32061 -8.9417,-0.46495 -13.42647,-0.66296c-2.42157,0.0235 -4.83188,-0.01983 -7.19596,-0.22785c-0.95163,-0.08373 -1.89485,-0.22865 -2.83419,-0.40243c-0.31627,-0.02891 -0.63233,-0.05897 -0.94817,-0.09024c-11.81608,-1.17002 -13.20141,-0.30045 -32.55105,-0.53271c-20.9312,-0.25124 -41.93517,-3.80966 -62.83305,-5.4448c-5.67933,-0.44437 -11.58246,1.51655 -17.28325,1.55566c-20.00093,0.13721 -40.69419,-0.33405 -60.47576,-3.51456c-10.53321,-1.69355 -19.76039,-5.56827 -29.9725,-7.93705c-10.60432,-2.45976 -22.46261,-2.97651 -33.23716,-2.54929c-1.98614,0.50784 -4.06748,0.77783 -6.21187,0.77783c-1.82486,0 -3.60406,-0.19552 -5.31778,-0.56676c-11.2525,-2.43759 -19.68222,-12.45098 -19.68222,-24.43324c0,-0.63182 0.02344,-1.25816 0.06949,-1.87821c-0.01485,-1.74704 -0.15603,-3.51029 0.34874,-5.1628c2.29246,-7.50498 7.03599,-12.2342 13.01348,-15.12722c1.78565,-0.93374 3.69812,-1.65805 5.70481,-2.14034c11.74646,-3.32642 26.23146,-1.74871 36.62608,-0.53852c6.72554,0.78302 15.11045,1.06771 21.72927,3.15309c7.80851,2.46022 15.45837,5.70672 23.65605,6.80577c17.08006,2.28988 34.93689,3.59079 52.19293,3.11131c6.83428,-0.1899 13.31006,-1.68094 20.22432,-1.55566c13.38056,0.24245 26.56897,3.10185 39.89027,3.88914c0.01491,0.00088 0.02982,0.00176 0.04473,0.00264c20.40758,-0.598 40.94874,0.02517 61.37702,0.1273c0.76674,-9.65112 2.44327,-18.89548 3.08955,-23.21127zM136.42571,175.78454c-0.33426,0.00095 -0.69252,0.06838 -1.06597,0.18189c0.83597,-0.042 1.66796,-0.09786 2.49213,-0.18449c-0.48361,0.00046 -0.95917,0.00128 -1.42616,0.0026zM273.02838,75.91354c-0.17469,-0.38591 -0.71164,0.45527 -1.14296,0.55787c0.56138,0.54003 1.10975,1.09685 1.64438,1.67061c-0.05357,-0.77324 -0.1832,-1.52552 -0.50142,-2.22849z" fill="#ff0000"/></g></g></svg>