<svg version="1.1" xmlns="http://www.w3.org/2000/svg" xmlns:xlink="http://www.w3.org/1999/xlink" width="869.64691" height="767.89127" viewBox="0,0,869.64691,767.89127"><g transform="translate(253.14691,182.17525)"><g data-paper-data="{&quot;isPaintingLayer&quot;:true}" fill-rule="nonzero" stroke="none" stroke-linecap="butt" stroke-linejoin="miter" stroke-miterlimit="10" stroke-dasharray="" stroke-dashoffset="0" style="mix-blend-mode: normal"><path d="" fill="#000000" stroke-width="0.5"/><path d="" fill="#000000" stroke-width="0.5"/><path d="" fill="#000000" stroke-width="0.5"/><path d="" fill="#000000" stroke-width="0.5"/><path d="" fill="#000000" stroke-width="0.5"/><path d="" fill="#000000" stroke-width="0.5"/><path d="" fill="#000000" stroke-width="0.5"/><path d="" fill="#000000" stroke-width="0.5"/><path d="" fill="#ff0000" stroke-width="0.5"/><path d="" fill="#000000" stroke-width="0.5"/><path d="" fill="#a500ff" stroke-width="0.5"/><path d="M470.9934,514.57463v-583.0236h145.44512v583.0236z" fill="#000000" stroke-width="0"/><path d="M598.50539,-56.42066c-3.85396,10.67364 -7.82895,21.28856 -12.05851,31.83654l-0.47037,0.32238l0.25662,0.12831l-1.88374,3.76748c-1.92413,4.05895 -6.05895,6.86596 -10.84939,6.86596c-6.62742,0 -12,-5.37258 -12,-12v-4l0.45432,0c-0.14312,-0.59213 -0.25072,-1.195 -0.31697,-1.81037c-0.65369,-6.07166 3.65009,-11.65652 5.33579,-17.526c0.61987,-2.15833 1.15977,-4.33964 1.70014,-6.52059c-1.57091,0.90362 -3.17218,1.76416 -4.63475,2.82748c-0.83518,0.60719 -1.33808,1.62601 -2.2242,2.15611c-2.57439,1.54007 -5.42214,2.506 -8.2542,3.50818c-4.84257,2.75006 -9.67888,5.3825 -14.33141,7.90947c-5.83426,3.16881 -24.10165,11.4904 -30.69801,16.18039c-7.05011,5.01261 -13.50019,11.49421 -18.16298,18.68669c-2.37695,3.66651 -4.2771,7.71541 -6.48346,11.51429c2.12682,4.34602 3.46741,8.97937 4.2699,12.21421c2.45673,9.90305 2.65334,20.83513 2.47556,31.16654c0.54053,2.36561 1.07746,4.74347 1.59592,7.1423c2.2852,10.57327 3.92841,21.27775 5.9402,31.90639c3.37397,4.74926 6.6107,9.59903 9.95967,14.36634c7.87306,11.20744 11.57309,15.8356 16.82142,31.67752c4.4168,13.33197 3.5053,22.77731 3.46315,36.06724l-0.84757,1.29943l0.57919,0.1448l-1.93912,7.75647c-1.2127,5.34385 -5.99178,9.3331 -11.70259,9.3331c-4.32843,0 -8.12161,-2.29169 -10.23239,-5.72792l-6.89155,-10.82958l0.13934,-0.08867c-0.26283,-0.33675 -0.51926,-0.67925 -0.76878,-1.02796c-2.82556,-3.94874 -6.39647,-15.7607 -9.2629,-26.3916c0.3801,3.11156 0.72671,6.22655 0.99489,9.34958c0.0975,1.13547 0.12884,2.27389 0.12857,3.41369c1.38802,14.6738 2.5505,29.37854 2.89122,44.1063c0.60252,26.04461 -1.19355,52.76703 -4.08752,78.65596c-0.07808,0.69851 -0.1599,1.3965 -0.24515,2.09403c-0.01503,2.10181 -0.20073,4.1874 -0.66739,6.24625c-0.01512,0.06671 -0.03045,0.13335 -0.04599,0.19992h0.04766l0,13c0,3.53278 -1.52661,6.709 -3.95613,8.90496c-0.10991,0.62376 -0.21923,1.2476 -0.32773,1.87155c6.75716,-0.69342 13.64386,-0.27788 20.44255,-0.27491c11.72975,0.00513 23.41626,0.02652 35.12727,0.71217c6.66088,0.38998 13.36927,-0.13521 20.01254,0.30935c7.83685,0.52444 15.33949,2.05431 22.74865,4.52403c5.80404,1.94998 10.89446,4.809 16.10931,8.0542c2.23362,1.38998 7.00078,4.31226 8.15323,6.94194c0.66369,1.51441 0.1587,3.30356 0.1903,4.95671c0.08641,4.5213 0.16817,9.00563 -0.48185,13.48168c-2.62623,18.08419 -7.4889,35.2626 -12.81749,52.71372c-5.41533,12.35425 -9.56325,25.09187 -16.00916,37.00766c-9.9392,18.37342 -21.89758,35.44185 -34.21866,52.24332c-7.20114,9.81748 -15.21363,18.835 -23.39625,27.8359c-5.33437,5.86782 -10.77391,11.77932 -17.04298,16.69207c-9.92108,7.77466 -21.75947,13.13547 -33.47738,17.5652c-32.58193,12.30569 -66.60966,17.50659 -100.97124,22.27141c-8.25766,1.2234 -16.52252,2.70076 -24.81288,3.67418c-25.93312,3.04497 -52.48547,3.15605 -78.52677,2.19667c-9.99472,-0.36905 -20.0172,0.20473 -30.00494,-0.19657c-24.97768,-1.00361 -49.89197,-3.97303 -74.47405,-8.28183c-33.62055,-6.70109 -67.3981,-12.33419 -100.86658,-19.77654c-22.67413,-6.17783 -45.77801,-12.82593 -67.40868,-22.1395c-8.10945,-3.49171 -15.89558,-7.62005 -24.06843,-11.03142c-9.61465,-5.19566 -19.43594,-9.94671 -29.09448,-15.0476c-5.63639,-2.9767 -11.08448,-6.23105 -16.86994,-8.93575c-3.98946,-1.86507 -8.19995,-3.25766 -12.19992,-5.10074c-10.62761,-4.89691 -20.94374,-10.70006 -31.11408,-16.47226c-11.63344,-6.60295 -24.12132,-11.94222 -35.09416,-19.66301c-3.88021,-2.73022 -7.34583,-6.14088 -11.08415,-9.06261c-3.69222,-2.8857 -7.99416,-5.29318 -11.443,-8.45806c-8.58291,-7.87625 -15.24972,-18.31648 -22.22694,-27.56743c-10.24747,-13.20846 -20.37969,-27.25781 -26.15979,-43.1346c-1.3632,-3.74445 -1.89626,-7.72604 -3.30858,-11.48741c-2.93932,-7.8282 -6.26451,-15.65038 -8.73193,-23.64144c-1.22962,-3.98226 -1.75399,-8.34792 -2.60694,-12.42422c-5.64713,-22.57951 -5.85483,-45.18617 -6.4944,-68.31192c-0.32095,-11.60498 -1.40909,-23.18489 -2.50904,-34.7344c-1.51927,-16.04587 0.12698,-32.20578 0.51528,-48.26881c0.41804,-17.29278 -0.00059,-34.64681 -0.00059,-51.94569c0,-15.66667 0,-31.33333 0,-47c0,-17.60384 0.10317,-35.13683 3.16911,-52.51055c1.35254,-7.65903 2.60019,-15.83476 4.94862,-23.2476c1.4902,-4.70384 3.91434,-9.3506 5.8265,-13.90134c8.13085,-19.35058 19.79488,-36.63914 32.71919,-53.03668c7.98125,-7.40799 15.75002,-15.70686 24.38688,-22.34059c2.06921,-1.5893 4.57221,-2.51497 6.86309,-3.76372c16.44334,-8.96322 35.26485,-11.19365 53.51388,-14.20798c9.89242,-1.634 19.82272,-3.28795 29.78113,-4.47448c8.03452,-0.9573 16.1904,-1.11081 24.20305,-2.22875c4.91709,-0.68604 9.77707,-1.92864 14.67338,-2.7536c4.86854,-0.82028 9.86816,-1.19403 14.7022,-2.19345c6.53101,-1.35026 12.86374,-3.51932 19.41687,-4.83156c17.89401,-3.5788 36.09283,-5.49904 54.1437,-8.16761c16.49223,-2.43814 32.76689,-5.80199 49.19869,-8.56908c33.88627,-5.70639 67.91501,-10.84985 101.66152,-17.33956c17.65668,-3.39551 35.16697,-7.60085 52.83957,-10.89214c15.97378,-2.97491 32.19761,-4.66464 48.36653,-6.1352c9.9712,-0.90688 19.93479,-2.14591 29.917,-2.90039c23.95553,-1.81061 48.19788,-1.02475 72.19931,-0.93298c33.75526,0.13268 67.42717,5.84445 100.51614,12.04863c7.86249,1.47435 15.90609,2.39039 23.70787,4.1357c4.87805,1.09125 9.59387,2.90024 14.46579,4.0173c0.75447,0.17299 9.4844,1.67355 10.01649,1.83657c0.45435,0.13921 8.58899,3.83206 9.1675,4.05822c2.02342,0.79102 7.23588,2.26305 9.06596,3.02667c10.73521,4.47935 21.68402,12.36721 27.78246,22.29771c1.89387,4.04612 3.76525,8.25436 5.23232,12.56816c0.78726,-1.02496 1.61779,-2.01312 2.5132,-2.94193l1.41421,-2.12132c2.13665,-3.30841 5.85649,-5.49846 10.08784,-5.49846c6.62742,0 12,5.37258 12,12c0,0.95119 -0.11067,1.87654 -0.31984,2.76386l-2.94653,13.75049l-0.12048,-0.02582c0.00077,0.17862 0.00059,0.3573 -0.00058,0.53605c-0.01409,2.1579 -7.13387,22.16394 -9.5246,28.82447c-0.03613,0.299 -0.07302,0.59789 -0.11117,0.8966l0.02319,3.25435c0,0 0,6.68952 -4.99461,10.07934zM295.99517,348.65534c-0.04527,0.72711 -0.08248,1.45584 -0.1127,2.18593c1.15805,-0.29872 2.30786,-0.62782 3.45137,-0.98039c-1.1524,-0.47571 -2.25935,-1.0445 -3.30298,-1.73952c-0.0127,0.17795 -0.02461,0.35594 -0.0357,0.53398zM60.5,-45h-1c-6.99232,0 -14.26909,0.56967 -21.24024,-0.01157c-7.49164,-0.62464 -15.40633,-3.6041 -22.15174,-6.89478l-0.56717,0.85028c-2.61019,3.43204 -4.86113,7.57718 -5.5744,11.96426c-0.444,2.73087 -0.38334,5.54832 -1.0502,8.23348c-0.48845,1.96676 -1.62551,3.75819 -1.94853,5.75879c-0.52253,3.23623 -0.42549,6.74282 -0.99555,9.97151c-0.82536,4.67471 -2.44074,9.34555 -3.33304,14.05116c-4.22122,11.91926 -7.33045,24.06269 -10.72243,36.21683c-1.94064,6.95369 -2.63674,14.3889 -5.07199,21.22741c-2.32377,6.52547 -6.68474,11.99479 -8.628,18.65563c0.17352,-0.023 0.28328,-0.023 0.28328,-0.023c4.80379,0.00358 9.3707,0.76827 14.13825,1.00383c3.31519,0.1638 6.64091,-0.12936 9.95769,-0.00198c7.40667,0.28445 14.74557,1.38668 22.12013,2.00751c12.75592,1.07386 25.45334,1.78755 38.1161,3.812c24.5028,3.92045 49.13133,6.93914 73.72755,10.22836c4.67945,0.62578 10.52884,0.46199 15.02301,1.83392c2.21359,0.67574 5.7007,0.66251 6.31094,2.89505c0.47275,1.72952 -6.07658,8.61311 -7.36281,10.05176c-8.17965,5.92154 -16.24826,12.11366 -24.63226,17.74148c-16.37029,10.98869 -33.73932,20.38334 -50.68691,30.42739c2.39556,-0.00023 6.45248,0.00209 6.59375,0.01942c1.36415,0.16732 2.63667,0.82614 4,1c0.99169,0.12647 5.99418,-0.16936 7.095,0.01355c0.52316,0.08693 5.56807,1.85883 6.29851,2.06742c5.45203,1.55691 12.69753,2.24207 17.61536,5.27367c2.60118,1.6035 2.81394,3.28319 4.61903,5.54165c3.30711,4.13773 5.26826,8.88917 8.22892,13.33016c1.24253,2.48506 3.02853,4.69013 4.12401,7.24343c0.51032,1.18942 0.31592,2.61926 0.88921,3.77964c0.37831,0.76572 1.3815,1.05758 1.85261,1.76997c3.07762,4.65389 4.59511,10.42576 6.3436,15.67121c0.14621,0.43864 2.06082,6.15227 2.09601,6.39011c0.20266,1.36981 -0.13099,2.77766 0.02011,4.15411c0.36391,3.31488 1.48181,6.52106 1.80568,9.8401c1.16664,11.95599 2.10957,24.14097 2.1842,36.14917c1.95457,13.56012 0.5362,27.43097 2.00356,40.95162c0.29657,2.73269 1.65314,5.27324 2,8c0.16825,1.32268 -0.1634,2.67672 0,4c1.11638,9.04105 4.00947,17.95469 5,27c0.47248,4.31455 0.01873,8.95426 0.01873,13.30546c-0.00784,2.57126 0.52688,5.11553 0.80837,7.67135c0.73357,6.66052 0.24481,13.58001 0.19552,20.29937c2.13006,-0.10854 4.27026,-0.13572 6.35337,-0.56318c1.57349,-0.32289 2.93211,-1.33203 4.46445,-1.81376c4.01206,-1.2613 8.4809,-1.04482 12.53057,-2.20928c5.97867,-1.71912 11.65721,-3.35504 17.8648,-4.35291c7.57192,-1.21593 15.158,-2.52737 22.58138,-4.43114c4.03835,-1.03566 7.94035,-3.566 11.88493,-4.96332c8.793,-3.11481 17.74742,-5.84698 26.5564,-8.97196c9.76461,-3.46399 19.8052,-5.7416 29.60126,-9.22797c0.03639,-1.20098 0.08946,-2.39888 0.16377,-3.59254c0.37271,-5.98661 1.69243,-11.91678 1.99334,-17.92018c0.29778,-5.94102 0.00182,-11.97435 0.00183,-17.92448c0.00001,-6.91058 0.30261,-13.76744 -0.68439,-20.61347c-1.49017,-11.58265 -1.60356,-23.25761 -3.09412,-34.85429c-0.96001,-7.469 -2.93284,-14.70636 -4.18481,-22.10555c-0.44421,-2.62531 -0.40306,-5.32877 -0.98619,-7.92676c-1.05877,-4.71714 -2.99886,-9.24706 -3.99552,-13.97853c-1.27013,-6.02971 -2.42749,-11.48259 -4.73312,-17.2353c-2.75186,-6.87965 -4.66991,-14.62943 -8.0701,-21.19275c-2.23236,-4.30907 -5.08333,-8.34503 -7.84551,-12.31681c-2.95203,-4.24478 -5.46202,-8.49469 -9.49122,-11.84318c-5.33237,-4.43149 -11.9885,-7.89042 -18.37174,-10.62366c-0.47889,-0.20506 -8.33273,-4.13127 -8.388,-4.44233c-0.41205,-2.31887 1.86759,-4.32434 2.80139,-6.48651c6.54922,-9.93166 14.17329,-19.70762 19.29185,-30.46753c3.40266,-7.15285 5.58456,-14.80921 8.98353,-21.9652c4.31406,-9.08256 8.75384,-18.66978 8.76758,-28.85591c0.0006,-5.06007 0.73025,-10.75411 0.02453,-15.74547c-0.22195,-1.56978 -0.95382,-3.02642 -1.32781,-4.56707c-1.62759,-6.70489 -2.69863,-13.43759 -4.59666,-20.08072c-1.75696,-6.14938 -2.98676,-12.83581 -5.84197,-18.59344c-3.37712,-6.81007 -6.84988,-13.6627 -10.22203,-20.49897c-9.62395,-0.57225 -19.251,-1.21921 -28.9093,-1.47388c-12.37185,-2.04694 -24.78008,-2.06141 -37.2841,-2.79161c-6.66728,-0.38935 -13.32392,-1.43863 -19.97601,-2.04137c-14.91758,-1.35168 -29.87651,-2.30166 -44.81993,-3.31179c-16.02089,-1.08296 -31.96207,-2.36243 -47.85543,-4.08336c-0.7303,0.59545 -1.69091,0.59545 -1.69091,0.59545z" fill="#000000" stroke-width="0.5"/></g></g></svg>