<svg version="1.1" xmlns="http://www.w3.org/2000/svg" xmlns:xlink="http://www.w3.org/1999/xlink" width="633.06529" height="442.35268" viewBox="0,0,633.06529,442.35268"><g transform="translate(91.82634,43.167)"><g data-paper-data="{&quot;isPaintingLayer&quot;:true}" fill="#000000" fill-rule="nonzero" stroke="none" stroke-width="0.5" stroke-linecap="butt" stroke-linejoin="miter" stroke-miterlimit="10" stroke-dasharray="" stroke-dashoffset="0" style="mix-blend-mode: normal"><path d="M98.81246,376.8923c-4.27752,2.13115 -8.02878,3.69787 -12.8621,4.2508c-3.00806,0.34412 -6.06715,-0.10699 -9.08126,0.17933c-4.77692,0.45377 -8.2975,3.00555 -12.9139,3.74521c-2.01664,0.32311 -8.47917,-0.36282 -10.59787,-0.54975c-6.61941,-0.58404 -13.25028,-0.95582 -19.88224,-1.3702c-9.97963,-0.58256 -20.29623,-0.52314 -30.18806,-2.02486c-6.08741,-0.92416 -12.0318,-3.16908 -18.09806,-4.30127c-3.2504,-0.60664 -6.61513,-0.27867 -9.89501,-0.6976c-2.48525,-0.31743 -4.82313,-1.36441 -7.26094,-1.9426c-1.89379,-0.44916 -3.9339,-0.52119 -5.66689,-1.40718c-1.04111,-0.53226 -1.55032,-1.75174 -2.28741,-2.65944c-5.56993,-6.85919 -7.03409,-15.49967 -9.78277,-23.754c-3.21467,-12.30955 -6.62129,-24.86464 -10.94773,-36.84112c-1.21259,-3.35671 -2.39609,-4.80791 -3.59691,-8.36166c-5.7689,-17.07271 -7.8126,-35.4807 -10.66675,-53.18637c-0.51731,-3.20915 -0.70628,-6.4875 -1.53974,-9.62941c-1.92418,-7.25369 -6.19749,-13.84509 -8.25758,-21.01094c-0.05831,-0.20282 -1.397,-9.62636 -1.41087,-9.72347c-0.94281,-6.59966 -1.88562,-13.19933 -2.82843,-19.79899c-0.91013,-6.37088 -3.13336,-13.87942 -2.84943,-20.29605c0.07101,-1.60484 0.77581,-3.11778 1.17593,-4.67356c1.24531,-4.84214 2.53964,-9.67243 3.80935,-14.50823c2.1163,-8.06013 4.23261,-16.12026 6.34891,-24.18039c1.21739,-4.63654 3.02996,-9.51661 3.75628,-14.25234c0.97634,-6.36591 0.61889,-13.27886 0.9256,-19.71731c0.22528,-4.72907 1.07371,-9.95856 0.71799,-14.67608c-0.24295,-3.22207 -1.29046,-6.33228 -1.92645,-9.50028c-1.31006,-6.52565 -2.66867,-13.03533 -4.07817,-19.54023c-1.76005,-8.12368 -4.46994,-16.29089 -5.70996,-24.50117c-0.99293,-6.57425 -0.91042,-13.52581 -1.35288,-20.16275c-0.04721,-0.70821 -0.69543,-10.14392 -0.63885,-10.54214c0.04826,-0.33962 3.53983,-8.88061 3.60428,-9.0304c0.79457,-1.84667 1.01969,-4.11308 2.4753,-5.4997c0.40578,-0.38655 9.48985,-3.61614 10.44793,-3.9005c8.00754,-2.37666 16.48062,-4.34048 24.73781,-5.52495c4.95358,-0.70765 10.03589,-1.78555 15.02557,-2.14016c10.89199,-0.77407 22.05186,1.0681 32.91385,0.00762c4.71498,-0.46033 9.28855,-2.45366 13.99948,-2.99994c4.63819,-0.53785 9.71158,-0.01795 14.37897,-0.01991c8.32672,-0.00351 16.65132,-0.06486 24.97767,-0.14066c8.28476,-0.07191 16.48975,-1.19779 24.74419,-1.84789c12.99894,-1.02377 26.07621,-1.6665 39.11102,-2.00496c12.34911,-0.32066 24.78717,1.11263 37.09912,1.95088c6.64051,-0.32185 13.34484,-0.92641 19.99238,-0.95111c7.48754,-0.02783 15.19547,1.20014 22.66208,1.79235c19.78382,1.56913 39.51681,3.52809 59.22435,0.49819c9.87428,-1.5181 19.93342,-3.62328 29.90855,-4.28536c13.09426,-0.8691 26.40381,0.11059 39.41124,1.47374c6.60669,0.69237 13.60061,0.83282 20.1145,2.11824c4.88927,0.96482 9.8286,2.8715 14.61337,4.2746c11.93845,3.51289 24.80073,2.38674 37.155,2.58969c21.66461,0.35591 43.32901,0.72024 64.99325,1.09808c13.39043,0.23353 26.75907,0.26977 40.11413,1.29708c3.32351,0.25565 6.6546,0.42692 9.97054,0.76696c2.04367,0.20957 4.2853,-0.17578 6.11673,0.755c3.86694,1.96527 3.43901,10.45684 3.95158,13.91669c1.65921,11.1997 3.20908,22.40716 4.70742,33.62947c2.20635,16.52512 4.75522,33.04465 6.62327,49.61094c2.05467,18.22123 3.36781,36.55907 5.04964,54.81902c0.61255,6.6505 1.62827,13.40748 1.84406,20.08119c0.25833,7.98945 -0.65562,16.19753 -0.98171,24.18656c-0.80025,19.60614 -2.29809,39.01866 -4.08567,58.5588c-1.72509,13.23446 -2.9459,26.65547 -5.19437,39.8097c-3.53131,20.65924 -10.19159,40.96833 -11.10263,61.98901c-0.50456,11.64207 -0.64198,23.23963 -0.75175,34.89048c-0.03645,3.86922 0.60012,8.56644 -2.86915,11.61874c-1.33944,1.17845 -3.50302,0.68568 -5.26841,0.94306c-4.12754,0.60177 -8.35827,0.80894 -12.50498,1.25528c-13.26442,1.42775 -26.00253,3.9794 -39.04772,6.75325c-9.76542,2.63635 -19.45714,5.16735 -29.50064,6.55044c-9.91306,1.36512 -19.98047,1.97012 -29.93536,2.99526c-14.73537,1.51742 -29.34621,3.11078 -44.14844,3.78361c-17.65389,0.80232 -35.43113,1.93591 -53.09469,2.22958c-15.98726,0.2658 -32.2389,-1.33622 -48.2178,-2.00831c-34.07584,-4.15699 -68.13552,-8.42741 -102.19047,-12.75184c-17.75791,-2.25498 -35.42257,-5.24975 -53.10081,-8.07273zM47.12755,-5.91815c0.39252,1.82079 0.06212,3.72485 0.06684,5.58747c0.01609,6.34783 -0.4336,12.63038 -1.11596,18.88972c0.43764,1.92623 0.81811,3.84741 1.09121,5.74603c0.69146,4.80724 0.13009,9.6923 -0.8825,14.43496c0.00675,2.75768 -0.00945,5.65 -0.10764,5.83213c-0.1341,0.24874 -0.28357,0.48552 -0.44601,0.71221l0.03658,0.02926l-0.00449,0.00562c0.18,-0.04885 0.36041,-0.09575 0.54147,-0.13954c4.30062,-1.04002 8.27012,-1.60141 12.40158,-1.8541c0.74404,-0.26724 1.4761,-0.12083 1.4761,-0.12083c0.0601,0.01202 0.12019,0.02404 0.18029,0.03606c1.24092,-0.05152 2.50186,-0.07786 3.79568,-0.08346c0.08771,-0.35426 0.24616,-0.67894 0.50303,-0.95931c1.57173,-1.7155 4.39076,-1.61877 6.68428,-2.00996c6.17013,-1.05239 12.55711,0.84325 18.57267,1.78719c7.78162,1.22106 15.43117,2.92809 23.1911,4.21601c13.06347,2.16815 26.42373,3.01916 39.5915,4.34774c12.77892,1.28977 25.47578,3.33407 38.25187,4.63081c21.60416,2.19277 43.19053,3.31161 64.74266,5.96787c9.92983,1.2409 19.82539,1.96929 29.77698,2.92535c5.82157,0.55929 11.6083,1.6515 17.43869,2.10276c7.47808,0.57879 15.15089,0.10739 22.42761,2.07547c5.82607,1.57573 9.38866,3.77637 13.87515,7.76243c2.15748,1.91684 4.93181,3.89495 5.85221,6.86662c-0.25687,-0.0355 -0.51421,-0.06469 -0.7722,-0.08499c-3.70701,-0.2917 -7.43995,-0.27716 -11.15483,-0.11382c-10.26836,0.45148 -19.96231,2.45662 -30.22516,2.05962c-2.39113,-0.0925 -5.4602,-3.01799 -6.76671,-3.45907c-2.77103,-0.93551 -5.72993,-1.2055 -8.63031,-1.58178c-4.75356,-0.6167 -11.30012,-0.51242 -16.04664,0.04085c-1.93747,0.22584 -3.82931,1.00719 -5.77817,0.92508c-2.0372,0 -4.16188,0.77977 -6.10892,0.18044c-1.40512,-0.43252 -2.63343,-1.34342 -4.04161,-1.76587c-1.30116,-0.39034 -2.75087,-0.17587 -4.02263,-0.65336c-1.42582,-0.53533 -2.44588,-1.98586 -3.92899,-2.33212c-5.33325,-1.24515 -10.63696,0.33765 -15.91247,-0.38041c-4.46457,-0.60769 -8.87625,-1.62724 -13.364,-2.02934c-4.77515,-0.42785 -9.83804,-0.01932 -14.62137,-0.01932c-0.92142,0 -9.41168,-0.02391 -10.22183,0.07492c-2.97232,0.36261 -5.79076,1.61497 -8.76354,1.97374c-4.59616,0.55469 -9.35011,0.97801 -14.01462,0.95133c-1.87127,0 -3.7858,0.50044 -5.61299,0.09666c-2.36954,-0.52363 -4.61342,-1.56057 -7,-2c-4.86375,-0.89555 -10.35536,0.43111 -15.0959,0.9285c-3.79832,0.39853 -7.83278,0.12714 -11.73356,0.01605c-2.79317,-0.28159 -5.00146,-0.35819 -6.02071,-0.04121h-3.53684c-5.52285,0 -10,4.47715 -10,10c0,3.4654 1.76272,6.5191 4.44044,8.31337c-0.38342,1.06984 -0.65783,2.22378 -0.89348,3.31781c-3.60501,7.64743 -6.13872,10.14645 -1.65938,20.21591c0.41728,0.93804 1.26185,1.49144 2.23251,1.93979c-0.63861,0.80446 -1.21569,1.79195 -1.69858,2.99919c-3.71391,9.28477 5.57086,12.99867 5.57086,12.99867c2.86841,0.90488 5.59893,2.80808 8.60523,2.71464c0.68434,-0.02127 1.35644,-0.11297 2.01994,-0.25482c0.13881,7.07569 7.66338,8.95683 7.66338,8.95683l8.12783,2.03106c0.85735,0.18926 1.70915,0.38914 2.55622,0.59825c1.58132,1.93137 3.87116,3.26018 6.47263,3.58955l5.41566,0.77367c5.56626,1.72903 11.44073,3.57826 17.31886,4.61649c3.41608,1.12204 6.82449,2.37832 10.38906,2.58369c6.63443,0.38224 13.27404,-2.12665 19.88409,-1.4418c10.26865,1.06392 24.58594,11.00208 35.93034,4.18481c0.55831,-0.33551 1.09239,-0.69932 1.60535,-1.08777l0.19745,0.39489l7.80623,-3.90312c1.12517,-0.53338 2.1349,-1.27062 2.98148,-2.16401c0.11253,0.03861 0.22517,0.07688 0.33791,0.11476c1.74659,-0.42729 3.52829,-0.74447 5.29579,-1.10618c6.21541,0.95591 12.44896,1.81525 18.72269,2.1069c5.58144,0.25947 11.18568,-0.3584 16.76239,-0.01196c3.76103,0.23365 7.46331,1.06897 11.19524,1.59992c-0.64517,0.80067 -1.37593,1.55456 -1.98987,2.36868c-0.90668,1.20232 -1.55671,2.69014 -2.79171,3.55178c-0.53528,0.37346 -7.59113,2.93777 -8.95068,3.43817c-11.29512,0.99173 -22.24593,-0.1573 -33.52722,0.06069c-12.98378,0.25089 -26.06332,2.26155 -39.0464,1.99832c-9.96466,-0.20203 -20.01666,-1.81146 -29.9875,-2.34872c-9.80879,-0.52853 -19.34687,-2.31228 -29.15219,-3.0121c-2.85971,-0.2041 -5.72781,-0.97586 -8.57631,-0.65079c-3.75843,0.42891 -4.80564,1.68512 -7.91861,3.69448c-1.42048,0.91689 -3.51772,1.38183 -4.11675,2.96285c-0.45262,1.1946 -0.37583,2.52723 -0.54492,3.79346c-0.12585,0.94245 -1.20858,2.44567 -0.33985,2.83212c1.04469,0.46471 1.90299,-1.35973 3.01042,-1.64416c1.84388,-0.47358 3.78586,-0.77063 5.68082,-0.58808c0.65441,0.06305 8.55084,2.75968 9.62634,3.05023c4.51168,1.21886 9.20512,2.04279 13.76753,3.05666c12.61316,2.80971 24.80636,8.06399 37.73107,9.62324c13.09199,1.57943 26.66539,-0.41098 39.82025,0.23559c8.32323,0.4091 16.71498,1.56787 25.00988,2.38914c4.70072,0.46558 9.45515,1.34297 14.16646,1.6124c1.74701,0.09991 3.5135,-0.19189 5.24954,0.02772c5.84454,0.73935 11.74703,2.94752 17.66165,3.73825c1.46002,0.19519 2.96789,-0.02318 4.4105,0.27455c2.80151,0.57818 5.24574,2.3835 8.0374,3.0075c1.04583,0.23377 2.20467,-0.30413 3.21445,0.0547c4.60584,1.63667 7.27169,6.24123 10.16417,9.75473c1.26727,1.53935 3.14311,2.45443 4.69634,3.70465c0.64942,0.52273 1.01244,1.38126 1.72936,1.80673c0.90648,0.53797 2.09612,0.45767 3,1c1.39344,0.83607 2.53656,2.16948 4.08613,2.65891c5.45737,0 9.76794,3.34484 15,4c1.4114,0.17674 2.90907,-0.36542 4.26688,0.05843c1.75492,0.54782 3.13771,1.92351 4.77304,2.76348c2.55939,1.31459 5.47374,1.94564 7.8801,3.52299c4.9971,3.27556 10.06624,7.87246 13.75517,12.46542c2.54354,3.16687 6.54821,7.25307 7.87348,11.16926c1.08322,3.20093 0.72234,6.72194 1.2297,10.06288c1.02721,6.76414 1.66999,12.03906 0.17699,18.84852c-0.95032,4.19435 -0.81499,5.24255 -3.32771,9.03851c-4.40112,6.64876 -12.07428,10.35649 -18.90957,13.77404c-3.05737,1.52864 -5.72372,2.99945 -9.03322,4.01288c-5.72695,1.7537 -11.57224,2.98405 -17.22541,5.09876c-2.50803,0.93819 -5.23821,1.40465 -7.53879,2.77496c-0.81223,0.48379 -1.19401,1.5213 -2.00677,2.0042c-1.02017,0.60614 -2.26637,0.71689 -3.35762,1.18307c-1.49272,0.63769 -2.79701,1.77468 -4.38233,2.12342c-3.94042,0.86682 -9.4805,0.06688 -13.57438,0.06688c-10.02714,-0.01308 -20.02561,1.69944 -30.11916,0.99382c-11.17179,-0.781 -22.45778,-2.8145 -33.71799,-1.99913c-5.9773,0.43283 -11.86904,2.11905 -17.79138,2.97756c-6.19257,0.89768 -12.11928,1.02775 -18.37147,1.02775c-8.2001,0 -16.64649,-0.58736 -24.82278,-0.00629c-12.59868,0.89536 -24.51534,3.59289 -37.28112,3.00413c-0.28055,-0.01294 -10.23818,-0.85237 -10.38338,-0.88336c-2.78285,-0.59394 -6.31578,-2.48152 -9.13433,-3.19299c-6.31433,-1.5939 -12.92435,-2.34943 -19.29349,-3.8489c-9.21352,-0.16911 -18.0941,-2.54347 -27.24627,-3.0778c-5.89296,-0.34405 -11.93824,0.01067 -17.83863,0.00521c-3.08276,-0.00285 -6.20108,-0.16809 -9.21027,-0.83753c-0.4909,-0.10921 -1.09148,-0.99953 -1.38733,-0.59286c-0.64852,0.89147 -0.38043,2.17184 -0.55338,3.26059c-0.25039,1.5763 -0.46745,3.15777 -0.71658,4.73427c-0.82143,5.19803 0.46244,6.80835 2.09876,11.79501c1.24341,3.78927 1.00914,7.05795 2.23651,10.74006c0.0107,1.12696 0.03405,2.2441 0.06771,3.35611c0.55809,-0.44703 1.41895,-0.77355 2.5826,-0.19172c0.22592,0.11296 0.4176,0.23733 0.57965,0.36965c1.67191,-0.61548 3.38177,-1.13668 5.09478,-1.61296c8.47134,0.29092 16.85093,1.53911 25.31144,1.98154c10.22839,0.53488 20.65275,-0.00217 30.89611,-0.00216c14.44033,0.00001 28.79729,0.4632 43.22345,1.08708c8.22975,0.63248 16.55435,1.69911 24.80392,1.91307c5.99652,0.15553 12.08836,-0.83658 18.08698,-0.99797c9.98461,-0.26864 20.24078,-0.37149 30.21296,0.21828c9.98317,0.59043 19.9776,1.97876 29.9401,2.88445c18.93022,1.72093 37.87191,2.26491 56.84926,2.8987c14.75526,0.49278 29.55588,2.05587 44.3198,1.96472c8.33733,-0.04851 16.57635,-0.69655 24.89925,-0.98442c4.74442,-0.1641 10.02527,0.62297 14.71401,-0.08259c3.12062,-0.46959 6.09478,-1.66556 9.06258,-2.7384c2.38693,-0.86286 4.84556,-1.71421 6.92006,-3.17654c1.34831,-0.95043 2.16278,-2.53029 3.49335,-3.5054c4.04158,-2.96186 8.887,-4.96303 13.31041,-7.19353c7.07272,-3.5664 12.93131,-7.90533 20.92556,-9.27747c6.05861,-0.8082 12.16738,-1.07495 17.84283,-3.33037c1.24951,-0.49655 2.81872,-0.45831 3.78568,-1.39256c0.85585,-0.8269 0.98766,-2.20038 1.15286,-3.37892c0.64368,-4.59178 -0.05961,-9.90167 -0.04241,-14.54437c0.01258,-3.39543 0.67492,-6.7573 1.00236,-10.13693c0.04155,-0.42889 -0.09796,-9.44531 -0.10188,-9.72664c-0.0645,-4.6268 0.122,-9.89646 -0.8388,-14.44536c-1.55634,-7.36854 -5.91599,-14.91499 -9.11321,-21.67854c-4.67429,-9.90425 -10.70647,-19.41914 -11.9342,-30.60348c-0.39495,-3.59792 -0.50907,-8.90865 0.0038,-12.57825c0.45312,-3.24206 2.42586,-7.78792 2.04815,-11.12016c-0.18899,-1.6673 -4.08453,-3.46251 -4.55364,-4.0569c-0.75505,-0.95668 -0.71794,-2.3413 -1.26459,-3.43057c-0.57575,-1.14725 -1.63216,-2.03711 -2.08261,-3.23909c-0.622,-1.65976 -0.6482,-3.48764 -1.08228,-5.20615c-0.63887,-2.52926 -2.46436,-5.34784 -0.61186,-8.10345c0.8315,-1.23687 2.71426,-1.23195 4.0714,-1.84792c0.94336,-0.33488 2.20222,-0.22497 2.83008,-1.00463c0.44194,-0.54879 -0.43415,-1.38769 -0.34109,-2.08613c0.48436,-3.63535 2.42838,-7.31383 2.99188,-10.9463c0.20229,-1.30397 -0.16906,-2.64932 -0.00543,-3.95871c0.45712,-3.65798 1.07789,-7.8344 2.08097,-11.39351c0.8536,-3.02874 2.35664,-5.9897 2.99117,-9.07364c1.27818,-6.21223 2.33369,-13.1189 2.91765,-19.43359c0.36856,-3.98544 -0.51063,-8.13508 0.01103,-12.10585c0.03263,-0.24836 2.32337,-9.15562 2.35795,-9.29058c3.27215,-21.09434 1.58377,-43.09254 1.62249,-64.39737c0.00321,-1.76849 -0.17369,-3.54746 0.01873,-5.30546c0.40987,-3.74467 2.7655,-9.9184 -1.83306,-12.56791c-1.82165,-1.04956 -3.85405,-0.64158 -5.83653,-0.62238c-33.98126,0.03461 -67.71864,6.21857 -101.67838,5.8607c-8.1141,-0.08981 -17.50636,-0.33657 -25.43456,-2.18834c-7.92848,-1.85184 -16.44974,-5.79243 -23.77216,-9.29216c-5.69678,-2.72276 -11.6846,-6.57048 -17.68851,-8.49172c-2.78216,-0.89028 -5.79058,-0.77713 -8.67935,-1.21075c-2.24428,-0.33688 -4.67192,-0.58331 -6.80562,0.18973c0,0 -2.37171,0.79057 -3.16228,-1.58114c-0.13469,-0.40406 -0.17759,-0.76223 -0.15607,-1.07842l-0.46921,0.00998l-4.71357,0.89217l-4.91436,0.92144l-5.07162,0.94578l-4.30607,0.2552l-14.97476,0.86983c-4.92816,0.28626 -10.3743,1.20294 -15.29381,0.86797c-1.70157,-0.11586 -3.33012,-0.75775 -5.01954,-0.99147c-8.96138,-1.23979 -18.70272,-0.781 -27.75391,-0.98344c-17.01914,-0.38066 -34.0936,0.0009 -51.1179,-0.00538c-34.74738,-1.73205 -69.51196,-2.91272 -104.12126,-6.493c-6.15902,-0.64128 -12.15801,-1.95162 -18.20015,-3.27551c0.42844,1.3085 1.6249,2.34459 1.91708,3.6999zM98.04798,293.18136c6.27396,0.89628 12.50354,1.88042 18.82346,2.36572c2.53853,0.19493 5.08784,0.9433 7.61298,0.61799c2.69481,-0.34716 5.20055,-1.7239 7.90455,-1.99011c12.49167,-1.22977 25.99952,0.35665 38.46235,1.32961c33.45025,2.61335 67.17247,4.71472 100.74715,3.46831c19.24885,-0.71292 38.7158,0.20722 57.90513,-1.16654c4.64987,-0.33288 9.14401,-0.67134 13.75254,-1.38133c2.52732,-0.38936 5.23056,-0.13233 7.58918,-1.12017c5.79226,-2.42594 11.25218,-7.03003 16.71959,-10.16364c7.28138,-3.86071 6.86566,-13.89222 5.64655,-20.89017c-0.08257,-0.47399 -0.13062,-0.93483 -0.17017,-1.37819c1.81881,-2.965 2.63067,-6.9222 4.35661,-9.97871l-1.19136,-7.19905c0,0 -1.96116,-9.80581 -11.76697,-7.84465c-2.95285,0.59057 -4.83866,1.8925 -6.0323,3.4238c-6.34654,-2.21222 -13.46194,-2.618 -20.00654,-2.618c-1.46669,0 -2.95261,0.37712 -4.39818,0.12913c-2.07783,-0.35647 -3.91999,-1.65648 -6,-2c-10.63036,-1.75562 -21.94675,1.18603 -32.61645,-0.08046c-1.68782,-0.20034 -3.31179,-0.80297 -5,-1c-3.17247,-0.37025 -6.63958,0.5264 -9.76354,0.02626c-4.4892,-0.71871 -8.62213,-1.07492 -13.22183,-1.07492c-4.67238,0 -9.98673,-0.63307 -14.60182,0.12913c-2.08001,0.34352 -3.90469,1.76736 -6,2c-1.19943,0.13317 -2.42239,-0.20285 -3.62001,-0.0542c-3.50548,0.4351 -6.91513,1.58295 -10.55633,1c-3.70009,-0.59238 -7.28761,-1.51464 -11,-2c-1.39562,-0.18246 -2.81903,-0.18982 -4.22183,-0.07492c-0.14653,0.012 0.02901,0.4955 -0.10216,0.42908c-1.07221,-0.54296 -1.85375,-1.63866 -3,-2c-1.36908,-0.43158 -2.88278,-0.04815 -4.29602,-0.29995c-3.62956,-0.64669 -6.81896,-1.12913 -10.60182,-1.12913c-2.56073,0.07185 -5.08887,0.63154 -7.60182,1.12913c-3.31168,0.65574 -6.99871,-0.60021 -10.17634,-1.0542c-3.68137,-0.52596 -7.52983,-1.00043 -11.1763,-2.22007c-0.87192,-0.29163 -1.33116,-1.26907 -1.97447,-1.92592c-1.86298,-1.9022 -5.32574,-5.38436 -7.24423,-6.16773c-4.05978,-1.65772 -8.1415,-0.32478 -12.22501,-0.63208c-1.77162,-0.13332 -3.12953,-1.69795 -4.77499,-2.36792c-0.89577,-0.36472 -1.90776,-0.72005 -2.48695,-1.49463c-2.23564,-1.4688 -4.66021,-2.63837 -7.08258,-3.77309c-1.41905,-0.66473 -3.55425,-4.67029 -4.52389,-5.83338c-4.65047,-5.57829 -10.48099,-10.35123 -15,-16c-0.95446,-1.19308 -1.58198,-2.6508 -2.66235,-3.73118c-0.16642,-0.16642 -4.93739,-3.14096 -5.56456,-4.18624c-1.46893,-2.44822 -1.47195,-4.2007 -2.79744,-5.11401c-0.58827,-3.03361 -1.17653,-6.06721 -1.7648,-9.10082l-1.44528,-0.66208c-0.1895,-0.57464 -0.42968,-1.12624 -0.71527,-1.64951c-1.69617,-3.10787 -4.99373,-5.21627 -8.78373,-5.21627c-0.82799,0 -1.63249,0.10063 -2.40191,0.29033c-0.80217,-1.90041 -1.49541,-3.84651 -1.7821,-5.95715c-0.66092,-4.86591 -0.0223,-10.4161 -0.0223,-15.3332c0,-9.421 1,-18.55981 1,-28c0,-2.86653 0.42114,-5.75951 0.03228,-8.59954c-0.61779,-4.51199 -4.01282,-9.87051 -5.71043,-14.11436c-0.29344,-0.73357 -0.58732,-1.46692 -0.88168,-2.20004c-2.93323,1.09319 -6.00091,1.84636 -8.84179,3.15974h0.00001c-5.49785,2.54173 -10.27035,6.36321 -15.70158,8.91592c-0.67626,-2.95532 -2.83019,-7.66171 -9.6905,-7.66171c-10,0 -10,10 -10,10c0.09752,6.04102 -1.73704,10.86913 -0.92508,17.22183c0.13267,1.03798 0.31444,2.09288 0.53527,3.15891c-3.56904,3.37399 -13.14649,14.82913 -14.13315,18.56748c-3.88048,14.70278 4.20399,32.23701 8.22957,45.73883c0.64158,2.15185 1.12288,4.37314 1.60243,6.59522c-2.19188,1.30973 -4.51185,3.49553 -7.01104,6.79074c-2.58923,3.41393 -1.98431,8.68781 -0.86892,12.82483c1.24285,4.60978 4.82202,8.25754 7.59989,12.1406c0.92853,1.29795 1.90913,2.56348 2.93203,3.80113c0.48252,1.17261 1.02378,2.32604 1.61997,3.45524c-1.60406,1.77373 -2.58097,4.12538 -2.58097,6.70519c0,0.74292 0.08101,1.46692 0.23469,2.16364l0.78696,3.93482c-3.35536,14.23654 10.77436,27.25524 19.65445,35.64805c1.90932,1.80454 4.33909,3.00358 6.40513,4.61805c1.04286,3.73668 4.37177,5.95595 4.37177,5.95595l5.63329,0.15477l1.60456,1.28365c1.09993,0.8955 2.39392,1.56177 3.80915,1.92603c0.79905,0.20566 1.63675,0.31504 2.5,0.31504c3.37455,0 6.3587,-1.6715 8.16967,-4.23174c3.49934,0.48082 7.05096,0.76734 10.47759,1.25686z"/><path d=""/></g></g></svg>