<svg version="1.1" xmlns="http://www.w3.org/2000/svg" xmlns:xlink="http://www.w3.org/1999/xlink" width="54.88208" height="55.4149" viewBox="0,0,54.88208,55.4149"><g transform="translate(-136.3456,-303.10852)"><g data-paper-data="{&quot;isPaintingLayer&quot;:true}" fill-rule="nonzero" stroke="none" stroke-linecap="butt" stroke-linejoin="miter" stroke-miterlimit="10" stroke-dasharray="" stroke-dashoffset="0" style="mix-blend-mode: normal"><g><g><path d="M163.78664,303.10852c15.15527,0 27.44104,12.40505 27.44104,27.70745c0,15.3024 -12.28577,27.70745 -27.44104,27.70745c-15.15527,0 -27.44104,-12.40505 -27.44104,-27.70745c0,-15.3024 12.28577,-27.70745 27.44104,-27.70745z" fill="#000000" stroke-width="0"/><path d="M157.135,327.80793c0,1.25 -1.25,1.25 -1.25,1.25l-1.19893,-0.01208c-0.21903,0.06487 -0.43805,0.12974 -0.65708,0.19461c0.11959,1.49609 0.29547,3.77351 1.0484,3.61028l1.2288,-0.67163c0,0 1.11803,-0.55902 1.67705,0.55902c0.55902,1.11803 -0.55902,1.67705 -0.55902,1.67705l-1.90789,0.89672c-0.95389,-0.1789 -2.11268,0.08048 -2.86167,-0.53671c-0.60341,-0.49722 -0.39169,-1.51439 -0.55531,-2.27895c-0.61189,-2.85932 -1.05289,-5.86757 -1.36439,-8.77394c-0.09625,-0.89803 -0.68471,-1.94651 -0.19098,-2.70278c0.89879,-1.3767 3.5505,-0.5208 4.60593,-0.31861c0,0 1.22573,0.24515 0.98058,1.47087c-0.24515,1.22573 -1.47087,0.98058 -1.47087,0.98058c-0.58332,-0.12276 -1.18647,-0.17385 -1.74997,-0.36829c-0.14545,-0.05019 -0.38742,-0.47513 -0.30958,-0.3424c0.77456,1.32067 0.95803,2.78918 1.13548,4.29593c0.20125,-0.05586 0.4025,-0.11172 0.60375,-0.16758l1.54568,-0.01208c0,0 1.25,0 1.25,1.25z" fill="#ffffff" stroke-width="0.5"/><path d="M178.00878,318.45608c1.11803,0.55902 0.55902,1.67705 0.55902,1.67705l-0.22877,0.45324c-1.59838,2.76099 -1.59629,5.93258 -3.57586,8.55129c-0.69553,0.92009 -1.1125,2.34253 -2.22392,2.65087c-1.74057,0.48287 -3.08603,-1.91687 -3.70523,-3.89677c-0.52129,1.25153 -1.12838,2.35623 -1.81271,3.4336l0.06429,0.02967l-1.03584,2.24432c-0.19249,0.44241 -0.6335,0.75175 -1.14675,0.75175c-0.499,0 -0.92971,-0.2924 -1.13014,-0.7152l-0.57602,-1.15204l0.00297,-0.00149l-0.00799,-0.00867c-1.64852,-3.50596 -1.57792,-7.26947 -2.80741,-10.93596c0,0 -0.39528,-1.18585 0.79057,-1.58114c1.18585,-0.39528 1.58114,0.79057 1.58114,0.79057c1.05377,3.17882 1.0777,6.58261 2.25856,9.65204l0.0217,0.01001c0.31402,-1.2791 1.04228,-2.2812 1.58999,-3.68523l0.373,-2.23799c0.0895,-0.60252 0.60895,-1.06477 1.23637,-1.06477c0.46911,0 0.87786,0.25841 1.09167,0.64064l1.24773,2.13896l-0.07405,0.0432c0.27285,0.35628 0.52928,0.7241 0.76172,1.10817c0.28293,0.4675 0.62725,0.90191 0.85554,1.39839c0.07909,0.172 -0.04512,0.73094 0.0477,0.56594c1.77201,-3.14994 2.22751,-6.83034 4.00238,-9.97052l0.16331,-0.33093c0,0 0.55902,-1.11803 1.67705,-0.55902z" fill="#ffffff" stroke-width="0.5"/><path d="M182.25113,332.6093c0.88388,-0.88388 1.76777,0 1.76777,0l-0.19195,0.22633c0.92986,0.1214 2.97138,0.64998 2.97913,-1.27629c0.00113,-0.28025 -0.52049,-0.23078 -0.73029,-0.41658c-0.63118,-0.55897 -1.19537,-1.18966 -1.77489,-1.80202c-3.15376,-3.3325 -5.64069,-6.66556 -0.6098,-9.67567c0,0 1.0853,-0.62017 1.70548,0.46513c0.62017,1.0853 -0.46513,1.70548 -0.46513,1.70548c-4.25847,2.26882 0.97431,5.39013 2.91929,7.54652c0.49935,0.55363 1.38612,0.9869 1.41538,1.73188c0.04871,1.24022 -1.22785,3.97377 -2.82607,4.35899c-0.91528,0.22061 -1.88047,-0.09738 -2.82071,-0.14607l-1.36821,-0.94993c0,0 -0.88388,-0.88388 0,-1.76777z" fill="#ffffff" stroke-width="0.5"/></g><path d="M146.84649,335.56133c-1.18586,0.39529 -1.58113,-0.79057 -1.58113,-0.79057l-0.25054,-0.82837c-0.24974,-1.99796 -0.98021,-3.34822 -1.36931,-5.27086c-0.22028,-1.08845 1.31149,-4.16528 0.01456,-5.02847c-0.15177,-0.10101 -0.17932,0.31766 -0.27679,0.47173c-0.38511,0.60874 -0.76627,1.22032 -1.17073,1.81637c-1.77239,2.61201 -0.95988,5.13176 -0.41166,8.22707c0,0 0.21723,1.23098 -1.01375,1.44821c-1.23098,0.21723 -1.44821,-1.01375 -1.44821,-1.01375c-0.67199,-3.8212 -1.40145,-6.71145 0.7935,-10.04829c0.6074,-0.92339 2.1394,-3.93714 4.0128,-3.35382c4.40668,1.37213 1.36821,4.68811 1.97499,7.12622c0.47406,1.90485 1.12302,3.29729 1.37529,5.31548l0.14155,0.34788c0,0 0.39529,1.18586 -0.79057,1.58114z" fill="#ffffff" stroke-width="0.5"/></g></g></g></svg>