<svg version="1.1" xmlns="http://www.w3.org/2000/svg" xmlns:xlink="http://www.w3.org/1999/xlink" width="510.03687" height="386.79468" viewBox="0,0,510.03687,386.79468"><g transform="translate(32.03301,14.24555)"><g data-paper-data="{&quot;isPaintingLayer&quot;:true}" fill="#000000" fill-rule="nonzero" stroke="none" stroke-width="0.5" stroke-linecap="butt" stroke-linejoin="miter" stroke-miterlimit="10" stroke-dasharray="" stroke-dashoffset="0" style="mix-blend-mode: normal"><path d="M430.5,236.75444c3.29127,0.15515 5.69898,-2.08672 8.65822,-3.62192c2.58122,-1.9856 5.16202,-3.97176 7.74373,-5.95672c0.25266,-0.19426 5.89565,-4.39688 6.50012,-5.28101c0.58512,-0.85584 0.43537,-2.06718 0.97129,-2.95465c1.24429,-2.06049 3.51417,-3.51357 4.33201,-5.77741c0.39272,-1.08709 0.11374,-2.31882 0.3539,-3.44944c0.84794,-3.99198 3.40782,-7.83329 3.973,-11.85927c0.92326,-6.57663 -0.03228,-13.94278 -0.03228,-20.59954c0,-3.37807 -0.56792,-8.00351 0.03228,-11.40046c0.65311,-3.69637 1.37753,-3.67567 3.22193,-6.69792c2.33992,-3.8342 2.56344,-8.14959 8.32301,-1.29272c1.22956,1.46381 0.74137,3.7576 1.30089,5.58558c0.50684,1.6559 1.52199,3.14704 1.88997,4.83922c0.27817,1.27924 0.23181,6.15889 0.23193,7.9663c0.00056,9 0,18 0,27c0,5.99356 0.12451,11.5552 -1.04118,17.45001c-1.3272,5.33766 -2.3573,11.4846 -4.82282,16.44852c-0.60152,1.21105 -1.77053,2.06993 -2.41886,3.25658c-0.51247,0.93797 -0.471,2.12318 -1.02108,3.0396c-1.99355,3.32117 -5.55246,8.03204 -8.50659,10.64803c-3.04329,2.69495 -8.0105,6.08947 -11.80542,7.49573c-1.4712,0.54517 -3.18619,0.23894 -4.62815,0.85732c-0.96359,0.41324 -1.33941,1.75443 -2.32102,2.12282c-1.19043,0.44677 -2.54259,0.08072 -3.81034,0.17828c-3.24173,0.24945 -6.4899,0.49031 -9.70553,0.9707c-6.5569,0.97954 -13.09098,2.61704 -19.59339,3.91462c-8.17163,0.94506 -16.04944,2.80611 -24.16089,4.03148c-13.69629,2.06905 -27.62554,3.06052 -41.30509,5.0603c-1.37783,0.20142 -2.66999,0.85554 -4.05417,1.00727c-8.84522,0.96961 -18.40104,0.01873 -27.30546,0.01873c-17.27278,0 -34.92008,1.0682 -52.15534,-0.00483c-13.25302,-0.8251 -26.66375,-4.84385 -39.37738,-8.47624c-5.68021,-1.82062 -11.62842,-4.26898 -17.47182,-5.42355c-1.18403,-0.23395 -2.45609,0.15772 -3.6166,-0.17377c-1.41833,-0.40513 -2.53773,-1.57359 -3.95324,-1.98849c-0.84206,-0.24681 -1.75882,0.14704 -2.63182,0.05836c-4.95548,-0.50338 -10.45288,-1.42275 -15.23886,-2.81408c-8.05218,-2.34083 -15.97001,-5.91163 -23.54064,-9.47327c-2.6135,-1.22954 -5.00779,-2.99846 -7.77589,-3.82296c-3.89955,-1.1615 -8.48643,-1.33608 -12.24979,-3.09489c-1.68777,-0.78878 -3.11177,-2.04935 -4.66766,-3.07402c-4.49366,-3.91672 -8.73638,-7.56683 -13.90252,-10.52235c-3.10143,-1.77431 -6.42861,-2.14881 -8.54506,-5.37559c-0.57812,-0.88141 -0.40152,-2.13229 -1,-3c-0.98921,-1.43421 -2.79568,-2.22292 -3.64978,-3.74148c-0.63506,-1.12912 -0.203,-2.60888 -0.61307,-3.83773c-0.45775,-1.37171 -1.18296,-2.65055 -1.95925,-3.8706c-2.40821,-3.78483 -5.50661,-7.16804 -8.70412,-10.40379c-1.2126,3.35735 -2.39709,6.72848 -3.58635,10.10735c-0.91744,2.6066 -1.38371,5.3766 -2.50284,7.90318c-0.65994,1.48989 -1.88993,2.68453 -2.52914,4.18343c-1.12628,2.64104 -0.79545,5.72327 -1.73076,8.43782c-0.54846,1.5918 -1.6287,2.95693 -2.25336,4.5204c-2.10284,5.26318 -2.41403,11.38033 -3.94213,16.82371c-2.1617,7.70036 -5.34269,15.3913 -8.31374,22.80998c-5.29343,13.21256 -10.60056,27.35168 -20.23405,38.12279c-2.25454,2.52078 -5.12654,4.42061 -7.52767,6.80217c-2.25086,2.23252 -3.91052,5.31805 -7.02012,6.54435c-0.23041,0.48857 -0.53924,0.7974 -0.53924,0.7974c-1.07655,1.05473 -2.34562,1.94358 -3.22966,3.1642c-0.8525,1.17706 -1.68154,4.95537 -2.29232,6.16641c-0.30286,0.60051 -0.82024,1.0821 -1.24851,1.60845c0.88441,0.38515 1.50273,1.26695 1.50273,2.29317c0,0.69036 -0.27982,1.31536 -0.73223,1.76777l-1.88913,1.88913c-0.1635,0.5434 -0.31537,1.08912 -0.39737,1.64857c-0.2219,1.51389 0.38011,5.06868 -0.07198,6.36188c-0.86076,2.46217 -4.93869,8.40897 -7.35627,9.57757c-1.5562,0.75223 -3.35613,0.72477 -4.91571,0.10304l-0.22859,0.26669c-0.20006,0.23625 -0.44318,0.43487 -0.71726,0.58373c-0.01837,0.03615 -0.02839,0.05556 -0.02918,0.05645c-0.03458,0.03932 -0.0695,0.07827 -0.10475,0.11687l0.0226,0.01507l-1.97849,2.96774c-0.44514,0.68925 -1.2201,1.14551 -2.10163,1.14551c-1.38071,0 -2.5,-1.11929 -2.5,-2.5c0,-0.15463 0.01404,-0.30599 0.04091,-0.45286c-4.61926,-0.03906 -9.61423,-0.63674 -14.14046,-0.0303l0.00001,-0.00001c-1.89141,0.25342 -5.1924,2.37472 -6.53309,2.87699c-1.239,0.46417 -2.63987,0.42037 -3.85598,0.94157c-0.63939,0.27403 -1.25842,0.59466 -1.87106,0.92938l-0.90425,1.85325c0,0 -1.11803,2.23607 -3.3541,1.11803c-0.40078,-0.20039 -0.6938,-0.43669 -0.90483,-0.6896c-0.76354,0.01791 -1.85931,-0.23819 -2.34884,-1.70678c-0.79057,-2.37171 1.58114,-3.16228 1.58114,-3.16228c0.63453,-0.20601 1.2396,-0.48204 1.8314,-0.7902c1.08049,-3.66895 1.94774,-8.07557 3.83254,-11.20154c1.80514,-2.99385 3.05276,-2.03377 5,-5c0.57847,-0.88118 0.44721,-2.10249 1,-3c1.7762,-2.88384 5.05986,-4.55086 7.54165,-6.61903c2.14702,-1.78918 3.99292,-4.0505 6.48659,-5.31243c5.91254,-2.99208 13.02451,-3.35756 19.07074,-6.03324c0.80772,-0.35744 2.08864,-1.1327 3.39844,-1.97466c0.69735,-1.10674 1.5914,-2.11259 2.28024,-3.22762c1.18736,-1.92198 2.38401,-3.68205 3.65461,-5.36644c2.70784,-7.93047 6.80834,-15.44443 9.0183,-23.44827c1.33663,-4.79181 2.22946,-10.59151 4.54942,-15.01832c0.42328,-0.80767 1.5427,-1.10214 1.95113,-1.91742c0.5568,-1.11144 0.39802,-2.47027 0.83079,-3.63562c2.54344,-6.84901 6.9586,-12.60851 10.06245,-19.15306c0.48816,-1.0293 0.54031,-2.24751 1.11731,-3.22976c0.61262,-1.04291 1.73119,-1.71688 2.38587,-2.73392c6.96269,-10.81655 11.53894,-24.0765 13.37194,-36.6909c0.98006,-2.33393 2.24176,-4.56192 2.99417,-6.97886c0.78073,-2.50791 0.51224,-5.23293 0.95856,-7.82136c0.71218,-4.13023 2.31478,-8.13847 3.22528,-12.22922c0.16425,-0.73795 1.69932,-9.59643 1.85743,-10.08612c1.53299,-4.74783 4.36055,-9.25785 6.00253,-14.00755c3.95285,-11.43429 6.1773,-23.53674 10.02181,-35.06204c1.79811,-4.49537 3.8812,-8.98385 5.43369,-13.56852c0.29255,-0.86394 2.47965,-9.13419 2.74468,-9.77951c2.28761,-5.5701 6.3271,-11.95368 10.33067,-16.48608c1.91333,-2.16606 4.47227,-3.66591 6.61047,-5.61032c1.3676,-1.24365 2.38934,-2.91995 3.97997,-3.86169c1.45141,-0.85932 3.27522,-0.82552 4.86908,-1.37748c3.29914,-1.14248 6.69677,-2.16855 10.173,-2.4933c4.75331,-0.44404 8.82289,-0.8463 13.35422,0.4684c0.83379,-0.51026 1.59866,-0.9883 2.2134,-1.36161l0.11286,-0.10844c-0.07029,-1.81973 1.83852,-2.3651 1.83852,-2.3651c4.82717,-1.37845 9.73435,-2.34089 14.56942,-3.66549c9.06086,-2.48228 17.82726,-6.01285 27.25192,-7.09315c4.94584,-0.56691 10.09528,-0.28632 15.07459,-0.66935c4.28541,-0.32965 8.28635,-1.18836 12.48541,-1.64947c4.17746,-0.45873 9.09517,-0.01873 13.30546,-0.01873c22.98559,0 46.11213,-0.76347 69.08319,0.00138c8.33712,0.2776 16.56453,0.99862 24.91681,0.99862c4.98966,0 10.74347,0.79651 15.69454,0.01873c2.71544,-0.42657 5.26449,-1.7307 8,-2c3.83387,-0.37743 9.03769,1.0924 12.73108,0.04815c3.93282,-1.11195 5.96541,-4.87862 9.35777,-6.75088c1.82892,-1.00939 4.04654,-1.38874 5.63164,-2.74935c3.6273,-3.11359 5.67297,-7.06273 8.66036,-10.66222c2.8151,-3.3919 6.42926,-6.47265 9.61028,-9.53105c5.22037,-1.74012 7.02991,-6.32123 10.54472,-10.41058c5.22198,-6.07556 12.11273,-10.57428 17.42366,-16.64455c2.11831,-2.42117 4.01601,-5.03237 5.85868,-7.66939c0.68858,-0.98542 0.85849,-2.45383 1.88966,-3.07178c6.23042,-3.73373 6.6188,-2.66218 11.26068,1.05634c0.62405,0.49991 0.96356,1.332 1.65125,1.73997c0.9747,0.57823 2.32769,0.42017 3.20316,1.13986c6.37823,5.24334 5.98252,13.66432 5.98252,20.98677c-0.02239,5.97344 -2.34211,11.29119 -2.99334,17.15514c-0.05916,0.53266 0.07897,6.97115 -0.11393,7.56932c-1.33706,4.14601 -5.19611,7.66625 -7.29335,11.32397c-0.59507,1.03783 -0.35608,2.46946 -1.07836,3.42314c-0.80137,1.05811 -2.31528,1.35705 -3.25325,2.2962c-0.7653,0.76626 -1.11125,1.86425 -1.76458,2.72797c-2.84189,3.75708 -6.06604,7.49394 -9.06984,11.08924c-5.24767,6.28104 -12.37233,10.56688 -19.0515,15.14071c-1.52454,0.66116 -3.04907,1.32232 -4.57361,1.98348l-1.86681,1.33345c0,0 -2.04261,1.44144 -3.48405,-0.60117c-0.26687,-0.37817 -0.41432,-0.73573 -0.47741,-1.06736c-0.23604,2.12592 -2.47998,2.12592 -2.47998,2.12592h-2c-5.50854,-0.04041 -10.91551,-1.48761 -16.43462,-2.20503c-12.85042,-2.14204 -25.5718,-1.79497 -38.56538,-1.79497c-16.33333,0 -32.66667,0 -49,0c-21.645,0 -43.31226,-0.29788 -64.95454,-0.00041c-8.08179,0.11108 -16.00217,1.98449 -24.04546,2.00041c-3.33157,0 -8.13095,-0.77128 -11.44048,-0.06342c-2.47647,0.52968 -4.53373,2.34767 -6.98188,2.99577c-4.26637,1.12943 -9.07593,1.09784 -13.42322,2.12687c-3.07617,0.72815 -6.19985,1.42273 -9.09019,2.70294c-2.22625,0.98607 -4.08737,2.82806 -6.44428,3.43922c-1.62293,0.42083 -3.3561,0.29298 -4.97872,0.71498c-4.25356,1.10625 -9.30215,3.32215 -13.24692,5.25278c-1.63585,0.80061 -3.00122,2.15815 -4.72698,2.74014c-0.39968,0.13479 -0.81453,0.18378 -1.23671,0.19138c-0.39332,2.31272 -0.85452,4.70714 -1.22644,5.57898c-0.38961,0.9133 -1.56579,1.2838 -2.07756,2.13468c-1.20897,2.01007 -1.69875,4.46277 -3.19327,6.27064c-0.81183,0.98204 -2.13078,1.53762 -2.75786,2.64677c-0.6764,1.1964 -0.36461,2.78132 -1,4c-1.0679,2.04823 -3.84847,3.16331 -5.04342,5.07371c-0.59761,0.95542 -0.63657,2.16225 -0.97622,3.23678c-1.03953,3.28863 -2.37964,6.48979 -3.91981,9.57582c-5.93082,11.88355 -11.49003,23.68665 -15.55226,36.30471c8.73836,6.88889 17.06837,14.28237 25.84082,21.15165c1.96501,1.5387 3.80765,3.24724 5.89193,4.62006c0.69654,0.45878 8.30446,4.91409 8.74214,5.27055c1.28508,1.04663 2.05536,2.63806 3.34617,3.67762c4.89683,3.94368 11.44019,5.73707 17.25965,7.73155c6.39774,1.91867 12.61592,4.2575 18.97268,6.26801c0.67914,0.2148 9.4098,2.51909 9.85619,2.70427c1.49445,0.61993 2.67749,1.87701 4.19144,2.44766c2.67433,1.00803 5.6409,0.92964 8.4743,1.3038c10.92123,1.44218 21.92278,2.61631 32.89716,3.6147c6.515,0.5927 14.05877,0.51228 20.2442,2.57409c12.25788,-0.08603 24.52979,0.16781 36.75086,0.9723c3.0076,0.19799 5.9765,0.8505 8.98694,0.99924c15.94852,0.788 31.87836,0.99617 47.86175,0.99617c11,0 22,0 33,0c5.24437,0 10.61766,0.36787 15.84466,0.00483c4.32358,-0.30029 8.54048,-1.38462 12.83741,-1.8143c6.66782,-0.66677 12.68973,-1.82491 18.88863,-4.37129c0.40669,-1.81924 2.42927,-1.81924 2.42927,-1.81924zM14.10972,346.06231c0.35817,-0.33978 0.72003,-0.68057 1.08094,-1.0307c0.0162,-0.03266 0.03228,-0.06536 0.04823,-0.09812c0.41769,-0.85771 0.68812,-1.76249 0.85995,-2.69941c-0.81681,1.21625 -1.50684,2.4865 -1.98912,3.82823z"/></g></g></svg>