<svg version="1.1" xmlns="http://www.w3.org/2000/svg" xmlns:xlink="http://www.w3.org/1999/xlink" width="20.24696" height="14.3651" viewBox="0,0,20.24696,14.3651"><g transform="translate(-229.87652,-172.81745)"><g data-paper-data="{&quot;isPaintingLayer&quot;:true}" fill-rule="nonzero" stroke="none" stroke-linecap="butt" stroke-linejoin="miter" stroke-miterlimit="10" stroke-dasharray="" stroke-dashoffset="0" style="mix-blend-mode: normal"><path d="M230.41939,172.81745l0.97002,0.2425h2.01291l0.49191,0.06149l0.62731,-0.07604l0.61304,0.15326h4.95877l1.90777,0.11924l0.31401,-0.05797l0.30978,0.07744h1.3871l0.55484,0.13871h3.05161l1.1943,-0.29857h0.17989v2.0889l0.69586,2.78346l0.11783,0.70698l-0.06369,0.50956l0.24212,0.298v0.06929l0.13871,0.55484v0.38667l-0.10438,0.22036l-0.27742,1.3871l0.04738,0.99489l-0.24157,0.96628v3.03871h-5.39776l-0.69792,-0.07755l-0.55803,0.07541l-0.54629,-0.13657h-1.94194l-0.55484,-0.13871h-0.27864l-0.28038,-0.06231l-0.09346,0.06231h-1.54975l-0.26743,-0.0382l-0.36931,0.0382h-0.07393l-0.05219,0.01305l-0.07838,0.00811h-0.20094l-1.1943,-0.29857h-1.40153l-0.00609,-0.00265l-0.05832,-0.00972l-0.08791,-0.0293l-0.16326,-0.01256l-0.28342,-0.04724l-0.29025,-0.1548l-0.55484,-0.13871h-0.33305l-0.30345,-0.13727l-1.52581,-0.27742l-0.2713,0.01769v-0.23338l-0.04237,-0.16949l0.02899,-0.17754l-0.13606,-1.63278l-0.10681,-1.38856v-4.90135l0.00265,-0.00609l0.06439,-0.38634l0.07167,-0.28668v-0.14334l0.00265,-0.01589l-0.00265,-0.03311v-0.77862l-0.03468,-0.13871l0.17339,-0.69355v-0.399l0.0382,-0.26743l-0.03346,-0.32349z" fill="#000000" stroke-width="0"/><path d="M238.81365,182.62612c0,0 0,-0.25 0.25,-0.25c0.20924,0 0.24336,0.17513 0.24892,0.23223c-0.01487,-1.85924 -0.1787,-3.65226 -0.23216,-5.50556c-0.28503,0.72333 -0.78277,1.21068 -1.21498,2.07511l-0.31497,0.17183c0,0 -0.22361,0.1118 -0.33541,-0.1118c-0.1118,-0.22361 0.1118,-0.33541 0.1118,-0.33541l0.18503,-0.07817c0.58619,-1.17238 1.30178,-1.56664 1.30178,-3.07322c0,0 0,-0.02674 0.00875,-0.06273c-0.01911,-0.07238 -0.02836,-0.20697 0.12945,-0.28587c0.22361,-0.1118 0.33541,0.1118 0.33541,0.1118c0.04454,0.09022 0.09261,0.17693 0.14373,0.26054c0.09829,0.04623 0.12375,0.14817 0.13035,0.19788c0.85185,1.20527 2.32063,1.76812 2.63374,3.19072l0.11857,-0.03734c0,0 0.25,0 0.25,0.25c0,0.25 -0.25,0.25 -0.25,0.25l-0.38143,-0.03734c-0.72145,-1.16555 -1.59583,-1.7675 -2.35783,-2.7154c0.04785,2.02333 0.23926,3.97073 0.23926,6.00274c0,0.16667 0,0.33333 0,0.5v0.17948c0.71888,-0.67136 1.74259,-1.70932 1.90602,-1.85923c0.47614,-0.43459 0.96233,-0.7803 1.39576,-1.22559l0.287,-0.09203c0,0 0.24736,-0.03623 0.28359,0.21114c0.03623,0.24736 -0.21114,0.28359 -0.21114,0.28359l-0.0059,-0.04914c-0.4677,0.45766 -0.91922,0.78707 -1.41133,1.2405c-0.50363,0.46196 -2.31218,2.66655 -3.02131,2.56023c-0.03861,-0.00304 -0.07052,-0.0125 -0.09691,-0.02608c-0.74518,-0.27245 -2.20656,-2.26834 -2.5838,-2.8342c0,0 -0.13868,-0.20801 0.06934,-0.34669c0.20801,-0.13868 0.34669,0.06934 0.34669,0.06934c0.40523,0.60784 1.33532,1.88801 2.04199,2.44832c0,-0.44213 0,-0.97553 0,-1.30965zM239.47515,183.86358c-0.1615,-0.05065 -0.1615,-0.23746 -0.1615,-0.23747c0,0.12478 0,0.24957 0,0.37435c0.04763,-0.03854 0.10189,-0.08463 0.1615,-0.13689zM239.31365,183.62612c0,-0.16667 0,-0.58333 0,-0.75c0,0.25 0,0.5 0,0.75c0,0 0,0 0,0z" fill="#9966ff" stroke-width="0.5"/></g></g></svg>