<svg version="1.1" xmlns="http://www.w3.org/2000/svg" xmlns:xlink="http://www.w3.org/1999/xlink" width="667.17291" height="421.01314" viewBox="0,0,667.17291,421.01314"><g transform="translate(111.81271,43.45932)"><g data-paper-data="{&quot;isPaintingLayer&quot;:true}" fill="#000000" fill-rule="nonzero" stroke="none" stroke-width="0.5" stroke-linecap="butt" stroke-linejoin="miter" stroke-miterlimit="10" stroke-dasharray="" stroke-dashoffset="0" style="mix-blend-mode: normal"><path d=""/><path d="M28.00154,-6.58334c0.25,0.00154 0.24845,0.25154 0.24845,0.25154l-0.00297,0.48218c-0.00717,1.16256 -0.01588,2.25849 -0.14588,3.35247c-0.16384,-0.01451 -0.33026,-0.02433 -0.49923,-0.02917c0.13173,-1.08545 0.138,-2.17171 0.14512,-3.32638l0.00297,-0.48218c0,0 0.00154,-0.25 0.25154,-0.24845z"/><path d="M477.05561,-0.88018c-0.24879,0.02457 -0.27336,-0.22422 -0.27336,-0.22422l-0.00214,-0.02165c-0.01552,-0.15717 0.00722,-1.25894 -0.07429,-1.33943c-0.13511,-0.13344 -1.20307,0.02257 -1.42398,-0.0799c-1.29008,-0.59837 -2.57719,-2.57636 -3.62092,-3.56118c-0.73717,-0.69562 -1.60477,-1.88981 -2.49174,-2.36339c-0.22914,-0.12235 -0.54355,-0.1281 -0.84374,-0.15793c1.95253,3.01661 3.06297,5.86604 5.40233,8.45576c2.20881,2.44521 4.11034,5.80756 5.9754,8.60044c1.0244,1.53401 2.60619,2.5837 3.67035,4.0678c0.95714,1.33484 1.52627,2.98163 2.44953,4.3605c0.58128,0.86813 1.14808,2.15753 1.9096,2.8641c0.79814,0.74055 2.40262,0.89105 3.0731,1.75438c0.5817,0.74901 0.71019,2.54288 0.96066,3.46564c0.11794,0.43451 0.27606,2.02252 0.57933,2.291c0.25442,0.22524 1.14742,-0.03034 1.46517,0.19899c1.2632,0.91165 2.27088,4.45525 2.979,5.87297c2.30379,2.67964 3.05244,6.08055 5.14929,8.97881c2.10798,2.91364 3.23825,5.88236 5.2378,8.91985c1.90956,2.90344 3.40887,6.16314 5.073,9.21497c1.67659,3.07468 3.40216,6.12673 4.9672,9.25979c1.56425,3.13148 3.09845,6.2781 4.64352,9.41909c0.86773,1.76402 0.17993,3.59427 0.51382,5.46341c0.27663,1.54857 1.13833,3.18458 1.6676,4.67c1.17475,3.29696 2.34949,6.59393 3.52424,9.89089c1.17785,3.30568 2.35056,6.59643 3.36458,9.95633c1.01125,3.35073 2.0225,6.70145 3.03375,10.05218c1.01042,3.34796 3.03272,6.28971 4.1328,9.61782c1.10098,3.33083 2.22359,6.64314 3.1483,10.02756c0.92248,3.37624 1.84496,6.75249 2.76744,10.12873c0.9223,3.37557 1.92347,6.72466 2.92564,10.07731c1.00284,3.35488 2.1518,6.69304 2.82415,10.13035c0.67189,3.4349 1.34377,6.86981 2.01566,10.30471c0.67866,3.46956 0.55325,6.93344 0.98879,10.43829c0.43162,3.47328 0.86323,6.94657 1.29485,10.41985c0.43225,3.47839 0.86725,6.95645 1.29628,10.43524c0.00325,3.50514 0.00045,7.0103 0.00038,10.51545c-0.00007,3.50011 -0.00014,7.00021 -0.00021,10.50032c-0.00912,3.56592 -0.14392,6.95761 -0.62686,10.49207c-0.47384,3.46778 -0.94767,6.93555 -1.42151,10.40333c-0.47766,3.49579 -0.76764,6.99119 -1.88225,10.3437c-1.10422,3.32125 -2.20844,6.6425 -3.31266,9.96375c-1.10378,3.31992 -1.76613,6.76703 -2.87516,10.09238c-1.10732,3.32022 -2.21463,6.64044 -3.32195,9.96066c-1.10736,3.32035 -2.16952,6.66012 -3.33102,9.96188c-1.19329,3.39197 -2.66508,6.39293 -4.39027,9.54544c-0.60324,1.03174 -2.5654,1.31445 -3.68373,1.70273c-1.07017,0.37155 -1.39487,1.23047 -2.33058,1.72152c-0.91525,0.48031 -2.48927,0.47785 -3.51019,0.66923c-3.44008,0.64488 -6.88015,1.28976 -10.32023,1.93464c-3.4406,0.64498 -6.8812,1.28998 -10.3218,1.93492c-3.36484,0.58638 -7.03538,0.85224 -10.27162,1.94054c-3.31089,1.1134 -6.65692,2.14987 -9.90044,3.44726c-3.24967,1.29986 -6.49934,2.59972 -9.74902,3.89957c-3.24967,1.29986 -6.49934,2.59972 -9.74902,3.89957c-3.24967,1.29986 -6.49934,2.59972 -9.74902,3.89957c-3.25018,1.30006 -6.50115,2.59744 -9.75851,3.87941c-3.25685,1.28177 -6.5137,2.56353 -9.77055,3.8453c-3.39995,1.33808 -6.02306,2.6857 -9.14696,4.74631c-2.91888,1.92537 -6.15593,2.94965 -9.45166,4.30521c-3.23689,1.33136 -6.47379,2.66272 -9.71068,3.99408c-2.05624,0.84575 -4.34654,2.21846 -6.51731,2.67613c-1.12753,0.23772 -2.3388,-0.15059 -3.44536,0.2273c-3.31063,1.10855 -6.66767,2.12944 -9.92009,3.39888c-1.92496,0.75133 -4.07403,1.9859 -6.09873,2.37596c-1.28141,0.24687 -2.69193,-0.01883 -4.00096,0.171c-3.46377,0.50228 -6.92754,1.00457 -10.39131,1.50685c-3.41174,0.49474 -7.01289,0.72194 -10.35783,1.55028c-3.41749,0.84407 -6.81242,1.58171 -10.27817,2.19906c-3.44576,0.61379 -6.89152,1.22758 -10.33728,1.84137c-3.42809,0.61064 -7.0187,0.55281 -10.49552,0.73338c-3.49529,0.18153 -6.99058,0.36306 -10.48587,0.54459c-3.49492,0.18151 -7.00011,0.45867 -10.49978,0.47348c-3.50372,0.01482 -6.97409,-0.01866 -10.46235,0.32288c-3.48334,0.34105 -6.96669,0.68211 -10.45003,1.02316c-3.4739,0.34013 -7.02705,0.14736 -10.51722,0.14736c-3.5,0 -7,0 -10.5,0c-3.5,0 -7,0 -10.5,0c-3.5,0 -7,-0.00002 -10.5,-0.00006c-3.5,-0.00004 -7,-0.00009 -10.5,-0.00013c-3.5,-0.00004 -7,-0.00009 -10.5,-0.00013c-3.5,-0.00004 -7,-0.00009 -10.5,-0.00013c-3.5,-0.00004 -7,-0.00009 -10.5,-0.00013c-3.5002,-0.00004 -7.00042,-0.01423 -10.50061,-0.02327c-3.53888,-0.00914 -6.95939,-0.5631 -10.4609,-1.05633c-3.46578,-0.4882 -6.93157,-0.97639 -10.39735,-1.46459c-3.46578,-0.4882 -6.93157,-0.97639 -10.39735,-1.46459c-3.46578,-0.4882 -6.93157,-0.97639 -10.39735,-1.46459c-3.46578,-0.4882 -6.93157,-0.97639 -10.39735,-1.46459c-3.46578,-0.4882 -6.93157,-0.97639 -10.39735,-1.46459c-3.46578,-0.4882 -6.93157,-0.97639 -10.39735,-1.46459c-3.55285,-0.50046 -6.8351,-1.181 -10.2722,-2.21254c-3.35228,-1.00609 -6.70456,-2.01217 -10.05684,-3.01826c-3.35228,-1.00609 -6.70456,-2.01217 -10.05684,-3.01826c-3.35228,-1.00609 -6.70456,-2.01217 -10.05684,-3.01826c-3.35228,-1.00609 -6.70456,-2.01217 -10.05684,-3.01826c-3.35228,-1.00609 -6.70456,-2.01217 -10.05684,-3.01826c-3.35802,-1.00781 -6.68741,-2.07243 -10.01215,-3.18502c-3.32979,-1.11428 -6.58859,-2.36246 -9.85836,-3.64145c-3.25951,-1.27498 -6.51902,-2.54997 -9.77854,-3.82495c-3.25951,-1.27498 -6.51902,-2.54997 -9.77854,-3.82495c-3.25344,-1.27261 -6.4878,-2.62852 -9.7824,-3.79027c-3.42447,-1.20755 -6.27639,-2.84232 -9.37693,-4.72228c-2.99283,-1.81465 -5.98566,-3.6293 -8.97849,-5.44396c-2.92666,-1.78458 -5.81206,-3.93171 -8.51236,-6.10789c-2.7553,-2.22052 -5.24234,-4.59732 -7.83899,-6.99147c-2.57318,-2.3725 -5.14635,-4.745 -7.71953,-7.1175c-2.57318,-2.3725 -5.14635,-4.745 -7.71953,-7.1175c-2.50517,-2.3098 -3.20481,-6.10578 -5.23365,-8.94623c-2.03475,-2.84873 -4.12155,-5.66765 -6.07027,-8.57594c-1.90671,-2.84558 -3.75199,-5.98977 -5.86459,-8.62614c-2.11729,-2.64223 -4.03954,-5.86972 -6.97377,-7.58108c-1.39242,-0.81211 -0.991,-1.10214 -1.60658,-2.34558c-0.92029,-1.85894 -3.74292,-3.78808 -5.21308,-5.28297c-0.97565,-0.99206 -3.00334,-2.37546 -3.55671,-3.63997c-0.37745,-0.86251 0.22763,-2.15205 -0.14365,-2.99612c-0.25046,-0.56939 -1.26135,-1.24936 -1.70841,-1.70052c-2.46353,-2.48617 -4.92706,-4.97233 -7.39059,-7.4585c-2.45693,-2.47951 -5.19312,-4.82768 -7.11293,-7.7476c-0.52011,-0.79106 -1.32994,-1.67333 -1.67224,-2.55345c-0.10213,-0.26259 -0.01798,-1.21495 -0.19025,-1.4021c-0.21938,-0.23834 -1.14094,-0.10303 -1.42908,-0.33576c-0.977,-0.78915 -1.4719,-3.15688 -1.71035,-4.30739c-0.71567,-3.453 -1.46001,-6.78534 -2.56775,-10.13465c-1.09903,-3.32297 -2.19805,-6.64594 -3.29708,-9.96891c-1.07321,-3.24493 -2.691,-6.68967 -2.9528,-10.09975c-0.26791,-3.48973 -0.53583,-6.97946 -0.80374,-10.46919c-0.26791,-3.48973 -0.53583,-6.97946 -0.80374,-10.46919c-0.26791,-3.48973 -0.53583,-6.97946 -0.80374,-10.46919c-0.26982,-3.51454 -0.46001,-6.97621 -0.46001,-10.50153c0,-3.50064 -0.0187,-7.00186 0.01511,-10.50234c0.03235,-3.35004 2.6812,-6.57364 3.75276,-9.75532c1.12384,-3.3369 2.80735,-6.41305 4.37474,-9.56321c1.55912,-3.13355 3.11824,-6.26711 4.67735,-9.40066c1.55912,-3.13355 3.11824,-6.26711 4.67735,-9.40066c1.55912,-3.13355 3.11824,-6.26711 4.67735,-9.40066c1.59897,-3.21365 2.65161,-6.30588 3.63823,-9.75486c0.9722,-3.39854 2.13817,-6.64657 3.41839,-9.94078c1.26783,-3.2623 2.53565,-6.52461 3.80348,-9.78691c1.26783,-3.2623 2.53565,-6.52461 3.80348,-9.78691c1.2569,-3.2342 1.74376,-6.75059 2.45412,-10.14455c0.71702,-3.42577 1.43403,-6.85154 2.15105,-10.2773c0.71702,-3.42577 1.43403,-6.85154 2.15105,-10.2773c0.71702,-3.42577 1.43403,-6.85154 2.15105,-10.2773c0.71702,-3.42577 1.43403,-6.85154 2.15105,-10.2773c0.71702,-3.42577 1.43403,-6.85154 2.15105,-10.2773c0.717,-3.42569 1.43203,-6.85178 2.14557,-10.27819c0.71356,-3.42649 1.42713,-6.85298 2.14069,-10.27947c0.33655,-1.6161 0.41444,-5.75145 1.48419,-6.96716c0.55423,-0.62984 2.61069,-0.93707 3.41388,-1.21475c3.44195,-1.18998 6.16031,-3.29582 9.86051,-3.33419c3.43065,-0.0328 6.99,-0.80645 10.39693,-1.22624c3.47509,-0.42819 7.01563,-0.24646 10.51556,-0.24646c3.5,0 7,0 10.5,0c3.5,0 7,0 10.5,0c3.5,0 7,0 10.5,0c3.5,0 7.00001,0.00007 10.50001,0.00019c3.51952,0.00012 6.99652,0.04289 10.50763,0.29318c3.49114,0.24886 6.98228,0.49772 10.47342,0.74659c3.49911,0.24943 6.95725,0.46154 10.46577,0.46154c3.50001,0 7.00002,0.00029 10.50004,0.0008c3.51168,0.00051 7.01599,-0.09567 10.51242,0.24419c3.48358,0.33861 6.96716,0.67721 10.45075,1.01582c3.4802,0.33828 6.96864,0.24069 10.46409,0.24069c3.5,0 7,0 10.5,0c3.5,0 7,0 10.5,0.00001c3.5,0.00001 7,0.00002 10.5,0.00003c3.5,0.00001 7,0.00002 10.5,0.00003c3.5,0.00001 7,0.00002 10.5,0.00003c3.50002,0.00001 7.00005,-0.00089 10.50008,0.00018c3.5,0.00107 7,0.00214 10.5,0.00321c3.5,0.00107 7,0.00214 10.5,0.00321c3.5,0.00107 7,0.00214 10.5,0.00321c3.5,0.00107 7,0.00214 10.5,0.00321c3.50461,0.00107 7.0022,0.19791 10.5032,0.3514c3.49664,0.1533 6.99328,0.3066 10.48992,0.4599c3.49664,0.1533 6.99328,0.3066 10.48992,0.4599c3.50935,0.15386 6.98788,0.38126 10.48518,0.71075c3.48457,0.32829 6.96914,0.65658 10.45371,0.98487c3.48457,0.32829 6.96914,0.65658 10.45371,0.98487c3.48457,0.32829 6.96914,0.65658 10.45371,0.98487c3.48457,0.32829 6.96914,0.65658 10.45371,0.98487c3.48457,0.32829 6.96914,0.65658 10.45371,0.98487c3.48457,0.32829 6.96914,0.65658 10.45371,0.98487c3.48457,0.32829 6.96914,0.65658 10.45371,0.98487c3.48005,0.32787 6.9794,0.48257 10.46805,0.70006c3.49322,0.21777 6.98644,0.43554 10.47966,0.65331c3.49271,0.21774 6.98521,0.39681 10.48085,0.56059c3.49616,0.16381 6.99233,0.32761 10.48849,0.49142c3.49616,0.16381 6.99233,0.32761 10.48849,0.49142c3.49616,0.16381 6.99233,0.32761 10.48849,0.49142c3.49616,0.16381 6.99233,0.32761 10.48849,0.49142c3.49616,0.16381 6.99233,0.32761 10.48849,0.49142c3.49616,0.16381 6.99233,0.32761 10.48849,0.49142c3.49616,0.16381 6.99233,0.32761 10.48849,0.49142c3.49616,0.16381 6.99233,0.32761 10.48849,0.49142c3.49925,0.16395 6.97848,0.28054 10.48172,0.28054c3.5,0 7,0 10.5,0c1.18901,0 2.37801,0 3.56702,0c-0.76929,-1.30791 -1.44949,-2.69183 -2.18397,-3.91595c-1.54349,-2.57248 -3.08697,-5.14496 -4.63046,-7.71744c0,0 -0.12862,-0.21437 0.08575,-0.343c0.21437,-0.12862 0.343,0.08575 0.343,0.08575c1.54349,2.57248 3.08697,5.14496 4.63046,7.71744c0.7756,1.29266 1.49152,2.78877 2.32477,4.1732c2.12114,0 4.24229,0 6.36343,0c3.5,0 7,0 10.5,0c3,0 6,0 9,0c0,0 0.25,0 0.25,0.25c0,0.25 -0.25,0.25 -0.25,0.25c-3,0 -6,0 -9,0c-3.5,0 -7,0 -10.5,0c-2.01788,0 -4.03575,0 -6.05363,0c0.91545,1.4324 1.98665,2.69652 3.42382,3.41808c2.33489,1.17227 4.0652,4.22003 5.86102,6.52282c0.62077,0.02094 1.17903,0.10044 1.48912,0.30578c1.13444,0.75121 2.11519,3.89545 2.79483,5.48015c0.34142,0.17951 1.02101,0.08657 1.35549,0.26515c0.93447,0.49894 1.82587,1.71087 2.5994,2.44081c0.99364,0.93772 2.2696,2.90606 3.48815,3.47125c0.39218,0.1819 1.23031,-0.15275 1.56494,0.17773c0.21932,0.21661 0.1892,1.32881 0.22052,1.64605l0.00214,0.02165c0,0 0.02457,0.24879 -0.22422,0.27336zM365.93766,203.84745c0.08378,-0.18871 0.16756,-0.37743 0.25135,-0.56614c2.30629,-2.54619 3.31577,-6.08505 4.28728,-9.65178c0.82323,-1.8541 1.64597,-3.70852 2.46761,-5.56348c2.28857,-2.96535 4.43801,-6.07503 5.23331,-8.2286c0.13402,-0.36291 2.28114,-6.95901 4.76675,-14.61187c0.9035,-2.09838 1.80235,-4.19857 2.69567,-6.30086c0.17579,-0.41369 0.48765,-1.16603 0.90216,-2.17385c1.6775,-2.49145 3.42247,-4.94298 4.76729,-7.62155c0.16688,-0.33239 0.9173,-2.07213 2.01165,-4.64415c2.16118,-1.35372 4.33759,-2.694 6.18669,-4.4333c5.1305,-4.82585 9.58861,-10.32036 14.32557,-15.53304c1.42341,-1.56636 3.219,-2.9034 4.15385,-4.80225c2.43188,-4.93957 4.26071,-10.17755 5.82067,-15.4577c0.27468,-0.92974 0.35679,-1.91244 0.32922,-2.89496c1.55679,-0.81602 3.03071,-1.68345 3.69422,-3.21368c5.31122,-12.24892 5.62105,-26.22353 10.49359,-38.65347c2.31316,-5.90092 5.70543,-11.31965 8.54699,-16.98508c2.98887,-5.95912 5.98169,-11.91631 8.94427,-17.88854c2.25256,-4.5409 5.8899,-8.64707 6.70104,-13.65065c0.80011,-4.93557 2.95961,-11.93595 1.35201,-16.34931c0.22436,-0.72897 0.40316,-1.31244 0.51054,-1.65783l-7.57335,-14.33732c-3.62273,4.15446 -7.4781,8.12567 -11.19035,12.20961l-0.97805,-1.07594c-0.22237,0.58586 -0.45054,1.16962 -0.68423,1.75136c-3.85241,1.09526 -7.72084,2.41391 -11.3917,3.07567c-3.98287,0.71801 -7.91557,2.07893 -11.43826,4.07129c-1.23881,0.70065 -1.21487,2.63743 -2.21454,3.65045c-0.49464,0.50124 -1.52076,0.13358 -2.01481,0.6354c-4.97715,5.05542 -9.72763,10.34537 -14.20981,15.8444c-1.04522,1.28234 -1.61825,2.89114 -2.2926,4.40181c-0.88287,1.9778 -1.81713,3.93869 -2.75385,5.89952c-9.19555,0.23787 -19.9367,9.20254 -24.01414,11.56032c-2.11036,1.22032 -4.77264,1.99517 -6.09345,4.04414c-4.17032,6.46942 -6.69949,13.86051 -9.94676,20.83907c-2.81256,6.04433 -5.51067,12.14134 -8.23173,18.22741c-4.3418,9.71111 -8.49714,16.40614 -6.94164,27.99353c0.55326,4.12137 1.65939,8.12627 2.93826,12.09479c-2.2589,3.25812 -4.54551,6.58145 -6.95018,10.04708c-0.16543,2.53858 -0.8683,5.09912 -0.4963,7.61573c0.18094,1.22408 0.22361,2.60721 0.23015,4.04599c-1.17316,1.71284 -2.37502,3.51045 -3.56094,5.32977c-0.00307,-0.06535 -0.00612,-0.13069 -0.00914,-0.19604l-15.79351,5.9942c-1.83189,3.60097 -3.68521,7.19119 -5.55895,10.77072l-0.94868,-4.23163c-2.8282,4.42414 -5.98997,8.75413 -8.9378,13.18535c-1.54463,-2.82065 -3.52997,-4.85842 -6.16381,-4.19267c-4.14992,1.04897 -7.59531,2.43499 -10.4718,4.10106c-0.25053,-0.36831 -0.53178,-0.71263 -0.84958,-1.02502c-4.22367,-4.15173 -8.81105,-13.13162 -14.20123,-10.67761c-3.74686,1.70585 -7.33769,6.93732 -10.54804,13.01523c-0.44961,-0.85326 -0.89525,-1.70838 -1.33536,-2.56612l-2.43422,2.48614c-0.00824,-2.00313 -0.01623,-4.00625 -0.01768,-6.00933c-0.0016,-2.20914 0.85844,-4.60011 -0.01932,-6.62738c-3.25294,-7.51291 -8.06903,-14.24754 -12.10355,-21.37131l-3.51888,8.25169c-0.25588,-2.38192 -0.47124,-4.77345 -0.84355,-7.12914c-1.0039,-6.35191 -2.32588,-12.65875 -3.07275,-19.04599c-1.12359,-9.60894 -0.03063,-19.69278 -3.14446,-28.85238c-0.96622,-2.84222 -2.12253,-5.6069 -3.38708,-8.32743c0.18806,-2.19062 0.37399,-4.38142 0.55543,-6.57256l-2.79655,1.98016c-2.60819,-5.13818 -5.44339,-10.18376 -7.92954,-15.37172l-5.35833,7.27075c-0.48649,-2.43587 -1.14444,-4.81459 -2.18384,-7.06593c-2.85358,-6.18083 -7.54688,-11.29631 -11.74415,-16.69904c-0.0058,-0.69313 -0.00899,-1.38049 -0.00899,-2.06133c0,-1.5015 0.62104,-3.13746 0,-4.5045c-0.03216,-0.07078 -0.06446,-0.14149 -0.09691,-0.21212c0.00956,-0.04111 0.01913,-0.08221 0.02869,-0.12332l-0.07559,0.02152c-2.76898,-5.99527 -6.57996,-11.45771 -9.8562,-17.19359l-9.93178,14.83995c-1.98399,8.114 -3.54684,16.33907 -5.64769,24.42048c0.16173,-5.21726 0.05023,-10.22958 0.05394,-18.74992l-9.17519,-15.97193c-2.82172,5.66289 -6.05015,11.15166 -8.9463,16.78268l-1.87851,-0.81074c0.00075,1.65167 0.00619,3.16583 0.01303,4.57257c-1.16615,2.45418 -2.24069,4.94758 -3.16495,7.50532c-2.26565,6.26987 -2.19199,13.15192 -3.28798,19.72788c-0.58673,3.52041 -1.13014,6.72738 -1.66246,9.75454c-1.53262,5.89139 -3.11705,11.76981 -4.61977,17.66051c-1.05161,4.12234 -2.95304,8.17935 -4.16538,12.29076c-0.2135,-0.28419 -0.42459,-0.56921 -0.63198,-0.85551c0.20857,-1.3034 0.25696,-2.59948 -0.0432,-3.88111c-1.75281,-7.48423 -6.07663,-14.12157 -9.11495,-21.18236l-13.29119,23.07985c-1.09043,6.32432 -1.86696,12.71086 -3.27128,18.97297c-0.40294,1.79678 -1.1157,3.5074 -1.77984,5.23159c-1.12471,1.95696 -2.53572,3.93461 -4.02287,5.90665c-0.35912,-2.80883 -0.80099,-5.60411 -1.38575,-8.37598c-3.31647,-15.72062 -11.58636,-29.05075 -19.39395,-42.66721c-1.3155,-2.29424 -2.18762,-4.84191 -3.65664,-7.04102c-1.64934,-2.46905 -4.10124,-4.36148 -5.61192,-6.91772c-2.05363,-3.47498 -5.25172,-9.94651 -9.12042,-15.1048c-2.00938,-7.19939 -3.08776,-14.6711 -4.94237,-21.92229c-0.32844,-1.28413 -1.22844,-2.3541 -1.72144,-3.58447c-1.17737,-2.93834 -1.98817,-6.01065 -3.003,-9.00901l-10.04132,-7.73711c0.17063,-1.21831 0.25178,-2.44637 0.21169,-3.6876c-0.23908,-7.40204 -4.4064,-14.14118 -6.6096,-21.21177l-16.76736,10.27458c-0.30128,0.30231 -0.65011,0.64521 -1.03973,1.02442l-1.12041,-2.41624c1.7362,-2.42747 3.07065,-6.26435 -0.0861,-10.99948c-2.90594,-4.35891 -6.57305,-4.91194 -9.4063,-4.45042c-0.92548,-1.39414 -1.83977,-2.79245 -2.62268,-4.23957l-15.03302,13.44097c-0.00977,0.38242 -0.03416,0.75685 -0.07165,1.1242c-9.41244,6.52989 -18.5061,14.74928 -19.39751,26.19715c-0.35917,4.61262 6.39803,6.30847 11.12075,8.22901c-0.28912,2.31507 -0.58506,4.62898 -0.91545,6.93696l8.01136,-0.9769c-0.12448,0.39306 -0.25353,0.80146 -0.38739,1.22733l4.35571,10.31873c-2.05219,5.69986 -4.22318,11.36584 -5.65134,17.24495c-1.62259,6.67954 -2.70876,13.47809 -4.06313,20.21713l3.53206,21.45941c4.8187,-3.67008 9.86731,-7.06756 14.73756,-10.67652c0.40106,3.66148 0.8198,7.32372 0.99806,10.97553l1.31654,-0.96851c-0.84803,2.58925 -1.68757,5.18134 -2.5173,7.77728c-1.11333,1.5118 -1.91893,3.10963 -1.8977,4.93857c0.00363,0.31239 0.01756,0.62277 0.04106,0.9313c-1.40649,4.49554 -2.78061,9.00481 -4.1154,13.53298l1.46561,7.96986c-1.1849,3.47269 -2.3032,6.96769 -3.35999,10.47851l2.13712,21.01039c2.24352,-1.52793 4.48704,-3.05586 6.73057,-4.58379l-0.94681,2.97014c2.697,-1.57957 5.394,-3.15913 8.091,-4.7387c1.56094,3.37229 3.42247,6.67786 4.73774,10.10469l6.54485,-4.24399c1.73645,0.93562 3.60147,1.49267 5.47058,1.48334c1.6342,-0.00816 4.35182,-2.15895 7.3867,-5.20564c-0.26448,0.68216 -0.54532,1.35274 -0.85423,2.00348l-0.94902,25.45411c4.8987,-2.2888 9.9432,-4.4078 14.88182,-6.70514l-3.36676,21.35024c2.25201,-0.96751 4.50402,-1.93503 6.75603,-2.90254l-0.93524,4.25341l4.3613,-3.21194l-0.07298,7.53102c5.41984,-1.32649 10.93435,-2.32376 16.32543,-3.75023c-1.21702,3.65576 -2.42933,7.31307 -3.63337,10.97313c-1.3359,4.06089 -3.24767,7.98732 -3.9329,12.20702c-0.6418,3.95223 0,8.00801 0,12.01201l1.40004,24.29511c6.94635,-6.88241 14.67624,-13.06014 20.98841,-20.51289c0.00282,0.32723 0.00462,0.6544 0.00528,0.98151l17.52764,-12.37789c4.65722,-12.6217 10.18243,-24.87178 15.29145,-37.29591c4.57584,-4.83429 9.12769,-9.68761 12.97658,-15.09873c1.44926,-2.0375 2.63641,-4.231 3.7089,-6.49274l2.64231,10.10672c2.31932,-3.05543 4.74313,-6.03878 7.15705,-9.02894c2.69174,1.12684 5.83775,1.59848 8.65155,1.93233c5.17373,0.61385 10.4185,-0.81956 15.51261,-1.9124c2.77954,-0.59629 4.86964,-2.78784 7.14519,-4.60507c0.96281,3.22644 3.17947,6.11315 4.2485,9.34369c0.43876,1.32592 -0.39852,2.99815 0.35364,4.17494c7.80993,12.21898 10.78096,13.67143 20.65349,21.93278c1.138,1.02094 1.80526,2.46896 2.65637,3.73899c3.69929,5.52013 7.46654,10.99981 11.44114,16.32515c0.7015,0.93991 1.90532,1.44398 2.55147,2.42276c3.38948,5.13436 5.45078,11.22214 9.60327,15.76164c4.13588,4.52135 15.25393,13.68045 23.97373,20.13664c0.96756,1.80327 1.93221,3.60726 2.89248,5.41258l22.23543,22.04706c-0.17762,-4.02942 -0.17492,-8.07737 -0.20051,-12.1224c1.36483,0.8536 2.75302,1.66742 4.1782,2.41827c1.17629,0.61972 2.65883,0.04497 3.98838,0.04867c6.14551,0.01709 15.82855,0.86845 21.74283,-1.91741c2.11022,0.23172 4.19452,0.37028 6.2327,0.4006c2.91126,0.0433 6.5964,0.72035 8.62728,-1.36599c5.83808,-5.99748 8.9221,-14.16362 13.38315,-21.24543l3.18607,-15.56225l3.90907,-4.6094c0.31319,-0.008 0.63499,-0.08225 0.96694,-0.23466c0.93228,-0.42805 1.30305,-1.33034 1.29133,-2.4282l1.89708,-2.23696c1.86742,-1.13904 3.76624,-2.76673 5.82861,-5.09255c1.73774,-1.95973 0.73973,-5.19024 1.28927,-7.75116c1.59947,-7.45372 6.49286,-13.82483 9.00901,-21.02102c0.49924,-1.42783 0.44177,-3.03936 0.20422,-4.53318c-0.30348,-1.90842 -0.63018,-3.81278 -0.97326,-5.71427zM464.88967,-13.65631c0.81622,0.83085 1.48188,2.31423 2.20506,3.4034c-0.59782,-1.55926 -1.3464,-3.47663 -2.11642,-3.98653c-0.17152,-0.11358 -0.45777,-0.17817 -0.80208,-0.21156c0.23535,0.28279 0.47267,0.5496 0.71344,0.79468z"/><path d="M387.53163,56.08959c0.1922,-0.08435 0.38477,-0.16838 0.57751,-0.25229c-0.06659,0.2561 -0.1331,0.51222 -0.19955,0.76836z"/><path d="M209.51377,237.60977c0,-0.13807 0.11193,-0.25 0.25,-0.25c0.13807,0 0.25,0.11193 0.25,0.25c0,0.13807 -0.11193,0.25 -0.25,0.25c-0.13807,0 -0.25,-0.11193 -0.25,-0.25z"/><path d="M168.97323,228.60076c0,-0.25 0.25,-0.25 0.25,-0.25c0.5,0 1.0015,0 1.5015,0c0,0 0.25,0 0.25,0.25c0,0.25 -0.25,0.25 -0.25,0.25c-0.5,0 -1,0 -1.5,0h-0.0015c0,0 -0.25,0 -0.25,-0.25z"/><path d=""/><path d="M334.35305,115.69081c-3.48579,0.31505 -6.97158,0.6301 -10.45738,0.94515c-3.48579,0.31505 -6.97158,0.6301 -10.45738,0.94515c-3.48579,0.31505 -6.97158,0.6301 -10.45738,0.94515c-3.48579,0.31505 -6.97158,0.6301 -10.45738,0.94515c-3.48579,0.31505 -6.97158,0.6301 -10.45738,0.94515c-3.81053,0.3444 -6.41503,1.13739 -9.87896,2.75643c-3.17075,1.482 -6.3415,2.96401 -9.51225,4.44601c-3.1662,1.47988 -6.36805,2.90172 -9.48237,4.48793c-2.68864,1.3694 -4.51269,3.74172 -7.28098,5.12586c0,0 -0.22361,0.1118 -0.33541,-0.1118c-0.1118,-0.22361 0.1118,-0.33541 0.1118,-0.33541c2.767,-1.3835 4.58221,-3.75132 7.27766,-5.12419c3.11936,-1.58878 6.32626,-3.01309 9.49758,-4.49536c3.17075,-1.482 6.3415,-2.96401 9.51225,-4.44601c3.505,-1.63823 6.18885,-2.45285 10.04567,-2.80144c3.48579,-0.31505 6.97158,-0.6301 10.45738,-0.94515c3.48579,-0.31505 6.97158,-0.6301 10.45738,-0.94515c3.48579,-0.31505 6.97158,-0.6301 10.45738,-0.94515c3.48579,-0.31505 6.97158,-0.6301 10.45738,-0.94515c3.48579,-0.31505 6.97158,-0.6301 10.45738,-0.94515c2.84534,-0.25716 5.69061,-0.51527 8.536,-0.77188c0.03136,0.16487 0.0635,0.32957 0.09637,0.49412c-2.86239,0.25931 -5.72492,0.51702 -8.58737,0.77573z"/><path d=""/></g></g></svg>