<svg version="1.1" xmlns="http://www.w3.org/2000/svg" xmlns:xlink="http://www.w3.org/1999/xlink" width="427" height="312" viewBox="0,0,427,312"><g transform="translate(-27.5,-26)"><g data-paper-data="{&quot;isPaintingLayer&quot;:true}" fill-rule="nonzero" stroke="none" stroke-linecap="butt" stroke-linejoin="miter" stroke-miterlimit="10" stroke-dasharray="" stroke-dashoffset="0" style="mix-blend-mode: normal"><path d="M27.5,338v-312h427v312z" fill="#2400ff" stroke-width="0"/><text transform="translate(192.5,56) scale(0.5,0.5)" font-size="40" xml:space="preserve" fill="#ffffff" fill-rule="nonzero" stroke="none" stroke-width="1" stroke-linecap="butt" stroke-linejoin="miter" stroke-miterlimit="10" stroke-dasharray="" stroke-dashoffset="0" font-family="Sans Serif" font-weight="normal" text-anchor="start" style="mix-blend-mode: normal"><tspan x="0" dy="0">Failed</tspan></text><text transform="translate(59.5,100) scale(0.5,0.5)" font-size="40" xml:space="preserve" fill="#ffffff" fill-rule="nonzero" stroke="none" stroke-width="1" stroke-linecap="butt" stroke-linejoin="miter" stroke-miterlimit="10" stroke-dasharray="" stroke-dashoffset="0" font-family="Sans Serif" font-weight="normal" text-anchor="start" style="mix-blend-mode: normal"><tspan x="0" dy="0">This specific Scratch user has failed to</tspan><tspan x="0" dy="46.150000000000006px">get access to the Exit Finding</tspan><tspan x="0" dy="46.150000000000006px">moderation system.</tspan></text><path d="M198.5,200.5c2.5,0 2.5,2.5 2.5,2.5c-0.03576,0.75851 -0.3637,1.56079 -0.10727,2.27554c0.40586,1.13125 1.6332,1.85549 2,3c0.24668,0.7697 -0.75141,1.76379 -0.2661,2.41013c0.09031,0.12027 5.53512,1.89998 5.66394,1.94262l0.18813,-0.01996l1.48409,-1.37794c4.37192,-3.49448 8.73789,-7.20391 11.29142,-12.32877c0.50619,-1.01592 0.53662,-2.2418 1.11916,-3.21595c0.48388,-0.80916 1.51091,-1.19397 2,-2c1.09611,-1.80643 1.47486,-3.96885 2.41842,-5.85943c1.44793,-2.90116 3.20126,-5.66666 4.36349,-8.6936c0.53986,-1.40601 0.4925,-3.01888 1.16921,-4.36438c0.46367,-0.92192 1.57573,-1.37089 2.14739,-2.23003c0.80508,-1.20994 1.16974,-2.67161 1.93584,-3.9066c3.76577,-6.0705 9.90906,-10.91352 14.38332,-16.45633c9.3294,-6.58321 20.56553,-10.34137 31.98251,-9.16041c4.11595,0.42575 11.28624,1.71044 13.8887,5.73029c0.95388,1.4734 0.28149,3.5005 0.33772,5.25482c0.11308,3.52787 0.12155,5.11042 -0.37579,8.3222c-1.9558,12.63031 -5.90881,24.35897 -12.99758,34.99212c-2.78603,4.88119 -5.74146,9.77948 -9.15611,14.2242c-0.2535,0.32997 -3.99544,4.02627 -4.94241,4.92325c-0.56518,0.53534 -1.50211,0.8337 -1.71841,1.58152c-0.13507,0.46698 0.90732,-0.50717 1.38927,-0.44359c1.55167,0.20469 3.13427,0.52213 4.53278,1.2248c2.03095,1.02044 3.48562,2.94043 5.40797,4.15314c3.7812,2.38536 7.54384,3.8217 11.45867,5.77657c1.04697,0.52281 1.83997,1.49252 2.91301,1.9595c3.44466,1.4991 8.17774,1.6085 11.7683,2.48264c5.15988,1.2562 9.54029,3.57606 14.29575,5.85687c7.47774,4.99685 12.24288,10.65327 16.53633,18.44313c0.88095,1.59836 2.12371,3.01717 2.76426,4.72612c1.65089,4.40448 0.93355,9.95186 0.05601,14.3649c-0.76241,3.83409 -0.95594,7.04051 -3.67509,10.19114c-0.8535,0.98894 -8.16165,3.64932 -8.28417,3.67637c-1.27618,0.28164 -2.64231,-0.28838 -3.92063,-0.01662c-1.09338,0.23244 -1.94736,1.1265 -3.0048,1.48891c-0.16056,0.05503 -9.9692,2.51086 -10.15592,2.54199c-6.56889,1.09516 -13.55471,1.22142 -20.03309,-0.05292c-3.75713,-1.24655 -7.22785,-2.16322 -10.67266,-4.28962c-6.02668,-3.72014 -11.59218,-9.98349 -15.69847,-15.64385c-1.59899,-2.20415 -2.54072,-4.82921 -4.06182,-7.08781c-2.27136,-3.37261 -4.7422,-6.61732 -7.00479,-10.00715c-0.77776,-1.16525 -1.78456,-2.2063 -2.33493,-3.49463c-0.40393,-0.94553 0.54108,-3.28059 -0.46092,-3.04996c-1.01316,0.23321 0.34379,2.08602 0.18496,3.11348c-0.13475,0.87173 -0.69371,1.62206 -1.04224,2.43236c-1.97083,4.58208 -4.16449,9.18278 -6.61616,13.51006c-0.96453,1.62622 -1.6455,3.45838 -2.8936,4.87865c-1.75971,2.00245 -4.56763,2.80051 -6.56869,4.5618c-2.15674,1.89831 -3.30252,4.81684 -5.57749,6.57171c-3.74423,2.88824 -9.20229,3.4691 -13.14974,6.11682c-0.75221,0.50454 -1.19652,1.37483 -1.91039,1.9323c-2.17697,1.70003 -4.71584,2.87806 -7.04047,4.36983c-4.22526,2.71143 -7.88226,5.77404 -12.44395,7.93064c-0.94233,0.4455 -9.37706,4.18707 -9.93049,4.23539c-1.63861,0.14307 -3.13675,-1.01008 -4.74557,-1.35243c-5.29842,-1.12747 -10.21441,-0.68788 -14.85268,-4.11574c-1.50174,-1.10984 -2.56528,-2.71426 -3.84792,-4.0714c-0.01366,-1.93592 -0.51239,-3.93007 -0.04098,-5.80777c0.29742,-1.18469 1.46341,-1.95671 2.2292,-2.90829c1.77431,-2.20479 3.88492,-4.13848 5.53663,-6.43655c1.04749,-1.45741 1.63517,-3.24072 2.8275,-4.58222c0.70622,-0.79457 1.89293,-0.99637 2.72208,-1.66166c1.25263,-1.00508 2.27878,-2.26696 3.48937,-3.32229c1.70855,-1.48943 6.09793,-4.16846 7.36374,-6.45783c0.43144,-0.78031 0.10779,-1.88779 0.65171,-2.59431c1.09236,-1.41891 2.89659,-2.15761 4.05672,-3.52167c1.03205,-1.21346 1.54197,-2.793 2.43552,-4.11178c1.36495,-2.01453 3.58803,-3.40704 4.74495,-5.54783c0.37418,-0.69238 0.0323,-1.58264 0.19239,-2.35321c0.23471,-1.12978 1.21294,-2.18703 0.98585,-3.31837c-0.10776,-0.53686 -1.1029,0.14591 -1.64195,0.04972c-0.92469,-0.165 -1.83096,-0.45486 -2.69486,-0.82359c-2.59055,-1.10568 -5.08701,-2.44984 -7.75016,-3.36697c-3.95027,-3.16088 -8.3937,-5.16742 -12.38299,-8.25873c-13.19482,-10.22469 -22.26965,-23.78888 -28.722,-38.9701c-2.91416,-6.85649 -3.98479,-12.23628 -2.10927,-19.60492c0.59307,-2.3301 1.96712,-6.16924 4.14209,-7.46812c1.76957,-1.05678 4.01854,-0.91869 6.02781,-1.37804c1.27358,0.01824 2.58968,-0.27217 3.82073,0.05471c1.56886,0.41658 2.88802,1.48947 4.38233,2.12342c1.1623,0.4931 5.45332,1.64947 6.34757,2.17689c0.9041,0.53323 1.41237,1.57964 2.27619,2.17592c1.37482,0.94902 3.05415,1.41605 4.38679,2.42344c3.37412,2.55063 5.38951,5.78282 7.9661,8.94847c1.78547,2.19365 4.17195,3.84171 6,6c0.72426,0.8551 1.04062,2.02623 1.83441,2.81721c0.85135,0.84832 2.15158,1.14875 3,2c0.90587,0.90888 1.33718,2.20279 2.16559,3.18279c0.42567,0.50357 1.43419,1.4875 2.56672,2.57787c0.00234,-0.146 0.07769,-2.49289 2.49992,-2.49289z" fill="#ff0000" stroke-width="0.5"/><text transform="translate(124.5,321) scale(0.5,0.5)" font-size="40" xml:space="preserve" fill="#ffffff" fill-rule="nonzero" stroke="none" stroke-width="1" stroke-linecap="butt" stroke-linejoin="miter" stroke-miterlimit="10" stroke-dasharray="" stroke-dashoffset="0" font-family="Sans Serif" font-weight="normal" text-anchor="start" style="mix-blend-mode: normal"><tspan x="0" dy="0">Green Flag to go back.</tspan></text></g></g></svg>