<svg version="1.1" xmlns="http://www.w3.org/2000/svg" xmlns:xlink="http://www.w3.org/1999/xlink" width="610.84264" height="346" viewBox="0,0,610.84264,346"><g transform="translate(68.34264,-89)"><g data-paper-data="{&quot;isPaintingLayer&quot;:true}" fill-rule="nonzero" stroke="none" stroke-width="0.5" stroke-linecap="butt" stroke-linejoin="miter" stroke-miterlimit="10" stroke-dasharray="" stroke-dashoffset="0" style="mix-blend-mode: normal"><path d="" fill="#000000"/><path d="" fill="#000000"/><path d="" fill="#000000"/><path d="" fill="#000000"/><path d="" fill="#000000"/><path d="" fill="#000000"/><path d="" fill="#000000"/><path d="" fill="#000000"/><path d="" fill="#ff0000"/><path d="" fill="#000000"/><path d="M-52.80364,95.17387c3.41708,-3.03044 7.10741,-4.64817 10.94825,-5.35889c2.02931,-0.53181 4.15928,-0.81498 6.35539,-0.81498c2.82186,0 5.53453,0.46753 8.06476,1.32935c3.42347,0.63402 6.84815,1.48045 10.19857,2.22822c6.32041,1.41064 12.84677,1.70007 19.15993,3.03775c12.54841,2.65886 25.21103,5.69944 37.80279,7.89744c15.4063,2.6893 30.70532,2.83065 46.07804,4.72654c16.68379,2.05757 32.86867,4.58463 49.69591,4.7807c5.37562,0.06264 11.45737,1.66342 16.36759,2.08441c6.39291,0.54812 12.81138,0.84084 19.22731,0.91559c19.78707,0.23052 39.57849,0.25705 59.36523,0c16.32253,-0.21205 31.6353,-5.90257 47.50433,-8.74874c4.33711,-0.77788 7.38968,-0.93501 11.45916,-1.83303c7.59069,-1.67506 15.58588,-2.98004 23.27494,-4.12752c8.48109,-1.26569 17.03594,-3.91986 25.40872,-5.95144c5.34756,-1.29754 11.42841,-4.26207 17.11069,-3.89947c7.24665,0.46242 15.73942,5.35063 20.37577,11.10707c0.70666,0.87738 0.37058,2.25874 0.88179,3.26264c0.51121,1.0039 1.82604,1.54458 2.11997,2.63213c0.98754,3.65391 1.85302,7.64026 0.94774,11.31541c-0.9842,3.99554 -1.74603,8.22077 -3.9495,11.69607c-1.86808,2.94634 -4.75424,5.16218 -6.6,8.12256c-1.35581,2.17455 -3.30117,6.81369 -4.36464,9.30004c-11.2244,26.24228 -21.30756,53.59979 -35.80332,78.20498c-9.15548,15.54057 -21.56913,44.14006 -40.69666,50.22609c-6.33942,2.01709 -13.05819,0.37029 -19.13904,-1.45779c-4.41386,-1.32693 -9.33384,-1.59152 -13.84223,-2.95453c-15.82325,-4.78382 -31.8042,-9.5784 -47.74595,-13.90819c-28.54093,-7.75174 -57.47598,-13.33242 -85.9653,-20.73272c-11.05556,-2.87176 -21.85315,-6.56387 -32.8423,-9.53648c-23.13188,-6.25727 -45.12946,-15.23606 -68.1577,-21.46352c-6.41666,-1.73524 -15.14075,-6.2369 -20.79542,-7.38519c-14.4481,-2.93396 -28.915,-9.39604 -42.71863,-14.45242c-5.75813,-2.10925 -14.70887,-4.24785 -18.19858,-9.61635c-2.06286,-3.17347 -4.05809,-6.40121 -5.80574,-9.75859c-3.42292,-6.57568 0.82289,-15.84077 4.41818,-21.68033c1.83408,-2.97897 4.52448,-5.55956 7.28289,-7.5086c0.75634,-0.53441 4.78551,-2.45874 4.76233,-2.93971c-0.8396,-0.63845 -1.6376,-1.32879 -2.38922,-2.06623c-1.29912,-1.27462 -2.45966,-2.68998 -3.45696,-4.22139c-2.55238,-3.91935 -4.03545,-8.59885 -4.03545,-13.62475c0,-5.18615 1.57916,-10.00347 4.28286,-13.99734c0.82711,-1.83061 1.90016,-3.48669 3.4135,-4.82879z" fill="#a500ff"/><path d="M389.23373,380.91093c7.04077,-7.77294 13.49181,-15.25867 20.83817,-22.83817c4.81497,-4.96777 8.51085,-11.21756 13.30312,-16.2915c16.85435,-17.845 33.14399,-36.16056 49.98244,-53.99405c8.08488,-8.56264 15.68035,-17.64133 24.46488,-25.46488c10.55086,-9.39665 32.32964,-11.54857 40.77142,3.22454c2.47601,4.33302 3.90625,9.46256 3.90625,14.45313c0,16.11604 -4.71304,13.90175 -13.9955,22.35084c-9.4212,8.57538 -18.0794,18.56375 -26.86195,27.86195c-13.98183,14.80274 -27.75019,30.34395 -41.45755,45.41646c-7.90024,8.68705 -14.06148,16.84249 -22.2569,25.29799c-7.81429,8.06228 -14.17971,18.13301 -22.65979,25.5884c-2.00198,2.27328 -4.41049,4.17992 -7.11183,5.60626c-1.30529,0.78428 -2.49595,1.27614 -3.85958,1.6383c-2.45347,0.80462 -5.07436,1.23981 -7.7969,1.23981c-11.10083,0 -20.51181,-7.23514 -23.77456,-17.24705c-1.56748,-1.44578 -1.0313,-2.32196 -1.0017,-4.39381c-0.14755,-1.09871 -0.22374,-2.22003 -0.22374,-3.35914c0,-7.44589 3.25514,-14.13151 8.41999,-18.71142c2.87499,-3.54342 6.15722,-6.89288 9.31374,-10.37764z" fill="#a500ff"/><path d="M-18.5,288c0,-13.80712 11.19288,-25 25,-25c13.80712,0 25,11.19288 25,25c0,13.80712 -11.19288,25 -25,25c-13.80712,0 -25,-11.19288 -25,-25z" fill="#a500ff"/><path d="M90.5,297c0,-13.80712 11.19288,-25 25,-25c13.80712,0 25,11.19288 25,25c0,13.80712 -11.19288,25 -25,25c-13.80712,0 -25,-11.19288 -25,-25z" fill="#a500ff"/><path d="M32.55658,328.74473c0.25475,0.1637 4.0864,1.40627 4.35979,1.52864c7.14462,3.19796 13.88707,7.41512 21.3476,9.78432c8.28159,2.62994 16.94715,3.97252 25.56123,5.11225c9.04764,1.19709 18.20833,1.27637 27.31458,1.88376c4.90905,0.32743 9.81121,0.94062 14.73112,0.9207c10.30029,-0.04171 16.9402,-9.90816 28.02665,-9.13017c3.77573,0.26496 7.85633,0.69554 11.00565,2.79508c4.1524,2.76827 7.72564,6.71664 9.95749,11.18034c13.73335,27.4667 -24.924,44.4974 -46.36068,45.18034c-6.57157,0.20936 -15.10038,-0.69765 -20.63924,-1.06173c-22.95827,-1.50909 -41.70146,-2.09372 -64.06333,-8.93919c-8.88303,-2.7193 -17.4595,-7.6984 -25.60804,-11.30732c-3.16538,-1.40192 -6.20274,-1.81152 -9.20832,-3.66229c-4.6065,-2.83658 -9.41525,-5.41208 -13.65185,-8.77619c-2.38759,-1.48275 -4.50693,-3.35661 -6.26848,-5.53206c-1.33642,-1.46151 -2.16011,-2.77394 -2.83086,-4.34992c-1.24786,-2.43898 -2.10682,-5.10992 -2.4951,-7.93102c-0.59054,-2.00009 -1.34115,-2.69366 -0.21172,-4.52359c0.39497,-9.26401 5.83146,-17.22263 13.63579,-21.2022c1.18529,-1.77064 2.11914,-1.37896 4.16585,-1.66951c2.27277,-0.67979 4.68139,-1.04496 7.1753,-1.04496c5.40808,0 10.41509,1.71721 14.50551,4.63611c3.3217,1.91387 6.48827,4.14049 9.55107,6.10863z" fill="#a500ff"/></g></g></svg>