<svg version="1.1" xmlns="http://www.w3.org/2000/svg" xmlns:xlink="http://www.w3.org/1999/xlink" width="44.88369" height="39.5527" viewBox="0,0,44.88369,39.5527"><g transform="translate(-240.84395,-54.53004)"><g data-paper-data="{&quot;isPaintingLayer&quot;:true}" fill="#0024ff" fill-rule="nonzero" stroke="none" stroke-width="0.5" stroke-linecap="butt" stroke-linejoin="miter" stroke-miterlimit="10" stroke-dasharray="" stroke-dashoffset="0" style="mix-blend-mode: normal"><path d="M267.05777,56.53423c0.1146,0.04284 0.22819,0.088 0.34071,0.13556c2.9362,1.24124 4.79526,3.70134 6.76957,6.00471c1.684,1.96466 3.76422,3.12545 5.55612,4.92908c1.84946,1.86155 3.29948,4.58115 4.33636,6.95746c0.47914,1.44871 2.1486,5.8122 1.53228,7.24258c-0.48075,1.11576 -2.07906,1.25796 -3.10618,1.90685c-2.25484,1.4245 -4.44501,2.96696 -6.66413,4.44636c-2.4237,1.61579 -5.19831,3.97171 -7.93458,5.00821c-2.55975,0.96964 -5.30461,0.71338 -7.96487,0.71338c-2.82302,0 -6.1726,0.47282 -8.96228,-0.02009c-4.39768,-0.77702 -7.3963,-4.7599 -8.76738,-8.68689c-1.75804,-4.50158 -1.88313,-9.48618 0.12789,-14.0219c0.6447,-1.45409 1.90516,-2.61113 2.40606,-4.12081c0.21667,-0.65306 -0.24726,-1.45069 0.06631,-2.06315c0.9987,-1.95064 3.73791,-3.90541 5.31616,-5.48366c0.5194,-0.5194 3.811,-3.85653 4.23894,-4.07144c0.65994,-0.33143 1.48604,0.0301 2.21327,-0.09835c0.64602,-0.1141 1.21943,-0.5179 1.86708,-0.62236c2.15357,-0.34733 4.95151,-0.02009 7.0952,-0.02009c0,0 1.5559,0 1.5559,1.5559c0,0.11054 -0.00785,0.21323 -0.02245,0.30863z"/></g></g></svg>